M48
; DRILL file {KiCad (6.0.0-0)} date Wednesday, August 17, 2022 at 03:39:11 PM
; FORMAT={-:-/ absolute / metric / decimal}
; #@! TF.CreationDate,2022-08-17T15:39:11+02:00
; #@! TF.GenerationSoftware,Kicad,Pcbnew,(6.0.0-0)
; #@! TF.FileFunction,Plated,1,2,PTH
FMAT,2
METRIC
; #@! TA.AperFunction,Plated,PTH,ViaDrill
T1C0.400
; #@! TA.AperFunction,Plated,PTH,ComponentDrill
T2C1.000
%
G90
G05
T1
X141.1Y-92.6
X142.4Y-89.2
X142.5Y-74.2
X142.6Y-70.0
X142.7Y-79.0
X147.8Y-96.4
X149.2Y-85.0
X150.0Y-80.8
X150.3Y-72.2
X150.4Y-70.2
X151.9Y-81.2
X153.1Y-74.8
X155.0Y-70.4
X156.4Y-70.4
X157.4Y-77.8
X157.4Y-79.2
X157.6Y-72.2
X159.8Y-89.5
X162.2Y-97.8
X163.8Y-95.0
X165.2Y-74.6
X165.4Y-71.9
T2
X132.22Y-67.996
X132.22Y-70.536
X132.22Y-73.076
X132.22Y-75.616
X132.22Y-78.156
X132.22Y-80.696
X132.22Y-83.236
X132.22Y-85.776
X132.22Y-88.316
X132.22Y-90.856
X132.22Y-93.396
X132.22Y-95.936
X167.78Y-67.996
X167.78Y-70.536
X167.78Y-73.076
X167.78Y-75.616
X167.78Y-78.156
X167.78Y-80.696
X167.78Y-83.236
X167.78Y-85.776
X167.78Y-88.316
X167.78Y-90.856
X167.78Y-93.396
X167.78Y-95.936
T0
M30
