%TF.GenerationSoftware,KiCad,Pcbnew,(6.0.0-0)*%
%TF.CreationDate,2022-08-17T21:28:39+02:00*%
%TF.ProjectId,wm8758b_codec_breakout,776d3837-3538-4625-9f63-6f6465635f62,rev?*%
%TF.SameCoordinates,Original*%
%TF.FileFunction,Copper,L2,Bot*%
%TF.FilePolarity,Positive*%
%FSLAX46Y46*%
G04 Gerber Fmt 4.6, Leading zero omitted, Abs format (unit mm)*
G04 Created by KiCad (PCBNEW (6.0.0-0)) date 2022-08-17 21:28:39*
%MOMM*%
%LPD*%
G01*
G04 APERTURE LIST*
%TA.AperFunction,ComponentPad*%
%ADD10R,1.700000X1.700000*%
%TD*%
%TA.AperFunction,ComponentPad*%
%ADD11O,1.700000X1.700000*%
%TD*%
%TA.AperFunction,ViaPad*%
%ADD12C,0.800000*%
%TD*%
%TA.AperFunction,Conductor*%
%ADD13C,0.250000*%
%TD*%
%TA.AperFunction,Conductor*%
%ADD14C,0.200000*%
%TD*%
G04 APERTURE END LIST*
D10*
%TO.P,J1,1,Pin_1*%
%TO.N,LIP*%
X132220000Y-67996000D03*
D11*
%TO.P,J1,2,Pin_2*%
%TO.N,LIN*%
X132220000Y-70536000D03*
%TO.P,J1,3,Pin_3*%
%TO.N,L2_GPIO2*%
X132220000Y-73076000D03*
%TO.P,J1,4,Pin_4*%
%TO.N,RIP*%
X132220000Y-75616000D03*
%TO.P,J1,5,Pin_5*%
%TO.N,RIN*%
X132220000Y-78156000D03*
%TO.P,J1,6,Pin_6*%
%TO.N,R2_GPIO3*%
X132220000Y-80696000D03*
%TO.P,J1,7,Pin_7*%
%TO.N,LRC*%
X132220000Y-83236000D03*
%TO.P,J1,8,Pin_8*%
%TO.N,BCLK*%
X132220000Y-85776000D03*
%TO.P,J1,9,Pin_9*%
%TO.N,ADCDAT*%
X132220000Y-88316000D03*
%TO.P,J1,10,Pin_10*%
%TO.N,DACDAT*%
X132220000Y-90856000D03*
%TO.P,J1,11,Pin_11*%
%TO.N,MCLK*%
X132220000Y-93396000D03*
%TO.P,J1,12,Pin_12*%
%TO.N,GND*%
X132220000Y-95936000D03*
%TD*%
D10*
%TO.P,J2,1,Pin_1*%
%TO.N,MICBIAS*%
X167780000Y-67996000D03*
D11*
%TO.P,J2,2,Pin_2*%
%TO.N,LOUT1*%
X167780000Y-70536000D03*
%TO.P,J2,3,Pin_3*%
%TO.N,ROUT1*%
X167780000Y-73076000D03*
%TO.P,J2,4,Pin_4*%
%TO.N,LOUT2*%
X167780000Y-75616000D03*
%TO.P,J2,5,Pin_5*%
%TO.N,ROUT2*%
X167780000Y-78156000D03*
%TO.P,J2,6,Pin_6*%
%TO.N,OUT3*%
X167780000Y-80696000D03*
%TO.P,J2,7,Pin_7*%
%TO.N,OUT4*%
X167780000Y-83236000D03*
%TO.P,J2,8,Pin_8*%
%TO.N,MODE*%
X167780000Y-85776000D03*
%TO.P,J2,9,Pin_9*%
%TO.N,SDIN*%
X167780000Y-88316000D03*
%TO.P,J2,10,Pin_10*%
%TO.N,SCLK*%
X167780000Y-90856000D03*
%TO.P,J2,11,Pin_11*%
%TO.N,CSB_GPIO1*%
X167780000Y-93396000D03*
%TO.P,J2,12,Pin_12*%
%TO.N,VDD*%
X167780000Y-95936000D03*
%TD*%
D12*
%TO.N,GND*%
X156400000Y-70400000D03*
X150000000Y-80800000D03*
X153100000Y-74800000D03*
X162200000Y-97800000D03*
X142600000Y-70000000D03*
X157400000Y-77800000D03*
X157400000Y-79200000D03*
X150400000Y-70200000D03*
X147800000Y-96400000D03*
X155000000Y-70400000D03*
X149200000Y-85000000D03*
%TO.N,VDD*%
X151900000Y-81200000D03*
X157600000Y-72200000D03*
X150300000Y-72200000D03*
%TO.N,RIN*%
X142400000Y-89200000D03*
X142700000Y-79000000D03*
%TO.N,LIN*%
X142500000Y-74200000D03*
X141100000Y-92600000D03*
%TO.N,LOUT1*%
X159800000Y-89500000D03*
X165400000Y-71900000D03*
%TO.N,ROUT1*%
X163800000Y-95000000D03*
X165200000Y-74600000D03*
%TD*%
D13*
%TO.N,VDD*%
X150300000Y-72200000D02*
X157600000Y-72200000D01*
X151900000Y-81200000D02*
X150300000Y-79600000D01*
X150300000Y-79600000D02*
X150300000Y-72200000D01*
D14*
%TO.N,RIN*%
X142400000Y-89200000D02*
X142400000Y-79300000D01*
X142400000Y-79300000D02*
X142700000Y-79000000D01*
%TO.N,LIN*%
X139800000Y-91300000D02*
X139800000Y-77200000D01*
X139800000Y-77200000D02*
X139800000Y-76900000D01*
X141100000Y-92600000D02*
X139800000Y-91300000D01*
X139800000Y-76900000D02*
X142500000Y-74200000D01*
D13*
%TO.N,LOUT1*%
X159800000Y-75300000D02*
X159800000Y-89500000D01*
X163200000Y-71900000D02*
X159800000Y-75300000D01*
X165400000Y-71900000D02*
X163200000Y-71900000D01*
%TO.N,ROUT1*%
X163800000Y-95000000D02*
X165200000Y-93600000D01*
X165200000Y-93600000D02*
X165200000Y-74600000D01*
%TD*%
%TA.AperFunction,Conductor*%
%TO.N,GND*%
G36*
X166970057Y-60509500D02*
G01*
X166984858Y-60511805D01*
X166984861Y-60511805D01*
X166993730Y-60513186D01*
X167010899Y-60510941D01*
X167034839Y-60510108D01*
X167292770Y-60525710D01*
X167307874Y-60527544D01*
X167378648Y-60540514D01*
X167588879Y-60579040D01*
X167603641Y-60582678D01*
X167876408Y-60667675D01*
X167890627Y-60673069D01*
X168151140Y-60790316D01*
X168164609Y-60797385D01*
X168409095Y-60945182D01*
X168421617Y-60953825D01*
X168646507Y-61130016D01*
X168657895Y-61140106D01*
X168859894Y-61342105D01*
X168869984Y-61353493D01*
X169046175Y-61578383D01*
X169054818Y-61590905D01*
X169202615Y-61835391D01*
X169209684Y-61848860D01*
X169228306Y-61890237D01*
X169326930Y-62109370D01*
X169332325Y-62123592D01*
X169411658Y-62378179D01*
X169417321Y-62396353D01*
X169420962Y-62411127D01*
X169472456Y-62692126D01*
X169474290Y-62707230D01*
X169489455Y-62957929D01*
X169488198Y-62984639D01*
X169488195Y-62984859D01*
X169486814Y-62993730D01*
X169487978Y-63002632D01*
X169487978Y-63002635D01*
X169490936Y-63025251D01*
X169492000Y-63041589D01*
X169492000Y-96950672D01*
X169490500Y-96970056D01*
X169486814Y-96993730D01*
X169488454Y-97006270D01*
X169489059Y-97010897D01*
X169489892Y-97034839D01*
X169474290Y-97292770D01*
X169472456Y-97307874D01*
X169423619Y-97574376D01*
X169420962Y-97588873D01*
X169417322Y-97603641D01*
X169339143Y-97854528D01*
X169332326Y-97876404D01*
X169326931Y-97890627D01*
X169248345Y-98065240D01*
X169209686Y-98151136D01*
X169202615Y-98164609D01*
X169054818Y-98409095D01*
X169046175Y-98421617D01*
X168869984Y-98646507D01*
X168859894Y-98657895D01*
X168657895Y-98859894D01*
X168646507Y-98869984D01*
X168421617Y-99046175D01*
X168409095Y-99054818D01*
X168164609Y-99202615D01*
X168151140Y-99209684D01*
X167890630Y-99326930D01*
X167876408Y-99332325D01*
X167603641Y-99417322D01*
X167588879Y-99420960D01*
X167378648Y-99459486D01*
X167307874Y-99472456D01*
X167292770Y-99474290D01*
X167042071Y-99489455D01*
X167015361Y-99488198D01*
X167015141Y-99488195D01*
X167006270Y-99486814D01*
X166997368Y-99487978D01*
X166997365Y-99487978D01*
X166974749Y-99490936D01*
X166958411Y-99492000D01*
X133049328Y-99492000D01*
X133029943Y-99490500D01*
X133015142Y-99488195D01*
X133015139Y-99488195D01*
X133006270Y-99486814D01*
X132989101Y-99489059D01*
X132965161Y-99489892D01*
X132707230Y-99474290D01*
X132692126Y-99472456D01*
X132621352Y-99459486D01*
X132411121Y-99420960D01*
X132396359Y-99417322D01*
X132123592Y-99332325D01*
X132109370Y-99326930D01*
X131848860Y-99209684D01*
X131835391Y-99202615D01*
X131590905Y-99054818D01*
X131578383Y-99046175D01*
X131353493Y-98869984D01*
X131342105Y-98859894D01*
X131140106Y-98657895D01*
X131130016Y-98646507D01*
X130953825Y-98421617D01*
X130945182Y-98409095D01*
X130797385Y-98164609D01*
X130790314Y-98151136D01*
X130751656Y-98065240D01*
X130673069Y-97890627D01*
X130667674Y-97876404D01*
X130660857Y-97854528D01*
X130634789Y-97770872D01*
X142887634Y-97770872D01*
X142889543Y-97800000D01*
X142900953Y-97974072D01*
X142951079Y-98171443D01*
X143036333Y-98356373D01*
X143153861Y-98522671D01*
X143157995Y-98526698D01*
X143287135Y-98652501D01*
X143299726Y-98664767D01*
X143304522Y-98667972D01*
X143304525Y-98667974D01*
X143372440Y-98713353D01*
X143469043Y-98777901D01*
X143474346Y-98780179D01*
X143474349Y-98780181D01*
X143558989Y-98816545D01*
X143656142Y-98858285D01*
X143729609Y-98874909D01*
X143849120Y-98901952D01*
X143849126Y-98901953D01*
X143854757Y-98903227D01*
X143860528Y-98903454D01*
X143860530Y-98903454D01*
X143921504Y-98905850D01*
X144058237Y-98911222D01*
X144160388Y-98896411D01*
X144254045Y-98882832D01*
X144254050Y-98882831D01*
X144259766Y-98882002D01*
X144265238Y-98880144D01*
X144265240Y-98880144D01*
X144447131Y-98818400D01*
X144447133Y-98818399D01*
X144452595Y-98816545D01*
X144630267Y-98717044D01*
X144786831Y-98586831D01*
X144917044Y-98430267D01*
X145016545Y-98252595D01*
X145042312Y-98176690D01*
X145080144Y-98065240D01*
X145080144Y-98065238D01*
X145082002Y-98059766D01*
X145082831Y-98054050D01*
X145082832Y-98054045D01*
X145106525Y-97890630D01*
X145111222Y-97858237D01*
X145112747Y-97800000D01*
X145110071Y-97770872D01*
X154887634Y-97770872D01*
X154889543Y-97800000D01*
X154900953Y-97974072D01*
X154951079Y-98171443D01*
X155036333Y-98356373D01*
X155153861Y-98522671D01*
X155157995Y-98526698D01*
X155287135Y-98652501D01*
X155299726Y-98664767D01*
X155304522Y-98667972D01*
X155304525Y-98667974D01*
X155372440Y-98713353D01*
X155469043Y-98777901D01*
X155474346Y-98780179D01*
X155474349Y-98780181D01*
X155558989Y-98816545D01*
X155656142Y-98858285D01*
X155729609Y-98874909D01*
X155849120Y-98901952D01*
X155849126Y-98901953D01*
X155854757Y-98903227D01*
X155860528Y-98903454D01*
X155860530Y-98903454D01*
X155921504Y-98905850D01*
X156058237Y-98911222D01*
X156160388Y-98896411D01*
X156254045Y-98882832D01*
X156254050Y-98882831D01*
X156259766Y-98882002D01*
X156265238Y-98880144D01*
X156265240Y-98880144D01*
X156447131Y-98818400D01*
X156447133Y-98818399D01*
X156452595Y-98816545D01*
X156630267Y-98717044D01*
X156786831Y-98586831D01*
X156917044Y-98430267D01*
X157016545Y-98252595D01*
X157042312Y-98176690D01*
X157080144Y-98065240D01*
X157080144Y-98065238D01*
X157082002Y-98059766D01*
X157082831Y-98054050D01*
X157082832Y-98054045D01*
X157106525Y-97890630D01*
X157111222Y-97858237D01*
X157112747Y-97800000D01*
X157094114Y-97597218D01*
X157091761Y-97588873D01*
X157040408Y-97406791D01*
X157038839Y-97401227D01*
X156948773Y-97218591D01*
X156939865Y-97206661D01*
X156830385Y-97060051D01*
X156826932Y-97055427D01*
X156677397Y-96917198D01*
X156505177Y-96808535D01*
X156316037Y-96733076D01*
X156310377Y-96731950D01*
X156310373Y-96731949D01*
X156121982Y-96694476D01*
X156121977Y-96694476D01*
X156116314Y-96693349D01*
X156110539Y-96693273D01*
X156110535Y-96693273D01*
X156008527Y-96691938D01*
X155912695Y-96690683D01*
X155906998Y-96691662D01*
X155906997Y-96691662D01*
X155890621Y-96694476D01*
X155712000Y-96725169D01*
X155520950Y-96795651D01*
X155515989Y-96798603D01*
X155515988Y-96798603D01*
X155350912Y-96896813D01*
X155350909Y-96896815D01*
X155345944Y-96899769D01*
X155192842Y-97034036D01*
X155189267Y-97038571D01*
X155189266Y-97038572D01*
X155175979Y-97055427D01*
X155066772Y-97193955D01*
X155064083Y-97199066D01*
X155064081Y-97199069D01*
X155026556Y-97270393D01*
X154971956Y-97374170D01*
X154970242Y-97379691D01*
X154970240Y-97379695D01*
X154961827Y-97406791D01*
X154911569Y-97568647D01*
X154887634Y-97770872D01*
X145110071Y-97770872D01*
X145094114Y-97597218D01*
X145091761Y-97588873D01*
X145040408Y-97406791D01*
X145038839Y-97401227D01*
X144948773Y-97218591D01*
X144939865Y-97206661D01*
X144830385Y-97060051D01*
X144826932Y-97055427D01*
X144677397Y-96917198D01*
X144505177Y-96808535D01*
X144316037Y-96733076D01*
X144310377Y-96731950D01*
X144310373Y-96731949D01*
X144121982Y-96694476D01*
X144121977Y-96694476D01*
X144116314Y-96693349D01*
X144110539Y-96693273D01*
X144110535Y-96693273D01*
X144008527Y-96691938D01*
X143912695Y-96690683D01*
X143906998Y-96691662D01*
X143906997Y-96691662D01*
X143890621Y-96694476D01*
X143712000Y-96725169D01*
X143520950Y-96795651D01*
X143515989Y-96798603D01*
X143515988Y-96798603D01*
X143350912Y-96896813D01*
X143350909Y-96896815D01*
X143345944Y-96899769D01*
X143192842Y-97034036D01*
X143189267Y-97038571D01*
X143189266Y-97038572D01*
X143175979Y-97055427D01*
X143066772Y-97193955D01*
X143064083Y-97199066D01*
X143064081Y-97199069D01*
X143026556Y-97270393D01*
X142971956Y-97374170D01*
X142970242Y-97379691D01*
X142970240Y-97379695D01*
X142961827Y-97406791D01*
X142911569Y-97568647D01*
X142887634Y-97770872D01*
X130634789Y-97770872D01*
X130582678Y-97603641D01*
X130579038Y-97588873D01*
X130576382Y-97574376D01*
X130527544Y-97307874D01*
X130525710Y-97292770D01*
X130510545Y-97042071D01*
X130511802Y-97015361D01*
X130511805Y-97015141D01*
X130513186Y-97006270D01*
X130511547Y-96993730D01*
X130509064Y-96974749D01*
X130508000Y-96958411D01*
X130508000Y-96203966D01*
X130888257Y-96203966D01*
X130918565Y-96338446D01*
X130921645Y-96348275D01*
X131001770Y-96545603D01*
X131006413Y-96554794D01*
X131117694Y-96736388D01*
X131123777Y-96744699D01*
X131263213Y-96905667D01*
X131270580Y-96912883D01*
X131434434Y-97048916D01*
X131442881Y-97054831D01*
X131626756Y-97162279D01*
X131636042Y-97166729D01*
X131835001Y-97242703D01*
X131844899Y-97245579D01*
X131948250Y-97266606D01*
X131962299Y-97265410D01*
X131966000Y-97255065D01*
X131966000Y-97254517D01*
X132474000Y-97254517D01*
X132478064Y-97268359D01*
X132491478Y-97270393D01*
X132498184Y-97269534D01*
X132508262Y-97267392D01*
X132712255Y-97206191D01*
X132721842Y-97202433D01*
X132913095Y-97108739D01*
X132921945Y-97103464D01*
X133095328Y-96979792D01*
X133103200Y-96973139D01*
X133254052Y-96822812D01*
X133260730Y-96814965D01*
X133385003Y-96642020D01*
X133390313Y-96633183D01*
X133484670Y-96442267D01*
X133488469Y-96432672D01*
X133550377Y-96228910D01*
X133552555Y-96218837D01*
X133553986Y-96207962D01*
X133551775Y-96193778D01*
X133538617Y-96190000D01*
X132492115Y-96190000D01*
X132476876Y-96194475D01*
X132475671Y-96195865D01*
X132474000Y-96203548D01*
X132474000Y-97254517D01*
X131966000Y-97254517D01*
X131966000Y-96208115D01*
X131961525Y-96192876D01*
X131960135Y-96191671D01*
X131952452Y-96190000D01*
X130903225Y-96190000D01*
X130889694Y-96193973D01*
X130888257Y-96203966D01*
X130508000Y-96203966D01*
X130508000Y-93362695D01*
X130857251Y-93362695D01*
X130857548Y-93367848D01*
X130857548Y-93367851D01*
X130865579Y-93507128D01*
X130870110Y-93585715D01*
X130871247Y-93590761D01*
X130871248Y-93590767D01*
X130889578Y-93672101D01*
X130919222Y-93803639D01*
X131003266Y-94010616D01*
X131119987Y-94201088D01*
X131266250Y-94369938D01*
X131438126Y-94512632D01*
X131511445Y-94555476D01*
X131511955Y-94555774D01*
X131560679Y-94607412D01*
X131573750Y-94677195D01*
X131547019Y-94742967D01*
X131506562Y-94776327D01*
X131498457Y-94780546D01*
X131489738Y-94786036D01*
X131319433Y-94913905D01*
X131311726Y-94920748D01*
X131164590Y-95074717D01*
X131158104Y-95082727D01*
X131038098Y-95258649D01*
X131033000Y-95267623D01*
X130943338Y-95460783D01*
X130939775Y-95470470D01*
X130884389Y-95670183D01*
X130885912Y-95678607D01*
X130898292Y-95682000D01*
X133538344Y-95682000D01*
X133551875Y-95678027D01*
X133553180Y-95668947D01*
X133511214Y-95501875D01*
X133507894Y-95492124D01*
X133422972Y-95296814D01*
X133418105Y-95287739D01*
X133302426Y-95108926D01*
X133296136Y-95100757D01*
X133204454Y-95000000D01*
X162886496Y-95000000D01*
X162887186Y-95006565D01*
X162894709Y-95078138D01*
X162906458Y-95189928D01*
X162965473Y-95371556D01*
X163060960Y-95536944D01*
X163188747Y-95678866D01*
X163343248Y-95791118D01*
X163349276Y-95793802D01*
X163349278Y-95793803D01*
X163511681Y-95866109D01*
X163517712Y-95868794D01*
X163611113Y-95888647D01*
X163698056Y-95907128D01*
X163698061Y-95907128D01*
X163704513Y-95908500D01*
X163895487Y-95908500D01*
X163901939Y-95907128D01*
X163901944Y-95907128D01*
X163922799Y-95902695D01*
X166417251Y-95902695D01*
X166417548Y-95907848D01*
X166417548Y-95907851D01*
X166423011Y-96002590D01*
X166430110Y-96125715D01*
X166431247Y-96130761D01*
X166431248Y-96130767D01*
X166445449Y-96193778D01*
X166479222Y-96343639D01*
X166563266Y-96550616D01*
X166565965Y-96555020D01*
X166676389Y-96735216D01*
X166679987Y-96741088D01*
X166826250Y-96909938D01*
X166998126Y-97052632D01*
X167191000Y-97165338D01*
X167399692Y-97245030D01*
X167404760Y-97246061D01*
X167404763Y-97246062D01*
X167499862Y-97265410D01*
X167618597Y-97289567D01*
X167623772Y-97289757D01*
X167623774Y-97289757D01*
X167836673Y-97297564D01*
X167836677Y-97297564D01*
X167841837Y-97297753D01*
X167846957Y-97297097D01*
X167846959Y-97297097D01*
X168058288Y-97270025D01*
X168058289Y-97270025D01*
X168063416Y-97269368D01*
X168068366Y-97267883D01*
X168272429Y-97206661D01*
X168272434Y-97206659D01*
X168277384Y-97205174D01*
X168477994Y-97106896D01*
X168659860Y-96977173D01*
X168818096Y-96819489D01*
X168877594Y-96736689D01*
X168945435Y-96642277D01*
X168948453Y-96638077D01*
X169047430Y-96437811D01*
X169112370Y-96224069D01*
X169141529Y-96002590D01*
X169143156Y-95936000D01*
X169124852Y-95713361D01*
X169070431Y-95496702D01*
X168981354Y-95291840D01*
X168860014Y-95104277D01*
X168709670Y-94939051D01*
X168705619Y-94935852D01*
X168705615Y-94935848D01*
X168538414Y-94803800D01*
X168538410Y-94803798D01*
X168534359Y-94800598D01*
X168493053Y-94777796D01*
X168443084Y-94727364D01*
X168428312Y-94657921D01*
X168453428Y-94591516D01*
X168480780Y-94564909D01*
X168524603Y-94533650D01*
X168659860Y-94437173D01*
X168818096Y-94279489D01*
X168877594Y-94196689D01*
X168945435Y-94102277D01*
X168948453Y-94098077D01*
X168951026Y-94092872D01*
X169045136Y-93902453D01*
X169045137Y-93902451D01*
X169047430Y-93897811D01*
X169112370Y-93684069D01*
X169141529Y-93462590D01*
X169143156Y-93396000D01*
X169124852Y-93173361D01*
X169070431Y-92956702D01*
X168981354Y-92751840D01*
X168922419Y-92660740D01*
X168862822Y-92568617D01*
X168862820Y-92568614D01*
X168860014Y-92564277D01*
X168709670Y-92399051D01*
X168705619Y-92395852D01*
X168705615Y-92395848D01*
X168538414Y-92263800D01*
X168538410Y-92263798D01*
X168534359Y-92260598D01*
X168493053Y-92237796D01*
X168443084Y-92187364D01*
X168428312Y-92117921D01*
X168453428Y-92051516D01*
X168480780Y-92024909D01*
X168544197Y-91979674D01*
X168659860Y-91897173D01*
X168695246Y-91861911D01*
X168793179Y-91764319D01*
X168818096Y-91739489D01*
X168826759Y-91727434D01*
X168945435Y-91562277D01*
X168948453Y-91558077D01*
X169036615Y-91379695D01*
X169045136Y-91362453D01*
X169045137Y-91362451D01*
X169047430Y-91357811D01*
X169095660Y-91199069D01*
X169110865Y-91149023D01*
X169110865Y-91149021D01*
X169112370Y-91144069D01*
X169141529Y-90922590D01*
X169141736Y-90914117D01*
X169143074Y-90859365D01*
X169143074Y-90859361D01*
X169143156Y-90856000D01*
X169124852Y-90633361D01*
X169070431Y-90416702D01*
X168981354Y-90211840D01*
X168889701Y-90070166D01*
X168862822Y-90028617D01*
X168862820Y-90028614D01*
X168860014Y-90024277D01*
X168709670Y-89859051D01*
X168705619Y-89855852D01*
X168705615Y-89855848D01*
X168538414Y-89723800D01*
X168538410Y-89723798D01*
X168534359Y-89720598D01*
X168493053Y-89697796D01*
X168443084Y-89647364D01*
X168428312Y-89577921D01*
X168453428Y-89511516D01*
X168480780Y-89484909D01*
X168524603Y-89453650D01*
X168659860Y-89357173D01*
X168818096Y-89199489D01*
X168877594Y-89116689D01*
X168945435Y-89022277D01*
X168948453Y-89018077D01*
X168952410Y-89010072D01*
X169045136Y-88822453D01*
X169045137Y-88822451D01*
X169047430Y-88817811D01*
X169094448Y-88663056D01*
X169110865Y-88609023D01*
X169110865Y-88609021D01*
X169112370Y-88604069D01*
X169141529Y-88382590D01*
X169143156Y-88316000D01*
X169124852Y-88093361D01*
X169070431Y-87876702D01*
X168981354Y-87671840D01*
X168860014Y-87484277D01*
X168709670Y-87319051D01*
X168705619Y-87315852D01*
X168705615Y-87315848D01*
X168538414Y-87183800D01*
X168538410Y-87183798D01*
X168534359Y-87180598D01*
X168493053Y-87157796D01*
X168443084Y-87107364D01*
X168428312Y-87037921D01*
X168453428Y-86971516D01*
X168480780Y-86944909D01*
X168524603Y-86913650D01*
X168659860Y-86817173D01*
X168818096Y-86659489D01*
X168877594Y-86576689D01*
X168945435Y-86482277D01*
X168948453Y-86478077D01*
X169047430Y-86277811D01*
X169112370Y-86064069D01*
X169141529Y-85842590D01*
X169143156Y-85776000D01*
X169124852Y-85553361D01*
X169070431Y-85336702D01*
X168981354Y-85131840D01*
X168860014Y-84944277D01*
X168709670Y-84779051D01*
X168705619Y-84775852D01*
X168705615Y-84775848D01*
X168538414Y-84643800D01*
X168538410Y-84643798D01*
X168534359Y-84640598D01*
X168493053Y-84617796D01*
X168443084Y-84567364D01*
X168428312Y-84497921D01*
X168453428Y-84431516D01*
X168480780Y-84404909D01*
X168524603Y-84373650D01*
X168659860Y-84277173D01*
X168818096Y-84119489D01*
X168877594Y-84036689D01*
X168945435Y-83942277D01*
X168948453Y-83938077D01*
X169047430Y-83737811D01*
X169112370Y-83524069D01*
X169141529Y-83302590D01*
X169143156Y-83236000D01*
X169124852Y-83013361D01*
X169070431Y-82796702D01*
X168981354Y-82591840D01*
X168860014Y-82404277D01*
X168709670Y-82239051D01*
X168705619Y-82235852D01*
X168705615Y-82235848D01*
X168538414Y-82103800D01*
X168538410Y-82103798D01*
X168534359Y-82100598D01*
X168493053Y-82077796D01*
X168443084Y-82027364D01*
X168428312Y-81957921D01*
X168453428Y-81891516D01*
X168480780Y-81864909D01*
X168524603Y-81833650D01*
X168659860Y-81737173D01*
X168818096Y-81579489D01*
X168823797Y-81571556D01*
X168945435Y-81402277D01*
X168948453Y-81398077D01*
X168952481Y-81389928D01*
X169045136Y-81202453D01*
X169045137Y-81202451D01*
X169047430Y-81197811D01*
X169112370Y-80984069D01*
X169141529Y-80762590D01*
X169143156Y-80696000D01*
X169124852Y-80473361D01*
X169070431Y-80256702D01*
X168981354Y-80051840D01*
X168888052Y-79907617D01*
X168862822Y-79868617D01*
X168862820Y-79868614D01*
X168860014Y-79864277D01*
X168709670Y-79699051D01*
X168705619Y-79695852D01*
X168705615Y-79695848D01*
X168538414Y-79563800D01*
X168538410Y-79563798D01*
X168534359Y-79560598D01*
X168493053Y-79537796D01*
X168443084Y-79487364D01*
X168428312Y-79417921D01*
X168453428Y-79351516D01*
X168480780Y-79324909D01*
X168536164Y-79285404D01*
X168659860Y-79197173D01*
X168667131Y-79189928D01*
X168814435Y-79043137D01*
X168818096Y-79039489D01*
X168841754Y-79006566D01*
X168945435Y-78862277D01*
X168948453Y-78858077D01*
X168972179Y-78810072D01*
X169045136Y-78662453D01*
X169045137Y-78662451D01*
X169047430Y-78657811D01*
X169106601Y-78463056D01*
X169110865Y-78449023D01*
X169110865Y-78449021D01*
X169112370Y-78444069D01*
X169141529Y-78222590D01*
X169143156Y-78156000D01*
X169124852Y-77933361D01*
X169070431Y-77716702D01*
X168981354Y-77511840D01*
X168860014Y-77324277D01*
X168709670Y-77159051D01*
X168705619Y-77155852D01*
X168705615Y-77155848D01*
X168538414Y-77023800D01*
X168538410Y-77023798D01*
X168534359Y-77020598D01*
X168493053Y-76997796D01*
X168443084Y-76947364D01*
X168428312Y-76877921D01*
X168453428Y-76811516D01*
X168480780Y-76784909D01*
X168542128Y-76741150D01*
X168659860Y-76657173D01*
X168818096Y-76499489D01*
X168859747Y-76441526D01*
X168945435Y-76322277D01*
X168948453Y-76318077D01*
X169047430Y-76117811D01*
X169112370Y-75904069D01*
X169141529Y-75682590D01*
X169143156Y-75616000D01*
X169124852Y-75393361D01*
X169070431Y-75176702D01*
X168981354Y-74971840D01*
X168907482Y-74857651D01*
X168862822Y-74788617D01*
X168862820Y-74788614D01*
X168860014Y-74784277D01*
X168709670Y-74619051D01*
X168705619Y-74615852D01*
X168705615Y-74615848D01*
X168538414Y-74483800D01*
X168538410Y-74483798D01*
X168534359Y-74480598D01*
X168493053Y-74457796D01*
X168443084Y-74407364D01*
X168428312Y-74337921D01*
X168453428Y-74271516D01*
X168480780Y-74244909D01*
X168543740Y-74200000D01*
X168659860Y-74117173D01*
X168708429Y-74068774D01*
X168814435Y-73963137D01*
X168818096Y-73959489D01*
X168877594Y-73876689D01*
X168945435Y-73782277D01*
X168948453Y-73778077D01*
X169047430Y-73577811D01*
X169098755Y-73408882D01*
X169110865Y-73369023D01*
X169110865Y-73369021D01*
X169112370Y-73364069D01*
X169141529Y-73142590D01*
X169142362Y-73108500D01*
X169143074Y-73079365D01*
X169143074Y-73079361D01*
X169143156Y-73076000D01*
X169124852Y-72853361D01*
X169070431Y-72636702D01*
X168981354Y-72431840D01*
X168860014Y-72244277D01*
X168709670Y-72079051D01*
X168705619Y-72075852D01*
X168705615Y-72075848D01*
X168538414Y-71943800D01*
X168538410Y-71943798D01*
X168534359Y-71940598D01*
X168493053Y-71917796D01*
X168443084Y-71867364D01*
X168428312Y-71797921D01*
X168453428Y-71731516D01*
X168480780Y-71704909D01*
X168539456Y-71663056D01*
X168659860Y-71577173D01*
X168670571Y-71566500D01*
X168803004Y-71434528D01*
X168818096Y-71419489D01*
X168871543Y-71345110D01*
X168945435Y-71242277D01*
X168948453Y-71238077D01*
X169047430Y-71037811D01*
X169112370Y-70824069D01*
X169141529Y-70602590D01*
X169143156Y-70536000D01*
X169124852Y-70313361D01*
X169070431Y-70096702D01*
X168981354Y-69891840D01*
X168860014Y-69704277D01*
X168856532Y-69700450D01*
X168712798Y-69542488D01*
X168681746Y-69478642D01*
X168690141Y-69408143D01*
X168735317Y-69353375D01*
X168761761Y-69339706D01*
X168868297Y-69299767D01*
X168876705Y-69296615D01*
X168993261Y-69209261D01*
X169080615Y-69092705D01*
X169131745Y-68956316D01*
X169138500Y-68894134D01*
X169138500Y-67097866D01*
X169131745Y-67035684D01*
X169080615Y-66899295D01*
X168993261Y-66782739D01*
X168876705Y-66695385D01*
X168740316Y-66644255D01*
X168678134Y-66637500D01*
X166881866Y-66637500D01*
X166819684Y-66644255D01*
X166683295Y-66695385D01*
X166566739Y-66782739D01*
X166479385Y-66899295D01*
X166428255Y-67035684D01*
X166421500Y-67097866D01*
X166421500Y-68894134D01*
X166428255Y-68956316D01*
X166479385Y-69092705D01*
X166566739Y-69209261D01*
X166683295Y-69296615D01*
X166691704Y-69299767D01*
X166691705Y-69299768D01*
X166800451Y-69340535D01*
X166857216Y-69383176D01*
X166881916Y-69449738D01*
X166866709Y-69519087D01*
X166847316Y-69545568D01*
X166720629Y-69678138D01*
X166594743Y-69862680D01*
X166500688Y-70065305D01*
X166440989Y-70280570D01*
X166417251Y-70502695D01*
X166417548Y-70507848D01*
X166417548Y-70507851D01*
X166423011Y-70602590D01*
X166430110Y-70725715D01*
X166431247Y-70730761D01*
X166431248Y-70730767D01*
X166451119Y-70818939D01*
X166479222Y-70943639D01*
X166563266Y-71150616D01*
X166565965Y-71155020D01*
X166675577Y-71333891D01*
X166679987Y-71341088D01*
X166826250Y-71509938D01*
X166998126Y-71652632D01*
X167007566Y-71658148D01*
X167071445Y-71695476D01*
X167120169Y-71747114D01*
X167133240Y-71816897D01*
X167106509Y-71882669D01*
X167066055Y-71916027D01*
X167053607Y-71922507D01*
X167049474Y-71925610D01*
X167049471Y-71925612D01*
X166936981Y-72010072D01*
X166874965Y-72056635D01*
X166720629Y-72218138D01*
X166594743Y-72402680D01*
X166579003Y-72436590D01*
X166512961Y-72578866D01*
X166500688Y-72605305D01*
X166440989Y-72820570D01*
X166417251Y-73042695D01*
X166417548Y-73047848D01*
X166417548Y-73047851D01*
X166423011Y-73142590D01*
X166430110Y-73265715D01*
X166431247Y-73270761D01*
X166431248Y-73270767D01*
X166435921Y-73291500D01*
X166479222Y-73483639D01*
X166563266Y-73690616D01*
X166565965Y-73695020D01*
X166638118Y-73812763D01*
X166679987Y-73881088D01*
X166826250Y-74049938D01*
X166998126Y-74192632D01*
X167059411Y-74228444D01*
X167071445Y-74235476D01*
X167120169Y-74287114D01*
X167133240Y-74356897D01*
X167106509Y-74422669D01*
X167066055Y-74456027D01*
X167053607Y-74462507D01*
X167049474Y-74465610D01*
X167049471Y-74465612D01*
X166879227Y-74593435D01*
X166874965Y-74596635D01*
X166720629Y-74758138D01*
X166594743Y-74942680D01*
X166500688Y-75145305D01*
X166440989Y-75360570D01*
X166417251Y-75582695D01*
X166417548Y-75587848D01*
X166417548Y-75587851D01*
X166423011Y-75682590D01*
X166430110Y-75805715D01*
X166431247Y-75810761D01*
X166431248Y-75810767D01*
X166451119Y-75898939D01*
X166479222Y-76023639D01*
X166563266Y-76230616D01*
X166679987Y-76421088D01*
X166826250Y-76589938D01*
X166998126Y-76732632D01*
X167012703Y-76741150D01*
X167071445Y-76775476D01*
X167120169Y-76827114D01*
X167133240Y-76896897D01*
X167106509Y-76962669D01*
X167066055Y-76996027D01*
X167053607Y-77002507D01*
X167049474Y-77005610D01*
X167049471Y-77005612D01*
X167025247Y-77023800D01*
X166874965Y-77136635D01*
X166720629Y-77298138D01*
X166594743Y-77482680D01*
X166500688Y-77685305D01*
X166440989Y-77900570D01*
X166417251Y-78122695D01*
X166417548Y-78127848D01*
X166417548Y-78127851D01*
X166423011Y-78222590D01*
X166430110Y-78345715D01*
X166431247Y-78350761D01*
X166431248Y-78350767D01*
X166451119Y-78438939D01*
X166479222Y-78563639D01*
X166563266Y-78770616D01*
X166679987Y-78961088D01*
X166826250Y-79129938D01*
X166998126Y-79272632D01*
X167019983Y-79285404D01*
X167071445Y-79315476D01*
X167120169Y-79367114D01*
X167133240Y-79436897D01*
X167106509Y-79502669D01*
X167066055Y-79536027D01*
X167058598Y-79539909D01*
X167053607Y-79542507D01*
X167049474Y-79545610D01*
X167049471Y-79545612D01*
X166910759Y-79649760D01*
X166874965Y-79676635D01*
X166871393Y-79680373D01*
X166734290Y-79823843D01*
X166720629Y-79838138D01*
X166717715Y-79842410D01*
X166717714Y-79842411D01*
X166705431Y-79860417D01*
X166594743Y-80022680D01*
X166500688Y-80225305D01*
X166440989Y-80440570D01*
X166417251Y-80662695D01*
X166417548Y-80667848D01*
X166417548Y-80667851D01*
X166423011Y-80762590D01*
X166430110Y-80885715D01*
X166431247Y-80890761D01*
X166431248Y-80890767D01*
X166451119Y-80978939D01*
X166479222Y-81103639D01*
X166563266Y-81310616D01*
X166679987Y-81501088D01*
X166826250Y-81669938D01*
X166998126Y-81812632D01*
X167068595Y-81853811D01*
X167071445Y-81855476D01*
X167120169Y-81907114D01*
X167133240Y-81976897D01*
X167106509Y-82042669D01*
X167066055Y-82076027D01*
X167053607Y-82082507D01*
X167049474Y-82085610D01*
X167049471Y-82085612D01*
X166879100Y-82213530D01*
X166874965Y-82216635D01*
X166720629Y-82378138D01*
X166594743Y-82562680D01*
X166500688Y-82765305D01*
X166440989Y-82980570D01*
X166417251Y-83202695D01*
X166417548Y-83207848D01*
X166417548Y-83207851D01*
X166423011Y-83302590D01*
X166430110Y-83425715D01*
X166431247Y-83430761D01*
X166431248Y-83430767D01*
X166451119Y-83518939D01*
X166479222Y-83643639D01*
X166563266Y-83850616D01*
X166679987Y-84041088D01*
X166826250Y-84209938D01*
X166998126Y-84352632D01*
X167068595Y-84393811D01*
X167071445Y-84395476D01*
X167120169Y-84447114D01*
X167133240Y-84516897D01*
X167106509Y-84582669D01*
X167066055Y-84616027D01*
X167053607Y-84622507D01*
X167049474Y-84625610D01*
X167049471Y-84625612D01*
X167025247Y-84643800D01*
X166874965Y-84756635D01*
X166720629Y-84918138D01*
X166594743Y-85102680D01*
X166500688Y-85305305D01*
X166440989Y-85520570D01*
X166417251Y-85742695D01*
X166417548Y-85747848D01*
X166417548Y-85747851D01*
X166423011Y-85842590D01*
X166430110Y-85965715D01*
X166431247Y-85970761D01*
X166431248Y-85970767D01*
X166451119Y-86058939D01*
X166479222Y-86183639D01*
X166563266Y-86390616D01*
X166679987Y-86581088D01*
X166826250Y-86749938D01*
X166998126Y-86892632D01*
X167068595Y-86933811D01*
X167071445Y-86935476D01*
X167120169Y-86987114D01*
X167133240Y-87056897D01*
X167106509Y-87122669D01*
X167066055Y-87156027D01*
X167053607Y-87162507D01*
X167049474Y-87165610D01*
X167049471Y-87165612D01*
X167025247Y-87183800D01*
X166874965Y-87296635D01*
X166720629Y-87458138D01*
X166594743Y-87642680D01*
X166500688Y-87845305D01*
X166440989Y-88060570D01*
X166417251Y-88282695D01*
X166417548Y-88287848D01*
X166417548Y-88287851D01*
X166423011Y-88382590D01*
X166430110Y-88505715D01*
X166431247Y-88510761D01*
X166431248Y-88510767D01*
X166440996Y-88554020D01*
X166479222Y-88723639D01*
X166563266Y-88930616D01*
X166679987Y-89121088D01*
X166826250Y-89289938D01*
X166998126Y-89432632D01*
X167068595Y-89473811D01*
X167071445Y-89475476D01*
X167120169Y-89527114D01*
X167133240Y-89596897D01*
X167106509Y-89662669D01*
X167066055Y-89696027D01*
X167053607Y-89702507D01*
X167049474Y-89705610D01*
X167049471Y-89705612D01*
X167007741Y-89736944D01*
X166874965Y-89836635D01*
X166871393Y-89840373D01*
X166724772Y-89993803D01*
X166720629Y-89998138D01*
X166594743Y-90182680D01*
X166500688Y-90385305D01*
X166440989Y-90600570D01*
X166417251Y-90822695D01*
X166417548Y-90827848D01*
X166417548Y-90827851D01*
X166422926Y-90921118D01*
X166430110Y-91045715D01*
X166431247Y-91050761D01*
X166431248Y-91050767D01*
X166438931Y-91084856D01*
X166479222Y-91263639D01*
X166563266Y-91470616D01*
X166565965Y-91475020D01*
X166650782Y-91613429D01*
X166679987Y-91661088D01*
X166826250Y-91829938D01*
X166998126Y-91972632D01*
X167010177Y-91979674D01*
X167071445Y-92015476D01*
X167120169Y-92067114D01*
X167133240Y-92136897D01*
X167106509Y-92202669D01*
X167066055Y-92236027D01*
X167053607Y-92242507D01*
X167049474Y-92245610D01*
X167049471Y-92245612D01*
X167025247Y-92263800D01*
X166874965Y-92376635D01*
X166871393Y-92380373D01*
X166735410Y-92522671D01*
X166720629Y-92538138D01*
X166594743Y-92722680D01*
X166550311Y-92818400D01*
X166531798Y-92858285D01*
X166500688Y-92925305D01*
X166440989Y-93140570D01*
X166417251Y-93362695D01*
X166417548Y-93367848D01*
X166417548Y-93367851D01*
X166425579Y-93507128D01*
X166430110Y-93585715D01*
X166431247Y-93590761D01*
X166431248Y-93590767D01*
X166449578Y-93672101D01*
X166479222Y-93803639D01*
X166563266Y-94010616D01*
X166679987Y-94201088D01*
X166826250Y-94369938D01*
X166998126Y-94512632D01*
X167068595Y-94553811D01*
X167071445Y-94555476D01*
X167120169Y-94607114D01*
X167133240Y-94676897D01*
X167106509Y-94742669D01*
X167066055Y-94776027D01*
X167053607Y-94782507D01*
X167049474Y-94785610D01*
X167049471Y-94785612D01*
X166879100Y-94913530D01*
X166874965Y-94916635D01*
X166720629Y-95078138D01*
X166717715Y-95082410D01*
X166717714Y-95082411D01*
X166705404Y-95100457D01*
X166594743Y-95262680D01*
X166500688Y-95465305D01*
X166440989Y-95680570D01*
X166417251Y-95902695D01*
X163922799Y-95902695D01*
X163988887Y-95888647D01*
X164082288Y-95868794D01*
X164088319Y-95866109D01*
X164250722Y-95793803D01*
X164250724Y-95793802D01*
X164256752Y-95791118D01*
X164411253Y-95678866D01*
X164539040Y-95536944D01*
X164634527Y-95371556D01*
X164693542Y-95189928D01*
X164710907Y-95024708D01*
X164737920Y-94959051D01*
X164747122Y-94948782D01*
X165592258Y-94103647D01*
X165600537Y-94096113D01*
X165607018Y-94092000D01*
X165653644Y-94042348D01*
X165656398Y-94039507D01*
X165676135Y-94019770D01*
X165678615Y-94016573D01*
X165686320Y-94007551D01*
X165711159Y-93981100D01*
X165716586Y-93975321D01*
X165720405Y-93968375D01*
X165720407Y-93968372D01*
X165726348Y-93957566D01*
X165737199Y-93941047D01*
X165744758Y-93931301D01*
X165749614Y-93925041D01*
X165752759Y-93917772D01*
X165752762Y-93917768D01*
X165767174Y-93884463D01*
X165772391Y-93873813D01*
X165793695Y-93835060D01*
X165798733Y-93815437D01*
X165805137Y-93796734D01*
X165810033Y-93785420D01*
X165810033Y-93785419D01*
X165813181Y-93778145D01*
X165814420Y-93770322D01*
X165814423Y-93770312D01*
X165820099Y-93734476D01*
X165822505Y-93722856D01*
X165831528Y-93687711D01*
X165831528Y-93687710D01*
X165833500Y-93680030D01*
X165833500Y-93659776D01*
X165835051Y-93640065D01*
X165836980Y-93627886D01*
X165838220Y-93620057D01*
X165834059Y-93576038D01*
X165833500Y-93564181D01*
X165833500Y-75302524D01*
X165853502Y-75234403D01*
X165865858Y-75218221D01*
X165939040Y-75136944D01*
X166034527Y-74971556D01*
X166093542Y-74789928D01*
X166094538Y-74780457D01*
X166112814Y-74606565D01*
X166113504Y-74600000D01*
X166101291Y-74483800D01*
X166094232Y-74416635D01*
X166094232Y-74416633D01*
X166093542Y-74410072D01*
X166034527Y-74228444D01*
X165939040Y-74063056D01*
X165897243Y-74016635D01*
X165815675Y-73926045D01*
X165815674Y-73926044D01*
X165811253Y-73921134D01*
X165656752Y-73808882D01*
X165650724Y-73806198D01*
X165650722Y-73806197D01*
X165488319Y-73733891D01*
X165488318Y-73733891D01*
X165482288Y-73731206D01*
X165388888Y-73711353D01*
X165301944Y-73692872D01*
X165301939Y-73692872D01*
X165295487Y-73691500D01*
X165104513Y-73691500D01*
X165098061Y-73692872D01*
X165098056Y-73692872D01*
X165011112Y-73711353D01*
X164917712Y-73731206D01*
X164911682Y-73733891D01*
X164911681Y-73733891D01*
X164749278Y-73806197D01*
X164749276Y-73806198D01*
X164743248Y-73808882D01*
X164588747Y-73921134D01*
X164584326Y-73926044D01*
X164584325Y-73926045D01*
X164502758Y-74016635D01*
X164460960Y-74063056D01*
X164365473Y-74228444D01*
X164306458Y-74410072D01*
X164305768Y-74416633D01*
X164305768Y-74416635D01*
X164298709Y-74483800D01*
X164286496Y-74600000D01*
X164287186Y-74606565D01*
X164305463Y-74780457D01*
X164306458Y-74789928D01*
X164365473Y-74971556D01*
X164460960Y-75136944D01*
X164534137Y-75218215D01*
X164564853Y-75282221D01*
X164566500Y-75302524D01*
X164566500Y-93285405D01*
X164546498Y-93353526D01*
X164529595Y-93374501D01*
X163849499Y-94054596D01*
X163787187Y-94088621D01*
X163760404Y-94091500D01*
X163704513Y-94091500D01*
X163698061Y-94092872D01*
X163698056Y-94092872D01*
X163611112Y-94111353D01*
X163517712Y-94131206D01*
X163511682Y-94133891D01*
X163511681Y-94133891D01*
X163349278Y-94206197D01*
X163349276Y-94206198D01*
X163343248Y-94208882D01*
X163188747Y-94321134D01*
X163184326Y-94326044D01*
X163184325Y-94326045D01*
X163141831Y-94373240D01*
X163060960Y-94463056D01*
X162965473Y-94628444D01*
X162906458Y-94810072D01*
X162905768Y-94816633D01*
X162905768Y-94816635D01*
X162892462Y-94943240D01*
X162886496Y-95000000D01*
X133204454Y-95000000D01*
X133152806Y-94943240D01*
X133145273Y-94936215D01*
X132978139Y-94804222D01*
X132969556Y-94798520D01*
X132932602Y-94778120D01*
X132882631Y-94727687D01*
X132867859Y-94658245D01*
X132892975Y-94591839D01*
X132920327Y-94565232D01*
X132943797Y-94548491D01*
X133099860Y-94437173D01*
X133258096Y-94279489D01*
X133317594Y-94196689D01*
X133385435Y-94102277D01*
X133388453Y-94098077D01*
X133391026Y-94092872D01*
X133485136Y-93902453D01*
X133485137Y-93902451D01*
X133487430Y-93897811D01*
X133552370Y-93684069D01*
X133581529Y-93462590D01*
X133583156Y-93396000D01*
X133564852Y-93173361D01*
X133510431Y-92956702D01*
X133421354Y-92751840D01*
X133362419Y-92660740D01*
X133302822Y-92568617D01*
X133302820Y-92568614D01*
X133300014Y-92564277D01*
X133149670Y-92399051D01*
X133145619Y-92395852D01*
X133145615Y-92395848D01*
X132978414Y-92263800D01*
X132978410Y-92263798D01*
X132974359Y-92260598D01*
X132933053Y-92237796D01*
X132883084Y-92187364D01*
X132868312Y-92117921D01*
X132893428Y-92051516D01*
X132920780Y-92024909D01*
X132984197Y-91979674D01*
X133099860Y-91897173D01*
X133135246Y-91861911D01*
X133233179Y-91764319D01*
X133258096Y-91739489D01*
X133266759Y-91727434D01*
X133385435Y-91562277D01*
X133388453Y-91558077D01*
X133476615Y-91379695D01*
X133485136Y-91362453D01*
X133485137Y-91362451D01*
X133487430Y-91357811D01*
X133504995Y-91300000D01*
X139186250Y-91300000D01*
X139191500Y-91339880D01*
X139191500Y-91339885D01*
X139196014Y-91374170D01*
X139207162Y-91458851D01*
X139268476Y-91606876D01*
X139273503Y-91613427D01*
X139273504Y-91613429D01*
X139341520Y-91702069D01*
X139341526Y-91702075D01*
X139366013Y-91733987D01*
X139372568Y-91739017D01*
X139391379Y-91753452D01*
X139403770Y-91764319D01*
X140150281Y-92510830D01*
X140184307Y-92573142D01*
X140186841Y-92596716D01*
X140186496Y-92600000D01*
X140187186Y-92606565D01*
X140205434Y-92780181D01*
X140206458Y-92789928D01*
X140265473Y-92971556D01*
X140360960Y-93136944D01*
X140488747Y-93278866D01*
X140643248Y-93391118D01*
X140649276Y-93393802D01*
X140649278Y-93393803D01*
X140811230Y-93465908D01*
X140817712Y-93468794D01*
X140911113Y-93488647D01*
X140998056Y-93507128D01*
X140998061Y-93507128D01*
X141004513Y-93508500D01*
X141195487Y-93508500D01*
X141201939Y-93507128D01*
X141201944Y-93507128D01*
X141288887Y-93488647D01*
X141382288Y-93468794D01*
X141388770Y-93465908D01*
X141550722Y-93393803D01*
X141550724Y-93393802D01*
X141556752Y-93391118D01*
X141711253Y-93278866D01*
X141839040Y-93136944D01*
X141934527Y-92971556D01*
X141993542Y-92789928D01*
X141994567Y-92780181D01*
X142012814Y-92606565D01*
X142013504Y-92600000D01*
X142005800Y-92526698D01*
X141994232Y-92416635D01*
X141994232Y-92416633D01*
X141993542Y-92410072D01*
X141934527Y-92228444D01*
X141839040Y-92063056D01*
X141830927Y-92054045D01*
X141715675Y-91926045D01*
X141715674Y-91926044D01*
X141711253Y-91921134D01*
X141585733Y-91829938D01*
X141562094Y-91812763D01*
X141562093Y-91812762D01*
X141556752Y-91808882D01*
X141550724Y-91806198D01*
X141550722Y-91806197D01*
X141471380Y-91770872D01*
X142887634Y-91770872D01*
X142889543Y-91800000D01*
X142900953Y-91974072D01*
X142951079Y-92171443D01*
X143036333Y-92356373D01*
X143153861Y-92522671D01*
X143299726Y-92664767D01*
X143304522Y-92667972D01*
X143304525Y-92667974D01*
X143372440Y-92713353D01*
X143469043Y-92777901D01*
X143474346Y-92780179D01*
X143474349Y-92780181D01*
X143558989Y-92816545D01*
X143656142Y-92858285D01*
X143729609Y-92874909D01*
X143849120Y-92901952D01*
X143849126Y-92901953D01*
X143854757Y-92903227D01*
X143860528Y-92903454D01*
X143860530Y-92903454D01*
X143921504Y-92905850D01*
X144058237Y-92911222D01*
X144160388Y-92896411D01*
X144254045Y-92882832D01*
X144254050Y-92882831D01*
X144259766Y-92882002D01*
X144265238Y-92880144D01*
X144265240Y-92880144D01*
X144447131Y-92818400D01*
X144447133Y-92818399D01*
X144452595Y-92816545D01*
X144630267Y-92717044D01*
X144786831Y-92586831D01*
X144917044Y-92430267D01*
X145016545Y-92252595D01*
X145018916Y-92245612D01*
X145080144Y-92065240D01*
X145080144Y-92065238D01*
X145082002Y-92059766D01*
X145082831Y-92054050D01*
X145082832Y-92054045D01*
X145105142Y-91900171D01*
X145111222Y-91858237D01*
X145112747Y-91800000D01*
X145110071Y-91770872D01*
X154887634Y-91770872D01*
X154889543Y-91800000D01*
X154900953Y-91974072D01*
X154951079Y-92171443D01*
X155036333Y-92356373D01*
X155153861Y-92522671D01*
X155299726Y-92664767D01*
X155304522Y-92667972D01*
X155304525Y-92667974D01*
X155372440Y-92713353D01*
X155469043Y-92777901D01*
X155474346Y-92780179D01*
X155474349Y-92780181D01*
X155558989Y-92816545D01*
X155656142Y-92858285D01*
X155729609Y-92874909D01*
X155849120Y-92901952D01*
X155849126Y-92901953D01*
X155854757Y-92903227D01*
X155860528Y-92903454D01*
X155860530Y-92903454D01*
X155921504Y-92905850D01*
X156058237Y-92911222D01*
X156160388Y-92896411D01*
X156254045Y-92882832D01*
X156254050Y-92882831D01*
X156259766Y-92882002D01*
X156265238Y-92880144D01*
X156265240Y-92880144D01*
X156447131Y-92818400D01*
X156447133Y-92818399D01*
X156452595Y-92816545D01*
X156630267Y-92717044D01*
X156786831Y-92586831D01*
X156917044Y-92430267D01*
X157016545Y-92252595D01*
X157018916Y-92245612D01*
X157080144Y-92065240D01*
X157080144Y-92065238D01*
X157082002Y-92059766D01*
X157082831Y-92054050D01*
X157082832Y-92054045D01*
X157105142Y-91900171D01*
X157111222Y-91858237D01*
X157112747Y-91800000D01*
X157094114Y-91597218D01*
X157038839Y-91401227D01*
X156948773Y-91218591D01*
X156926989Y-91189418D01*
X156830385Y-91060051D01*
X156826932Y-91055427D01*
X156677397Y-90917198D01*
X156645089Y-90896813D01*
X156510057Y-90811614D01*
X156505177Y-90808535D01*
X156316037Y-90733076D01*
X156310377Y-90731950D01*
X156310373Y-90731949D01*
X156121982Y-90694476D01*
X156121977Y-90694476D01*
X156116314Y-90693349D01*
X156110539Y-90693273D01*
X156110535Y-90693273D01*
X156008527Y-90691938D01*
X155912695Y-90690683D01*
X155906998Y-90691662D01*
X155906997Y-90691662D01*
X155890621Y-90694476D01*
X155712000Y-90725169D01*
X155520950Y-90795651D01*
X155515989Y-90798603D01*
X155515988Y-90798603D01*
X155350912Y-90896813D01*
X155350909Y-90896815D01*
X155345944Y-90899769D01*
X155192842Y-91034036D01*
X155066772Y-91193955D01*
X155064083Y-91199066D01*
X155064081Y-91199069D01*
X155031961Y-91260120D01*
X154971956Y-91374170D01*
X154970242Y-91379691D01*
X154970240Y-91379695D01*
X154913547Y-91562277D01*
X154911569Y-91568647D01*
X154887634Y-91770872D01*
X145110071Y-91770872D01*
X145094114Y-91597218D01*
X145038839Y-91401227D01*
X144948773Y-91218591D01*
X144926989Y-91189418D01*
X144830385Y-91060051D01*
X144826932Y-91055427D01*
X144677397Y-90917198D01*
X144645089Y-90896813D01*
X144510057Y-90811614D01*
X144505177Y-90808535D01*
X144316037Y-90733076D01*
X144310377Y-90731950D01*
X144310373Y-90731949D01*
X144121982Y-90694476D01*
X144121977Y-90694476D01*
X144116314Y-90693349D01*
X144110539Y-90693273D01*
X144110535Y-90693273D01*
X144008527Y-90691938D01*
X143912695Y-90690683D01*
X143906998Y-90691662D01*
X143906997Y-90691662D01*
X143890621Y-90694476D01*
X143712000Y-90725169D01*
X143520950Y-90795651D01*
X143515989Y-90798603D01*
X143515988Y-90798603D01*
X143350912Y-90896813D01*
X143350909Y-90896815D01*
X143345944Y-90899769D01*
X143192842Y-91034036D01*
X143066772Y-91193955D01*
X143064083Y-91199066D01*
X143064081Y-91199069D01*
X143031961Y-91260120D01*
X142971956Y-91374170D01*
X142970242Y-91379691D01*
X142970240Y-91379695D01*
X142913547Y-91562277D01*
X142911569Y-91568647D01*
X142887634Y-91770872D01*
X141471380Y-91770872D01*
X141388319Y-91733891D01*
X141388318Y-91733891D01*
X141382288Y-91731206D01*
X141288888Y-91711353D01*
X141201944Y-91692872D01*
X141201939Y-91692872D01*
X141195487Y-91691500D01*
X141104239Y-91691500D01*
X141036118Y-91671498D01*
X141015144Y-91654595D01*
X140445405Y-91084856D01*
X140411379Y-91022544D01*
X140408500Y-90995761D01*
X140408500Y-89200000D01*
X141486496Y-89200000D01*
X141506458Y-89389928D01*
X141565473Y-89571556D01*
X141660960Y-89736944D01*
X141665378Y-89741851D01*
X141665379Y-89741852D01*
X141774344Y-89862870D01*
X141788747Y-89878866D01*
X141943248Y-89991118D01*
X141949276Y-89993802D01*
X141949278Y-89993803D01*
X142033332Y-90031226D01*
X142117712Y-90068794D01*
X142211112Y-90088647D01*
X142298056Y-90107128D01*
X142298061Y-90107128D01*
X142304513Y-90108500D01*
X142495487Y-90108500D01*
X142501939Y-90107128D01*
X142501944Y-90107128D01*
X142588887Y-90088647D01*
X142682288Y-90068794D01*
X142766668Y-90031226D01*
X142850722Y-89993803D01*
X142850724Y-89993802D01*
X142856752Y-89991118D01*
X143011253Y-89878866D01*
X143025656Y-89862870D01*
X143134621Y-89741852D01*
X143134622Y-89741851D01*
X143139040Y-89736944D01*
X143234527Y-89571556D01*
X143257777Y-89500000D01*
X158886496Y-89500000D01*
X158887186Y-89506565D01*
X158898335Y-89612638D01*
X158906458Y-89689928D01*
X158965473Y-89871556D01*
X159060960Y-90036944D01*
X159188747Y-90178866D01*
X159343248Y-90291118D01*
X159349276Y-90293802D01*
X159349278Y-90293803D01*
X159511681Y-90366109D01*
X159517712Y-90368794D01*
X159595390Y-90385305D01*
X159698056Y-90407128D01*
X159698061Y-90407128D01*
X159704513Y-90408500D01*
X159895487Y-90408500D01*
X159901939Y-90407128D01*
X159901944Y-90407128D01*
X160004610Y-90385305D01*
X160082288Y-90368794D01*
X160088319Y-90366109D01*
X160250722Y-90293803D01*
X160250724Y-90293802D01*
X160256752Y-90291118D01*
X160411253Y-90178866D01*
X160539040Y-90036944D01*
X160634527Y-89871556D01*
X160693542Y-89689928D01*
X160701666Y-89612638D01*
X160712814Y-89506565D01*
X160713504Y-89500000D01*
X160698808Y-89360171D01*
X160694232Y-89316635D01*
X160694232Y-89316633D01*
X160693542Y-89310072D01*
X160634527Y-89128444D01*
X160539040Y-88963056D01*
X160465863Y-88881785D01*
X160435147Y-88817779D01*
X160433500Y-88797476D01*
X160433500Y-75614594D01*
X160453502Y-75546473D01*
X160470405Y-75525499D01*
X163425500Y-72570405D01*
X163487812Y-72536379D01*
X163514595Y-72533500D01*
X164691800Y-72533500D01*
X164759921Y-72553502D01*
X164779147Y-72569843D01*
X164779420Y-72569540D01*
X164784332Y-72573963D01*
X164788747Y-72578866D01*
X164943248Y-72691118D01*
X164949276Y-72693802D01*
X164949278Y-72693803D01*
X165057199Y-72741852D01*
X165117712Y-72768794D01*
X165211112Y-72788647D01*
X165298056Y-72807128D01*
X165298061Y-72807128D01*
X165304513Y-72808500D01*
X165495487Y-72808500D01*
X165501939Y-72807128D01*
X165501944Y-72807128D01*
X165588888Y-72788647D01*
X165682288Y-72768794D01*
X165742801Y-72741852D01*
X165850722Y-72693803D01*
X165850724Y-72693802D01*
X165856752Y-72691118D01*
X166011253Y-72578866D01*
X166034091Y-72553502D01*
X166134621Y-72441852D01*
X166134622Y-72441851D01*
X166139040Y-72436944D01*
X166234527Y-72271556D01*
X166293542Y-72089928D01*
X166296649Y-72060373D01*
X166312814Y-71906565D01*
X166313504Y-71900000D01*
X166293542Y-71710072D01*
X166234527Y-71528444D01*
X166139040Y-71363056D01*
X166122882Y-71345110D01*
X166015675Y-71226045D01*
X166015674Y-71226044D01*
X166011253Y-71221134D01*
X165856752Y-71108882D01*
X165850724Y-71106198D01*
X165850722Y-71106197D01*
X165688319Y-71033891D01*
X165688318Y-71033891D01*
X165682288Y-71031206D01*
X165588888Y-71011353D01*
X165501944Y-70992872D01*
X165501939Y-70992872D01*
X165495487Y-70991500D01*
X165304513Y-70991500D01*
X165298061Y-70992872D01*
X165298056Y-70992872D01*
X165211112Y-71011353D01*
X165117712Y-71031206D01*
X165111682Y-71033891D01*
X165111681Y-71033891D01*
X164949278Y-71106197D01*
X164949276Y-71106198D01*
X164943248Y-71108882D01*
X164788747Y-71221134D01*
X164784332Y-71226037D01*
X164779420Y-71230460D01*
X164778295Y-71229211D01*
X164724986Y-71262051D01*
X164691800Y-71266500D01*
X163278767Y-71266500D01*
X163267584Y-71265973D01*
X163260091Y-71264298D01*
X163252165Y-71264547D01*
X163252164Y-71264547D01*
X163192014Y-71266438D01*
X163188055Y-71266500D01*
X163160144Y-71266500D01*
X163156210Y-71266997D01*
X163156209Y-71266997D01*
X163156144Y-71267005D01*
X163144307Y-71267938D01*
X163112490Y-71268938D01*
X163108029Y-71269078D01*
X163100110Y-71269327D01*
X163082454Y-71274456D01*
X163080658Y-71274978D01*
X163061306Y-71278986D01*
X163054235Y-71279880D01*
X163041203Y-71281526D01*
X163033834Y-71284443D01*
X163033832Y-71284444D01*
X163000097Y-71297800D01*
X162988869Y-71301645D01*
X162946407Y-71313982D01*
X162939584Y-71318017D01*
X162939582Y-71318018D01*
X162928972Y-71324293D01*
X162911224Y-71332988D01*
X162892383Y-71340448D01*
X162885967Y-71345110D01*
X162885966Y-71345110D01*
X162856613Y-71366436D01*
X162846693Y-71372952D01*
X162815465Y-71391420D01*
X162815462Y-71391422D01*
X162808638Y-71395458D01*
X162794317Y-71409779D01*
X162779284Y-71422619D01*
X162762893Y-71434528D01*
X162757842Y-71440634D01*
X162734702Y-71468605D01*
X162726712Y-71477384D01*
X159407747Y-74796348D01*
X159399461Y-74803888D01*
X159392982Y-74808000D01*
X159387557Y-74813777D01*
X159346357Y-74857651D01*
X159343602Y-74860493D01*
X159323865Y-74880230D01*
X159321385Y-74883427D01*
X159313682Y-74892447D01*
X159283414Y-74924679D01*
X159279595Y-74931625D01*
X159279593Y-74931628D01*
X159273652Y-74942434D01*
X159262801Y-74958953D01*
X159250386Y-74974959D01*
X159247241Y-74982228D01*
X159247238Y-74982232D01*
X159232826Y-75015537D01*
X159227609Y-75026187D01*
X159206305Y-75064940D01*
X159204334Y-75072615D01*
X159204334Y-75072616D01*
X159201267Y-75084562D01*
X159194863Y-75103266D01*
X159186819Y-75121855D01*
X159185580Y-75129678D01*
X159185577Y-75129688D01*
X159179901Y-75165524D01*
X159177495Y-75177144D01*
X159168472Y-75212289D01*
X159166500Y-75219970D01*
X159166500Y-75240224D01*
X159164949Y-75259934D01*
X159161780Y-75279943D01*
X159162526Y-75287835D01*
X159165941Y-75323961D01*
X159166500Y-75335819D01*
X159166500Y-88797476D01*
X159146498Y-88865597D01*
X159134142Y-88881779D01*
X159060960Y-88963056D01*
X158965473Y-89128444D01*
X158906458Y-89310072D01*
X158905768Y-89316633D01*
X158905768Y-89316635D01*
X158901192Y-89360171D01*
X158886496Y-89500000D01*
X143257777Y-89500000D01*
X143293542Y-89389928D01*
X143313504Y-89200000D01*
X143294825Y-89022277D01*
X143294232Y-89016635D01*
X143294232Y-89016633D01*
X143293542Y-89010072D01*
X143234527Y-88828444D01*
X143139040Y-88663056D01*
X143040864Y-88554020D01*
X143010146Y-88490013D01*
X143008500Y-88469710D01*
X143008500Y-79938950D01*
X143028502Y-79870829D01*
X143083251Y-79823843D01*
X143150722Y-79793803D01*
X143150724Y-79793802D01*
X143156752Y-79791118D01*
X143311253Y-79678866D01*
X143417742Y-79560598D01*
X143434621Y-79541852D01*
X143434622Y-79541851D01*
X143439040Y-79536944D01*
X143534527Y-79371556D01*
X143593542Y-79189928D01*
X143613504Y-79000000D01*
X143599029Y-78862277D01*
X143594232Y-78816635D01*
X143594232Y-78816633D01*
X143593542Y-78810072D01*
X143534527Y-78628444D01*
X143439040Y-78463056D01*
X143311253Y-78321134D01*
X143180186Y-78225908D01*
X143162094Y-78212763D01*
X143162093Y-78212762D01*
X143156752Y-78208882D01*
X143150724Y-78206198D01*
X143150722Y-78206197D01*
X142988319Y-78133891D01*
X142988318Y-78133891D01*
X142982288Y-78131206D01*
X142888888Y-78111353D01*
X142801944Y-78092872D01*
X142801939Y-78092872D01*
X142795487Y-78091500D01*
X142604513Y-78091500D01*
X142598061Y-78092872D01*
X142598056Y-78092872D01*
X142511112Y-78111353D01*
X142417712Y-78131206D01*
X142411682Y-78133891D01*
X142411681Y-78133891D01*
X142249278Y-78206197D01*
X142249276Y-78206198D01*
X142243248Y-78208882D01*
X142237907Y-78212762D01*
X142237906Y-78212763D01*
X142219814Y-78225908D01*
X142088747Y-78321134D01*
X141960960Y-78463056D01*
X141865473Y-78628444D01*
X141806458Y-78810072D01*
X141805768Y-78816633D01*
X141805768Y-78816635D01*
X141800971Y-78862277D01*
X141786496Y-79000000D01*
X141787186Y-79006565D01*
X141787186Y-79006566D01*
X141802361Y-79150948D01*
X141801973Y-79180564D01*
X141799392Y-79200171D01*
X141791500Y-79260115D01*
X141791500Y-79260120D01*
X141786250Y-79300000D01*
X141787328Y-79308188D01*
X141790422Y-79331690D01*
X141791500Y-79348136D01*
X141791500Y-88469710D01*
X141771498Y-88537831D01*
X141759136Y-88554020D01*
X141660960Y-88663056D01*
X141565473Y-88828444D01*
X141506458Y-89010072D01*
X141505768Y-89016633D01*
X141505768Y-89016635D01*
X141505175Y-89022277D01*
X141486496Y-89200000D01*
X140408500Y-89200000D01*
X140408500Y-77204239D01*
X140428502Y-77136118D01*
X140445405Y-77115144D01*
X142415144Y-75145405D01*
X142477456Y-75111379D01*
X142504239Y-75108500D01*
X142595487Y-75108500D01*
X142601939Y-75107128D01*
X142601944Y-75107128D01*
X142688887Y-75088647D01*
X142782288Y-75068794D01*
X142788319Y-75066109D01*
X142950722Y-74993803D01*
X142950724Y-74993802D01*
X142956752Y-74991118D01*
X142968983Y-74982232D01*
X143023421Y-74942680D01*
X143111253Y-74878866D01*
X143178359Y-74804337D01*
X143234621Y-74741852D01*
X143234622Y-74741851D01*
X143239040Y-74736944D01*
X143314315Y-74606565D01*
X143331223Y-74577279D01*
X143331224Y-74577278D01*
X143334527Y-74571556D01*
X143393542Y-74389928D01*
X143405988Y-74271516D01*
X143412814Y-74206565D01*
X143413504Y-74200000D01*
X143397732Y-74049938D01*
X143394232Y-74016635D01*
X143394232Y-74016633D01*
X143393542Y-74010072D01*
X143334527Y-73828444D01*
X143239040Y-73663056D01*
X143111253Y-73521134D01*
X142956752Y-73408882D01*
X142950724Y-73406198D01*
X142950722Y-73406197D01*
X142788319Y-73333891D01*
X142788318Y-73333891D01*
X142782288Y-73331206D01*
X142688887Y-73311353D01*
X142601944Y-73292872D01*
X142601939Y-73292872D01*
X142595487Y-73291500D01*
X142404513Y-73291500D01*
X142398061Y-73292872D01*
X142398056Y-73292872D01*
X142311113Y-73311353D01*
X142217712Y-73331206D01*
X142211682Y-73333891D01*
X142211681Y-73333891D01*
X142049278Y-73406197D01*
X142049276Y-73406198D01*
X142043248Y-73408882D01*
X141888747Y-73521134D01*
X141760960Y-73663056D01*
X141665473Y-73828444D01*
X141606458Y-74010072D01*
X141605768Y-74016633D01*
X141605768Y-74016635D01*
X141602268Y-74049938D01*
X141586496Y-74200000D01*
X141586684Y-74201786D01*
X141567184Y-74268196D01*
X141550281Y-74289170D01*
X139403766Y-76435685D01*
X139391375Y-76446552D01*
X139366013Y-76466013D01*
X139341526Y-76497925D01*
X139341523Y-76497928D01*
X139341517Y-76497936D01*
X139273919Y-76586031D01*
X139268476Y-76593124D01*
X139210690Y-76732632D01*
X139207162Y-76741150D01*
X139191500Y-76860115D01*
X139191500Y-76860120D01*
X139186250Y-76900000D01*
X139187328Y-76908188D01*
X139190422Y-76931690D01*
X139191500Y-76948136D01*
X139191500Y-91251864D01*
X139190422Y-91268307D01*
X139186250Y-91300000D01*
X133504995Y-91300000D01*
X133535660Y-91199069D01*
X133550865Y-91149023D01*
X133550865Y-91149021D01*
X133552370Y-91144069D01*
X133581529Y-90922590D01*
X133581736Y-90914117D01*
X133583074Y-90859365D01*
X133583074Y-90859361D01*
X133583156Y-90856000D01*
X133564852Y-90633361D01*
X133510431Y-90416702D01*
X133421354Y-90211840D01*
X133329701Y-90070166D01*
X133302822Y-90028617D01*
X133302820Y-90028614D01*
X133300014Y-90024277D01*
X133149670Y-89859051D01*
X133145619Y-89855852D01*
X133145615Y-89855848D01*
X132978414Y-89723800D01*
X132978410Y-89723798D01*
X132974359Y-89720598D01*
X132933053Y-89697796D01*
X132883084Y-89647364D01*
X132868312Y-89577921D01*
X132893428Y-89511516D01*
X132920780Y-89484909D01*
X132964603Y-89453650D01*
X133099860Y-89357173D01*
X133258096Y-89199489D01*
X133317594Y-89116689D01*
X133385435Y-89022277D01*
X133388453Y-89018077D01*
X133392410Y-89010072D01*
X133485136Y-88822453D01*
X133485137Y-88822451D01*
X133487430Y-88817811D01*
X133534448Y-88663056D01*
X133550865Y-88609023D01*
X133550865Y-88609021D01*
X133552370Y-88604069D01*
X133581529Y-88382590D01*
X133583156Y-88316000D01*
X133564852Y-88093361D01*
X133510431Y-87876702D01*
X133421354Y-87671840D01*
X133300014Y-87484277D01*
X133149670Y-87319051D01*
X133145619Y-87315852D01*
X133145615Y-87315848D01*
X132978414Y-87183800D01*
X132978410Y-87183798D01*
X132974359Y-87180598D01*
X132933053Y-87157796D01*
X132883084Y-87107364D01*
X132868312Y-87037921D01*
X132893428Y-86971516D01*
X132920780Y-86944909D01*
X132964603Y-86913650D01*
X133099860Y-86817173D01*
X133258096Y-86659489D01*
X133317594Y-86576689D01*
X133385435Y-86482277D01*
X133388453Y-86478077D01*
X133487430Y-86277811D01*
X133552370Y-86064069D01*
X133581529Y-85842590D01*
X133583156Y-85776000D01*
X133564852Y-85553361D01*
X133510431Y-85336702D01*
X133421354Y-85131840D01*
X133300014Y-84944277D01*
X133149670Y-84779051D01*
X133145619Y-84775852D01*
X133145615Y-84775848D01*
X132978414Y-84643800D01*
X132978410Y-84643798D01*
X132974359Y-84640598D01*
X132933053Y-84617796D01*
X132883084Y-84567364D01*
X132868312Y-84497921D01*
X132893428Y-84431516D01*
X132920780Y-84404909D01*
X132964603Y-84373650D01*
X133099860Y-84277173D01*
X133258096Y-84119489D01*
X133317594Y-84036689D01*
X133385435Y-83942277D01*
X133388453Y-83938077D01*
X133487430Y-83737811D01*
X133552370Y-83524069D01*
X133581529Y-83302590D01*
X133583156Y-83236000D01*
X133564852Y-83013361D01*
X133510431Y-82796702D01*
X133421354Y-82591840D01*
X133300014Y-82404277D01*
X133149670Y-82239051D01*
X133145619Y-82235852D01*
X133145615Y-82235848D01*
X132978414Y-82103800D01*
X132978410Y-82103798D01*
X132974359Y-82100598D01*
X132933053Y-82077796D01*
X132883084Y-82027364D01*
X132868312Y-81957921D01*
X132893428Y-81891516D01*
X132920780Y-81864909D01*
X132964603Y-81833650D01*
X133099860Y-81737173D01*
X133258096Y-81579489D01*
X133263797Y-81571556D01*
X133385435Y-81402277D01*
X133388453Y-81398077D01*
X133392481Y-81389928D01*
X133485136Y-81202453D01*
X133485137Y-81202451D01*
X133487430Y-81197811D01*
X133552370Y-80984069D01*
X133581529Y-80762590D01*
X133583156Y-80696000D01*
X133564852Y-80473361D01*
X133510431Y-80256702D01*
X133421354Y-80051840D01*
X133328052Y-79907617D01*
X133302822Y-79868617D01*
X133302820Y-79868614D01*
X133300014Y-79864277D01*
X133149670Y-79699051D01*
X133145619Y-79695852D01*
X133145615Y-79695848D01*
X132978414Y-79563800D01*
X132978410Y-79563798D01*
X132974359Y-79560598D01*
X132933053Y-79537796D01*
X132883084Y-79487364D01*
X132868312Y-79417921D01*
X132893428Y-79351516D01*
X132920780Y-79324909D01*
X132976164Y-79285404D01*
X133099860Y-79197173D01*
X133107131Y-79189928D01*
X133254435Y-79043137D01*
X133258096Y-79039489D01*
X133281754Y-79006566D01*
X133385435Y-78862277D01*
X133388453Y-78858077D01*
X133412179Y-78810072D01*
X133485136Y-78662453D01*
X133485137Y-78662451D01*
X133487430Y-78657811D01*
X133546601Y-78463056D01*
X133550865Y-78449023D01*
X133550865Y-78449021D01*
X133552370Y-78444069D01*
X133581529Y-78222590D01*
X133583156Y-78156000D01*
X133564852Y-77933361D01*
X133510431Y-77716702D01*
X133421354Y-77511840D01*
X133300014Y-77324277D01*
X133149670Y-77159051D01*
X133145619Y-77155852D01*
X133145615Y-77155848D01*
X132978414Y-77023800D01*
X132978410Y-77023798D01*
X132974359Y-77020598D01*
X132933053Y-76997796D01*
X132883084Y-76947364D01*
X132868312Y-76877921D01*
X132893428Y-76811516D01*
X132920780Y-76784909D01*
X132982128Y-76741150D01*
X133099860Y-76657173D01*
X133258096Y-76499489D01*
X133299747Y-76441526D01*
X133385435Y-76322277D01*
X133388453Y-76318077D01*
X133487430Y-76117811D01*
X133552370Y-75904069D01*
X133581529Y-75682590D01*
X133583156Y-75616000D01*
X133564852Y-75393361D01*
X133510431Y-75176702D01*
X133421354Y-74971840D01*
X133347482Y-74857651D01*
X133302822Y-74788617D01*
X133302820Y-74788614D01*
X133300014Y-74784277D01*
X133149670Y-74619051D01*
X133145619Y-74615852D01*
X133145615Y-74615848D01*
X132978414Y-74483800D01*
X132978410Y-74483798D01*
X132974359Y-74480598D01*
X132933053Y-74457796D01*
X132883084Y-74407364D01*
X132868312Y-74337921D01*
X132893428Y-74271516D01*
X132920780Y-74244909D01*
X132983740Y-74200000D01*
X133099860Y-74117173D01*
X133148429Y-74068774D01*
X133254435Y-73963137D01*
X133258096Y-73959489D01*
X133317594Y-73876689D01*
X133385435Y-73782277D01*
X133388453Y-73778077D01*
X133487430Y-73577811D01*
X133538755Y-73408882D01*
X133550865Y-73369023D01*
X133550865Y-73369021D01*
X133552370Y-73364069D01*
X133581529Y-73142590D01*
X133582362Y-73108500D01*
X133583074Y-73079365D01*
X133583074Y-73079361D01*
X133583156Y-73076000D01*
X133564852Y-72853361D01*
X133510431Y-72636702D01*
X133421354Y-72431840D01*
X133300014Y-72244277D01*
X133259725Y-72200000D01*
X149386496Y-72200000D01*
X149406458Y-72389928D01*
X149465473Y-72571556D01*
X149560960Y-72736944D01*
X149634137Y-72818215D01*
X149664853Y-72882221D01*
X149666500Y-72902524D01*
X149666500Y-79521233D01*
X149665973Y-79532416D01*
X149664298Y-79539909D01*
X149664547Y-79547835D01*
X149664547Y-79547836D01*
X149666438Y-79607986D01*
X149666500Y-79611945D01*
X149666500Y-79639856D01*
X149666997Y-79643790D01*
X149666997Y-79643791D01*
X149667005Y-79643856D01*
X149667938Y-79655693D01*
X149669327Y-79699889D01*
X149674978Y-79719339D01*
X149678987Y-79738700D01*
X149681526Y-79758797D01*
X149684445Y-79766168D01*
X149684445Y-79766170D01*
X149697804Y-79799912D01*
X149701649Y-79811142D01*
X149713982Y-79853593D01*
X149718015Y-79860412D01*
X149718017Y-79860417D01*
X149724293Y-79871028D01*
X149732988Y-79888776D01*
X149740448Y-79907617D01*
X149745110Y-79914033D01*
X149745110Y-79914034D01*
X149766436Y-79943387D01*
X149772952Y-79953307D01*
X149795458Y-79991362D01*
X149809779Y-80005683D01*
X149822619Y-80020716D01*
X149834528Y-80037107D01*
X149852337Y-80051840D01*
X149868605Y-80065298D01*
X149877384Y-80073288D01*
X150952878Y-81148782D01*
X150986904Y-81211094D01*
X150989092Y-81224703D01*
X151006458Y-81389928D01*
X151065473Y-81571556D01*
X151160960Y-81736944D01*
X151165378Y-81741851D01*
X151165379Y-81741852D01*
X151276180Y-81864909D01*
X151288747Y-81878866D01*
X151327627Y-81907114D01*
X151423675Y-81976897D01*
X151443248Y-81991118D01*
X151449276Y-81993802D01*
X151449278Y-81993803D01*
X151524658Y-82027364D01*
X151617712Y-82068794D01*
X151696834Y-82085612D01*
X151798056Y-82107128D01*
X151798061Y-82107128D01*
X151804513Y-82108500D01*
X151995487Y-82108500D01*
X152001939Y-82107128D01*
X152001944Y-82107128D01*
X152103166Y-82085612D01*
X152182288Y-82068794D01*
X152275342Y-82027364D01*
X152350722Y-81993803D01*
X152350724Y-81993802D01*
X152356752Y-81991118D01*
X152376326Y-81976897D01*
X152472373Y-81907114D01*
X152511253Y-81878866D01*
X152523820Y-81864909D01*
X152634621Y-81741852D01*
X152634622Y-81741851D01*
X152639040Y-81736944D01*
X152734527Y-81571556D01*
X152793542Y-81389928D01*
X152813504Y-81200000D01*
X152793542Y-81010072D01*
X152734527Y-80828444D01*
X152639040Y-80663056D01*
X152511253Y-80521134D01*
X152356752Y-80408882D01*
X152350724Y-80406198D01*
X152350722Y-80406197D01*
X152188319Y-80333891D01*
X152188318Y-80333891D01*
X152182288Y-80331206D01*
X152088887Y-80311353D01*
X152001944Y-80292872D01*
X152001939Y-80292872D01*
X151995487Y-80291500D01*
X151939595Y-80291500D01*
X151871474Y-80271498D01*
X151850499Y-80254595D01*
X150970404Y-79374499D01*
X150936379Y-79312187D01*
X150933500Y-79285404D01*
X150933500Y-72959500D01*
X150953502Y-72891379D01*
X151007158Y-72844886D01*
X151059500Y-72833500D01*
X156891800Y-72833500D01*
X156959921Y-72853502D01*
X156979147Y-72869843D01*
X156979420Y-72869540D01*
X156984332Y-72873963D01*
X156988747Y-72878866D01*
X157143248Y-72991118D01*
X157149276Y-72993802D01*
X157149278Y-72993803D01*
X157247563Y-73037562D01*
X157317712Y-73068794D01*
X157411113Y-73088647D01*
X157498056Y-73107128D01*
X157498061Y-73107128D01*
X157504513Y-73108500D01*
X157695487Y-73108500D01*
X157701939Y-73107128D01*
X157701944Y-73107128D01*
X157788887Y-73088647D01*
X157882288Y-73068794D01*
X157952437Y-73037562D01*
X158050722Y-72993803D01*
X158050724Y-72993802D01*
X158056752Y-72991118D01*
X158211253Y-72878866D01*
X158339040Y-72736944D01*
X158434527Y-72571556D01*
X158493542Y-72389928D01*
X158513504Y-72200000D01*
X158493542Y-72010072D01*
X158434527Y-71828444D01*
X158422607Y-71807797D01*
X158342341Y-71668774D01*
X158339040Y-71663056D01*
X158326679Y-71649327D01*
X158215675Y-71526045D01*
X158215674Y-71526044D01*
X158211253Y-71521134D01*
X158056752Y-71408882D01*
X158050724Y-71406198D01*
X158050722Y-71406197D01*
X157888319Y-71333891D01*
X157888318Y-71333891D01*
X157882288Y-71331206D01*
X157788887Y-71311353D01*
X157701944Y-71292872D01*
X157701939Y-71292872D01*
X157695487Y-71291500D01*
X157504513Y-71291500D01*
X157498061Y-71292872D01*
X157498056Y-71292872D01*
X157411113Y-71311353D01*
X157317712Y-71331206D01*
X157311682Y-71333891D01*
X157311681Y-71333891D01*
X157149278Y-71406197D01*
X157149276Y-71406198D01*
X157143248Y-71408882D01*
X156988747Y-71521134D01*
X156984332Y-71526037D01*
X156979420Y-71530460D01*
X156978295Y-71529211D01*
X156924986Y-71562051D01*
X156891800Y-71566500D01*
X151008200Y-71566500D01*
X150940079Y-71546498D01*
X150920853Y-71530157D01*
X150920580Y-71530460D01*
X150915668Y-71526037D01*
X150911253Y-71521134D01*
X150756752Y-71408882D01*
X150750724Y-71406198D01*
X150750722Y-71406197D01*
X150588319Y-71333891D01*
X150588318Y-71333891D01*
X150582288Y-71331206D01*
X150488887Y-71311353D01*
X150401944Y-71292872D01*
X150401939Y-71292872D01*
X150395487Y-71291500D01*
X150204513Y-71291500D01*
X150198061Y-71292872D01*
X150198056Y-71292872D01*
X150111113Y-71311353D01*
X150017712Y-71331206D01*
X150011682Y-71333891D01*
X150011681Y-71333891D01*
X149849278Y-71406197D01*
X149849276Y-71406198D01*
X149843248Y-71408882D01*
X149688747Y-71521134D01*
X149684326Y-71526044D01*
X149684325Y-71526045D01*
X149573322Y-71649327D01*
X149560960Y-71663056D01*
X149557659Y-71668774D01*
X149477394Y-71807797D01*
X149465473Y-71828444D01*
X149406458Y-72010072D01*
X149386496Y-72200000D01*
X133259725Y-72200000D01*
X133149670Y-72079051D01*
X133145619Y-72075852D01*
X133145615Y-72075848D01*
X132978414Y-71943800D01*
X132978410Y-71943798D01*
X132974359Y-71940598D01*
X132933053Y-71917796D01*
X132883084Y-71867364D01*
X132868312Y-71797921D01*
X132893428Y-71731516D01*
X132920780Y-71704909D01*
X132979456Y-71663056D01*
X133099860Y-71577173D01*
X133110571Y-71566500D01*
X133243004Y-71434528D01*
X133258096Y-71419489D01*
X133311543Y-71345110D01*
X133385435Y-71242277D01*
X133388453Y-71238077D01*
X133487430Y-71037811D01*
X133552370Y-70824069D01*
X133581529Y-70602590D01*
X133583156Y-70536000D01*
X133564852Y-70313361D01*
X133510431Y-70096702D01*
X133421354Y-69891840D01*
X133300014Y-69704277D01*
X133296532Y-69700450D01*
X133152798Y-69542488D01*
X133121746Y-69478642D01*
X133130141Y-69408143D01*
X133175317Y-69353375D01*
X133201761Y-69339706D01*
X133308297Y-69299767D01*
X133316705Y-69296615D01*
X133433261Y-69209261D01*
X133520615Y-69092705D01*
X133571745Y-68956316D01*
X133578500Y-68894134D01*
X133578500Y-67097866D01*
X133571745Y-67035684D01*
X133520615Y-66899295D01*
X133433261Y-66782739D01*
X133316705Y-66695385D01*
X133180316Y-66644255D01*
X133118134Y-66637500D01*
X131321866Y-66637500D01*
X131259684Y-66644255D01*
X131123295Y-66695385D01*
X131006739Y-66782739D01*
X130919385Y-66899295D01*
X130868255Y-67035684D01*
X130861500Y-67097866D01*
X130861500Y-68894134D01*
X130868255Y-68956316D01*
X130919385Y-69092705D01*
X131006739Y-69209261D01*
X131123295Y-69296615D01*
X131131704Y-69299767D01*
X131131705Y-69299768D01*
X131240451Y-69340535D01*
X131297216Y-69383176D01*
X131321916Y-69449738D01*
X131306709Y-69519087D01*
X131287316Y-69545568D01*
X131160629Y-69678138D01*
X131034743Y-69862680D01*
X130940688Y-70065305D01*
X130880989Y-70280570D01*
X130857251Y-70502695D01*
X130857548Y-70507848D01*
X130857548Y-70507851D01*
X130863011Y-70602590D01*
X130870110Y-70725715D01*
X130871247Y-70730761D01*
X130871248Y-70730767D01*
X130891119Y-70818939D01*
X130919222Y-70943639D01*
X131003266Y-71150616D01*
X131005965Y-71155020D01*
X131115577Y-71333891D01*
X131119987Y-71341088D01*
X131266250Y-71509938D01*
X131438126Y-71652632D01*
X131447566Y-71658148D01*
X131511445Y-71695476D01*
X131560169Y-71747114D01*
X131573240Y-71816897D01*
X131546509Y-71882669D01*
X131506055Y-71916027D01*
X131493607Y-71922507D01*
X131489474Y-71925610D01*
X131489471Y-71925612D01*
X131376981Y-72010072D01*
X131314965Y-72056635D01*
X131160629Y-72218138D01*
X131034743Y-72402680D01*
X131019003Y-72436590D01*
X130952961Y-72578866D01*
X130940688Y-72605305D01*
X130880989Y-72820570D01*
X130857251Y-73042695D01*
X130857548Y-73047848D01*
X130857548Y-73047851D01*
X130863011Y-73142590D01*
X130870110Y-73265715D01*
X130871247Y-73270761D01*
X130871248Y-73270767D01*
X130875921Y-73291500D01*
X130919222Y-73483639D01*
X131003266Y-73690616D01*
X131005965Y-73695020D01*
X131078118Y-73812763D01*
X131119987Y-73881088D01*
X131266250Y-74049938D01*
X131438126Y-74192632D01*
X131499411Y-74228444D01*
X131511445Y-74235476D01*
X131560169Y-74287114D01*
X131573240Y-74356897D01*
X131546509Y-74422669D01*
X131506055Y-74456027D01*
X131493607Y-74462507D01*
X131489474Y-74465610D01*
X131489471Y-74465612D01*
X131319227Y-74593435D01*
X131314965Y-74596635D01*
X131160629Y-74758138D01*
X131034743Y-74942680D01*
X130940688Y-75145305D01*
X130880989Y-75360570D01*
X130857251Y-75582695D01*
X130857548Y-75587848D01*
X130857548Y-75587851D01*
X130863011Y-75682590D01*
X130870110Y-75805715D01*
X130871247Y-75810761D01*
X130871248Y-75810767D01*
X130891119Y-75898939D01*
X130919222Y-76023639D01*
X131003266Y-76230616D01*
X131119987Y-76421088D01*
X131266250Y-76589938D01*
X131438126Y-76732632D01*
X131452703Y-76741150D01*
X131511445Y-76775476D01*
X131560169Y-76827114D01*
X131573240Y-76896897D01*
X131546509Y-76962669D01*
X131506055Y-76996027D01*
X131493607Y-77002507D01*
X131489474Y-77005610D01*
X131489471Y-77005612D01*
X131465247Y-77023800D01*
X131314965Y-77136635D01*
X131160629Y-77298138D01*
X131034743Y-77482680D01*
X130940688Y-77685305D01*
X130880989Y-77900570D01*
X130857251Y-78122695D01*
X130857548Y-78127848D01*
X130857548Y-78127851D01*
X130863011Y-78222590D01*
X130870110Y-78345715D01*
X130871247Y-78350761D01*
X130871248Y-78350767D01*
X130891119Y-78438939D01*
X130919222Y-78563639D01*
X131003266Y-78770616D01*
X131119987Y-78961088D01*
X131266250Y-79129938D01*
X131438126Y-79272632D01*
X131459983Y-79285404D01*
X131511445Y-79315476D01*
X131560169Y-79367114D01*
X131573240Y-79436897D01*
X131546509Y-79502669D01*
X131506055Y-79536027D01*
X131498598Y-79539909D01*
X131493607Y-79542507D01*
X131489474Y-79545610D01*
X131489471Y-79545612D01*
X131350759Y-79649760D01*
X131314965Y-79676635D01*
X131311393Y-79680373D01*
X131174290Y-79823843D01*
X131160629Y-79838138D01*
X131157715Y-79842410D01*
X131157714Y-79842411D01*
X131145431Y-79860417D01*
X131034743Y-80022680D01*
X130940688Y-80225305D01*
X130880989Y-80440570D01*
X130857251Y-80662695D01*
X130857548Y-80667848D01*
X130857548Y-80667851D01*
X130863011Y-80762590D01*
X130870110Y-80885715D01*
X130871247Y-80890761D01*
X130871248Y-80890767D01*
X130891119Y-80978939D01*
X130919222Y-81103639D01*
X131003266Y-81310616D01*
X131119987Y-81501088D01*
X131266250Y-81669938D01*
X131438126Y-81812632D01*
X131508595Y-81853811D01*
X131511445Y-81855476D01*
X131560169Y-81907114D01*
X131573240Y-81976897D01*
X131546509Y-82042669D01*
X131506055Y-82076027D01*
X131493607Y-82082507D01*
X131489474Y-82085610D01*
X131489471Y-82085612D01*
X131319100Y-82213530D01*
X131314965Y-82216635D01*
X131160629Y-82378138D01*
X131034743Y-82562680D01*
X130940688Y-82765305D01*
X130880989Y-82980570D01*
X130857251Y-83202695D01*
X130857548Y-83207848D01*
X130857548Y-83207851D01*
X130863011Y-83302590D01*
X130870110Y-83425715D01*
X130871247Y-83430761D01*
X130871248Y-83430767D01*
X130891119Y-83518939D01*
X130919222Y-83643639D01*
X131003266Y-83850616D01*
X131119987Y-84041088D01*
X131266250Y-84209938D01*
X131438126Y-84352632D01*
X131508595Y-84393811D01*
X131511445Y-84395476D01*
X131560169Y-84447114D01*
X131573240Y-84516897D01*
X131546509Y-84582669D01*
X131506055Y-84616027D01*
X131493607Y-84622507D01*
X131489474Y-84625610D01*
X131489471Y-84625612D01*
X131465247Y-84643800D01*
X131314965Y-84756635D01*
X131160629Y-84918138D01*
X131034743Y-85102680D01*
X130940688Y-85305305D01*
X130880989Y-85520570D01*
X130857251Y-85742695D01*
X130857548Y-85747848D01*
X130857548Y-85747851D01*
X130863011Y-85842590D01*
X130870110Y-85965715D01*
X130871247Y-85970761D01*
X130871248Y-85970767D01*
X130891119Y-86058939D01*
X130919222Y-86183639D01*
X131003266Y-86390616D01*
X131119987Y-86581088D01*
X131266250Y-86749938D01*
X131438126Y-86892632D01*
X131508595Y-86933811D01*
X131511445Y-86935476D01*
X131560169Y-86987114D01*
X131573240Y-87056897D01*
X131546509Y-87122669D01*
X131506055Y-87156027D01*
X131493607Y-87162507D01*
X131489474Y-87165610D01*
X131489471Y-87165612D01*
X131465247Y-87183800D01*
X131314965Y-87296635D01*
X131160629Y-87458138D01*
X131034743Y-87642680D01*
X130940688Y-87845305D01*
X130880989Y-88060570D01*
X130857251Y-88282695D01*
X130857548Y-88287848D01*
X130857548Y-88287851D01*
X130863011Y-88382590D01*
X130870110Y-88505715D01*
X130871247Y-88510761D01*
X130871248Y-88510767D01*
X130880996Y-88554020D01*
X130919222Y-88723639D01*
X131003266Y-88930616D01*
X131119987Y-89121088D01*
X131266250Y-89289938D01*
X131438126Y-89432632D01*
X131508595Y-89473811D01*
X131511445Y-89475476D01*
X131560169Y-89527114D01*
X131573240Y-89596897D01*
X131546509Y-89662669D01*
X131506055Y-89696027D01*
X131493607Y-89702507D01*
X131489474Y-89705610D01*
X131489471Y-89705612D01*
X131447741Y-89736944D01*
X131314965Y-89836635D01*
X131311393Y-89840373D01*
X131164772Y-89993803D01*
X131160629Y-89998138D01*
X131034743Y-90182680D01*
X130940688Y-90385305D01*
X130880989Y-90600570D01*
X130857251Y-90822695D01*
X130857548Y-90827848D01*
X130857548Y-90827851D01*
X130862926Y-90921118D01*
X130870110Y-91045715D01*
X130871247Y-91050761D01*
X130871248Y-91050767D01*
X130878931Y-91084856D01*
X130919222Y-91263639D01*
X131003266Y-91470616D01*
X131005965Y-91475020D01*
X131090782Y-91613429D01*
X131119987Y-91661088D01*
X131266250Y-91829938D01*
X131438126Y-91972632D01*
X131450177Y-91979674D01*
X131511445Y-92015476D01*
X131560169Y-92067114D01*
X131573240Y-92136897D01*
X131546509Y-92202669D01*
X131506055Y-92236027D01*
X131493607Y-92242507D01*
X131489474Y-92245610D01*
X131489471Y-92245612D01*
X131465247Y-92263800D01*
X131314965Y-92376635D01*
X131311393Y-92380373D01*
X131175410Y-92522671D01*
X131160629Y-92538138D01*
X131034743Y-92722680D01*
X130990311Y-92818400D01*
X130971798Y-92858285D01*
X130940688Y-92925305D01*
X130880989Y-93140570D01*
X130857251Y-93362695D01*
X130508000Y-93362695D01*
X130508000Y-63107655D01*
X131239858Y-63107655D01*
X131275104Y-63366638D01*
X131276412Y-63371124D01*
X131276412Y-63371126D01*
X131296098Y-63438664D01*
X131348243Y-63617567D01*
X131457668Y-63854928D01*
X131460231Y-63858837D01*
X131598410Y-64069596D01*
X131598414Y-64069601D01*
X131600976Y-64073509D01*
X131775018Y-64268506D01*
X131975970Y-64435637D01*
X131979973Y-64438066D01*
X132195422Y-64568804D01*
X132195426Y-64568806D01*
X132199419Y-64571229D01*
X132440455Y-64672303D01*
X132693783Y-64736641D01*
X132698434Y-64737109D01*
X132698438Y-64737110D01*
X132891308Y-64756531D01*
X132910867Y-64758500D01*
X133066354Y-64758500D01*
X133068679Y-64758327D01*
X133068685Y-64758327D01*
X133256000Y-64744407D01*
X133256004Y-64744406D01*
X133260652Y-64744061D01*
X133265200Y-64743032D01*
X133265206Y-64743031D01*
X133451601Y-64700853D01*
X133515577Y-64686377D01*
X133551769Y-64672303D01*
X133754824Y-64593340D01*
X133754827Y-64593339D01*
X133759177Y-64591647D01*
X133986098Y-64461951D01*
X134191357Y-64300138D01*
X134370443Y-64109763D01*
X134519424Y-63895009D01*
X134635025Y-63660593D01*
X134714707Y-63411665D01*
X134756721Y-63153693D01*
X134757324Y-63107655D01*
X165239858Y-63107655D01*
X165275104Y-63366638D01*
X165276412Y-63371124D01*
X165276412Y-63371126D01*
X165296098Y-63438664D01*
X165348243Y-63617567D01*
X165457668Y-63854928D01*
X165460231Y-63858837D01*
X165598410Y-64069596D01*
X165598414Y-64069601D01*
X165600976Y-64073509D01*
X165775018Y-64268506D01*
X165975970Y-64435637D01*
X165979973Y-64438066D01*
X166195422Y-64568804D01*
X166195426Y-64568806D01*
X166199419Y-64571229D01*
X166440455Y-64672303D01*
X166693783Y-64736641D01*
X166698434Y-64737109D01*
X166698438Y-64737110D01*
X166891308Y-64756531D01*
X166910867Y-64758500D01*
X167066354Y-64758500D01*
X167068679Y-64758327D01*
X167068685Y-64758327D01*
X167256000Y-64744407D01*
X167256004Y-64744406D01*
X167260652Y-64744061D01*
X167265200Y-64743032D01*
X167265206Y-64743031D01*
X167451601Y-64700853D01*
X167515577Y-64686377D01*
X167551769Y-64672303D01*
X167754824Y-64593340D01*
X167754827Y-64593339D01*
X167759177Y-64591647D01*
X167986098Y-64461951D01*
X168191357Y-64300138D01*
X168370443Y-64109763D01*
X168519424Y-63895009D01*
X168635025Y-63660593D01*
X168714707Y-63411665D01*
X168756721Y-63153693D01*
X168758871Y-62989446D01*
X168760081Y-62897022D01*
X168760081Y-62897019D01*
X168760142Y-62892345D01*
X168724896Y-62633362D01*
X168710473Y-62583877D01*
X168703902Y-62561336D01*
X168651757Y-62382433D01*
X168542332Y-62145072D01*
X168434403Y-61980453D01*
X168401590Y-61930404D01*
X168401586Y-61930399D01*
X168399024Y-61926491D01*
X168224982Y-61731494D01*
X168024030Y-61564363D01*
X167976844Y-61535730D01*
X167804578Y-61431196D01*
X167804574Y-61431194D01*
X167800581Y-61428771D01*
X167559545Y-61327697D01*
X167306217Y-61263359D01*
X167301566Y-61262891D01*
X167301562Y-61262890D01*
X167092271Y-61241816D01*
X167089133Y-61241500D01*
X166933646Y-61241500D01*
X166931321Y-61241673D01*
X166931315Y-61241673D01*
X166744000Y-61255593D01*
X166743996Y-61255594D01*
X166739348Y-61255939D01*
X166734800Y-61256968D01*
X166734794Y-61256969D01*
X166548399Y-61299147D01*
X166484423Y-61313623D01*
X166480071Y-61315315D01*
X166480069Y-61315316D01*
X166245176Y-61406660D01*
X166245173Y-61406661D01*
X166240823Y-61408353D01*
X166013902Y-61538049D01*
X165808643Y-61699862D01*
X165629557Y-61890237D01*
X165480576Y-62104991D01*
X165478510Y-62109181D01*
X165478508Y-62109184D01*
X165474987Y-62116325D01*
X165364975Y-62339407D01*
X165363553Y-62343850D01*
X165363552Y-62343852D01*
X165344418Y-62403626D01*
X165285293Y-62588335D01*
X165243279Y-62846307D01*
X165239858Y-63107655D01*
X134757324Y-63107655D01*
X134758871Y-62989446D01*
X134760081Y-62897022D01*
X134760081Y-62897019D01*
X134760142Y-62892345D01*
X134724896Y-62633362D01*
X134710473Y-62583877D01*
X134703902Y-62561336D01*
X134651757Y-62382433D01*
X134542332Y-62145072D01*
X134434403Y-61980453D01*
X134401590Y-61930404D01*
X134401586Y-61930399D01*
X134399024Y-61926491D01*
X134224982Y-61731494D01*
X134024030Y-61564363D01*
X133976844Y-61535730D01*
X133804578Y-61431196D01*
X133804574Y-61431194D01*
X133800581Y-61428771D01*
X133559545Y-61327697D01*
X133306217Y-61263359D01*
X133301566Y-61262891D01*
X133301562Y-61262890D01*
X133092271Y-61241816D01*
X133089133Y-61241500D01*
X132933646Y-61241500D01*
X132931321Y-61241673D01*
X132931315Y-61241673D01*
X132744000Y-61255593D01*
X132743996Y-61255594D01*
X132739348Y-61255939D01*
X132734800Y-61256968D01*
X132734794Y-61256969D01*
X132548399Y-61299147D01*
X132484423Y-61313623D01*
X132480071Y-61315315D01*
X132480069Y-61315316D01*
X132245176Y-61406660D01*
X132245173Y-61406661D01*
X132240823Y-61408353D01*
X132013902Y-61538049D01*
X131808643Y-61699862D01*
X131629557Y-61890237D01*
X131480576Y-62104991D01*
X131478510Y-62109181D01*
X131478508Y-62109184D01*
X131474987Y-62116325D01*
X131364975Y-62339407D01*
X131363553Y-62343850D01*
X131363552Y-62343852D01*
X131344418Y-62403626D01*
X131285293Y-62588335D01*
X131243279Y-62846307D01*
X131239858Y-63107655D01*
X130508000Y-63107655D01*
X130508000Y-63049328D01*
X130509500Y-63029943D01*
X130511805Y-63015142D01*
X130511805Y-63015139D01*
X130513186Y-63006270D01*
X130510941Y-62989101D01*
X130510108Y-62965161D01*
X130525710Y-62707230D01*
X130527544Y-62692126D01*
X130579038Y-62411127D01*
X130582679Y-62396353D01*
X130588343Y-62378179D01*
X130667675Y-62123592D01*
X130673070Y-62109370D01*
X130771694Y-61890237D01*
X130790316Y-61848860D01*
X130797385Y-61835391D01*
X130945182Y-61590905D01*
X130953825Y-61578383D01*
X131130016Y-61353493D01*
X131140106Y-61342105D01*
X131342105Y-61140106D01*
X131353493Y-61130016D01*
X131578383Y-60953825D01*
X131590905Y-60945182D01*
X131835391Y-60797385D01*
X131848860Y-60790316D01*
X132109373Y-60673069D01*
X132123592Y-60667675D01*
X132396359Y-60582678D01*
X132411121Y-60579040D01*
X132621352Y-60540514D01*
X132692126Y-60527544D01*
X132707230Y-60525710D01*
X132957929Y-60510545D01*
X132984639Y-60511802D01*
X132984859Y-60511805D01*
X132993730Y-60513186D01*
X133002632Y-60512022D01*
X133002635Y-60512022D01*
X133025251Y-60509064D01*
X133041589Y-60508000D01*
X166950672Y-60508000D01*
X166970057Y-60509500D01*
G37*
%TD.AperFunction*%
%TD*%
M02*
