%TF.GenerationSoftware,KiCad,Pcbnew,(6.0.0-0)*%
%TF.CreationDate,2022-08-17T21:28:40+02:00*%
%TF.ProjectId,wm8758b_codec_breakout,776d3837-3538-4625-9f63-6f6465635f62,rev?*%
%TF.SameCoordinates,Original*%
%TF.FileFunction,Soldermask,Top*%
%TF.FilePolarity,Negative*%
%FSLAX46Y46*%
G04 Gerber Fmt 4.6, Leading zero omitted, Abs format (unit mm)*
G04 Created by KiCad (PCBNEW (6.0.0-0)) date 2022-08-17 21:28:40*
%MOMM*%
%LPD*%
G01*
G04 APERTURE LIST*
G04 Aperture macros list*
%AMRoundRect*
0 Rectangle with rounded corners*
0 $1 Rounding radius*
0 $2 $3 $4 $5 $6 $7 $8 $9 X,Y pos of 4 corners*
0 Add a 4 corners polygon primitive as box body*
4,1,4,$2,$3,$4,$5,$6,$7,$8,$9,$2,$3,0*
0 Add four circle primitives for the rounded corners*
1,1,$1+$1,$2,$3*
1,1,$1+$1,$4,$5*
1,1,$1+$1,$6,$7*
1,1,$1+$1,$8,$9*
0 Add four rect primitives between the rounded corners*
20,1,$1+$1,$2,$3,$4,$5,0*
20,1,$1+$1,$4,$5,$6,$7,0*
20,1,$1+$1,$6,$7,$8,$9,0*
20,1,$1+$1,$8,$9,$2,$3,0*%
G04 Aperture macros list end*
%ADD10R,1.700000X1.700000*%
%ADD11O,1.700000X1.700000*%
%ADD12RoundRect,0.225000X0.225000X0.250000X-0.225000X0.250000X-0.225000X-0.250000X0.225000X-0.250000X0*%
%ADD13RoundRect,0.225000X-0.225000X-0.250000X0.225000X-0.250000X0.225000X0.250000X-0.225000X0.250000X0*%
%ADD14RoundRect,0.225000X0.250000X-0.225000X0.250000X0.225000X-0.250000X0.225000X-0.250000X-0.225000X0*%
%ADD15R,0.400000X0.200000*%
%ADD16R,0.200000X0.400000*%
%ADD17R,0.862500X0.862500*%
%ADD18R,3.500000X1.500000*%
%ADD19C,2.500000*%
G04 APERTURE END LIST*
D10*
%TO.C,J1*%
X132220000Y-67996000D03*
D11*
X132220000Y-70536000D03*
X132220000Y-73076000D03*
X132220000Y-75616000D03*
X132220000Y-78156000D03*
X132220000Y-80696000D03*
X132220000Y-83236000D03*
X132220000Y-85776000D03*
X132220000Y-88316000D03*
X132220000Y-90856000D03*
X132220000Y-93396000D03*
X132220000Y-95936000D03*
%TD*%
D12*
%TO.C,C8*%
X145375000Y-79700000D03*
X143825000Y-79700000D03*
%TD*%
%TO.C,C10*%
X145375000Y-74900000D03*
X143825000Y-74900000D03*
%TD*%
D13*
%TO.C,C4*%
X149225000Y-83600000D03*
X150775000Y-83600000D03*
%TD*%
%TO.C,C3*%
X149225000Y-82000000D03*
X150775000Y-82000000D03*
%TD*%
D12*
%TO.C,C12*%
X156175000Y-79300000D03*
X154625000Y-79300000D03*
%TD*%
D13*
%TO.C,C13*%
X154625000Y-77700000D03*
X156175000Y-77700000D03*
%TD*%
D12*
%TO.C,C6*%
X145375000Y-70100000D03*
X143825000Y-70100000D03*
%TD*%
D14*
%TO.C,C2*%
X156200000Y-73275000D03*
X156200000Y-71725000D03*
%TD*%
%TO.C,C5*%
X154600000Y-73275000D03*
X154600000Y-71725000D03*
%TD*%
%TO.C,C1*%
X149000000Y-73275000D03*
X149000000Y-71725000D03*
%TD*%
D10*
%TO.C,J2*%
X167780000Y-67996000D03*
D11*
X167780000Y-70536000D03*
X167780000Y-73076000D03*
X167780000Y-75616000D03*
X167780000Y-78156000D03*
X167780000Y-80696000D03*
X167780000Y-83236000D03*
X167780000Y-85776000D03*
X167780000Y-88316000D03*
X167780000Y-90856000D03*
X167780000Y-93396000D03*
X167780000Y-95936000D03*
%TD*%
D15*
%TO.C,U1*%
X147700000Y-75550000D03*
X147700000Y-76050000D03*
X147700000Y-76550000D03*
X147700000Y-77050000D03*
X147700000Y-77550000D03*
X147700000Y-78050000D03*
X147700000Y-78550000D03*
X147700000Y-79050000D03*
D16*
X148250000Y-79600000D03*
X148750000Y-79600000D03*
X149250000Y-79600000D03*
X149750000Y-79600000D03*
X150250000Y-79600000D03*
X150750000Y-79600000D03*
X151250000Y-79600000D03*
X151750000Y-79600000D03*
D15*
X152300000Y-79050000D03*
X152300000Y-78550000D03*
X152300000Y-78050000D03*
X152300000Y-77550000D03*
X152300000Y-77050000D03*
X152300000Y-76550000D03*
X152300000Y-76050000D03*
X152300000Y-75550000D03*
D16*
X151750000Y-75000000D03*
X151250000Y-75000000D03*
X150750000Y-75000000D03*
X150250000Y-75000000D03*
X149750000Y-75000000D03*
X149250000Y-75000000D03*
X148750000Y-75000000D03*
X148250000Y-75000000D03*
D17*
X148706250Y-77731250D03*
X150431250Y-78593750D03*
X151293750Y-78593750D03*
X150431250Y-77731250D03*
X151293750Y-76006250D03*
X148706250Y-78593750D03*
X149568750Y-76868750D03*
X151293750Y-77731250D03*
X148706250Y-76006250D03*
X150431250Y-76006250D03*
X150431250Y-76868750D03*
X151293750Y-76868750D03*
X149568750Y-78593750D03*
X149568750Y-77731250D03*
X148706250Y-76868750D03*
X149568750Y-76006250D03*
%TD*%
D13*
%TO.C,C11*%
X143825000Y-78100000D03*
X145375000Y-78100000D03*
%TD*%
D12*
%TO.C,C15*%
X145375000Y-71700000D03*
X143825000Y-71700000D03*
%TD*%
%TO.C,C16*%
X145375000Y-73300000D03*
X143825000Y-73300000D03*
%TD*%
D13*
%TO.C,C19*%
X143825000Y-76500000D03*
X145375000Y-76500000D03*
%TD*%
D18*
%TO.C,J101*%
X140250000Y-95800000D03*
X147750000Y-97800000D03*
X147750000Y-90800000D03*
%TD*%
D19*
%TO.C,REF\u002A\u002A*%
X167000000Y-63000000D03*
%TD*%
D18*
%TO.C,J102*%
X152250000Y-95800000D03*
X159750000Y-97800000D03*
X159750000Y-90800000D03*
%TD*%
D19*
%TO.C,REF\u002A\u002A*%
X133000000Y-63000000D03*
%TD*%
M02*
