%TF.GenerationSoftware,KiCad,Pcbnew,(5.1.9-0-10_14)*%
%TF.CreationDate,2021-08-20T09:16:23+02:00*%
%TF.ProjectId,WM8758B_breakout,574d3837-3538-4425-9f62-7265616b6f75,rev?*%
%TF.SameCoordinates,Original*%
%TF.FileFunction,Copper,L1,Top*%
%TF.FilePolarity,Positive*%
%FSLAX46Y46*%
G04 Gerber Fmt 4.6, Leading zero omitted, Abs format (unit mm)*
G04 Created by KiCad (PCBNEW (5.1.9-0-10_14)) date 2021-08-20 09:16:23*
%MOMM*%
%LPD*%
G01*
G04 APERTURE LIST*
%TA.AperFunction,ComponentPad*%
%ADD10O,1.700000X1.700000*%
%TD*%
%TA.AperFunction,ComponentPad*%
%ADD11R,1.700000X1.700000*%
%TD*%
%TA.AperFunction,SMDPad,CuDef*%
%ADD12R,0.400000X0.200000*%
%TD*%
%TA.AperFunction,SMDPad,CuDef*%
%ADD13R,0.200000X0.400000*%
%TD*%
%TA.AperFunction,SMDPad,CuDef*%
%ADD14R,0.862500X0.862500*%
%TD*%
%TA.AperFunction,ViaPad*%
%ADD15C,0.800000*%
%TD*%
%TA.AperFunction,Conductor*%
%ADD16C,0.250000*%
%TD*%
G04 APERTURE END LIST*
%TO.P,C19,2*%
%TO.N,Net-(C19-Pad2)*%
%TA.AperFunction,SMDPad,CuDef*%
G36*
G01*
X144965000Y-101850000D02*
X144965000Y-101350000D01*
G75*
G02*
X145190000Y-101125000I225000J0D01*
G01*
X145640000Y-101125000D01*
G75*
G02*
X145865000Y-101350000I0J-225000D01*
G01*
X145865000Y-101850000D01*
G75*
G02*
X145640000Y-102075000I-225000J0D01*
G01*
X145190000Y-102075000D01*
G75*
G02*
X144965000Y-101850000I0J225000D01*
G01*
G37*
%TD.AperFunction*%
%TO.P,C19,1*%
%TO.N,RIP*%
%TA.AperFunction,SMDPad,CuDef*%
G36*
G01*
X143415000Y-101850000D02*
X143415000Y-101350000D01*
G75*
G02*
X143640000Y-101125000I225000J0D01*
G01*
X144090000Y-101125000D01*
G75*
G02*
X144315000Y-101350000I0J-225000D01*
G01*
X144315000Y-101850000D01*
G75*
G02*
X144090000Y-102075000I-225000J0D01*
G01*
X143640000Y-102075000D01*
G75*
G02*
X143415000Y-101850000I0J225000D01*
G01*
G37*
%TD.AperFunction*%
%TD*%
%TO.P,C16,2*%
%TO.N,LIN*%
%TA.AperFunction,SMDPad,CuDef*%
G36*
G01*
X144315000Y-95000000D02*
X144315000Y-95500000D01*
G75*
G02*
X144090000Y-95725000I-225000J0D01*
G01*
X143640000Y-95725000D01*
G75*
G02*
X143415000Y-95500000I0J225000D01*
G01*
X143415000Y-95000000D01*
G75*
G02*
X143640000Y-94775000I225000J0D01*
G01*
X144090000Y-94775000D01*
G75*
G02*
X144315000Y-95000000I0J-225000D01*
G01*
G37*
%TD.AperFunction*%
%TO.P,C16,1*%
%TO.N,Net-(C16-Pad1)*%
%TA.AperFunction,SMDPad,CuDef*%
G36*
G01*
X145865000Y-95000000D02*
X145865000Y-95500000D01*
G75*
G02*
X145640000Y-95725000I-225000J0D01*
G01*
X145190000Y-95725000D01*
G75*
G02*
X144965000Y-95500000I0J225000D01*
G01*
X144965000Y-95000000D01*
G75*
G02*
X145190000Y-94775000I225000J0D01*
G01*
X145640000Y-94775000D01*
G75*
G02*
X145865000Y-95000000I0J-225000D01*
G01*
G37*
%TD.AperFunction*%
%TD*%
%TO.P,C15,2*%
%TO.N,LIP*%
%TA.AperFunction,SMDPad,CuDef*%
G36*
G01*
X144315000Y-92460000D02*
X144315000Y-92960000D01*
G75*
G02*
X144090000Y-93185000I-225000J0D01*
G01*
X143640000Y-93185000D01*
G75*
G02*
X143415000Y-92960000I0J225000D01*
G01*
X143415000Y-92460000D01*
G75*
G02*
X143640000Y-92235000I225000J0D01*
G01*
X144090000Y-92235000D01*
G75*
G02*
X144315000Y-92460000I0J-225000D01*
G01*
G37*
%TD.AperFunction*%
%TO.P,C15,1*%
%TO.N,Net-(C15-Pad1)*%
%TA.AperFunction,SMDPad,CuDef*%
G36*
G01*
X145865000Y-92460000D02*
X145865000Y-92960000D01*
G75*
G02*
X145640000Y-93185000I-225000J0D01*
G01*
X145190000Y-93185000D01*
G75*
G02*
X144965000Y-92960000I0J225000D01*
G01*
X144965000Y-92460000D01*
G75*
G02*
X145190000Y-92235000I225000J0D01*
G01*
X145640000Y-92235000D01*
G75*
G02*
X145865000Y-92460000I0J-225000D01*
G01*
G37*
%TD.AperFunction*%
%TD*%
%TO.P,C11,2*%
%TO.N,Net-(C11-Pad2)*%
%TA.AperFunction,SMDPad,CuDef*%
G36*
G01*
X145105000Y-103755000D02*
X145105000Y-103255000D01*
G75*
G02*
X145330000Y-103030000I225000J0D01*
G01*
X145780000Y-103030000D01*
G75*
G02*
X146005000Y-103255000I0J-225000D01*
G01*
X146005000Y-103755000D01*
G75*
G02*
X145780000Y-103980000I-225000J0D01*
G01*
X145330000Y-103980000D01*
G75*
G02*
X145105000Y-103755000I0J225000D01*
G01*
G37*
%TD.AperFunction*%
%TO.P,C11,1*%
%TO.N,RIN*%
%TA.AperFunction,SMDPad,CuDef*%
G36*
G01*
X143555000Y-103755000D02*
X143555000Y-103255000D01*
G75*
G02*
X143780000Y-103030000I225000J0D01*
G01*
X144230000Y-103030000D01*
G75*
G02*
X144455000Y-103255000I0J-225000D01*
G01*
X144455000Y-103755000D01*
G75*
G02*
X144230000Y-103980000I-225000J0D01*
G01*
X143780000Y-103980000D01*
G75*
G02*
X143555000Y-103755000I0J225000D01*
G01*
G37*
%TD.AperFunction*%
%TD*%
%TO.P,C1,2*%
%TO.N,GND*%
%TA.AperFunction,SMDPad,CuDef*%
G36*
G01*
X152269000Y-99116000D02*
X151769000Y-99116000D01*
G75*
G02*
X151544000Y-98891000I0J225000D01*
G01*
X151544000Y-98441000D01*
G75*
G02*
X151769000Y-98216000I225000J0D01*
G01*
X152269000Y-98216000D01*
G75*
G02*
X152494000Y-98441000I0J-225000D01*
G01*
X152494000Y-98891000D01*
G75*
G02*
X152269000Y-99116000I-225000J0D01*
G01*
G37*
%TD.AperFunction*%
%TO.P,C1,1*%
%TO.N,VDD*%
%TA.AperFunction,SMDPad,CuDef*%
G36*
G01*
X152269000Y-100666000D02*
X151769000Y-100666000D01*
G75*
G02*
X151544000Y-100441000I0J225000D01*
G01*
X151544000Y-99991000D01*
G75*
G02*
X151769000Y-99766000I225000J0D01*
G01*
X152269000Y-99766000D01*
G75*
G02*
X152494000Y-99991000I0J-225000D01*
G01*
X152494000Y-100441000D01*
G75*
G02*
X152269000Y-100666000I-225000J0D01*
G01*
G37*
%TD.AperFunction*%
%TD*%
%TO.P,C5,2*%
%TO.N,GND*%
%TA.AperFunction,SMDPad,CuDef*%
G36*
G01*
X155444000Y-99116000D02*
X154944000Y-99116000D01*
G75*
G02*
X154719000Y-98891000I0J225000D01*
G01*
X154719000Y-98441000D01*
G75*
G02*
X154944000Y-98216000I225000J0D01*
G01*
X155444000Y-98216000D01*
G75*
G02*
X155669000Y-98441000I0J-225000D01*
G01*
X155669000Y-98891000D01*
G75*
G02*
X155444000Y-99116000I-225000J0D01*
G01*
G37*
%TD.AperFunction*%
%TO.P,C5,1*%
%TO.N,Net-(C5-Pad1)*%
%TA.AperFunction,SMDPad,CuDef*%
G36*
G01*
X155444000Y-100666000D02*
X154944000Y-100666000D01*
G75*
G02*
X154719000Y-100441000I0J225000D01*
G01*
X154719000Y-99991000D01*
G75*
G02*
X154944000Y-99766000I225000J0D01*
G01*
X155444000Y-99766000D01*
G75*
G02*
X155669000Y-99991000I0J-225000D01*
G01*
X155669000Y-100441000D01*
G75*
G02*
X155444000Y-100666000I-225000J0D01*
G01*
G37*
%TD.AperFunction*%
%TD*%
%TO.P,C2,1*%
%TO.N,VDD*%
%TA.AperFunction,SMDPad,CuDef*%
G36*
G01*
X157349000Y-100666000D02*
X156849000Y-100666000D01*
G75*
G02*
X156624000Y-100441000I0J225000D01*
G01*
X156624000Y-99991000D01*
G75*
G02*
X156849000Y-99766000I225000J0D01*
G01*
X157349000Y-99766000D01*
G75*
G02*
X157574000Y-99991000I0J-225000D01*
G01*
X157574000Y-100441000D01*
G75*
G02*
X157349000Y-100666000I-225000J0D01*
G01*
G37*
%TD.AperFunction*%
%TO.P,C2,2*%
%TO.N,GND*%
%TA.AperFunction,SMDPad,CuDef*%
G36*
G01*
X157349000Y-99116000D02*
X156849000Y-99116000D01*
G75*
G02*
X156624000Y-98891000I0J225000D01*
G01*
X156624000Y-98441000D01*
G75*
G02*
X156849000Y-98216000I225000J0D01*
G01*
X157349000Y-98216000D01*
G75*
G02*
X157574000Y-98441000I0J-225000D01*
G01*
X157574000Y-98891000D01*
G75*
G02*
X157349000Y-99116000I-225000J0D01*
G01*
G37*
%TD.AperFunction*%
%TD*%
%TO.P,C6,1*%
%TO.N,MICBIAS*%
%TA.AperFunction,SMDPad,CuDef*%
G36*
G01*
X150364000Y-99396000D02*
X149864000Y-99396000D01*
G75*
G02*
X149639000Y-99171000I0J225000D01*
G01*
X149639000Y-98721000D01*
G75*
G02*
X149864000Y-98496000I225000J0D01*
G01*
X150364000Y-98496000D01*
G75*
G02*
X150589000Y-98721000I0J-225000D01*
G01*
X150589000Y-99171000D01*
G75*
G02*
X150364000Y-99396000I-225000J0D01*
G01*
G37*
%TD.AperFunction*%
%TO.P,C6,2*%
%TO.N,GND*%
%TA.AperFunction,SMDPad,CuDef*%
G36*
G01*
X150364000Y-97846000D02*
X149864000Y-97846000D01*
G75*
G02*
X149639000Y-97621000I0J225000D01*
G01*
X149639000Y-97171000D01*
G75*
G02*
X149864000Y-96946000I225000J0D01*
G01*
X150364000Y-96946000D01*
G75*
G02*
X150589000Y-97171000I0J-225000D01*
G01*
X150589000Y-97621000D01*
G75*
G02*
X150364000Y-97846000I-225000J0D01*
G01*
G37*
%TD.AperFunction*%
%TD*%
%TO.P,C13,1*%
%TO.N,Net-(C13-Pad1)*%
%TA.AperFunction,SMDPad,CuDef*%
G36*
G01*
X158909000Y-105406000D02*
X158909000Y-104906000D01*
G75*
G02*
X159134000Y-104681000I225000J0D01*
G01*
X159584000Y-104681000D01*
G75*
G02*
X159809000Y-104906000I0J-225000D01*
G01*
X159809000Y-105406000D01*
G75*
G02*
X159584000Y-105631000I-225000J0D01*
G01*
X159134000Y-105631000D01*
G75*
G02*
X158909000Y-105406000I0J225000D01*
G01*
G37*
%TD.AperFunction*%
%TO.P,C13,2*%
%TO.N,GND*%
%TA.AperFunction,SMDPad,CuDef*%
G36*
G01*
X160459000Y-105406000D02*
X160459000Y-104906000D01*
G75*
G02*
X160684000Y-104681000I225000J0D01*
G01*
X161134000Y-104681000D01*
G75*
G02*
X161359000Y-104906000I0J-225000D01*
G01*
X161359000Y-105406000D01*
G75*
G02*
X161134000Y-105631000I-225000J0D01*
G01*
X160684000Y-105631000D01*
G75*
G02*
X160459000Y-105406000I0J225000D01*
G01*
G37*
%TD.AperFunction*%
%TD*%
%TO.P,C12,2*%
%TO.N,Net-(C12-Pad2)*%
%TA.AperFunction,SMDPad,CuDef*%
G36*
G01*
X159809000Y-106811000D02*
X159809000Y-107311000D01*
G75*
G02*
X159584000Y-107536000I-225000J0D01*
G01*
X159134000Y-107536000D01*
G75*
G02*
X158909000Y-107311000I0J225000D01*
G01*
X158909000Y-106811000D01*
G75*
G02*
X159134000Y-106586000I225000J0D01*
G01*
X159584000Y-106586000D01*
G75*
G02*
X159809000Y-106811000I0J-225000D01*
G01*
G37*
%TD.AperFunction*%
%TO.P,C12,1*%
%TO.N,GND*%
%TA.AperFunction,SMDPad,CuDef*%
G36*
G01*
X161359000Y-106811000D02*
X161359000Y-107311000D01*
G75*
G02*
X161134000Y-107536000I-225000J0D01*
G01*
X160684000Y-107536000D01*
G75*
G02*
X160459000Y-107311000I0J225000D01*
G01*
X160459000Y-106811000D01*
G75*
G02*
X160684000Y-106586000I225000J0D01*
G01*
X161134000Y-106586000D01*
G75*
G02*
X161359000Y-106811000I0J-225000D01*
G01*
G37*
%TD.AperFunction*%
%TD*%
%TO.P,C3,2*%
%TO.N,VDD*%
%TA.AperFunction,SMDPad,CuDef*%
G36*
G01*
X154744000Y-111121000D02*
X154744000Y-110621000D01*
G75*
G02*
X154969000Y-110396000I225000J0D01*
G01*
X155419000Y-110396000D01*
G75*
G02*
X155644000Y-110621000I0J-225000D01*
G01*
X155644000Y-111121000D01*
G75*
G02*
X155419000Y-111346000I-225000J0D01*
G01*
X154969000Y-111346000D01*
G75*
G02*
X154744000Y-111121000I0J225000D01*
G01*
G37*
%TD.AperFunction*%
%TO.P,C3,1*%
%TO.N,GND*%
%TA.AperFunction,SMDPad,CuDef*%
G36*
G01*
X153194000Y-111121000D02*
X153194000Y-110621000D01*
G75*
G02*
X153419000Y-110396000I225000J0D01*
G01*
X153869000Y-110396000D01*
G75*
G02*
X154094000Y-110621000I0J-225000D01*
G01*
X154094000Y-111121000D01*
G75*
G02*
X153869000Y-111346000I-225000J0D01*
G01*
X153419000Y-111346000D01*
G75*
G02*
X153194000Y-111121000I0J225000D01*
G01*
G37*
%TD.AperFunction*%
%TD*%
%TO.P,C4,1*%
%TO.N,GND*%
%TA.AperFunction,SMDPad,CuDef*%
G36*
G01*
X153194000Y-113026000D02*
X153194000Y-112526000D01*
G75*
G02*
X153419000Y-112301000I225000J0D01*
G01*
X153869000Y-112301000D01*
G75*
G02*
X154094000Y-112526000I0J-225000D01*
G01*
X154094000Y-113026000D01*
G75*
G02*
X153869000Y-113251000I-225000J0D01*
G01*
X153419000Y-113251000D01*
G75*
G02*
X153194000Y-113026000I0J225000D01*
G01*
G37*
%TD.AperFunction*%
%TO.P,C4,2*%
%TO.N,VDD*%
%TA.AperFunction,SMDPad,CuDef*%
G36*
G01*
X154744000Y-113026000D02*
X154744000Y-112526000D01*
G75*
G02*
X154969000Y-112301000I225000J0D01*
G01*
X155419000Y-112301000D01*
G75*
G02*
X155644000Y-112526000I0J-225000D01*
G01*
X155644000Y-113026000D01*
G75*
G02*
X155419000Y-113251000I-225000J0D01*
G01*
X154969000Y-113251000D01*
G75*
G02*
X154744000Y-113026000I0J225000D01*
G01*
G37*
%TD.AperFunction*%
%TD*%
%TO.P,C10,1*%
%TO.N,Net-(C10-Pad1)*%
%TA.AperFunction,SMDPad,CuDef*%
G36*
G01*
X145865000Y-99445000D02*
X145865000Y-99945000D01*
G75*
G02*
X145640000Y-100170000I-225000J0D01*
G01*
X145190000Y-100170000D01*
G75*
G02*
X144965000Y-99945000I0J225000D01*
G01*
X144965000Y-99445000D01*
G75*
G02*
X145190000Y-99220000I225000J0D01*
G01*
X145640000Y-99220000D01*
G75*
G02*
X145865000Y-99445000I0J-225000D01*
G01*
G37*
%TD.AperFunction*%
%TO.P,C10,2*%
%TO.N,L2_GPIO2*%
%TA.AperFunction,SMDPad,CuDef*%
G36*
G01*
X144315000Y-99445000D02*
X144315000Y-99945000D01*
G75*
G02*
X144090000Y-100170000I-225000J0D01*
G01*
X143640000Y-100170000D01*
G75*
G02*
X143415000Y-99945000I0J225000D01*
G01*
X143415000Y-99445000D01*
G75*
G02*
X143640000Y-99220000I225000J0D01*
G01*
X144090000Y-99220000D01*
G75*
G02*
X144315000Y-99445000I0J-225000D01*
G01*
G37*
%TD.AperFunction*%
%TD*%
%TO.P,C8,2*%
%TO.N,R2_GPIO3*%
%TA.AperFunction,SMDPad,CuDef*%
G36*
G01*
X147109000Y-105668000D02*
X147109000Y-106168000D01*
G75*
G02*
X146884000Y-106393000I-225000J0D01*
G01*
X146434000Y-106393000D01*
G75*
G02*
X146209000Y-106168000I0J225000D01*
G01*
X146209000Y-105668000D01*
G75*
G02*
X146434000Y-105443000I225000J0D01*
G01*
X146884000Y-105443000D01*
G75*
G02*
X147109000Y-105668000I0J-225000D01*
G01*
G37*
%TD.AperFunction*%
%TO.P,C8,1*%
%TO.N,Net-(C8-Pad1)*%
%TA.AperFunction,SMDPad,CuDef*%
G36*
G01*
X148659000Y-105668000D02*
X148659000Y-106168000D01*
G75*
G02*
X148434000Y-106393000I-225000J0D01*
G01*
X147984000Y-106393000D01*
G75*
G02*
X147759000Y-106168000I0J225000D01*
G01*
X147759000Y-105668000D01*
G75*
G02*
X147984000Y-105443000I225000J0D01*
G01*
X148434000Y-105443000D01*
G75*
G02*
X148659000Y-105668000I0J-225000D01*
G01*
G37*
%TD.AperFunction*%
%TD*%
D10*
%TO.P,J1,12*%
%TO.N,GND*%
X134620000Y-120650000D03*
%TO.P,J1,11*%
%TO.N,MCLK*%
X134620000Y-118110000D03*
%TO.P,J1,10*%
%TO.N,DACDAT*%
X134620000Y-115570000D03*
%TO.P,J1,9*%
%TO.N,ADCDAT*%
X134620000Y-113030000D03*
%TO.P,J1,8*%
%TO.N,BCLK*%
X134620000Y-110490000D03*
%TO.P,J1,7*%
%TO.N,LRC*%
X134620000Y-107950000D03*
%TO.P,J1,6*%
%TO.N,R2_GPIO3*%
X134620000Y-105410000D03*
%TO.P,J1,5*%
%TO.N,RIN*%
X134620000Y-102870000D03*
%TO.P,J1,4*%
%TO.N,RIP*%
X134620000Y-100330000D03*
%TO.P,J1,3*%
%TO.N,L2_GPIO2*%
X134620000Y-97790000D03*
%TO.P,J1,2*%
%TO.N,LIN*%
X134620000Y-95250000D03*
D11*
%TO.P,J1,1*%
%TO.N,LIP*%
X134620000Y-92710000D03*
%TD*%
%TO.P,J2,1*%
%TO.N,MICBIAS*%
X172720000Y-92710000D03*
D10*
%TO.P,J2,2*%
%TO.N,LOUT1*%
X172720000Y-95250000D03*
%TO.P,J2,3*%
%TO.N,ROUT1*%
X172720000Y-97790000D03*
%TO.P,J2,4*%
%TO.N,LOUT2*%
X172720000Y-100330000D03*
%TO.P,J2,5*%
%TO.N,ROUT2*%
X172720000Y-102870000D03*
%TO.P,J2,6*%
%TO.N,OUT3*%
X172720000Y-105410000D03*
%TO.P,J2,7*%
%TO.N,OUT4*%
X172720000Y-107950000D03*
%TO.P,J2,8*%
%TO.N,MODE*%
X172720000Y-110490000D03*
%TO.P,J2,9*%
%TO.N,SDIN*%
X172720000Y-113030000D03*
%TO.P,J2,10*%
%TO.N,SCLK*%
X172720000Y-115570000D03*
%TO.P,J2,11*%
%TO.N,CSB_GPIO1*%
X172720000Y-118110000D03*
%TO.P,J2,12*%
%TO.N,VDD*%
X172720000Y-120650000D03*
%TD*%
D12*
%TO.P,U1,1*%
%TO.N,Net-(C15-Pad1)*%
X151138999Y-103406001D03*
%TO.P,U1,2*%
%TO.N,Net-(C16-Pad1)*%
X151138999Y-103906001D03*
%TO.P,U1,3*%
%TO.N,Net-(C10-Pad1)*%
X151138999Y-104406001D03*
%TO.P,U1,4*%
%TO.N,Net-(C19-Pad2)*%
X151138999Y-104906001D03*
%TO.P,U1,5*%
%TO.N,Net-(C11-Pad2)*%
X151138999Y-105406001D03*
%TO.P,U1,6*%
%TO.N,Net-(C8-Pad1)*%
X151138999Y-105906001D03*
%TO.P,U1,7*%
%TO.N,LRC*%
X151138999Y-106406001D03*
%TO.P,U1,8*%
%TO.N,BCLK*%
X151138999Y-106906001D03*
D13*
%TO.P,U1,9*%
%TO.N,ADCDAT*%
X151688999Y-107456001D03*
%TO.P,U1,10*%
%TO.N,DACDAT*%
X152188999Y-107456001D03*
%TO.P,U1,11*%
%TO.N,MCLK*%
X152688999Y-107456001D03*
%TO.P,U1,12*%
%TO.N,GND*%
X153188999Y-107456001D03*
%TO.P,U1,13*%
%TO.N,VDD*%
X153688999Y-107456001D03*
%TO.P,U1,14*%
X154188999Y-107456001D03*
%TO.P,U1,15*%
%TO.N,CSB_GPIO1*%
X154688999Y-107456001D03*
%TO.P,U1,16*%
%TO.N,SCLK*%
X155188999Y-107456001D03*
D12*
%TO.P,U1,17*%
%TO.N,SDIN*%
X155738999Y-106906001D03*
%TO.P,U1,18*%
%TO.N,MODE*%
X155738999Y-106406001D03*
%TO.P,U1,19*%
%TO.N,Net-(C12-Pad2)*%
X155738999Y-105906001D03*
%TO.P,U1,20*%
%TO.N,Net-(C13-Pad1)*%
X155738999Y-105406001D03*
%TO.P,U1,21*%
%TO.N,OUT4*%
X155738999Y-104906001D03*
%TO.P,U1,22*%
%TO.N,OUT3*%
X155738999Y-104406001D03*
%TO.P,U1,23*%
%TO.N,ROUT2*%
X155738999Y-103906001D03*
%TO.P,U1,24*%
%TO.N,GND*%
X155738999Y-103406001D03*
D13*
%TO.P,U1,25*%
%TO.N,LOUT2*%
X155188999Y-102856001D03*
%TO.P,U1,26*%
%TO.N,VDD*%
X154688999Y-102856001D03*
%TO.P,U1,27*%
%TO.N,Net-(C5-Pad1)*%
X154188999Y-102856001D03*
%TO.P,U1,28*%
%TO.N,GND*%
X153688999Y-102856001D03*
%TO.P,U1,29*%
%TO.N,ROUT1*%
X153188999Y-102856001D03*
%TO.P,U1,30*%
%TO.N,LOUT1*%
X152688999Y-102856001D03*
%TO.P,U1,31*%
%TO.N,VDD*%
X152188999Y-102856001D03*
%TO.P,U1,32*%
%TO.N,MICBIAS*%
X151688999Y-102856001D03*
D14*
%TO.P,U1,33*%
%TO.N,GND*%
X152145249Y-103862251D03*
X152145249Y-104724751D03*
X152145249Y-105587251D03*
X152145249Y-106449751D03*
X153007749Y-103862251D03*
X153007749Y-104724751D03*
X153007749Y-105587251D03*
X153007749Y-106449751D03*
X153870249Y-103862251D03*
X153870249Y-104724751D03*
X153870249Y-105587251D03*
X153870249Y-106449751D03*
X154732749Y-103862251D03*
X154732749Y-104724751D03*
X154732749Y-105587251D03*
X154732749Y-106449751D03*
%TD*%
D15*
%TO.N,GND*%
X162560000Y-106045000D03*
X159004000Y-98171000D03*
X152019000Y-96266000D03*
X157099000Y-102616000D03*
%TO.N,VDD*%
X150749000Y-100076000D03*
X160274000Y-98806000D03*
%TD*%
D16*
%TO.N,GND*%
X153238989Y-110465989D02*
X153644000Y-110871000D01*
X153238989Y-107645989D02*
X153238989Y-110465989D01*
X153188999Y-107595999D02*
X153238989Y-107645989D01*
X153188999Y-107456001D02*
X153188999Y-107595999D01*
X153644000Y-110871000D02*
X153644000Y-112776000D01*
X146024000Y-120396000D02*
X134874000Y-120396000D01*
X153644000Y-112776000D02*
X146024000Y-120396000D01*
X156308999Y-103406001D02*
X157099000Y-102616000D01*
X155738999Y-103406001D02*
X156308999Y-103406001D01*
X155194000Y-98666000D02*
X157099000Y-98666000D01*
X158509000Y-98666000D02*
X159004000Y-98171000D01*
X157099000Y-98666000D02*
X158509000Y-98666000D01*
X151244000Y-96266000D02*
X150114000Y-97396000D01*
X152019000Y-96266000D02*
X151244000Y-96266000D01*
X150749000Y-97396000D02*
X152019000Y-98666000D01*
X150114000Y-97396000D02*
X150749000Y-97396000D01*
X154374010Y-99485990D02*
X155194000Y-98666000D01*
X154374010Y-101532400D02*
X154374010Y-99485990D01*
X153688999Y-102217411D02*
X154374010Y-101532400D01*
X153688999Y-102856001D02*
X153688999Y-102217411D01*
X153688999Y-103681001D02*
X153870249Y-103862251D01*
X153688999Y-102856001D02*
X153688999Y-103681001D01*
X154732749Y-103862251D02*
X154732749Y-104724751D01*
X154732749Y-104724751D02*
X154732749Y-105587251D01*
X154732749Y-106449751D02*
X153870249Y-106449751D01*
X153870249Y-105587251D02*
X154732749Y-105587251D01*
X154732749Y-105587251D02*
X154732749Y-106449751D01*
X154732749Y-104724751D02*
X152145249Y-104724751D01*
X154732749Y-103862251D02*
X152145249Y-103862251D01*
X153870249Y-105587251D02*
X152145249Y-105587251D01*
X153870249Y-106449751D02*
X152145249Y-106449751D01*
X161671000Y-105156000D02*
X162560000Y-106045000D01*
X160909000Y-105156000D02*
X161671000Y-105156000D01*
X161544000Y-107061000D02*
X162560000Y-106045000D01*
X160909000Y-107061000D02*
X161544000Y-107061000D01*
%TO.N,VDD*%
X152188999Y-102856001D02*
X152188999Y-100385999D01*
X152188999Y-100385999D02*
X152019000Y-100216000D01*
X154188999Y-107456001D02*
X154188999Y-108597409D01*
X155194000Y-109602410D02*
X155194000Y-110871000D01*
X154188999Y-108597409D02*
X155194000Y-109602410D01*
X153688999Y-107456001D02*
X153688999Y-108730999D01*
X155194000Y-110236000D02*
X155194000Y-110871000D01*
X153688999Y-108730999D02*
X155194000Y-110236000D01*
X155194000Y-110871000D02*
X155194000Y-112776000D01*
X155194000Y-112776000D02*
X162179000Y-119761000D01*
X156963230Y-100216000D02*
X157099000Y-100216000D01*
X154688999Y-102490231D02*
X156963230Y-100216000D01*
X154688999Y-102856001D02*
X154688999Y-102490231D01*
X159874001Y-99205999D02*
X160274000Y-98806000D01*
X158109001Y-99205999D02*
X159874001Y-99205999D01*
X157099000Y-100216000D02*
X158109001Y-99205999D01*
X150889000Y-100216000D02*
X150749000Y-100076000D01*
X152019000Y-100216000D02*
X150889000Y-100216000D01*
X163195000Y-120650000D02*
X172720000Y-120650000D01*
X162306000Y-119761000D02*
X163195000Y-120650000D01*
X162179000Y-119761000D02*
X162306000Y-119761000D01*
%TO.N,MICBIAS*%
X151688999Y-102856001D02*
X151688999Y-102425999D01*
X151688999Y-102425999D02*
X149479000Y-100216000D01*
X150114000Y-99581000D02*
X149479000Y-100216000D01*
X150114000Y-98946000D02*
X150114000Y-99581000D01*
X148590000Y-92710000D02*
X172720000Y-92710000D01*
X146939000Y-97676000D02*
X146939000Y-94361000D01*
X146939000Y-94361000D02*
X148590000Y-92710000D01*
X149479000Y-100216000D02*
X146939000Y-97676000D01*
%TO.N,Net-(C5-Pad1)*%
X154188999Y-102353821D02*
X154824020Y-101718800D01*
X154188999Y-102856001D02*
X154188999Y-102353821D01*
X154824020Y-100585980D02*
X155194000Y-100216000D01*
X154824020Y-101718800D02*
X154824020Y-100585980D01*
%TO.N,L2_GPIO2*%
X136525000Y-99695000D02*
X134620000Y-97790000D01*
X143865000Y-99695000D02*
X136525000Y-99695000D01*
%TO.N,R2_GPIO3*%
X146532000Y-105791000D02*
X146659000Y-105918000D01*
X135509000Y-105791000D02*
X146532000Y-105791000D01*
X134874000Y-105156000D02*
X135509000Y-105791000D01*
%TO.N,Net-(C10-Pad1)*%
X145841588Y-99695000D02*
X145415000Y-99695000D01*
X150552589Y-104406001D02*
X145841588Y-99695000D01*
X151138999Y-104406001D02*
X150552589Y-104406001D01*
%TO.N,DACDAT*%
X152188999Y-107456001D02*
X152188999Y-108796001D01*
X135509000Y-114681000D02*
X134874000Y-115316000D01*
X139954000Y-114681000D02*
X135509000Y-114681000D01*
X142494000Y-112141000D02*
X139954000Y-114681000D01*
X148844000Y-112141000D02*
X142494000Y-112141000D01*
X152188999Y-108796001D02*
X148844000Y-112141000D01*
%TO.N,ADCDAT*%
X151688999Y-107456001D02*
X151688999Y-108026001D01*
X135509000Y-113411000D02*
X134874000Y-112776000D01*
X139319000Y-113411000D02*
X135509000Y-113411000D01*
X141224000Y-111506000D02*
X139319000Y-113411000D01*
X148209000Y-111506000D02*
X141224000Y-111506000D01*
X151688999Y-108026001D02*
X148209000Y-111506000D01*
%TO.N,BCLK*%
X151138999Y-106906001D02*
X150903999Y-106906001D01*
X147574000Y-110236000D02*
X134874000Y-110236000D01*
X150903999Y-106906001D02*
X147574000Y-110236000D01*
%TO.N,LRC*%
X151138999Y-106406001D02*
X149498999Y-106406001D01*
X148209000Y-107696000D02*
X134874000Y-107696000D01*
X149498999Y-106406001D02*
X148209000Y-107696000D01*
%TO.N,RIN*%
X135255000Y-103505000D02*
X134620000Y-102870000D01*
X144005000Y-103505000D02*
X135255000Y-103505000D01*
%TO.N,RIP*%
X135890000Y-101600000D02*
X134620000Y-100330000D01*
X143865000Y-101600000D02*
X135890000Y-101600000D01*
%TO.N,LIN*%
X135041771Y-95163771D02*
X134874000Y-94996000D01*
X143865000Y-95250000D02*
X134620000Y-95250000D01*
%TO.N,LIP*%
X143865000Y-92710000D02*
X134620000Y-92710000D01*
%TO.N,LOUT1*%
X152688999Y-102856001D02*
X152688999Y-101380999D01*
X153289000Y-100780998D02*
X153289000Y-96901000D01*
X152688999Y-101380999D02*
X153289000Y-100780998D01*
X153473990Y-96716010D02*
X153473990Y-96081010D01*
X153289000Y-96901000D02*
X153473990Y-96716010D01*
X154305000Y-95250000D02*
X172720000Y-95250000D01*
X153473990Y-96081010D02*
X154305000Y-95250000D01*
%TO.N,ROUT1*%
X153188999Y-102856001D02*
X153188999Y-102081001D01*
X153188999Y-102081001D02*
X153924000Y-101346000D01*
X153925410Y-96901000D02*
X153924705Y-96901705D01*
X153924000Y-96902410D02*
X153925410Y-96901000D01*
X153924000Y-101346000D02*
X153924000Y-96902410D01*
X171832410Y-96902410D02*
X172720000Y-97790000D01*
X153924000Y-96902410D02*
X171832410Y-96902410D01*
%TO.N,LOUT2*%
X155188999Y-102856001D02*
X155736592Y-102856001D01*
X157822591Y-101890999D02*
X159452600Y-100260990D01*
X156701594Y-101890999D02*
X157822591Y-101890999D01*
X155736592Y-102856001D02*
X156701594Y-101890999D01*
X172650990Y-100260990D02*
X172720000Y-100330000D01*
X159452600Y-100260990D02*
X172650990Y-100260990D01*
%TO.N,ROUT2*%
X159639000Y-100711000D02*
X170561000Y-100711000D01*
X170561000Y-100711000D02*
X172720000Y-102870000D01*
X156882001Y-103906001D02*
X157971262Y-102816740D01*
X157971262Y-102378738D02*
X159639000Y-100711000D01*
X157971262Y-102816740D02*
X157971262Y-102378738D01*
X155738999Y-103906001D02*
X156882001Y-103906001D01*
%TO.N,OUT3*%
X169291000Y-101981000D02*
X172720000Y-105410000D01*
X159639000Y-101981000D02*
X169291000Y-101981000D01*
X157213999Y-104406001D02*
X159639000Y-101981000D01*
X155738999Y-104406001D02*
X157213999Y-104406001D01*
%TO.N,OUT4*%
X155738999Y-104906001D02*
X157350409Y-104906001D01*
X157350409Y-104906001D02*
X159640410Y-102616000D01*
X159640410Y-102616000D02*
X165354000Y-102616000D01*
X165354000Y-102616000D02*
X169799000Y-107061000D01*
X169799000Y-107061000D02*
X169799000Y-107569000D01*
X170180000Y-107950000D02*
X172720000Y-107950000D01*
X169799000Y-107569000D02*
X170180000Y-107950000D01*
%TO.N,MODE*%
X161290000Y-110490000D02*
X172720000Y-110490000D01*
X160401000Y-109601000D02*
X161290000Y-110490000D01*
X157079001Y-106406001D02*
X160274000Y-109601000D01*
X160274000Y-109601000D02*
X160401000Y-109601000D01*
X155738999Y-106406001D02*
X157079001Y-106406001D01*
%TO.N,SDIN*%
X155738999Y-106906001D02*
X156309001Y-106906001D01*
X156309001Y-106906001D02*
X161544000Y-112141000D01*
X161544000Y-112141000D02*
X161671000Y-112141000D01*
X162560000Y-113030000D02*
X172720000Y-113030000D01*
X161671000Y-112141000D02*
X162560000Y-113030000D01*
%TO.N,SCLK*%
X155188999Y-107456001D02*
X155589001Y-107456001D01*
X155589001Y-107456001D02*
X162814000Y-114681000D01*
X162814000Y-114681000D02*
X162941000Y-114681000D01*
X162941000Y-114681000D02*
X163830000Y-115570000D01*
X163830000Y-115570000D02*
X172720000Y-115570000D01*
%TO.N,CSB_GPIO1*%
X154688999Y-107456001D02*
X154688999Y-108460999D01*
X154688999Y-108460999D02*
X163449000Y-117221000D01*
X163449000Y-117221000D02*
X163576000Y-117221000D01*
X164465000Y-118110000D02*
X172720000Y-118110000D01*
X163576000Y-117221000D02*
X164465000Y-118110000D01*
%TO.N,MCLK*%
X152688999Y-107456001D02*
X152688999Y-109566001D01*
X139319000Y-117856000D02*
X134874000Y-117856000D01*
X143764000Y-113411000D02*
X139319000Y-117856000D01*
X148844000Y-113411000D02*
X143764000Y-113411000D01*
X152688999Y-109566001D02*
X148844000Y-113411000D01*
%TO.N,Net-(C8-Pad1)*%
X151138999Y-105906001D02*
X147829001Y-105906001D01*
X147829001Y-105906001D02*
X147714000Y-105791000D01*
%TO.N,Net-(C12-Pad2)*%
X155738999Y-105906001D02*
X157215411Y-105906001D01*
X158370410Y-107061000D02*
X159359000Y-107061000D01*
X157215411Y-105906001D02*
X158370410Y-107061000D01*
%TO.N,Net-(C13-Pad1)*%
X159108999Y-105406001D02*
X159359000Y-105156000D01*
X155738999Y-105406001D02*
X159108999Y-105406001D01*
%TO.N,Net-(C11-Pad2)*%
X151138999Y-105406001D02*
X149863999Y-105406001D01*
X147962998Y-103505000D02*
X145555000Y-103505000D01*
X149863999Y-105406001D02*
X147962998Y-103505000D01*
%TO.N,Net-(C15-Pad1)*%
X151138999Y-103406001D02*
X151138999Y-102512409D01*
X146488990Y-93783990D02*
X145415000Y-92710000D01*
X146488990Y-97862400D02*
X146488990Y-93783990D01*
X151138999Y-102512409D02*
X146488990Y-97862400D01*
%TO.N,Net-(C16-Pad1)*%
X150613998Y-102623818D02*
X145415000Y-97424820D01*
X145415000Y-97424820D02*
X145415000Y-95250000D01*
X150613998Y-103831000D02*
X150613998Y-102623818D01*
X150688999Y-103906001D02*
X150613998Y-103831000D01*
X151138999Y-103906001D02*
X150688999Y-103906001D01*
%TO.N,Net-(C19-Pad2)*%
X151138999Y-104906001D02*
X150416179Y-104906001D01*
X147110178Y-101600000D02*
X145415000Y-101600000D01*
X150416179Y-104906001D02*
X147110178Y-101600000D01*
%TD*%
M02*
