%TF.GenerationSoftware,KiCad,Pcbnew,(5.1.9-0-10_14)*%
%TF.CreationDate,2021-08-20T09:16:23+02:00*%
%TF.ProjectId,WM8758B_breakout,574d3837-3538-4425-9f62-7265616b6f75,rev?*%
%TF.SameCoordinates,Original*%
%TF.FileFunction,Legend,Top*%
%TF.FilePolarity,Positive*%
%FSLAX46Y46*%
G04 Gerber Fmt 4.6, Leading zero omitted, Abs format (unit mm)*
G04 Created by KiCad (PCBNEW (5.1.9-0-10_14)) date 2021-08-20 09:16:23*
%MOMM*%
%LPD*%
G01*
G04 APERTURE LIST*
%ADD10C,0.150000*%
%ADD11C,0.120000*%
%ADD12C,0.300000*%
%ADD13O,1.700000X1.700000*%
%ADD14R,1.700000X1.700000*%
%ADD15R,0.400000X0.200000*%
%ADD16R,0.200000X0.400000*%
%ADD17R,0.862500X0.862500*%
G04 APERTURE END LIST*
D10*
X131651428Y-124277380D02*
X131080000Y-124277380D01*
X131365714Y-124277380D02*
X131365714Y-123277380D01*
X131270476Y-123420238D01*
X131175238Y-123515476D01*
X131080000Y-123563095D01*
X132080000Y-124182142D02*
X132127619Y-124229761D01*
X132080000Y-124277380D01*
X132032380Y-124229761D01*
X132080000Y-124182142D01*
X132080000Y-124277380D01*
X132746666Y-123277380D02*
X132841904Y-123277380D01*
X132937142Y-123325000D01*
X132984761Y-123372619D01*
X133032380Y-123467857D01*
X133080000Y-123658333D01*
X133080000Y-123896428D01*
X133032380Y-124086904D01*
X132984761Y-124182142D01*
X132937142Y-124229761D01*
X132841904Y-124277380D01*
X132746666Y-124277380D01*
X132651428Y-124229761D01*
X132603809Y-124182142D01*
X132556190Y-124086904D01*
X132508571Y-123896428D01*
X132508571Y-123658333D01*
X132556190Y-123467857D01*
X132603809Y-123372619D01*
X132651428Y-123325000D01*
X132746666Y-123277380D01*
D11*
X150420605Y-101981000D02*
G75*
G03*
X150420605Y-101981000I-179605J0D01*
G01*
D12*
X146860476Y-120189761D02*
X147336666Y-122189761D01*
X147717619Y-120761190D01*
X148098571Y-122189761D01*
X148574761Y-120189761D01*
X149336666Y-122189761D02*
X149336666Y-120189761D01*
X150003333Y-121618333D01*
X150670000Y-120189761D01*
X150670000Y-122189761D01*
X151908095Y-121046904D02*
X151717619Y-120951666D01*
X151622380Y-120856428D01*
X151527142Y-120665952D01*
X151527142Y-120570714D01*
X151622380Y-120380238D01*
X151717619Y-120285000D01*
X151908095Y-120189761D01*
X152289047Y-120189761D01*
X152479523Y-120285000D01*
X152574761Y-120380238D01*
X152670000Y-120570714D01*
X152670000Y-120665952D01*
X152574761Y-120856428D01*
X152479523Y-120951666D01*
X152289047Y-121046904D01*
X151908095Y-121046904D01*
X151717619Y-121142142D01*
X151622380Y-121237380D01*
X151527142Y-121427857D01*
X151527142Y-121808809D01*
X151622380Y-121999285D01*
X151717619Y-122094523D01*
X151908095Y-122189761D01*
X152289047Y-122189761D01*
X152479523Y-122094523D01*
X152574761Y-121999285D01*
X152670000Y-121808809D01*
X152670000Y-121427857D01*
X152574761Y-121237380D01*
X152479523Y-121142142D01*
X152289047Y-121046904D01*
X153336666Y-120189761D02*
X154670000Y-120189761D01*
X153812857Y-122189761D01*
X156384285Y-120189761D02*
X155431904Y-120189761D01*
X155336666Y-121142142D01*
X155431904Y-121046904D01*
X155622380Y-120951666D01*
X156098571Y-120951666D01*
X156289047Y-121046904D01*
X156384285Y-121142142D01*
X156479523Y-121332619D01*
X156479523Y-121808809D01*
X156384285Y-121999285D01*
X156289047Y-122094523D01*
X156098571Y-122189761D01*
X155622380Y-122189761D01*
X155431904Y-122094523D01*
X155336666Y-121999285D01*
X157622380Y-121046904D02*
X157431904Y-120951666D01*
X157336666Y-120856428D01*
X157241428Y-120665952D01*
X157241428Y-120570714D01*
X157336666Y-120380238D01*
X157431904Y-120285000D01*
X157622380Y-120189761D01*
X158003333Y-120189761D01*
X158193809Y-120285000D01*
X158289047Y-120380238D01*
X158384285Y-120570714D01*
X158384285Y-120665952D01*
X158289047Y-120856428D01*
X158193809Y-120951666D01*
X158003333Y-121046904D01*
X157622380Y-121046904D01*
X157431904Y-121142142D01*
X157336666Y-121237380D01*
X157241428Y-121427857D01*
X157241428Y-121808809D01*
X157336666Y-121999285D01*
X157431904Y-122094523D01*
X157622380Y-122189761D01*
X158003333Y-122189761D01*
X158193809Y-122094523D01*
X158289047Y-121999285D01*
X158384285Y-121808809D01*
X158384285Y-121427857D01*
X158289047Y-121237380D01*
X158193809Y-121142142D01*
X158003333Y-121046904D01*
X159908095Y-121142142D02*
X160193809Y-121237380D01*
X160289047Y-121332619D01*
X160384285Y-121523095D01*
X160384285Y-121808809D01*
X160289047Y-121999285D01*
X160193809Y-122094523D01*
X160003333Y-122189761D01*
X159241428Y-122189761D01*
X159241428Y-120189761D01*
X159908095Y-120189761D01*
X160098571Y-120285000D01*
X160193809Y-120380238D01*
X160289047Y-120570714D01*
X160289047Y-120761190D01*
X160193809Y-120951666D01*
X160098571Y-121046904D01*
X159908095Y-121142142D01*
X159241428Y-121142142D01*
D10*
X164806595Y-93227081D02*
X164806595Y-92227081D01*
X165139928Y-92941367D01*
X165473262Y-92227081D01*
X165473262Y-93227081D01*
X165949452Y-93227081D02*
X165949452Y-92227081D01*
X166997071Y-93131843D02*
X166949452Y-93179462D01*
X166806595Y-93227081D01*
X166711357Y-93227081D01*
X166568500Y-93179462D01*
X166473262Y-93084224D01*
X166425642Y-92988986D01*
X166378023Y-92798510D01*
X166378023Y-92655653D01*
X166425642Y-92465177D01*
X166473262Y-92369939D01*
X166568500Y-92274701D01*
X166711357Y-92227081D01*
X166806595Y-92227081D01*
X166949452Y-92274701D01*
X166997071Y-92322320D01*
X167758976Y-92703272D02*
X167901833Y-92750891D01*
X167949452Y-92798510D01*
X167997071Y-92893748D01*
X167997071Y-93036605D01*
X167949452Y-93131843D01*
X167901833Y-93179462D01*
X167806595Y-93227081D01*
X167425642Y-93227081D01*
X167425642Y-92227081D01*
X167758976Y-92227081D01*
X167854214Y-92274701D01*
X167901833Y-92322320D01*
X167949452Y-92417558D01*
X167949452Y-92512796D01*
X167901833Y-92608034D01*
X167854214Y-92655653D01*
X167758976Y-92703272D01*
X167425642Y-92703272D01*
X168425642Y-93227081D02*
X168425642Y-92227081D01*
X168854214Y-92941367D02*
X169330404Y-92941367D01*
X168758976Y-93227081D02*
X169092309Y-92227081D01*
X169425642Y-93227081D01*
X169711357Y-93179462D02*
X169854214Y-93227081D01*
X170092309Y-93227081D01*
X170187547Y-93179462D01*
X170235166Y-93131843D01*
X170282785Y-93036605D01*
X170282785Y-92941367D01*
X170235166Y-92846129D01*
X170187547Y-92798510D01*
X170092309Y-92750891D01*
X169901833Y-92703272D01*
X169806595Y-92655653D01*
X169758976Y-92608034D01*
X169711357Y-92512796D01*
X169711357Y-92417558D01*
X169758976Y-92322320D01*
X169806595Y-92274701D01*
X169901833Y-92227081D01*
X170139928Y-92227081D01*
X170282785Y-92274701D01*
X166568500Y-95767081D02*
X166092309Y-95767081D01*
X166092309Y-94767081D01*
X167092309Y-94767081D02*
X167282785Y-94767081D01*
X167378023Y-94814701D01*
X167473262Y-94909939D01*
X167520881Y-95100415D01*
X167520881Y-95433748D01*
X167473262Y-95624224D01*
X167378023Y-95719462D01*
X167282785Y-95767081D01*
X167092309Y-95767081D01*
X166997071Y-95719462D01*
X166901833Y-95624224D01*
X166854214Y-95433748D01*
X166854214Y-95100415D01*
X166901833Y-94909939D01*
X166997071Y-94814701D01*
X167092309Y-94767081D01*
X167949452Y-94767081D02*
X167949452Y-95576605D01*
X167997071Y-95671843D01*
X168044690Y-95719462D01*
X168139928Y-95767081D01*
X168330404Y-95767081D01*
X168425642Y-95719462D01*
X168473262Y-95671843D01*
X168520881Y-95576605D01*
X168520881Y-94767081D01*
X168854214Y-94767081D02*
X169425642Y-94767081D01*
X169139928Y-95767081D02*
X169139928Y-94767081D01*
X170282785Y-95767081D02*
X169711357Y-95767081D01*
X169997071Y-95767081D02*
X169997071Y-94767081D01*
X169901833Y-94909939D01*
X169806595Y-95005177D01*
X169711357Y-95052796D01*
X166473262Y-98307081D02*
X166139928Y-97830891D01*
X165901833Y-98307081D02*
X165901833Y-97307081D01*
X166282785Y-97307081D01*
X166378023Y-97354701D01*
X166425642Y-97402320D01*
X166473262Y-97497558D01*
X166473262Y-97640415D01*
X166425642Y-97735653D01*
X166378023Y-97783272D01*
X166282785Y-97830891D01*
X165901833Y-97830891D01*
X167092309Y-97307081D02*
X167282785Y-97307081D01*
X167378023Y-97354701D01*
X167473262Y-97449939D01*
X167520881Y-97640415D01*
X167520881Y-97973748D01*
X167473262Y-98164224D01*
X167378023Y-98259462D01*
X167282785Y-98307081D01*
X167092309Y-98307081D01*
X166997071Y-98259462D01*
X166901833Y-98164224D01*
X166854214Y-97973748D01*
X166854214Y-97640415D01*
X166901833Y-97449939D01*
X166997071Y-97354701D01*
X167092309Y-97307081D01*
X167949452Y-97307081D02*
X167949452Y-98116605D01*
X167997071Y-98211843D01*
X168044690Y-98259462D01*
X168139928Y-98307081D01*
X168330404Y-98307081D01*
X168425642Y-98259462D01*
X168473262Y-98211843D01*
X168520881Y-98116605D01*
X168520881Y-97307081D01*
X168854214Y-97307081D02*
X169425642Y-97307081D01*
X169139928Y-98307081D02*
X169139928Y-97307081D01*
X170282785Y-98307081D02*
X169711357Y-98307081D01*
X169997071Y-98307081D02*
X169997071Y-97307081D01*
X169901833Y-97449939D01*
X169806595Y-97545177D01*
X169711357Y-97592796D01*
X166568500Y-100847081D02*
X166092309Y-100847081D01*
X166092309Y-99847081D01*
X167092309Y-99847081D02*
X167282785Y-99847081D01*
X167378023Y-99894701D01*
X167473262Y-99989939D01*
X167520881Y-100180415D01*
X167520881Y-100513748D01*
X167473262Y-100704224D01*
X167378023Y-100799462D01*
X167282785Y-100847081D01*
X167092309Y-100847081D01*
X166997071Y-100799462D01*
X166901833Y-100704224D01*
X166854214Y-100513748D01*
X166854214Y-100180415D01*
X166901833Y-99989939D01*
X166997071Y-99894701D01*
X167092309Y-99847081D01*
X167949452Y-99847081D02*
X167949452Y-100656605D01*
X167997071Y-100751843D01*
X168044690Y-100799462D01*
X168139928Y-100847081D01*
X168330404Y-100847081D01*
X168425642Y-100799462D01*
X168473262Y-100751843D01*
X168520881Y-100656605D01*
X168520881Y-99847081D01*
X168854214Y-99847081D02*
X169425642Y-99847081D01*
X169139928Y-100847081D02*
X169139928Y-99847081D01*
X169711357Y-99942320D02*
X169758976Y-99894701D01*
X169854214Y-99847081D01*
X170092309Y-99847081D01*
X170187547Y-99894701D01*
X170235166Y-99942320D01*
X170282785Y-100037558D01*
X170282785Y-100132796D01*
X170235166Y-100275653D01*
X169663738Y-100847081D01*
X170282785Y-100847081D01*
X166473262Y-103387081D02*
X166139928Y-102910891D01*
X165901833Y-103387081D02*
X165901833Y-102387081D01*
X166282785Y-102387081D01*
X166378023Y-102434701D01*
X166425642Y-102482320D01*
X166473262Y-102577558D01*
X166473262Y-102720415D01*
X166425642Y-102815653D01*
X166378023Y-102863272D01*
X166282785Y-102910891D01*
X165901833Y-102910891D01*
X167092309Y-102387081D02*
X167282785Y-102387081D01*
X167378023Y-102434701D01*
X167473262Y-102529939D01*
X167520881Y-102720415D01*
X167520881Y-103053748D01*
X167473262Y-103244224D01*
X167378023Y-103339462D01*
X167282785Y-103387081D01*
X167092309Y-103387081D01*
X166997071Y-103339462D01*
X166901833Y-103244224D01*
X166854214Y-103053748D01*
X166854214Y-102720415D01*
X166901833Y-102529939D01*
X166997071Y-102434701D01*
X167092309Y-102387081D01*
X167949452Y-102387081D02*
X167949452Y-103196605D01*
X167997071Y-103291843D01*
X168044690Y-103339462D01*
X168139928Y-103387081D01*
X168330404Y-103387081D01*
X168425642Y-103339462D01*
X168473262Y-103291843D01*
X168520881Y-103196605D01*
X168520881Y-102387081D01*
X168854214Y-102387081D02*
X169425642Y-102387081D01*
X169139928Y-103387081D02*
X169139928Y-102387081D01*
X169711357Y-102482320D02*
X169758976Y-102434701D01*
X169854214Y-102387081D01*
X170092309Y-102387081D01*
X170187547Y-102434701D01*
X170235166Y-102482320D01*
X170282785Y-102577558D01*
X170282785Y-102672796D01*
X170235166Y-102815653D01*
X169663738Y-103387081D01*
X170282785Y-103387081D01*
X167092309Y-104927081D02*
X167282785Y-104927081D01*
X167378023Y-104974701D01*
X167473262Y-105069939D01*
X167520881Y-105260415D01*
X167520881Y-105593748D01*
X167473262Y-105784224D01*
X167378023Y-105879462D01*
X167282785Y-105927081D01*
X167092309Y-105927081D01*
X166997071Y-105879462D01*
X166901833Y-105784224D01*
X166854214Y-105593748D01*
X166854214Y-105260415D01*
X166901833Y-105069939D01*
X166997071Y-104974701D01*
X167092309Y-104927081D01*
X167949452Y-104927081D02*
X167949452Y-105736605D01*
X167997071Y-105831843D01*
X168044690Y-105879462D01*
X168139928Y-105927081D01*
X168330404Y-105927081D01*
X168425642Y-105879462D01*
X168473262Y-105831843D01*
X168520881Y-105736605D01*
X168520881Y-104927081D01*
X168854214Y-104927081D02*
X169425642Y-104927081D01*
X169139928Y-105927081D02*
X169139928Y-104927081D01*
X169663738Y-104927081D02*
X170282785Y-104927081D01*
X169949452Y-105308034D01*
X170092309Y-105308034D01*
X170187547Y-105355653D01*
X170235166Y-105403272D01*
X170282785Y-105498510D01*
X170282785Y-105736605D01*
X170235166Y-105831843D01*
X170187547Y-105879462D01*
X170092309Y-105927081D01*
X169806595Y-105927081D01*
X169711357Y-105879462D01*
X169663738Y-105831843D01*
X167092309Y-107467081D02*
X167282785Y-107467081D01*
X167378023Y-107514701D01*
X167473262Y-107609939D01*
X167520881Y-107800415D01*
X167520881Y-108133748D01*
X167473262Y-108324224D01*
X167378023Y-108419462D01*
X167282785Y-108467081D01*
X167092309Y-108467081D01*
X166997071Y-108419462D01*
X166901833Y-108324224D01*
X166854214Y-108133748D01*
X166854214Y-107800415D01*
X166901833Y-107609939D01*
X166997071Y-107514701D01*
X167092309Y-107467081D01*
X167949452Y-107467081D02*
X167949452Y-108276605D01*
X167997071Y-108371843D01*
X168044690Y-108419462D01*
X168139928Y-108467081D01*
X168330404Y-108467081D01*
X168425642Y-108419462D01*
X168473262Y-108371843D01*
X168520881Y-108276605D01*
X168520881Y-107467081D01*
X168854214Y-107467081D02*
X169425642Y-107467081D01*
X169139928Y-108467081D02*
X169139928Y-107467081D01*
X170187547Y-107800415D02*
X170187547Y-108467081D01*
X169949452Y-107419462D02*
X169711357Y-108133748D01*
X170330404Y-108133748D01*
X166616119Y-111007081D02*
X166616119Y-110007081D01*
X166949452Y-110721367D01*
X167282785Y-110007081D01*
X167282785Y-111007081D01*
X167949452Y-110007081D02*
X168139928Y-110007081D01*
X168235166Y-110054701D01*
X168330404Y-110149939D01*
X168378023Y-110340415D01*
X168378023Y-110673748D01*
X168330404Y-110864224D01*
X168235166Y-110959462D01*
X168139928Y-111007081D01*
X167949452Y-111007081D01*
X167854214Y-110959462D01*
X167758976Y-110864224D01*
X167711357Y-110673748D01*
X167711357Y-110340415D01*
X167758976Y-110149939D01*
X167854214Y-110054701D01*
X167949452Y-110007081D01*
X168806595Y-111007081D02*
X168806595Y-110007081D01*
X169044690Y-110007081D01*
X169187547Y-110054701D01*
X169282785Y-110149939D01*
X169330404Y-110245177D01*
X169378023Y-110435653D01*
X169378023Y-110578510D01*
X169330404Y-110768986D01*
X169282785Y-110864224D01*
X169187547Y-110959462D01*
X169044690Y-111007081D01*
X168806595Y-111007081D01*
X169806595Y-110483272D02*
X170139928Y-110483272D01*
X170282785Y-111007081D02*
X169806595Y-111007081D01*
X169806595Y-110007081D01*
X170282785Y-110007081D01*
X167187547Y-113499462D02*
X167330404Y-113547081D01*
X167568500Y-113547081D01*
X167663738Y-113499462D01*
X167711357Y-113451843D01*
X167758976Y-113356605D01*
X167758976Y-113261367D01*
X167711357Y-113166129D01*
X167663738Y-113118510D01*
X167568500Y-113070891D01*
X167378023Y-113023272D01*
X167282785Y-112975653D01*
X167235166Y-112928034D01*
X167187547Y-112832796D01*
X167187547Y-112737558D01*
X167235166Y-112642320D01*
X167282785Y-112594701D01*
X167378023Y-112547081D01*
X167616119Y-112547081D01*
X167758976Y-112594701D01*
X168187547Y-113547081D02*
X168187547Y-112547081D01*
X168425642Y-112547081D01*
X168568500Y-112594701D01*
X168663738Y-112689939D01*
X168711357Y-112785177D01*
X168758976Y-112975653D01*
X168758976Y-113118510D01*
X168711357Y-113308986D01*
X168663738Y-113404224D01*
X168568500Y-113499462D01*
X168425642Y-113547081D01*
X168187547Y-113547081D01*
X169187547Y-113547081D02*
X169187547Y-112547081D01*
X169663738Y-113547081D02*
X169663738Y-112547081D01*
X170235166Y-113547081D01*
X170235166Y-112547081D01*
X166901833Y-116039462D02*
X167044690Y-116087081D01*
X167282785Y-116087081D01*
X167378023Y-116039462D01*
X167425642Y-115991843D01*
X167473262Y-115896605D01*
X167473262Y-115801367D01*
X167425642Y-115706129D01*
X167378023Y-115658510D01*
X167282785Y-115610891D01*
X167092309Y-115563272D01*
X166997071Y-115515653D01*
X166949452Y-115468034D01*
X166901833Y-115372796D01*
X166901833Y-115277558D01*
X166949452Y-115182320D01*
X166997071Y-115134701D01*
X167092309Y-115087081D01*
X167330404Y-115087081D01*
X167473262Y-115134701D01*
X168473262Y-115991843D02*
X168425642Y-116039462D01*
X168282785Y-116087081D01*
X168187547Y-116087081D01*
X168044690Y-116039462D01*
X167949452Y-115944224D01*
X167901833Y-115848986D01*
X167854214Y-115658510D01*
X167854214Y-115515653D01*
X167901833Y-115325177D01*
X167949452Y-115229939D01*
X168044690Y-115134701D01*
X168187547Y-115087081D01*
X168282785Y-115087081D01*
X168425642Y-115134701D01*
X168473262Y-115182320D01*
X169378023Y-116087081D02*
X168901833Y-116087081D01*
X168901833Y-115087081D01*
X169711357Y-116087081D02*
X169711357Y-115087081D01*
X170282785Y-116087081D02*
X169854214Y-115515653D01*
X170282785Y-115087081D02*
X169711357Y-115658510D01*
X162806595Y-118531843D02*
X162758976Y-118579462D01*
X162616119Y-118627081D01*
X162520881Y-118627081D01*
X162378023Y-118579462D01*
X162282785Y-118484224D01*
X162235166Y-118388986D01*
X162187547Y-118198510D01*
X162187547Y-118055653D01*
X162235166Y-117865177D01*
X162282785Y-117769939D01*
X162378023Y-117674701D01*
X162520881Y-117627081D01*
X162616119Y-117627081D01*
X162758976Y-117674701D01*
X162806595Y-117722320D01*
X163187547Y-118579462D02*
X163330404Y-118627081D01*
X163568500Y-118627081D01*
X163663738Y-118579462D01*
X163711357Y-118531843D01*
X163758976Y-118436605D01*
X163758976Y-118341367D01*
X163711357Y-118246129D01*
X163663738Y-118198510D01*
X163568500Y-118150891D01*
X163378023Y-118103272D01*
X163282785Y-118055653D01*
X163235166Y-118008034D01*
X163187547Y-117912796D01*
X163187547Y-117817558D01*
X163235166Y-117722320D01*
X163282785Y-117674701D01*
X163378023Y-117627081D01*
X163616119Y-117627081D01*
X163758976Y-117674701D01*
X164520881Y-118103272D02*
X164663738Y-118150891D01*
X164711357Y-118198510D01*
X164758976Y-118293748D01*
X164758976Y-118436605D01*
X164711357Y-118531843D01*
X164663738Y-118579462D01*
X164568500Y-118627081D01*
X164187547Y-118627081D01*
X164187547Y-117627081D01*
X164520881Y-117627081D01*
X164616119Y-117674701D01*
X164663738Y-117722320D01*
X164711357Y-117817558D01*
X164711357Y-117912796D01*
X164663738Y-118008034D01*
X164616119Y-118055653D01*
X164520881Y-118103272D01*
X164187547Y-118103272D01*
X165901833Y-117579462D02*
X165044690Y-118865177D01*
X166758976Y-117674701D02*
X166663738Y-117627081D01*
X166520881Y-117627081D01*
X166378023Y-117674701D01*
X166282785Y-117769939D01*
X166235166Y-117865177D01*
X166187547Y-118055653D01*
X166187547Y-118198510D01*
X166235166Y-118388986D01*
X166282785Y-118484224D01*
X166378023Y-118579462D01*
X166520881Y-118627081D01*
X166616119Y-118627081D01*
X166758976Y-118579462D01*
X166806595Y-118531843D01*
X166806595Y-118198510D01*
X166616119Y-118198510D01*
X167235166Y-118627081D02*
X167235166Y-117627081D01*
X167616119Y-117627081D01*
X167711357Y-117674701D01*
X167758976Y-117722320D01*
X167806595Y-117817558D01*
X167806595Y-117960415D01*
X167758976Y-118055653D01*
X167711357Y-118103272D01*
X167616119Y-118150891D01*
X167235166Y-118150891D01*
X168235166Y-118627081D02*
X168235166Y-117627081D01*
X168901833Y-117627081D02*
X169092309Y-117627081D01*
X169187547Y-117674701D01*
X169282785Y-117769939D01*
X169330404Y-117960415D01*
X169330404Y-118293748D01*
X169282785Y-118484224D01*
X169187547Y-118579462D01*
X169092309Y-118627081D01*
X168901833Y-118627081D01*
X168806595Y-118579462D01*
X168711357Y-118484224D01*
X168663738Y-118293748D01*
X168663738Y-117960415D01*
X168711357Y-117769939D01*
X168806595Y-117674701D01*
X168901833Y-117627081D01*
X170282785Y-118627081D02*
X169711357Y-118627081D01*
X169997071Y-118627081D02*
X169997071Y-117627081D01*
X169901833Y-117769939D01*
X169806595Y-117865177D01*
X169711357Y-117912796D01*
X167711357Y-120167081D02*
X168044690Y-121167081D01*
X168378023Y-120167081D01*
X168711357Y-121167081D02*
X168711357Y-120167081D01*
X168949452Y-120167081D01*
X169092309Y-120214701D01*
X169187547Y-120309939D01*
X169235166Y-120405177D01*
X169282785Y-120595653D01*
X169282785Y-120738510D01*
X169235166Y-120928986D01*
X169187547Y-121024224D01*
X169092309Y-121119462D01*
X168949452Y-121167081D01*
X168711357Y-121167081D01*
X169711357Y-121167081D02*
X169711357Y-120167081D01*
X169949452Y-120167081D01*
X170092309Y-120214701D01*
X170187547Y-120309939D01*
X170235166Y-120405177D01*
X170282785Y-120595653D01*
X170282785Y-120738510D01*
X170235166Y-120928986D01*
X170187547Y-121024224D01*
X170092309Y-121119462D01*
X169949452Y-121167081D01*
X169711357Y-121167081D01*
X137579784Y-93254329D02*
X137103594Y-93254329D01*
X137103594Y-92254329D01*
X137913118Y-93254329D02*
X137913118Y-92254329D01*
X138389308Y-93254329D02*
X138389308Y-92254329D01*
X138770260Y-92254329D01*
X138865499Y-92301949D01*
X138913118Y-92349568D01*
X138960737Y-92444806D01*
X138960737Y-92587663D01*
X138913118Y-92682901D01*
X138865499Y-92730520D01*
X138770260Y-92778139D01*
X138389308Y-92778139D01*
X137579784Y-95794329D02*
X137103594Y-95794329D01*
X137103594Y-94794329D01*
X137913118Y-95794329D02*
X137913118Y-94794329D01*
X138389308Y-95794329D02*
X138389308Y-94794329D01*
X138960737Y-95794329D01*
X138960737Y-94794329D01*
X137579784Y-98334329D02*
X137103594Y-98334329D01*
X137103594Y-97334329D01*
X137865499Y-97429568D02*
X137913118Y-97381949D01*
X138008356Y-97334329D01*
X138246451Y-97334329D01*
X138341689Y-97381949D01*
X138389308Y-97429568D01*
X138436927Y-97524806D01*
X138436927Y-97620044D01*
X138389308Y-97762901D01*
X137817879Y-98334329D01*
X138436927Y-98334329D01*
X139579784Y-97286710D02*
X138722641Y-98572425D01*
X140436927Y-97381949D02*
X140341689Y-97334329D01*
X140198832Y-97334329D01*
X140055975Y-97381949D01*
X139960737Y-97477187D01*
X139913118Y-97572425D01*
X139865499Y-97762901D01*
X139865499Y-97905758D01*
X139913118Y-98096234D01*
X139960737Y-98191472D01*
X140055975Y-98286710D01*
X140198832Y-98334329D01*
X140294070Y-98334329D01*
X140436927Y-98286710D01*
X140484546Y-98239091D01*
X140484546Y-97905758D01*
X140294070Y-97905758D01*
X140913118Y-98334329D02*
X140913118Y-97334329D01*
X141294070Y-97334329D01*
X141389308Y-97381949D01*
X141436927Y-97429568D01*
X141484546Y-97524806D01*
X141484546Y-97667663D01*
X141436927Y-97762901D01*
X141389308Y-97810520D01*
X141294070Y-97858139D01*
X140913118Y-97858139D01*
X141913118Y-98334329D02*
X141913118Y-97334329D01*
X142579784Y-97334329D02*
X142770260Y-97334329D01*
X142865499Y-97381949D01*
X142960737Y-97477187D01*
X143008356Y-97667663D01*
X143008356Y-98000996D01*
X142960737Y-98191472D01*
X142865499Y-98286710D01*
X142770260Y-98334329D01*
X142579784Y-98334329D01*
X142484546Y-98286710D01*
X142389308Y-98191472D01*
X142341689Y-98000996D01*
X142341689Y-97667663D01*
X142389308Y-97477187D01*
X142484546Y-97381949D01*
X142579784Y-97334329D01*
X143389308Y-97429568D02*
X143436927Y-97381949D01*
X143532165Y-97334329D01*
X143770260Y-97334329D01*
X143865499Y-97381949D01*
X143913118Y-97429568D01*
X143960737Y-97524806D01*
X143960737Y-97620044D01*
X143913118Y-97762901D01*
X143341689Y-98334329D01*
X143960737Y-98334329D01*
X137675022Y-100874329D02*
X137341689Y-100398139D01*
X137103594Y-100874329D02*
X137103594Y-99874329D01*
X137484546Y-99874329D01*
X137579784Y-99921949D01*
X137627403Y-99969568D01*
X137675022Y-100064806D01*
X137675022Y-100207663D01*
X137627403Y-100302901D01*
X137579784Y-100350520D01*
X137484546Y-100398139D01*
X137103594Y-100398139D01*
X138103594Y-100874329D02*
X138103594Y-99874329D01*
X138579784Y-100874329D02*
X138579784Y-99874329D01*
X138960737Y-99874329D01*
X139055975Y-99921949D01*
X139103594Y-99969568D01*
X139151213Y-100064806D01*
X139151213Y-100207663D01*
X139103594Y-100302901D01*
X139055975Y-100350520D01*
X138960737Y-100398139D01*
X138579784Y-100398139D01*
X137675022Y-103414329D02*
X137341689Y-102938139D01*
X137103594Y-103414329D02*
X137103594Y-102414329D01*
X137484546Y-102414329D01*
X137579784Y-102461949D01*
X137627403Y-102509568D01*
X137675022Y-102604806D01*
X137675022Y-102747663D01*
X137627403Y-102842901D01*
X137579784Y-102890520D01*
X137484546Y-102938139D01*
X137103594Y-102938139D01*
X138103594Y-103414329D02*
X138103594Y-102414329D01*
X138579784Y-103414329D02*
X138579784Y-102414329D01*
X139151213Y-103414329D01*
X139151213Y-102414329D01*
X137675022Y-105954329D02*
X137341689Y-105478139D01*
X137103594Y-105954329D02*
X137103594Y-104954329D01*
X137484546Y-104954329D01*
X137579784Y-105001949D01*
X137627403Y-105049568D01*
X137675022Y-105144806D01*
X137675022Y-105287663D01*
X137627403Y-105382901D01*
X137579784Y-105430520D01*
X137484546Y-105478139D01*
X137103594Y-105478139D01*
X138055975Y-105049568D02*
X138103594Y-105001949D01*
X138198832Y-104954329D01*
X138436927Y-104954329D01*
X138532165Y-105001949D01*
X138579784Y-105049568D01*
X138627403Y-105144806D01*
X138627403Y-105240044D01*
X138579784Y-105382901D01*
X138008356Y-105954329D01*
X138627403Y-105954329D01*
X139770260Y-104906710D02*
X138913118Y-106192425D01*
X140627403Y-105001949D02*
X140532165Y-104954329D01*
X140389308Y-104954329D01*
X140246451Y-105001949D01*
X140151213Y-105097187D01*
X140103594Y-105192425D01*
X140055975Y-105382901D01*
X140055975Y-105525758D01*
X140103594Y-105716234D01*
X140151213Y-105811472D01*
X140246451Y-105906710D01*
X140389308Y-105954329D01*
X140484546Y-105954329D01*
X140627403Y-105906710D01*
X140675022Y-105859091D01*
X140675022Y-105525758D01*
X140484546Y-105525758D01*
X141103594Y-105954329D02*
X141103594Y-104954329D01*
X141484546Y-104954329D01*
X141579784Y-105001949D01*
X141627403Y-105049568D01*
X141675022Y-105144806D01*
X141675022Y-105287663D01*
X141627403Y-105382901D01*
X141579784Y-105430520D01*
X141484546Y-105478139D01*
X141103594Y-105478139D01*
X142103594Y-105954329D02*
X142103594Y-104954329D01*
X142770260Y-104954329D02*
X142960737Y-104954329D01*
X143055975Y-105001949D01*
X143151213Y-105097187D01*
X143198832Y-105287663D01*
X143198832Y-105620996D01*
X143151213Y-105811472D01*
X143055975Y-105906710D01*
X142960737Y-105954329D01*
X142770260Y-105954329D01*
X142675022Y-105906710D01*
X142579784Y-105811472D01*
X142532165Y-105620996D01*
X142532165Y-105287663D01*
X142579784Y-105097187D01*
X142675022Y-105001949D01*
X142770260Y-104954329D01*
X143532165Y-104954329D02*
X144151213Y-104954329D01*
X143817879Y-105335282D01*
X143960737Y-105335282D01*
X144055975Y-105382901D01*
X144103594Y-105430520D01*
X144151213Y-105525758D01*
X144151213Y-105763853D01*
X144103594Y-105859091D01*
X144055975Y-105906710D01*
X143960737Y-105954329D01*
X143675022Y-105954329D01*
X143579784Y-105906710D01*
X143532165Y-105859091D01*
X137579784Y-108494329D02*
X137103594Y-108494329D01*
X137103594Y-107494329D01*
X138484546Y-108494329D02*
X138151213Y-108018139D01*
X137913118Y-108494329D02*
X137913118Y-107494329D01*
X138294070Y-107494329D01*
X138389308Y-107541949D01*
X138436927Y-107589568D01*
X138484546Y-107684806D01*
X138484546Y-107827663D01*
X138436927Y-107922901D01*
X138389308Y-107970520D01*
X138294070Y-108018139D01*
X137913118Y-108018139D01*
X139484546Y-108399091D02*
X139436927Y-108446710D01*
X139294070Y-108494329D01*
X139198832Y-108494329D01*
X139055975Y-108446710D01*
X138960737Y-108351472D01*
X138913118Y-108256234D01*
X138865499Y-108065758D01*
X138865499Y-107922901D01*
X138913118Y-107732425D01*
X138960737Y-107637187D01*
X139055975Y-107541949D01*
X139198832Y-107494329D01*
X139294070Y-107494329D01*
X139436927Y-107541949D01*
X139484546Y-107589568D01*
X137436927Y-110510520D02*
X137579784Y-110558139D01*
X137627403Y-110605758D01*
X137675022Y-110700996D01*
X137675022Y-110843853D01*
X137627403Y-110939091D01*
X137579784Y-110986710D01*
X137484546Y-111034329D01*
X137103594Y-111034329D01*
X137103594Y-110034329D01*
X137436927Y-110034329D01*
X137532165Y-110081949D01*
X137579784Y-110129568D01*
X137627403Y-110224806D01*
X137627403Y-110320044D01*
X137579784Y-110415282D01*
X137532165Y-110462901D01*
X137436927Y-110510520D01*
X137103594Y-110510520D01*
X138675022Y-110939091D02*
X138627403Y-110986710D01*
X138484546Y-111034329D01*
X138389308Y-111034329D01*
X138246451Y-110986710D01*
X138151213Y-110891472D01*
X138103594Y-110796234D01*
X138055975Y-110605758D01*
X138055975Y-110462901D01*
X138103594Y-110272425D01*
X138151213Y-110177187D01*
X138246451Y-110081949D01*
X138389308Y-110034329D01*
X138484546Y-110034329D01*
X138627403Y-110081949D01*
X138675022Y-110129568D01*
X139579784Y-111034329D02*
X139103594Y-111034329D01*
X139103594Y-110034329D01*
X139913118Y-111034329D02*
X139913118Y-110034329D01*
X140484546Y-111034329D02*
X140055975Y-110462901D01*
X140484546Y-110034329D02*
X139913118Y-110605758D01*
X137055975Y-113288615D02*
X137532165Y-113288615D01*
X136960737Y-113574329D02*
X137294070Y-112574329D01*
X137627403Y-113574329D01*
X137960737Y-113574329D02*
X137960737Y-112574329D01*
X138198832Y-112574329D01*
X138341689Y-112621949D01*
X138436927Y-112717187D01*
X138484546Y-112812425D01*
X138532165Y-113002901D01*
X138532165Y-113145758D01*
X138484546Y-113336234D01*
X138436927Y-113431472D01*
X138341689Y-113526710D01*
X138198832Y-113574329D01*
X137960737Y-113574329D01*
X138913118Y-113288615D02*
X139389308Y-113288615D01*
X138817879Y-113574329D02*
X139151213Y-112574329D01*
X139484546Y-113574329D01*
X140389308Y-113479091D02*
X140341689Y-113526710D01*
X140198832Y-113574329D01*
X140103594Y-113574329D01*
X139960737Y-113526710D01*
X139865499Y-113431472D01*
X139817879Y-113336234D01*
X139770260Y-113145758D01*
X139770260Y-113002901D01*
X139817879Y-112812425D01*
X139865499Y-112717187D01*
X139960737Y-112621949D01*
X140103594Y-112574329D01*
X140198832Y-112574329D01*
X140341689Y-112621949D01*
X140389308Y-112669568D01*
X140817879Y-113574329D02*
X140817879Y-112574329D01*
X141055975Y-112574329D01*
X141198832Y-112621949D01*
X141294070Y-112717187D01*
X141341689Y-112812425D01*
X141389308Y-113002901D01*
X141389308Y-113145758D01*
X141341689Y-113336234D01*
X141294070Y-113431472D01*
X141198832Y-113526710D01*
X141055975Y-113574329D01*
X140817879Y-113574329D01*
X141770260Y-113288615D02*
X142246451Y-113288615D01*
X141675022Y-113574329D02*
X142008356Y-112574329D01*
X142341689Y-113574329D01*
X142532165Y-112574329D02*
X143103594Y-112574329D01*
X142817879Y-113574329D02*
X142817879Y-112574329D01*
X137103594Y-116114329D02*
X137103594Y-115114329D01*
X137341689Y-115114329D01*
X137484546Y-115161949D01*
X137579784Y-115257187D01*
X137627403Y-115352425D01*
X137675022Y-115542901D01*
X137675022Y-115685758D01*
X137627403Y-115876234D01*
X137579784Y-115971472D01*
X137484546Y-116066710D01*
X137341689Y-116114329D01*
X137103594Y-116114329D01*
X138055975Y-115828615D02*
X138532165Y-115828615D01*
X137960737Y-116114329D02*
X138294070Y-115114329D01*
X138627403Y-116114329D01*
X139532165Y-116019091D02*
X139484546Y-116066710D01*
X139341689Y-116114329D01*
X139246451Y-116114329D01*
X139103594Y-116066710D01*
X139008356Y-115971472D01*
X138960737Y-115876234D01*
X138913118Y-115685758D01*
X138913118Y-115542901D01*
X138960737Y-115352425D01*
X139008356Y-115257187D01*
X139103594Y-115161949D01*
X139246451Y-115114329D01*
X139341689Y-115114329D01*
X139484546Y-115161949D01*
X139532165Y-115209568D01*
X139960737Y-116114329D02*
X139960737Y-115114329D01*
X140198832Y-115114329D01*
X140341689Y-115161949D01*
X140436927Y-115257187D01*
X140484546Y-115352425D01*
X140532165Y-115542901D01*
X140532165Y-115685758D01*
X140484546Y-115876234D01*
X140436927Y-115971472D01*
X140341689Y-116066710D01*
X140198832Y-116114329D01*
X139960737Y-116114329D01*
X140913118Y-115828615D02*
X141389308Y-115828615D01*
X140817879Y-116114329D02*
X141151213Y-115114329D01*
X141484546Y-116114329D01*
X141675022Y-115114329D02*
X142246451Y-115114329D01*
X141960737Y-116114329D02*
X141960737Y-115114329D01*
X137103594Y-118654329D02*
X137103594Y-117654329D01*
X137436927Y-118368615D01*
X137770260Y-117654329D01*
X137770260Y-118654329D01*
X138817879Y-118559091D02*
X138770260Y-118606710D01*
X138627403Y-118654329D01*
X138532165Y-118654329D01*
X138389308Y-118606710D01*
X138294070Y-118511472D01*
X138246451Y-118416234D01*
X138198832Y-118225758D01*
X138198832Y-118082901D01*
X138246451Y-117892425D01*
X138294070Y-117797187D01*
X138389308Y-117701949D01*
X138532165Y-117654329D01*
X138627403Y-117654329D01*
X138770260Y-117701949D01*
X138817879Y-117749568D01*
X139722641Y-118654329D02*
X139246451Y-118654329D01*
X139246451Y-117654329D01*
X140055975Y-118654329D02*
X140055975Y-117654329D01*
X140627403Y-118654329D02*
X140198832Y-118082901D01*
X140627403Y-117654329D02*
X140055975Y-118225758D01*
X137627403Y-120241949D02*
X137532165Y-120194329D01*
X137389308Y-120194329D01*
X137246451Y-120241949D01*
X137151213Y-120337187D01*
X137103594Y-120432425D01*
X137055975Y-120622901D01*
X137055975Y-120765758D01*
X137103594Y-120956234D01*
X137151213Y-121051472D01*
X137246451Y-121146710D01*
X137389308Y-121194329D01*
X137484546Y-121194329D01*
X137627403Y-121146710D01*
X137675022Y-121099091D01*
X137675022Y-120765758D01*
X137484546Y-120765758D01*
X138103594Y-121194329D02*
X138103594Y-120194329D01*
X138675022Y-121194329D01*
X138675022Y-120194329D01*
X139151213Y-121194329D02*
X139151213Y-120194329D01*
X139389308Y-120194329D01*
X139532165Y-120241949D01*
X139627403Y-120337187D01*
X139675022Y-120432425D01*
X139722641Y-120622901D01*
X139722641Y-120765758D01*
X139675022Y-120956234D01*
X139627403Y-121051472D01*
X139532165Y-121146710D01*
X139389308Y-121194329D01*
X139151213Y-121194329D01*
D11*
%TO.C,C19*%
X144499420Y-101090000D02*
X144780580Y-101090000D01*
X144499420Y-102110000D02*
X144780580Y-102110000D01*
%TO.C,C16*%
X144780580Y-95760000D02*
X144499420Y-95760000D01*
X144780580Y-94740000D02*
X144499420Y-94740000D01*
%TO.C,C15*%
X144780580Y-93220000D02*
X144499420Y-93220000D01*
X144780580Y-92200000D02*
X144499420Y-92200000D01*
%TO.C,C11*%
X144639420Y-102995000D02*
X144920580Y-102995000D01*
X144639420Y-104015000D02*
X144920580Y-104015000D01*
%TO.C,C1*%
X152529000Y-99581580D02*
X152529000Y-99300420D01*
X151509000Y-99581580D02*
X151509000Y-99300420D01*
%TO.C,C5*%
X155704000Y-99581580D02*
X155704000Y-99300420D01*
X154684000Y-99581580D02*
X154684000Y-99300420D01*
%TO.C,C2*%
X156589000Y-99581580D02*
X156589000Y-99300420D01*
X157609000Y-99581580D02*
X157609000Y-99300420D01*
%TO.C,C6*%
X149604000Y-98311580D02*
X149604000Y-98030420D01*
X150624000Y-98311580D02*
X150624000Y-98030420D01*
%TO.C,C13*%
X159993420Y-104646000D02*
X160274580Y-104646000D01*
X159993420Y-105666000D02*
X160274580Y-105666000D01*
%TO.C,C12*%
X160274580Y-106551000D02*
X159993420Y-106551000D01*
X160274580Y-107571000D02*
X159993420Y-107571000D01*
%TO.C,C3*%
X154278420Y-111381000D02*
X154559580Y-111381000D01*
X154278420Y-110361000D02*
X154559580Y-110361000D01*
%TO.C,C4*%
X154278420Y-112266000D02*
X154559580Y-112266000D01*
X154278420Y-113286000D02*
X154559580Y-113286000D01*
%TO.C,C10*%
X144780580Y-100205000D02*
X144499420Y-100205000D01*
X144780580Y-99185000D02*
X144499420Y-99185000D01*
%TO.C,C8*%
X147574580Y-105408000D02*
X147293420Y-105408000D01*
X147574580Y-106428000D02*
X147293420Y-106428000D01*
%TO.C,J1*%
X134620000Y-91380000D02*
X135950000Y-91380000D01*
X135950000Y-91380000D02*
X135950000Y-92710000D01*
X135950000Y-93980000D02*
X135950000Y-121980000D01*
X133290000Y-121980000D02*
X135950000Y-121980000D01*
X133290000Y-93980000D02*
X133290000Y-121980000D01*
X133290000Y-93980000D02*
X135950000Y-93980000D01*
%TO.C,J2*%
X171390000Y-93980000D02*
X174050000Y-93980000D01*
X171390000Y-93980000D02*
X171390000Y-121980000D01*
X171390000Y-121980000D02*
X174050000Y-121980000D01*
X174050000Y-93980000D02*
X174050000Y-121980000D01*
X174050000Y-91380000D02*
X174050000Y-92710000D01*
X172720000Y-91380000D02*
X174050000Y-91380000D01*
%TO.C,U1*%
X155688999Y-102506001D02*
X156088999Y-102506001D01*
X156088999Y-102506001D02*
X156088999Y-102906001D01*
X155688999Y-107806001D02*
X156088999Y-107806001D01*
X156088999Y-107806001D02*
X156088999Y-107406001D01*
X151188999Y-107806001D02*
X150788999Y-107806001D01*
X150788999Y-107806001D02*
X150788999Y-107406001D01*
X151188999Y-102506001D02*
X150738999Y-102506001D01*
%TO.C,C19*%
D10*
X147113651Y-102000959D02*
X147066032Y-102048578D01*
X146923175Y-102096197D01*
X146827937Y-102096197D01*
X146685080Y-102048578D01*
X146589842Y-101953340D01*
X146542223Y-101858102D01*
X146494604Y-101667626D01*
X146494604Y-101524769D01*
X146542223Y-101334293D01*
X146589842Y-101239055D01*
X146685080Y-101143817D01*
X146827937Y-101096197D01*
X146923175Y-101096197D01*
X147066032Y-101143817D01*
X147113651Y-101191436D01*
X148066032Y-102096197D02*
X147494604Y-102096197D01*
X147780318Y-102096197D02*
X147780318Y-101096197D01*
X147685080Y-101239055D01*
X147589842Y-101334293D01*
X147494604Y-101381912D01*
X148542223Y-102096197D02*
X148732699Y-102096197D01*
X148827937Y-102048578D01*
X148875556Y-102000959D01*
X148970794Y-101858102D01*
X149018413Y-101667626D01*
X149018413Y-101286674D01*
X148970794Y-101191436D01*
X148923175Y-101143817D01*
X148827937Y-101096197D01*
X148637461Y-101096197D01*
X148542223Y-101143817D01*
X148494604Y-101191436D01*
X148446985Y-101286674D01*
X148446985Y-101524769D01*
X148494604Y-101620007D01*
X148542223Y-101667626D01*
X148637461Y-101715245D01*
X148827937Y-101715245D01*
X148923175Y-101667626D01*
X148970794Y-101620007D01*
X149018413Y-101524769D01*
%TO.C,C16*%
X146978127Y-95616187D02*
X146930508Y-95663806D01*
X146787651Y-95711425D01*
X146692413Y-95711425D01*
X146549556Y-95663806D01*
X146454318Y-95568568D01*
X146406699Y-95473330D01*
X146359080Y-95282854D01*
X146359080Y-95139997D01*
X146406699Y-94949521D01*
X146454318Y-94854283D01*
X146549556Y-94759045D01*
X146692413Y-94711425D01*
X146787651Y-94711425D01*
X146930508Y-94759045D01*
X146978127Y-94806664D01*
X147930508Y-95711425D02*
X147359080Y-95711425D01*
X147644794Y-95711425D02*
X147644794Y-94711425D01*
X147549556Y-94854283D01*
X147454318Y-94949521D01*
X147359080Y-94997140D01*
X148787651Y-94711425D02*
X148597175Y-94711425D01*
X148501937Y-94759045D01*
X148454318Y-94806664D01*
X148359080Y-94949521D01*
X148311461Y-95139997D01*
X148311461Y-95520949D01*
X148359080Y-95616187D01*
X148406699Y-95663806D01*
X148501937Y-95711425D01*
X148692413Y-95711425D01*
X148787651Y-95663806D01*
X148835270Y-95616187D01*
X148882889Y-95520949D01*
X148882889Y-95282854D01*
X148835270Y-95187616D01*
X148787651Y-95139997D01*
X148692413Y-95092378D01*
X148501937Y-95092378D01*
X148406699Y-95139997D01*
X148359080Y-95187616D01*
X148311461Y-95282854D01*
%TO.C,C15*%
X146959242Y-93085644D02*
X146911623Y-93133263D01*
X146768766Y-93180882D01*
X146673528Y-93180882D01*
X146530671Y-93133263D01*
X146435433Y-93038025D01*
X146387814Y-92942787D01*
X146340195Y-92752311D01*
X146340195Y-92609454D01*
X146387814Y-92418978D01*
X146435433Y-92323740D01*
X146530671Y-92228502D01*
X146673528Y-92180882D01*
X146768766Y-92180882D01*
X146911623Y-92228502D01*
X146959242Y-92276121D01*
X147911623Y-93180882D02*
X147340195Y-93180882D01*
X147625909Y-93180882D02*
X147625909Y-92180882D01*
X147530671Y-92323740D01*
X147435433Y-92418978D01*
X147340195Y-92466597D01*
X148816385Y-92180882D02*
X148340195Y-92180882D01*
X148292576Y-92657073D01*
X148340195Y-92609454D01*
X148435433Y-92561835D01*
X148673528Y-92561835D01*
X148768766Y-92609454D01*
X148816385Y-92657073D01*
X148864004Y-92752311D01*
X148864004Y-92990406D01*
X148816385Y-93085644D01*
X148768766Y-93133263D01*
X148673528Y-93180882D01*
X148435433Y-93180882D01*
X148340195Y-93133263D01*
X148292576Y-93085644D01*
%TO.C,C11*%
X147253651Y-103905959D02*
X147206032Y-103953578D01*
X147063175Y-104001197D01*
X146967937Y-104001197D01*
X146825080Y-103953578D01*
X146729842Y-103858340D01*
X146682223Y-103763102D01*
X146634604Y-103572626D01*
X146634604Y-103429769D01*
X146682223Y-103239293D01*
X146729842Y-103144055D01*
X146825080Y-103048817D01*
X146967937Y-103001197D01*
X147063175Y-103001197D01*
X147206032Y-103048817D01*
X147253651Y-103096436D01*
X148206032Y-104001197D02*
X147634604Y-104001197D01*
X147920318Y-104001197D02*
X147920318Y-103001197D01*
X147825080Y-103144055D01*
X147729842Y-103239293D01*
X147634604Y-103286912D01*
X149158413Y-104001197D02*
X148586985Y-104001197D01*
X148872699Y-104001197D02*
X148872699Y-103001197D01*
X148777461Y-103144055D01*
X148682223Y-103239293D01*
X148586985Y-103286912D01*
%TO.C,C1*%
X151810372Y-97691374D02*
X151762753Y-97738993D01*
X151619896Y-97786612D01*
X151524658Y-97786612D01*
X151381800Y-97738993D01*
X151286562Y-97643755D01*
X151238943Y-97548517D01*
X151191324Y-97358041D01*
X151191324Y-97215184D01*
X151238943Y-97024708D01*
X151286562Y-96929470D01*
X151381800Y-96834232D01*
X151524658Y-96786612D01*
X151619896Y-96786612D01*
X151762753Y-96834232D01*
X151810372Y-96881851D01*
X152762753Y-97786612D02*
X152191324Y-97786612D01*
X152477039Y-97786612D02*
X152477039Y-96786612D01*
X152381800Y-96929470D01*
X152286562Y-97024708D01*
X152191324Y-97072327D01*
%TO.C,C5*%
X154887191Y-97603549D02*
X154839572Y-97651168D01*
X154696715Y-97698787D01*
X154601477Y-97698787D01*
X154458619Y-97651168D01*
X154363381Y-97555930D01*
X154315762Y-97460692D01*
X154268143Y-97270216D01*
X154268143Y-97127359D01*
X154315762Y-96936883D01*
X154363381Y-96841645D01*
X154458619Y-96746407D01*
X154601477Y-96698787D01*
X154696715Y-96698787D01*
X154839572Y-96746407D01*
X154887191Y-96794026D01*
X155791953Y-96698787D02*
X155315762Y-96698787D01*
X155268143Y-97174978D01*
X155315762Y-97127359D01*
X155411000Y-97079740D01*
X155649096Y-97079740D01*
X155744334Y-97127359D01*
X155791953Y-97174978D01*
X155839572Y-97270216D01*
X155839572Y-97508311D01*
X155791953Y-97603549D01*
X155744334Y-97651168D01*
X155649096Y-97698787D01*
X155411000Y-97698787D01*
X155315762Y-97651168D01*
X155268143Y-97603549D01*
%TO.C,C2*%
X157087071Y-97603549D02*
X157039452Y-97651168D01*
X156896595Y-97698787D01*
X156801357Y-97698787D01*
X156658499Y-97651168D01*
X156563261Y-97555930D01*
X156515642Y-97460692D01*
X156468023Y-97270216D01*
X156468023Y-97127359D01*
X156515642Y-96936883D01*
X156563261Y-96841645D01*
X156658499Y-96746407D01*
X156801357Y-96698787D01*
X156896595Y-96698787D01*
X157039452Y-96746407D01*
X157087071Y-96794026D01*
X157468023Y-96794026D02*
X157515642Y-96746407D01*
X157610880Y-96698787D01*
X157848976Y-96698787D01*
X157944214Y-96746407D01*
X157991833Y-96794026D01*
X158039452Y-96889264D01*
X158039452Y-96984502D01*
X157991833Y-97127359D01*
X157420404Y-97698787D01*
X158039452Y-97698787D01*
%TO.C,C6*%
X149928763Y-96341831D02*
X149881144Y-96389450D01*
X149738287Y-96437069D01*
X149643049Y-96437069D01*
X149500191Y-96389450D01*
X149404953Y-96294212D01*
X149357334Y-96198974D01*
X149309715Y-96008498D01*
X149309715Y-95865641D01*
X149357334Y-95675165D01*
X149404953Y-95579927D01*
X149500191Y-95484689D01*
X149643049Y-95437069D01*
X149738287Y-95437069D01*
X149881144Y-95484689D01*
X149928763Y-95532308D01*
X150785906Y-95437069D02*
X150595430Y-95437069D01*
X150500191Y-95484689D01*
X150452572Y-95532308D01*
X150357334Y-95675165D01*
X150309715Y-95865641D01*
X150309715Y-96246593D01*
X150357334Y-96341831D01*
X150404953Y-96389450D01*
X150500191Y-96437069D01*
X150690668Y-96437069D01*
X150785906Y-96389450D01*
X150833525Y-96341831D01*
X150881144Y-96246593D01*
X150881144Y-96008498D01*
X150833525Y-95913260D01*
X150785906Y-95865641D01*
X150690668Y-95818022D01*
X150500191Y-95818022D01*
X150404953Y-95865641D01*
X150357334Y-95913260D01*
X150309715Y-96008498D01*
%TO.C,C13*%
X158790844Y-104017706D02*
X158743225Y-104065325D01*
X158600368Y-104112944D01*
X158505130Y-104112944D01*
X158362273Y-104065325D01*
X158267035Y-103970087D01*
X158219416Y-103874849D01*
X158171797Y-103684373D01*
X158171797Y-103541516D01*
X158219416Y-103351040D01*
X158267035Y-103255802D01*
X158362273Y-103160564D01*
X158505130Y-103112944D01*
X158600368Y-103112944D01*
X158743225Y-103160564D01*
X158790844Y-103208183D01*
X159743225Y-104112944D02*
X159171797Y-104112944D01*
X159457511Y-104112944D02*
X159457511Y-103112944D01*
X159362273Y-103255802D01*
X159267035Y-103351040D01*
X159171797Y-103398659D01*
X160076559Y-103112944D02*
X160695606Y-103112944D01*
X160362273Y-103493897D01*
X160505130Y-103493897D01*
X160600368Y-103541516D01*
X160647987Y-103589135D01*
X160695606Y-103684373D01*
X160695606Y-103922468D01*
X160647987Y-104017706D01*
X160600368Y-104065325D01*
X160505130Y-104112944D01*
X160219416Y-104112944D01*
X160124178Y-104065325D01*
X160076559Y-104017706D01*
%TO.C,C12*%
X158870600Y-109002490D02*
X158822981Y-109050109D01*
X158680124Y-109097728D01*
X158584886Y-109097728D01*
X158442029Y-109050109D01*
X158346791Y-108954871D01*
X158299172Y-108859633D01*
X158251553Y-108669157D01*
X158251553Y-108526300D01*
X158299172Y-108335824D01*
X158346791Y-108240586D01*
X158442029Y-108145348D01*
X158584886Y-108097728D01*
X158680124Y-108097728D01*
X158822981Y-108145348D01*
X158870600Y-108192967D01*
X159822981Y-109097728D02*
X159251553Y-109097728D01*
X159537267Y-109097728D02*
X159537267Y-108097728D01*
X159442029Y-108240586D01*
X159346791Y-108335824D01*
X159251553Y-108383443D01*
X160203934Y-108192967D02*
X160251553Y-108145348D01*
X160346791Y-108097728D01*
X160584886Y-108097728D01*
X160680124Y-108145348D01*
X160727743Y-108192967D01*
X160775362Y-108288205D01*
X160775362Y-108383443D01*
X160727743Y-108526300D01*
X160156315Y-109097728D01*
X160775362Y-109097728D01*
%TO.C,C3*%
X151681268Y-111432524D02*
X151633649Y-111480143D01*
X151490792Y-111527762D01*
X151395554Y-111527762D01*
X151252696Y-111480143D01*
X151157458Y-111384905D01*
X151109839Y-111289667D01*
X151062220Y-111099191D01*
X151062220Y-110956334D01*
X151109839Y-110765858D01*
X151157458Y-110670620D01*
X151252696Y-110575382D01*
X151395554Y-110527762D01*
X151490792Y-110527762D01*
X151633649Y-110575382D01*
X151681268Y-110623001D01*
X152014601Y-110527762D02*
X152633649Y-110527762D01*
X152300315Y-110908715D01*
X152443173Y-110908715D01*
X152538411Y-110956334D01*
X152586030Y-111003953D01*
X152633649Y-111099191D01*
X152633649Y-111337286D01*
X152586030Y-111432524D01*
X152538411Y-111480143D01*
X152443173Y-111527762D01*
X152157458Y-111527762D01*
X152062220Y-111480143D01*
X152014601Y-111432524D01*
%TO.C,C4*%
X151706550Y-113176972D02*
X151658931Y-113224591D01*
X151516074Y-113272210D01*
X151420836Y-113272210D01*
X151277978Y-113224591D01*
X151182740Y-113129353D01*
X151135121Y-113034115D01*
X151087502Y-112843639D01*
X151087502Y-112700782D01*
X151135121Y-112510306D01*
X151182740Y-112415068D01*
X151277978Y-112319830D01*
X151420836Y-112272210D01*
X151516074Y-112272210D01*
X151658931Y-112319830D01*
X151706550Y-112367449D01*
X152563693Y-112605544D02*
X152563693Y-113272210D01*
X152325597Y-112224591D02*
X152087502Y-112938877D01*
X152706550Y-112938877D01*
%TO.C,C10*%
X147113651Y-100095959D02*
X147066032Y-100143578D01*
X146923175Y-100191197D01*
X146827937Y-100191197D01*
X146685080Y-100143578D01*
X146589842Y-100048340D01*
X146542223Y-99953102D01*
X146494604Y-99762626D01*
X146494604Y-99619769D01*
X146542223Y-99429293D01*
X146589842Y-99334055D01*
X146685080Y-99238817D01*
X146827937Y-99191197D01*
X146923175Y-99191197D01*
X147066032Y-99238817D01*
X147113651Y-99286436D01*
X148066032Y-100191197D02*
X147494604Y-100191197D01*
X147780318Y-100191197D02*
X147780318Y-99191197D01*
X147685080Y-99334055D01*
X147589842Y-99429293D01*
X147494604Y-99476912D01*
X148685080Y-99191197D02*
X148780318Y-99191197D01*
X148875556Y-99238817D01*
X148923175Y-99286436D01*
X148970794Y-99381674D01*
X149018413Y-99572150D01*
X149018413Y-99810245D01*
X148970794Y-100000721D01*
X148923175Y-100095959D01*
X148875556Y-100143578D01*
X148780318Y-100191197D01*
X148685080Y-100191197D01*
X148589842Y-100143578D01*
X148542223Y-100095959D01*
X148494604Y-100000721D01*
X148446985Y-99810245D01*
X148446985Y-99572150D01*
X148494604Y-99381674D01*
X148542223Y-99286436D01*
X148589842Y-99238817D01*
X148685080Y-99191197D01*
%TO.C,C8*%
X147255550Y-107802851D02*
X147207931Y-107850470D01*
X147065074Y-107898089D01*
X146969836Y-107898089D01*
X146826978Y-107850470D01*
X146731740Y-107755232D01*
X146684121Y-107659994D01*
X146636502Y-107469518D01*
X146636502Y-107326661D01*
X146684121Y-107136185D01*
X146731740Y-107040947D01*
X146826978Y-106945709D01*
X146969836Y-106898089D01*
X147065074Y-106898089D01*
X147207931Y-106945709D01*
X147255550Y-106993328D01*
X147826978Y-107326661D02*
X147731740Y-107279042D01*
X147684121Y-107231423D01*
X147636502Y-107136185D01*
X147636502Y-107088566D01*
X147684121Y-106993328D01*
X147731740Y-106945709D01*
X147826978Y-106898089D01*
X148017455Y-106898089D01*
X148112693Y-106945709D01*
X148160312Y-106993328D01*
X148207931Y-107088566D01*
X148207931Y-107136185D01*
X148160312Y-107231423D01*
X148112693Y-107279042D01*
X148017455Y-107326661D01*
X147826978Y-107326661D01*
X147731740Y-107374280D01*
X147684121Y-107421899D01*
X147636502Y-107517137D01*
X147636502Y-107707613D01*
X147684121Y-107802851D01*
X147731740Y-107850470D01*
X147826978Y-107898089D01*
X148017455Y-107898089D01*
X148112693Y-107850470D01*
X148160312Y-107802851D01*
X148207931Y-107707613D01*
X148207931Y-107517137D01*
X148160312Y-107421899D01*
X148112693Y-107374280D01*
X148017455Y-107326661D01*
%TO.C,J1*%
X131111666Y-106132380D02*
X131111666Y-106846666D01*
X131064047Y-106989523D01*
X130968809Y-107084761D01*
X130825952Y-107132380D01*
X130730714Y-107132380D01*
X132111666Y-107132380D02*
X131540238Y-107132380D01*
X131825952Y-107132380D02*
X131825952Y-106132380D01*
X131730714Y-106275238D01*
X131635476Y-106370476D01*
X131540238Y-106418095D01*
%TO.C,J2*%
X175561666Y-106132380D02*
X175561666Y-106846666D01*
X175514047Y-106989523D01*
X175418809Y-107084761D01*
X175275952Y-107132380D01*
X175180714Y-107132380D01*
X175990238Y-106227619D02*
X176037857Y-106180000D01*
X176133095Y-106132380D01*
X176371190Y-106132380D01*
X176466428Y-106180000D01*
X176514047Y-106227619D01*
X176561666Y-106322857D01*
X176561666Y-106418095D01*
X176514047Y-106560952D01*
X175942619Y-107132380D01*
X176561666Y-107132380D01*
%TO.C,U1*%
X152908095Y-100798380D02*
X152908095Y-101607904D01*
X152955714Y-101703142D01*
X153003333Y-101750761D01*
X153098571Y-101798380D01*
X153289047Y-101798380D01*
X153384285Y-101750761D01*
X153431904Y-101703142D01*
X153479523Y-101607904D01*
X153479523Y-100798380D01*
X154479523Y-101798380D02*
X153908095Y-101798380D01*
X154193809Y-101798380D02*
X154193809Y-100798380D01*
X154098571Y-100941238D01*
X154003333Y-101036476D01*
X153908095Y-101084095D01*
%TD*%
%LPC*%
%TO.C,C19*%
G36*
G01*
X144965000Y-101850000D02*
X144965000Y-101350000D01*
G75*
G02*
X145190000Y-101125000I225000J0D01*
G01*
X145640000Y-101125000D01*
G75*
G02*
X145865000Y-101350000I0J-225000D01*
G01*
X145865000Y-101850000D01*
G75*
G02*
X145640000Y-102075000I-225000J0D01*
G01*
X145190000Y-102075000D01*
G75*
G02*
X144965000Y-101850000I0J225000D01*
G01*
G37*
G36*
G01*
X143415000Y-101850000D02*
X143415000Y-101350000D01*
G75*
G02*
X143640000Y-101125000I225000J0D01*
G01*
X144090000Y-101125000D01*
G75*
G02*
X144315000Y-101350000I0J-225000D01*
G01*
X144315000Y-101850000D01*
G75*
G02*
X144090000Y-102075000I-225000J0D01*
G01*
X143640000Y-102075000D01*
G75*
G02*
X143415000Y-101850000I0J225000D01*
G01*
G37*
%TD*%
%TO.C,C16*%
G36*
G01*
X144315000Y-95000000D02*
X144315000Y-95500000D01*
G75*
G02*
X144090000Y-95725000I-225000J0D01*
G01*
X143640000Y-95725000D01*
G75*
G02*
X143415000Y-95500000I0J225000D01*
G01*
X143415000Y-95000000D01*
G75*
G02*
X143640000Y-94775000I225000J0D01*
G01*
X144090000Y-94775000D01*
G75*
G02*
X144315000Y-95000000I0J-225000D01*
G01*
G37*
G36*
G01*
X145865000Y-95000000D02*
X145865000Y-95500000D01*
G75*
G02*
X145640000Y-95725000I-225000J0D01*
G01*
X145190000Y-95725000D01*
G75*
G02*
X144965000Y-95500000I0J225000D01*
G01*
X144965000Y-95000000D01*
G75*
G02*
X145190000Y-94775000I225000J0D01*
G01*
X145640000Y-94775000D01*
G75*
G02*
X145865000Y-95000000I0J-225000D01*
G01*
G37*
%TD*%
%TO.C,C15*%
G36*
G01*
X144315000Y-92460000D02*
X144315000Y-92960000D01*
G75*
G02*
X144090000Y-93185000I-225000J0D01*
G01*
X143640000Y-93185000D01*
G75*
G02*
X143415000Y-92960000I0J225000D01*
G01*
X143415000Y-92460000D01*
G75*
G02*
X143640000Y-92235000I225000J0D01*
G01*
X144090000Y-92235000D01*
G75*
G02*
X144315000Y-92460000I0J-225000D01*
G01*
G37*
G36*
G01*
X145865000Y-92460000D02*
X145865000Y-92960000D01*
G75*
G02*
X145640000Y-93185000I-225000J0D01*
G01*
X145190000Y-93185000D01*
G75*
G02*
X144965000Y-92960000I0J225000D01*
G01*
X144965000Y-92460000D01*
G75*
G02*
X145190000Y-92235000I225000J0D01*
G01*
X145640000Y-92235000D01*
G75*
G02*
X145865000Y-92460000I0J-225000D01*
G01*
G37*
%TD*%
%TO.C,C11*%
G36*
G01*
X145105000Y-103755000D02*
X145105000Y-103255000D01*
G75*
G02*
X145330000Y-103030000I225000J0D01*
G01*
X145780000Y-103030000D01*
G75*
G02*
X146005000Y-103255000I0J-225000D01*
G01*
X146005000Y-103755000D01*
G75*
G02*
X145780000Y-103980000I-225000J0D01*
G01*
X145330000Y-103980000D01*
G75*
G02*
X145105000Y-103755000I0J225000D01*
G01*
G37*
G36*
G01*
X143555000Y-103755000D02*
X143555000Y-103255000D01*
G75*
G02*
X143780000Y-103030000I225000J0D01*
G01*
X144230000Y-103030000D01*
G75*
G02*
X144455000Y-103255000I0J-225000D01*
G01*
X144455000Y-103755000D01*
G75*
G02*
X144230000Y-103980000I-225000J0D01*
G01*
X143780000Y-103980000D01*
G75*
G02*
X143555000Y-103755000I0J225000D01*
G01*
G37*
%TD*%
%TO.C,C1*%
G36*
G01*
X152269000Y-99116000D02*
X151769000Y-99116000D01*
G75*
G02*
X151544000Y-98891000I0J225000D01*
G01*
X151544000Y-98441000D01*
G75*
G02*
X151769000Y-98216000I225000J0D01*
G01*
X152269000Y-98216000D01*
G75*
G02*
X152494000Y-98441000I0J-225000D01*
G01*
X152494000Y-98891000D01*
G75*
G02*
X152269000Y-99116000I-225000J0D01*
G01*
G37*
G36*
G01*
X152269000Y-100666000D02*
X151769000Y-100666000D01*
G75*
G02*
X151544000Y-100441000I0J225000D01*
G01*
X151544000Y-99991000D01*
G75*
G02*
X151769000Y-99766000I225000J0D01*
G01*
X152269000Y-99766000D01*
G75*
G02*
X152494000Y-99991000I0J-225000D01*
G01*
X152494000Y-100441000D01*
G75*
G02*
X152269000Y-100666000I-225000J0D01*
G01*
G37*
%TD*%
%TO.C,C5*%
G36*
G01*
X155444000Y-99116000D02*
X154944000Y-99116000D01*
G75*
G02*
X154719000Y-98891000I0J225000D01*
G01*
X154719000Y-98441000D01*
G75*
G02*
X154944000Y-98216000I225000J0D01*
G01*
X155444000Y-98216000D01*
G75*
G02*
X155669000Y-98441000I0J-225000D01*
G01*
X155669000Y-98891000D01*
G75*
G02*
X155444000Y-99116000I-225000J0D01*
G01*
G37*
G36*
G01*
X155444000Y-100666000D02*
X154944000Y-100666000D01*
G75*
G02*
X154719000Y-100441000I0J225000D01*
G01*
X154719000Y-99991000D01*
G75*
G02*
X154944000Y-99766000I225000J0D01*
G01*
X155444000Y-99766000D01*
G75*
G02*
X155669000Y-99991000I0J-225000D01*
G01*
X155669000Y-100441000D01*
G75*
G02*
X155444000Y-100666000I-225000J0D01*
G01*
G37*
%TD*%
%TO.C,C2*%
G36*
G01*
X157349000Y-100666000D02*
X156849000Y-100666000D01*
G75*
G02*
X156624000Y-100441000I0J225000D01*
G01*
X156624000Y-99991000D01*
G75*
G02*
X156849000Y-99766000I225000J0D01*
G01*
X157349000Y-99766000D01*
G75*
G02*
X157574000Y-99991000I0J-225000D01*
G01*
X157574000Y-100441000D01*
G75*
G02*
X157349000Y-100666000I-225000J0D01*
G01*
G37*
G36*
G01*
X157349000Y-99116000D02*
X156849000Y-99116000D01*
G75*
G02*
X156624000Y-98891000I0J225000D01*
G01*
X156624000Y-98441000D01*
G75*
G02*
X156849000Y-98216000I225000J0D01*
G01*
X157349000Y-98216000D01*
G75*
G02*
X157574000Y-98441000I0J-225000D01*
G01*
X157574000Y-98891000D01*
G75*
G02*
X157349000Y-99116000I-225000J0D01*
G01*
G37*
%TD*%
%TO.C,C6*%
G36*
G01*
X150364000Y-99396000D02*
X149864000Y-99396000D01*
G75*
G02*
X149639000Y-99171000I0J225000D01*
G01*
X149639000Y-98721000D01*
G75*
G02*
X149864000Y-98496000I225000J0D01*
G01*
X150364000Y-98496000D01*
G75*
G02*
X150589000Y-98721000I0J-225000D01*
G01*
X150589000Y-99171000D01*
G75*
G02*
X150364000Y-99396000I-225000J0D01*
G01*
G37*
G36*
G01*
X150364000Y-97846000D02*
X149864000Y-97846000D01*
G75*
G02*
X149639000Y-97621000I0J225000D01*
G01*
X149639000Y-97171000D01*
G75*
G02*
X149864000Y-96946000I225000J0D01*
G01*
X150364000Y-96946000D01*
G75*
G02*
X150589000Y-97171000I0J-225000D01*
G01*
X150589000Y-97621000D01*
G75*
G02*
X150364000Y-97846000I-225000J0D01*
G01*
G37*
%TD*%
%TO.C,C13*%
G36*
G01*
X158909000Y-105406000D02*
X158909000Y-104906000D01*
G75*
G02*
X159134000Y-104681000I225000J0D01*
G01*
X159584000Y-104681000D01*
G75*
G02*
X159809000Y-104906000I0J-225000D01*
G01*
X159809000Y-105406000D01*
G75*
G02*
X159584000Y-105631000I-225000J0D01*
G01*
X159134000Y-105631000D01*
G75*
G02*
X158909000Y-105406000I0J225000D01*
G01*
G37*
G36*
G01*
X160459000Y-105406000D02*
X160459000Y-104906000D01*
G75*
G02*
X160684000Y-104681000I225000J0D01*
G01*
X161134000Y-104681000D01*
G75*
G02*
X161359000Y-104906000I0J-225000D01*
G01*
X161359000Y-105406000D01*
G75*
G02*
X161134000Y-105631000I-225000J0D01*
G01*
X160684000Y-105631000D01*
G75*
G02*
X160459000Y-105406000I0J225000D01*
G01*
G37*
%TD*%
%TO.C,C12*%
G36*
G01*
X159809000Y-106811000D02*
X159809000Y-107311000D01*
G75*
G02*
X159584000Y-107536000I-225000J0D01*
G01*
X159134000Y-107536000D01*
G75*
G02*
X158909000Y-107311000I0J225000D01*
G01*
X158909000Y-106811000D01*
G75*
G02*
X159134000Y-106586000I225000J0D01*
G01*
X159584000Y-106586000D01*
G75*
G02*
X159809000Y-106811000I0J-225000D01*
G01*
G37*
G36*
G01*
X161359000Y-106811000D02*
X161359000Y-107311000D01*
G75*
G02*
X161134000Y-107536000I-225000J0D01*
G01*
X160684000Y-107536000D01*
G75*
G02*
X160459000Y-107311000I0J225000D01*
G01*
X160459000Y-106811000D01*
G75*
G02*
X160684000Y-106586000I225000J0D01*
G01*
X161134000Y-106586000D01*
G75*
G02*
X161359000Y-106811000I0J-225000D01*
G01*
G37*
%TD*%
%TO.C,C3*%
G36*
G01*
X154744000Y-111121000D02*
X154744000Y-110621000D01*
G75*
G02*
X154969000Y-110396000I225000J0D01*
G01*
X155419000Y-110396000D01*
G75*
G02*
X155644000Y-110621000I0J-225000D01*
G01*
X155644000Y-111121000D01*
G75*
G02*
X155419000Y-111346000I-225000J0D01*
G01*
X154969000Y-111346000D01*
G75*
G02*
X154744000Y-111121000I0J225000D01*
G01*
G37*
G36*
G01*
X153194000Y-111121000D02*
X153194000Y-110621000D01*
G75*
G02*
X153419000Y-110396000I225000J0D01*
G01*
X153869000Y-110396000D01*
G75*
G02*
X154094000Y-110621000I0J-225000D01*
G01*
X154094000Y-111121000D01*
G75*
G02*
X153869000Y-111346000I-225000J0D01*
G01*
X153419000Y-111346000D01*
G75*
G02*
X153194000Y-111121000I0J225000D01*
G01*
G37*
%TD*%
%TO.C,C4*%
G36*
G01*
X153194000Y-113026000D02*
X153194000Y-112526000D01*
G75*
G02*
X153419000Y-112301000I225000J0D01*
G01*
X153869000Y-112301000D01*
G75*
G02*
X154094000Y-112526000I0J-225000D01*
G01*
X154094000Y-113026000D01*
G75*
G02*
X153869000Y-113251000I-225000J0D01*
G01*
X153419000Y-113251000D01*
G75*
G02*
X153194000Y-113026000I0J225000D01*
G01*
G37*
G36*
G01*
X154744000Y-113026000D02*
X154744000Y-112526000D01*
G75*
G02*
X154969000Y-112301000I225000J0D01*
G01*
X155419000Y-112301000D01*
G75*
G02*
X155644000Y-112526000I0J-225000D01*
G01*
X155644000Y-113026000D01*
G75*
G02*
X155419000Y-113251000I-225000J0D01*
G01*
X154969000Y-113251000D01*
G75*
G02*
X154744000Y-113026000I0J225000D01*
G01*
G37*
%TD*%
%TO.C,C10*%
G36*
G01*
X145865000Y-99445000D02*
X145865000Y-99945000D01*
G75*
G02*
X145640000Y-100170000I-225000J0D01*
G01*
X145190000Y-100170000D01*
G75*
G02*
X144965000Y-99945000I0J225000D01*
G01*
X144965000Y-99445000D01*
G75*
G02*
X145190000Y-99220000I225000J0D01*
G01*
X145640000Y-99220000D01*
G75*
G02*
X145865000Y-99445000I0J-225000D01*
G01*
G37*
G36*
G01*
X144315000Y-99445000D02*
X144315000Y-99945000D01*
G75*
G02*
X144090000Y-100170000I-225000J0D01*
G01*
X143640000Y-100170000D01*
G75*
G02*
X143415000Y-99945000I0J225000D01*
G01*
X143415000Y-99445000D01*
G75*
G02*
X143640000Y-99220000I225000J0D01*
G01*
X144090000Y-99220000D01*
G75*
G02*
X144315000Y-99445000I0J-225000D01*
G01*
G37*
%TD*%
%TO.C,C8*%
G36*
G01*
X147109000Y-105668000D02*
X147109000Y-106168000D01*
G75*
G02*
X146884000Y-106393000I-225000J0D01*
G01*
X146434000Y-106393000D01*
G75*
G02*
X146209000Y-106168000I0J225000D01*
G01*
X146209000Y-105668000D01*
G75*
G02*
X146434000Y-105443000I225000J0D01*
G01*
X146884000Y-105443000D01*
G75*
G02*
X147109000Y-105668000I0J-225000D01*
G01*
G37*
G36*
G01*
X148659000Y-105668000D02*
X148659000Y-106168000D01*
G75*
G02*
X148434000Y-106393000I-225000J0D01*
G01*
X147984000Y-106393000D01*
G75*
G02*
X147759000Y-106168000I0J225000D01*
G01*
X147759000Y-105668000D01*
G75*
G02*
X147984000Y-105443000I225000J0D01*
G01*
X148434000Y-105443000D01*
G75*
G02*
X148659000Y-105668000I0J-225000D01*
G01*
G37*
%TD*%
D13*
%TO.C,J1*%
X134620000Y-120650000D03*
X134620000Y-118110000D03*
X134620000Y-115570000D03*
X134620000Y-113030000D03*
X134620000Y-110490000D03*
X134620000Y-107950000D03*
X134620000Y-105410000D03*
X134620000Y-102870000D03*
X134620000Y-100330000D03*
X134620000Y-97790000D03*
X134620000Y-95250000D03*
D14*
X134620000Y-92710000D03*
%TD*%
%TO.C,J2*%
X172720000Y-92710000D03*
D13*
X172720000Y-95250000D03*
X172720000Y-97790000D03*
X172720000Y-100330000D03*
X172720000Y-102870000D03*
X172720000Y-105410000D03*
X172720000Y-107950000D03*
X172720000Y-110490000D03*
X172720000Y-113030000D03*
X172720000Y-115570000D03*
X172720000Y-118110000D03*
X172720000Y-120650000D03*
%TD*%
D15*
%TO.C,U1*%
X151138999Y-103406001D03*
X151138999Y-103906001D03*
X151138999Y-104406001D03*
X151138999Y-104906001D03*
X151138999Y-105406001D03*
X151138999Y-105906001D03*
X151138999Y-106406001D03*
X151138999Y-106906001D03*
D16*
X151688999Y-107456001D03*
X152188999Y-107456001D03*
X152688999Y-107456001D03*
X153188999Y-107456001D03*
X153688999Y-107456001D03*
X154188999Y-107456001D03*
X154688999Y-107456001D03*
X155188999Y-107456001D03*
D15*
X155738999Y-106906001D03*
X155738999Y-106406001D03*
X155738999Y-105906001D03*
X155738999Y-105406001D03*
X155738999Y-104906001D03*
X155738999Y-104406001D03*
X155738999Y-103906001D03*
X155738999Y-103406001D03*
D16*
X155188999Y-102856001D03*
X154688999Y-102856001D03*
X154188999Y-102856001D03*
X153688999Y-102856001D03*
X153188999Y-102856001D03*
X152688999Y-102856001D03*
X152188999Y-102856001D03*
X151688999Y-102856001D03*
D17*
X152145249Y-103862251D03*
X152145249Y-104724751D03*
X152145249Y-105587251D03*
X152145249Y-106449751D03*
X153007749Y-103862251D03*
X153007749Y-104724751D03*
X153007749Y-105587251D03*
X153007749Y-106449751D03*
X153870249Y-103862251D03*
X153870249Y-104724751D03*
X153870249Y-105587251D03*
X153870249Y-106449751D03*
X154732749Y-103862251D03*
X154732749Y-104724751D03*
X154732749Y-105587251D03*
X154732749Y-106449751D03*
%TD*%
M02*
