%FSLAX45Y45*%
G04 Gerber Fmt 4.5, Leading zero omitted, Abs format (unit mm)*
G04 Created by KiCad (PCBNEW (5.1.9-0-10_14)) date 2021-08-20 09:17:49*
%MOMM*%
%LPD*%
G01*
G04 APERTURE LIST*
%TA.AperFunction,Profile*%
%ADD10C,0.050000*%
%TD*%
%ADD11C,0.200000*%
%ADD12C,0.300000*%
G04 APERTURE END LIST*
D10*
X13081000Y-8763000D02*
X17653000Y-8763000D01*
X12954000Y-12446000D02*
X12954000Y-8890000D01*
X17653000Y-12573000D02*
X13081000Y-12573000D01*
X17780000Y-8890000D02*
X17780000Y-12446000D01*
X17780000Y-12446000D02*
G75*
G02*
X17653000Y-12573000I-127000J0D01*
G01*
X13081000Y-12573000D02*
G75*
G02*
X12954000Y-12446000I0J127000D01*
G01*
X12954000Y-8890000D02*
G75*
G02*
X13081000Y-8763000I127000J0D01*
G01*
X17653000Y-8763000D02*
G75*
G02*
X17780000Y-8890000I0J-127000D01*
G01*
D11*
D12*
X13237928Y-13041214D02*
X13237928Y-12741214D01*
X13309357Y-12741214D01*
X13352214Y-12755500D01*
X13380786Y-12784071D01*
X13395071Y-12812643D01*
X13409357Y-12869786D01*
X13409357Y-12912643D01*
X13395071Y-12969786D01*
X13380786Y-12998357D01*
X13352214Y-13026929D01*
X13309357Y-13041214D01*
X13237928Y-13041214D01*
X13537928Y-13041214D02*
X13537928Y-12841214D01*
X13537928Y-12898357D02*
X13552214Y-12869786D01*
X13566500Y-12855500D01*
X13595071Y-12841214D01*
X13623643Y-12841214D01*
X13723643Y-13041214D02*
X13723643Y-12841214D01*
X13723643Y-12741214D02*
X13709357Y-12755500D01*
X13723643Y-12769786D01*
X13737928Y-12755500D01*
X13723643Y-12741214D01*
X13723643Y-12769786D01*
X13909357Y-13041214D02*
X13880786Y-13026929D01*
X13866500Y-12998357D01*
X13866500Y-12741214D01*
X14066500Y-13041214D02*
X14037928Y-13026929D01*
X14023643Y-12998357D01*
X14023643Y-12741214D01*
X14409357Y-13041214D02*
X14409357Y-12741214D01*
X14509357Y-12955500D01*
X14609357Y-12741214D01*
X14609357Y-13041214D01*
X14880786Y-13041214D02*
X14880786Y-12884071D01*
X14866500Y-12855500D01*
X14837928Y-12841214D01*
X14780786Y-12841214D01*
X14752214Y-12855500D01*
X14880786Y-13026929D02*
X14852214Y-13041214D01*
X14780786Y-13041214D01*
X14752214Y-13026929D01*
X14737928Y-12998357D01*
X14737928Y-12969786D01*
X14752214Y-12941214D01*
X14780786Y-12926929D01*
X14852214Y-12926929D01*
X14880786Y-12912643D01*
X15023643Y-12841214D02*
X15023643Y-13141214D01*
X15023643Y-12855500D02*
X15052214Y-12841214D01*
X15109357Y-12841214D01*
X15137928Y-12855500D01*
X15152214Y-12869786D01*
X15166500Y-12898357D01*
X15166500Y-12984071D01*
X15152214Y-13012643D01*
X15137928Y-13026929D01*
X15109357Y-13041214D01*
X15052214Y-13041214D01*
X15023643Y-13026929D01*
X15295071Y-13012643D02*
X15309357Y-13026929D01*
X15295071Y-13041214D01*
X15280786Y-13026929D01*
X15295071Y-13012643D01*
X15295071Y-13041214D01*
X15295071Y-12855500D02*
X15309357Y-12869786D01*
X15295071Y-12884071D01*
X15280786Y-12869786D01*
X15295071Y-12855500D01*
X15295071Y-12884071D01*
M02*
