%TF.GenerationSoftware,KiCad,Pcbnew,(6.0.0-0)*%
%TF.CreationDate,2022-08-17T15:30:41+02:00*%
%TF.ProjectId,bq24072_pmic_board,62713234-3037-4325-9f70-6d69635f626f,rev?*%
%TF.SameCoordinates,Original*%
%TF.FileFunction,Soldermask,Top*%
%TF.FilePolarity,Negative*%
%FSLAX46Y46*%
G04 Gerber Fmt 4.6, Leading zero omitted, Abs format (unit mm)*
G04 Created by KiCad (PCBNEW (6.0.0-0)) date 2022-08-17 15:30:41*
%MOMM*%
%LPD*%
G01*
G04 APERTURE LIST*
G04 Aperture macros list*
%AMRoundRect*
0 Rectangle with rounded corners*
0 $1 Rounding radius*
0 $2 $3 $4 $5 $6 $7 $8 $9 X,Y pos of 4 corners*
0 Add a 4 corners polygon primitive as box body*
4,1,4,$2,$3,$4,$5,$6,$7,$8,$9,$2,$3,0*
0 Add four circle primitives for the rounded corners*
1,1,$1+$1,$2,$3*
1,1,$1+$1,$4,$5*
1,1,$1+$1,$6,$7*
1,1,$1+$1,$8,$9*
0 Add four rect primitives between the rounded corners*
20,1,$1+$1,$2,$3,$4,$5,0*
20,1,$1+$1,$4,$5,$6,$7,0*
20,1,$1+$1,$6,$7,$8,$9,0*
20,1,$1+$1,$8,$9,$2,$3,0*%
%AMFreePoly0*
4,1,22,0.500000,-0.750000,0.000000,-0.750000,0.000000,-0.745033,-0.079941,-0.743568,-0.215256,-0.701293,-0.333266,-0.622738,-0.424486,-0.514219,-0.481581,-0.384460,-0.499164,-0.250000,-0.500000,-0.250000,-0.500000,0.250000,-0.499164,0.250000,-0.499963,0.256109,-0.478152,0.396186,-0.417904,0.524511,-0.324060,0.630769,-0.204165,0.706417,-0.067858,0.745374,0.000000,0.744959,0.000000,0.750000,
0.500000,0.750000,0.500000,-0.750000,0.500000,-0.750000,$1*%
%AMFreePoly1*
4,1,20,0.000000,0.744959,0.073905,0.744508,0.209726,0.703889,0.328688,0.626782,0.421226,0.519385,0.479903,0.390333,0.500000,0.250000,0.500000,-0.250000,0.499851,-0.262216,0.476331,-0.402017,0.414519,-0.529596,0.319384,-0.634700,0.198574,-0.708877,0.061801,-0.746166,0.000000,-0.745033,0.000000,-0.750000,-0.500000,-0.750000,-0.500000,0.750000,0.000000,0.750000,0.000000,0.744959,
0.000000,0.744959,$1*%
G04 Aperture macros list end*
%ADD10RoundRect,0.200000X0.200000X0.275000X-0.200000X0.275000X-0.200000X-0.275000X0.200000X-0.275000X0*%
%ADD11C,2.000000*%
%ADD12RoundRect,0.200000X-0.200000X-0.275000X0.200000X-0.275000X0.200000X0.275000X-0.200000X0.275000X0*%
%ADD13R,1.700000X1.700000*%
%ADD14O,1.700000X1.700000*%
%ADD15C,2.500000*%
%ADD16RoundRect,0.218750X-0.218750X-0.256250X0.218750X-0.256250X0.218750X0.256250X-0.218750X0.256250X0*%
%ADD17RoundRect,0.225000X-0.225000X-0.250000X0.225000X-0.250000X0.225000X0.250000X-0.225000X0.250000X0*%
%ADD18RoundRect,0.250000X-0.350000X-0.625000X0.350000X-0.625000X0.350000X0.625000X-0.350000X0.625000X0*%
%ADD19O,1.200000X1.750000*%
%ADD20RoundRect,0.062500X0.062500X-0.375000X0.062500X0.375000X-0.062500X0.375000X-0.062500X-0.375000X0*%
%ADD21RoundRect,0.062500X0.375000X-0.062500X0.375000X0.062500X-0.375000X0.062500X-0.375000X-0.062500X0*%
%ADD22R,1.600000X1.600000*%
%ADD23FreePoly0,90.000000*%
%ADD24FreePoly1,90.000000*%
%ADD25RoundRect,0.218750X0.218750X0.256250X-0.218750X0.256250X-0.218750X-0.256250X0.218750X-0.256250X0*%
%ADD26R,1.350000X0.400000*%
%ADD27O,1.250000X1.050000*%
%ADD28R,1.900000X0.875000*%
%ADD29O,1.900000X1.000000*%
%ADD30R,1.900000X2.900000*%
%ADD31R,2.000000X1.500000*%
%ADD32R,2.000000X3.800000*%
%ADD33RoundRect,0.243750X-0.243750X-0.456250X0.243750X-0.456250X0.243750X0.456250X-0.243750X0.456250X0*%
G04 APERTURE END LIST*
D10*
%TO.C,R204*%
X136025000Y-93600000D03*
X134375000Y-93600000D03*
%TD*%
D11*
%TO.C,TP105*%
X132000000Y-96600000D03*
%TD*%
D10*
%TO.C,R101*%
X134450000Y-83600000D03*
X132800000Y-83600000D03*
%TD*%
D12*
%TO.C,R203*%
X131350000Y-93600000D03*
X133000000Y-93600000D03*
%TD*%
D13*
%TO.C,J103*%
X163025000Y-86200000D03*
D14*
X163025000Y-88740000D03*
X163025000Y-91280000D03*
X163025000Y-93820000D03*
%TD*%
D12*
%TO.C,R102*%
X141575000Y-87000000D03*
X143225000Y-87000000D03*
%TD*%
D15*
%TO.C,REF\u002A\u002A*%
X158000000Y-97000000D03*
%TD*%
%TO.C,REF\u002A\u002A*%
X158000000Y-83000000D03*
%TD*%
D16*
%TO.C,D101*%
X137612500Y-86400000D03*
X139187500Y-86400000D03*
%TD*%
D17*
%TO.C,C202*%
X132825000Y-86800000D03*
X134375000Y-86800000D03*
%TD*%
D18*
%TO.C,J102*%
X144000000Y-93550000D03*
D19*
X146000000Y-93550000D03*
%TD*%
D11*
%TO.C,TP101*%
X139400000Y-96650000D03*
%TD*%
%TO.C,TP103*%
X135600000Y-96600000D03*
%TD*%
D17*
%TO.C,C203*%
X141625000Y-90200000D03*
X143175000Y-90200000D03*
%TD*%
D20*
%TO.C,U201*%
X132850000Y-91437500D03*
X133350000Y-91437500D03*
X133850000Y-91437500D03*
X134350000Y-91437500D03*
D21*
X135037500Y-90750000D03*
X135037500Y-90250000D03*
X135037500Y-89750000D03*
X135037500Y-89250000D03*
D20*
X134350000Y-88562500D03*
X133850000Y-88562500D03*
X133350000Y-88562500D03*
X132850000Y-88562500D03*
D21*
X132162500Y-89250000D03*
X132162500Y-89750000D03*
X132162500Y-90250000D03*
X132162500Y-90750000D03*
D22*
X133600000Y-90000000D03*
%TD*%
D12*
%TO.C,R202*%
X132800000Y-85200000D03*
X134450000Y-85200000D03*
%TD*%
D23*
%TO.C,JP1*%
X128400000Y-97850000D03*
D24*
X128400000Y-96550000D03*
%TD*%
D25*
%TO.C,D102*%
X147187500Y-90000000D03*
X145612500Y-90000000D03*
%TD*%
D26*
%TO.C,J101*%
X129095000Y-91300000D03*
X129095000Y-90650000D03*
X129095000Y-90000000D03*
X129095000Y-89350000D03*
X129095000Y-88700000D03*
D27*
X129420000Y-92225000D03*
D28*
X126420000Y-93737500D03*
D27*
X129420000Y-87775000D03*
D29*
X126420000Y-85825000D03*
D28*
X126420000Y-86262500D03*
D29*
X126420000Y-94175000D03*
D30*
X126420000Y-90000000D03*
%TD*%
D17*
%TO.C,C201*%
X132825000Y-82000000D03*
X134375000Y-82000000D03*
%TD*%
D12*
%TO.C,R205*%
X141575000Y-88600000D03*
X143225000Y-88600000D03*
%TD*%
D16*
%TO.C,D202*%
X137612500Y-93600000D03*
X139187500Y-93600000D03*
%TD*%
D10*
%TO.C,R206*%
X143225000Y-85400000D03*
X141575000Y-85400000D03*
%TD*%
D31*
%TO.C,U101*%
X151050000Y-87700000D03*
X151050000Y-90000000D03*
D32*
X157350000Y-90000000D03*
D31*
X151050000Y-92300000D03*
%TD*%
D11*
%TO.C,TP102*%
X146400000Y-86000000D03*
%TD*%
%TO.C,TP104*%
X153600000Y-96600000D03*
%TD*%
D23*
%TO.C,JP2*%
X128400000Y-83450000D03*
D24*
X128400000Y-82150000D03*
%TD*%
D33*
%TO.C,D203*%
X137462500Y-90000000D03*
X139337500Y-90000000D03*
%TD*%
M02*
