%FSLAX45Y45*%
G04 Gerber Fmt 4.5, Leading zero omitted, Abs format (unit mm)*
G04 Created by KiCad (PCBNEW (6.0.0-0)) date 2022-08-17 15:30:58*
%MOMM*%
%LPD*%
G01*
G04 APERTURE LIST*
%TA.AperFunction,Profile*%
%ADD10C,0.100000*%
%TD*%
%ADD11C,0.200000*%
%ADD12C,0.250000*%
G04 APERTURE END LIST*
D10*
X16200000Y-10000000D02*
G75*
G03*
X16500000Y-9700000I0J300000D01*
G01*
X16500000Y-8300000D02*
X16500000Y-9700000D01*
X12800000Y-8000000D02*
G75*
G03*
X12500000Y-8300000I0J-300000D01*
G01*
X16200000Y-10000000D02*
X12800000Y-10000000D01*
X12497000Y-8625000D02*
X12500000Y-8300000D01*
X12800000Y-8000000D02*
X16200000Y-8000000D01*
X12500000Y-9700000D02*
X12497000Y-9375000D01*
X16500000Y-8300000D02*
G75*
G03*
X16200000Y-8000000I-300000J0D01*
G01*
X12500000Y-9700000D02*
G75*
G03*
X12800000Y-10000000I300000J0D01*
G01*
D11*
D12*
X15675000Y-8175000D02*
X15925000Y-8425000D01*
X15925000Y-8175000D02*
X15675000Y-8425000D01*
X15675000Y-9575000D02*
X15925000Y-9825000D01*
X15925000Y-9575000D02*
X15675000Y-9825000D01*
D11*
X12749619Y-10315476D02*
X12749619Y-10115476D01*
X12797238Y-10115476D01*
X12825809Y-10125000D01*
X12844857Y-10144048D01*
X12854381Y-10163095D01*
X12863905Y-10201190D01*
X12863905Y-10229762D01*
X12854381Y-10267857D01*
X12844857Y-10286905D01*
X12825809Y-10305952D01*
X12797238Y-10315476D01*
X12749619Y-10315476D01*
X12949619Y-10315476D02*
X12949619Y-10182143D01*
X12949619Y-10220238D02*
X12959143Y-10201190D01*
X12968667Y-10191667D01*
X12987714Y-10182143D01*
X13006762Y-10182143D01*
X13073428Y-10315476D02*
X13073428Y-10182143D01*
X13073428Y-10115476D02*
X13063905Y-10125000D01*
X13073428Y-10134524D01*
X13082952Y-10125000D01*
X13073428Y-10115476D01*
X13073428Y-10134524D01*
X13197238Y-10315476D02*
X13178190Y-10305952D01*
X13168667Y-10286905D01*
X13168667Y-10115476D01*
X13302000Y-10315476D02*
X13282952Y-10305952D01*
X13273428Y-10286905D01*
X13273428Y-10115476D01*
X13530571Y-10315476D02*
X13530571Y-10115476D01*
X13597238Y-10258333D01*
X13663905Y-10115476D01*
X13663905Y-10315476D01*
X13844857Y-10315476D02*
X13844857Y-10210714D01*
X13835333Y-10191667D01*
X13816286Y-10182143D01*
X13778190Y-10182143D01*
X13759143Y-10191667D01*
X13844857Y-10305952D02*
X13825809Y-10315476D01*
X13778190Y-10315476D01*
X13759143Y-10305952D01*
X13749619Y-10286905D01*
X13749619Y-10267857D01*
X13759143Y-10248810D01*
X13778190Y-10239286D01*
X13825809Y-10239286D01*
X13844857Y-10229762D01*
X13940095Y-10182143D02*
X13940095Y-10382143D01*
X13940095Y-10191667D02*
X13959143Y-10182143D01*
X13997238Y-10182143D01*
X14016286Y-10191667D01*
X14025809Y-10201190D01*
X14035333Y-10220238D01*
X14035333Y-10277381D01*
X14025809Y-10296429D01*
X14016286Y-10305952D01*
X13997238Y-10315476D01*
X13959143Y-10315476D01*
X13940095Y-10305952D01*
X14121048Y-10296429D02*
X14130571Y-10305952D01*
X14121048Y-10315476D01*
X14111524Y-10305952D01*
X14121048Y-10296429D01*
X14121048Y-10315476D01*
X14121048Y-10191667D02*
X14130571Y-10201190D01*
X14121048Y-10210714D01*
X14111524Y-10201190D01*
X14121048Y-10191667D01*
X14121048Y-10210714D01*
X12292000Y-10545000D02*
X12492000Y-10745000D01*
X12492000Y-10545000D02*
X12292000Y-10745000D01*
X12740095Y-10554524D02*
X12749619Y-10545000D01*
X12768667Y-10535476D01*
X12816286Y-10535476D01*
X12835333Y-10545000D01*
X12844857Y-10554524D01*
X12854381Y-10573571D01*
X12854381Y-10592619D01*
X12844857Y-10621190D01*
X12730571Y-10735476D01*
X12854381Y-10735476D01*
X12940095Y-10716429D02*
X12949619Y-10725952D01*
X12940095Y-10735476D01*
X12930571Y-10725952D01*
X12940095Y-10716429D01*
X12940095Y-10735476D01*
X13130571Y-10535476D02*
X13035333Y-10535476D01*
X13025809Y-10630714D01*
X13035333Y-10621190D01*
X13054381Y-10611667D01*
X13102000Y-10611667D01*
X13121048Y-10621190D01*
X13130571Y-10630714D01*
X13140095Y-10649762D01*
X13140095Y-10697381D01*
X13130571Y-10716429D01*
X13121048Y-10725952D01*
X13102000Y-10735476D01*
X13054381Y-10735476D01*
X13035333Y-10725952D01*
X13025809Y-10716429D01*
X13263905Y-10535476D02*
X13282952Y-10535476D01*
X13302000Y-10545000D01*
X13311524Y-10554524D01*
X13321048Y-10573571D01*
X13330571Y-10611667D01*
X13330571Y-10659286D01*
X13321048Y-10697381D01*
X13311524Y-10716429D01*
X13302000Y-10725952D01*
X13282952Y-10735476D01*
X13263905Y-10735476D01*
X13244857Y-10725952D01*
X13235333Y-10716429D01*
X13225809Y-10697381D01*
X13216286Y-10659286D01*
X13216286Y-10611667D01*
X13225809Y-10573571D01*
X13235333Y-10554524D01*
X13244857Y-10545000D01*
X13263905Y-10535476D01*
X13454381Y-10535476D02*
X13473428Y-10535476D01*
X13492476Y-10545000D01*
X13502000Y-10554524D01*
X13511524Y-10573571D01*
X13521048Y-10611667D01*
X13521048Y-10659286D01*
X13511524Y-10697381D01*
X13502000Y-10716429D01*
X13492476Y-10725952D01*
X13473428Y-10735476D01*
X13454381Y-10735476D01*
X13435333Y-10725952D01*
X13425809Y-10716429D01*
X13416286Y-10697381D01*
X13406762Y-10659286D01*
X13406762Y-10611667D01*
X13416286Y-10573571D01*
X13425809Y-10554524D01*
X13435333Y-10545000D01*
X13454381Y-10535476D01*
X13606762Y-10735476D02*
X13606762Y-10602143D01*
X13606762Y-10621190D02*
X13616286Y-10611667D01*
X13635333Y-10602143D01*
X13663905Y-10602143D01*
X13682952Y-10611667D01*
X13692476Y-10630714D01*
X13692476Y-10735476D01*
X13692476Y-10630714D02*
X13702000Y-10611667D01*
X13721048Y-10602143D01*
X13749619Y-10602143D01*
X13768667Y-10611667D01*
X13778190Y-10630714D01*
X13778190Y-10735476D01*
X13873428Y-10735476D02*
X13873428Y-10602143D01*
X13873428Y-10621190D02*
X13882952Y-10611667D01*
X13902000Y-10602143D01*
X13930571Y-10602143D01*
X13949619Y-10611667D01*
X13959143Y-10630714D01*
X13959143Y-10735476D01*
X13959143Y-10630714D02*
X13968667Y-10611667D01*
X13987714Y-10602143D01*
X14016286Y-10602143D01*
X14035333Y-10611667D01*
X14044857Y-10630714D01*
X14044857Y-10735476D01*
X14435333Y-10525952D02*
X14263905Y-10783095D01*
X14692476Y-10535476D02*
X14711524Y-10535476D01*
X14730571Y-10545000D01*
X14740095Y-10554524D01*
X14749619Y-10573571D01*
X14759143Y-10611667D01*
X14759143Y-10659286D01*
X14749619Y-10697381D01*
X14740095Y-10716429D01*
X14730571Y-10725952D01*
X14711524Y-10735476D01*
X14692476Y-10735476D01*
X14673428Y-10725952D01*
X14663905Y-10716429D01*
X14654381Y-10697381D01*
X14644857Y-10659286D01*
X14644857Y-10611667D01*
X14654381Y-10573571D01*
X14663905Y-10554524D01*
X14673428Y-10545000D01*
X14692476Y-10535476D01*
X14844857Y-10716429D02*
X14854381Y-10725952D01*
X14844857Y-10735476D01*
X14835333Y-10725952D01*
X14844857Y-10716429D01*
X14844857Y-10735476D01*
X14978190Y-10535476D02*
X14997238Y-10535476D01*
X15016286Y-10545000D01*
X15025809Y-10554524D01*
X15035333Y-10573571D01*
X15044857Y-10611667D01*
X15044857Y-10659286D01*
X15035333Y-10697381D01*
X15025809Y-10716429D01*
X15016286Y-10725952D01*
X14997238Y-10735476D01*
X14978190Y-10735476D01*
X14959143Y-10725952D01*
X14949619Y-10716429D01*
X14940095Y-10697381D01*
X14930571Y-10659286D01*
X14930571Y-10611667D01*
X14940095Y-10573571D01*
X14949619Y-10554524D01*
X14959143Y-10545000D01*
X14978190Y-10535476D01*
X15140095Y-10735476D02*
X15178190Y-10735476D01*
X15197238Y-10725952D01*
X15206762Y-10716429D01*
X15225809Y-10687857D01*
X15235333Y-10649762D01*
X15235333Y-10573571D01*
X15225809Y-10554524D01*
X15216286Y-10545000D01*
X15197238Y-10535476D01*
X15159143Y-10535476D01*
X15140095Y-10545000D01*
X15130571Y-10554524D01*
X15121048Y-10573571D01*
X15121048Y-10621190D01*
X15130571Y-10640238D01*
X15140095Y-10649762D01*
X15159143Y-10659286D01*
X15197238Y-10659286D01*
X15216286Y-10649762D01*
X15225809Y-10640238D01*
X15235333Y-10621190D01*
X15349619Y-10621190D02*
X15330571Y-10611667D01*
X15321048Y-10602143D01*
X15311524Y-10583095D01*
X15311524Y-10573571D01*
X15321048Y-10554524D01*
X15330571Y-10545000D01*
X15349619Y-10535476D01*
X15387714Y-10535476D01*
X15406762Y-10545000D01*
X15416286Y-10554524D01*
X15425809Y-10573571D01*
X15425809Y-10583095D01*
X15416286Y-10602143D01*
X15406762Y-10611667D01*
X15387714Y-10621190D01*
X15349619Y-10621190D01*
X15330571Y-10630714D01*
X15321048Y-10640238D01*
X15311524Y-10659286D01*
X15311524Y-10697381D01*
X15321048Y-10716429D01*
X15330571Y-10725952D01*
X15349619Y-10735476D01*
X15387714Y-10735476D01*
X15406762Y-10725952D01*
X15416286Y-10716429D01*
X15425809Y-10697381D01*
X15425809Y-10659286D01*
X15416286Y-10640238D01*
X15406762Y-10630714D01*
X15387714Y-10621190D01*
X15597238Y-10602143D02*
X15597238Y-10735476D01*
X15549619Y-10525952D02*
X15502000Y-10668810D01*
X15625809Y-10668810D01*
X15692476Y-10535476D02*
X15692476Y-10573571D01*
X15768667Y-10535476D02*
X15768667Y-10573571D01*
X16063905Y-10811667D02*
X16054381Y-10802143D01*
X16035333Y-10773571D01*
X16025809Y-10754524D01*
X16016286Y-10725952D01*
X16006762Y-10678333D01*
X16006762Y-10640238D01*
X16016286Y-10592619D01*
X16025809Y-10564048D01*
X16035333Y-10545000D01*
X16054381Y-10516429D01*
X16063905Y-10506905D01*
X16130571Y-10554524D02*
X16140095Y-10545000D01*
X16159143Y-10535476D01*
X16206762Y-10535476D01*
X16225809Y-10545000D01*
X16235333Y-10554524D01*
X16244857Y-10573571D01*
X16244857Y-10592619D01*
X16235333Y-10621190D01*
X16121048Y-10735476D01*
X16244857Y-10735476D01*
X16482952Y-10735476D02*
X16482952Y-10535476D01*
X16568667Y-10735476D02*
X16568667Y-10630714D01*
X16559143Y-10611667D01*
X16540095Y-10602143D01*
X16511524Y-10602143D01*
X16492476Y-10611667D01*
X16482952Y-10621190D01*
X16692476Y-10735476D02*
X16673428Y-10725952D01*
X16663905Y-10716429D01*
X16654381Y-10697381D01*
X16654381Y-10640238D01*
X16663905Y-10621190D01*
X16673428Y-10611667D01*
X16692476Y-10602143D01*
X16721048Y-10602143D01*
X16740095Y-10611667D01*
X16749619Y-10621190D01*
X16759143Y-10640238D01*
X16759143Y-10697381D01*
X16749619Y-10716429D01*
X16740095Y-10725952D01*
X16721048Y-10735476D01*
X16692476Y-10735476D01*
X16873429Y-10735476D02*
X16854381Y-10725952D01*
X16844857Y-10706905D01*
X16844857Y-10535476D01*
X17025810Y-10725952D02*
X17006762Y-10735476D01*
X16968667Y-10735476D01*
X16949619Y-10725952D01*
X16940095Y-10706905D01*
X16940095Y-10630714D01*
X16949619Y-10611667D01*
X16968667Y-10602143D01*
X17006762Y-10602143D01*
X17025810Y-10611667D01*
X17035333Y-10630714D01*
X17035333Y-10649762D01*
X16940095Y-10668810D01*
X17111524Y-10725952D02*
X17130571Y-10735476D01*
X17168667Y-10735476D01*
X17187714Y-10725952D01*
X17197238Y-10706905D01*
X17197238Y-10697381D01*
X17187714Y-10678333D01*
X17168667Y-10668810D01*
X17140095Y-10668810D01*
X17121048Y-10659286D01*
X17111524Y-10640238D01*
X17111524Y-10630714D01*
X17121048Y-10611667D01*
X17140095Y-10602143D01*
X17168667Y-10602143D01*
X17187714Y-10611667D01*
X17263905Y-10811667D02*
X17273429Y-10802143D01*
X17292476Y-10773571D01*
X17302000Y-10754524D01*
X17311524Y-10725952D01*
X17321048Y-10678333D01*
X17321048Y-10640238D01*
X17311524Y-10592619D01*
X17302000Y-10564048D01*
X17292476Y-10545000D01*
X17273429Y-10516429D01*
X17263905Y-10506905D01*
X17625810Y-10811667D02*
X17616286Y-10802143D01*
X17597238Y-10773571D01*
X17587714Y-10754524D01*
X17578190Y-10725952D01*
X17568667Y-10678333D01*
X17568667Y-10640238D01*
X17578190Y-10592619D01*
X17587714Y-10564048D01*
X17597238Y-10545000D01*
X17616286Y-10516429D01*
X17625810Y-10506905D01*
X17702000Y-10602143D02*
X17702000Y-10735476D01*
X17702000Y-10621190D02*
X17711524Y-10611667D01*
X17730571Y-10602143D01*
X17759143Y-10602143D01*
X17778190Y-10611667D01*
X17787714Y-10630714D01*
X17787714Y-10735476D01*
X17911524Y-10735476D02*
X17892476Y-10725952D01*
X17882952Y-10716429D01*
X17873429Y-10697381D01*
X17873429Y-10640238D01*
X17882952Y-10621190D01*
X17892476Y-10611667D01*
X17911524Y-10602143D01*
X17940095Y-10602143D01*
X17959143Y-10611667D01*
X17968667Y-10621190D01*
X17978190Y-10640238D01*
X17978190Y-10697381D01*
X17968667Y-10716429D01*
X17959143Y-10725952D01*
X17940095Y-10735476D01*
X17911524Y-10735476D01*
X18035333Y-10602143D02*
X18111524Y-10602143D01*
X18063905Y-10535476D02*
X18063905Y-10706905D01*
X18073429Y-10725952D01*
X18092476Y-10735476D01*
X18111524Y-10735476D01*
X18330571Y-10602143D02*
X18330571Y-10802143D01*
X18330571Y-10611667D02*
X18349619Y-10602143D01*
X18387714Y-10602143D01*
X18406762Y-10611667D01*
X18416286Y-10621190D01*
X18425810Y-10640238D01*
X18425810Y-10697381D01*
X18416286Y-10716429D01*
X18406762Y-10725952D01*
X18387714Y-10735476D01*
X18349619Y-10735476D01*
X18330571Y-10725952D01*
X18540095Y-10735476D02*
X18521048Y-10725952D01*
X18511524Y-10706905D01*
X18511524Y-10535476D01*
X18702000Y-10735476D02*
X18702000Y-10630714D01*
X18692476Y-10611667D01*
X18673429Y-10602143D01*
X18635333Y-10602143D01*
X18616286Y-10611667D01*
X18702000Y-10725952D02*
X18682952Y-10735476D01*
X18635333Y-10735476D01*
X18616286Y-10725952D01*
X18606762Y-10706905D01*
X18606762Y-10687857D01*
X18616286Y-10668810D01*
X18635333Y-10659286D01*
X18682952Y-10659286D01*
X18702000Y-10649762D01*
X18768667Y-10602143D02*
X18844857Y-10602143D01*
X18797238Y-10535476D02*
X18797238Y-10706905D01*
X18806762Y-10725952D01*
X18825810Y-10735476D01*
X18844857Y-10735476D01*
X18987714Y-10725952D02*
X18968667Y-10735476D01*
X18930571Y-10735476D01*
X18911524Y-10725952D01*
X18902000Y-10706905D01*
X18902000Y-10630714D01*
X18911524Y-10611667D01*
X18930571Y-10602143D01*
X18968667Y-10602143D01*
X18987714Y-10611667D01*
X18997238Y-10630714D01*
X18997238Y-10649762D01*
X18902000Y-10668810D01*
X19168667Y-10735476D02*
X19168667Y-10535476D01*
X19168667Y-10725952D02*
X19149619Y-10735476D01*
X19111524Y-10735476D01*
X19092476Y-10725952D01*
X19082952Y-10716429D01*
X19073429Y-10697381D01*
X19073429Y-10640238D01*
X19082952Y-10621190D01*
X19092476Y-10611667D01*
X19111524Y-10602143D01*
X19149619Y-10602143D01*
X19168667Y-10611667D01*
X19244857Y-10811667D02*
X19254381Y-10802143D01*
X19273429Y-10773571D01*
X19282952Y-10754524D01*
X19292476Y-10725952D01*
X19302000Y-10678333D01*
X19302000Y-10640238D01*
X19292476Y-10592619D01*
X19282952Y-10564048D01*
X19273429Y-10545000D01*
X19254381Y-10516429D01*
X19244857Y-10506905D01*
M02*
