%TF.GenerationSoftware,KiCad,Pcbnew,(6.0.0-0)*%
%TF.CreationDate,2022-08-17T15:30:41+02:00*%
%TF.ProjectId,bq24072_pmic_board,62713234-3037-4325-9f70-6d69635f626f,rev?*%
%TF.SameCoordinates,Original*%
%TF.FileFunction,Legend,Top*%
%TF.FilePolarity,Positive*%
%FSLAX46Y46*%
G04 Gerber Fmt 4.6, Leading zero omitted, Abs format (unit mm)*
G04 Created by KiCad (PCBNEW (6.0.0-0)) date 2022-08-17 15:30:41*
%MOMM*%
%LPD*%
G01*
G04 APERTURE LIST*
%ADD10C,0.150000*%
%ADD11C,0.120000*%
G04 APERTURE END LIST*
D10*
X139976190Y-81678571D02*
X140119047Y-81726190D01*
X140166666Y-81773809D01*
X140214285Y-81869047D01*
X140214285Y-82011904D01*
X140166666Y-82107142D01*
X140119047Y-82154761D01*
X140023809Y-82202380D01*
X139642857Y-82202380D01*
X139642857Y-81202380D01*
X139976190Y-81202380D01*
X140071428Y-81250000D01*
X140119047Y-81297619D01*
X140166666Y-81392857D01*
X140166666Y-81488095D01*
X140119047Y-81583333D01*
X140071428Y-81630952D01*
X139976190Y-81678571D01*
X139642857Y-81678571D01*
X141309523Y-82297619D02*
X141214285Y-82250000D01*
X141119047Y-82154761D01*
X140976190Y-82011904D01*
X140880952Y-81964285D01*
X140785714Y-81964285D01*
X140833333Y-82202380D02*
X140738095Y-82154761D01*
X140642857Y-82059523D01*
X140595238Y-81869047D01*
X140595238Y-81535714D01*
X140642857Y-81345238D01*
X140738095Y-81250000D01*
X140833333Y-81202380D01*
X141023809Y-81202380D01*
X141119047Y-81250000D01*
X141214285Y-81345238D01*
X141261904Y-81535714D01*
X141261904Y-81869047D01*
X141214285Y-82059523D01*
X141119047Y-82154761D01*
X141023809Y-82202380D01*
X140833333Y-82202380D01*
X141642857Y-81297619D02*
X141690476Y-81250000D01*
X141785714Y-81202380D01*
X142023809Y-81202380D01*
X142119047Y-81250000D01*
X142166666Y-81297619D01*
X142214285Y-81392857D01*
X142214285Y-81488095D01*
X142166666Y-81630952D01*
X141595238Y-82202380D01*
X142214285Y-82202380D01*
X143071428Y-81535714D02*
X143071428Y-82202380D01*
X142833333Y-81154761D02*
X142595238Y-81869047D01*
X143214285Y-81869047D01*
X143785714Y-81202380D02*
X143880952Y-81202380D01*
X143976190Y-81250000D01*
X144023809Y-81297619D01*
X144071428Y-81392857D01*
X144119047Y-81583333D01*
X144119047Y-81821428D01*
X144071428Y-82011904D01*
X144023809Y-82107142D01*
X143976190Y-82154761D01*
X143880952Y-82202380D01*
X143785714Y-82202380D01*
X143690476Y-82154761D01*
X143642857Y-82107142D01*
X143595238Y-82011904D01*
X143547619Y-81821428D01*
X143547619Y-81583333D01*
X143595238Y-81392857D01*
X143642857Y-81297619D01*
X143690476Y-81250000D01*
X143785714Y-81202380D01*
X144452380Y-81202380D02*
X145119047Y-81202380D01*
X144690476Y-82202380D01*
X145452380Y-81297619D02*
X145500000Y-81250000D01*
X145595238Y-81202380D01*
X145833333Y-81202380D01*
X145928571Y-81250000D01*
X145976190Y-81297619D01*
X146023809Y-81392857D01*
X146023809Y-81488095D01*
X145976190Y-81630952D01*
X145404761Y-82202380D01*
X146023809Y-82202380D01*
X147214285Y-82202380D02*
X147214285Y-81202380D01*
X147595238Y-81202380D01*
X147690476Y-81250000D01*
X147738095Y-81297619D01*
X147785714Y-81392857D01*
X147785714Y-81535714D01*
X147738095Y-81630952D01*
X147690476Y-81678571D01*
X147595238Y-81726190D01*
X147214285Y-81726190D01*
X148214285Y-82202380D02*
X148214285Y-81202380D01*
X148547619Y-81916666D01*
X148880952Y-81202380D01*
X148880952Y-82202380D01*
X149357142Y-82202380D02*
X149357142Y-81202380D01*
X150404761Y-82107142D02*
X150357142Y-82154761D01*
X150214285Y-82202380D01*
X150119047Y-82202380D01*
X149976190Y-82154761D01*
X149880952Y-82059523D01*
X149833333Y-81964285D01*
X149785714Y-81773809D01*
X149785714Y-81630952D01*
X149833333Y-81440476D01*
X149880952Y-81345238D01*
X149976190Y-81250000D01*
X150119047Y-81202380D01*
X150214285Y-81202380D01*
X150357142Y-81250000D01*
X150404761Y-81297619D01*
X158916785Y-93400000D02*
X158821547Y-93352380D01*
X158678690Y-93352380D01*
X158535833Y-93400000D01*
X158440595Y-93495238D01*
X158392976Y-93590476D01*
X158345357Y-93780952D01*
X158345357Y-93923809D01*
X158392976Y-94114285D01*
X158440595Y-94209523D01*
X158535833Y-94304761D01*
X158678690Y-94352380D01*
X158773928Y-94352380D01*
X158916785Y-94304761D01*
X158964404Y-94257142D01*
X158964404Y-93923809D01*
X158773928Y-93923809D01*
X159392976Y-94352380D02*
X159392976Y-93352380D01*
X159964404Y-94352380D01*
X159964404Y-93352380D01*
X160440595Y-94352380D02*
X160440595Y-93352380D01*
X160678690Y-93352380D01*
X160821547Y-93400000D01*
X160916785Y-93495238D01*
X160964404Y-93590476D01*
X161012023Y-93780952D01*
X161012023Y-93923809D01*
X160964404Y-94114285D01*
X160916785Y-94209523D01*
X160821547Y-94304761D01*
X160678690Y-94352380D01*
X160440595Y-94352380D01*
X149128571Y-96938095D02*
X149176190Y-96795238D01*
X149223809Y-96747619D01*
X149319047Y-96700000D01*
X149461904Y-96700000D01*
X149557142Y-96747619D01*
X149604761Y-96795238D01*
X149652380Y-96890476D01*
X149652380Y-97271428D01*
X148652380Y-97271428D01*
X148652380Y-96938095D01*
X148700000Y-96842857D01*
X148747619Y-96795238D01*
X148842857Y-96747619D01*
X148938095Y-96747619D01*
X149033333Y-96795238D01*
X149080952Y-96842857D01*
X149128571Y-96938095D01*
X149128571Y-97271428D01*
X149366666Y-96319047D02*
X149366666Y-95842857D01*
X149652380Y-96414285D02*
X148652380Y-96080952D01*
X149652380Y-95747619D01*
X148652380Y-95557142D02*
X148652380Y-94985714D01*
X149652380Y-95271428D02*
X148652380Y-95271428D01*
X159102500Y-89152380D02*
X159102500Y-88152380D01*
X159340595Y-88152380D01*
X159483452Y-88200000D01*
X159578690Y-88295238D01*
X159626309Y-88390476D01*
X159673928Y-88580952D01*
X159673928Y-88723809D01*
X159626309Y-88914285D01*
X159578690Y-89009523D01*
X159483452Y-89104761D01*
X159340595Y-89152380D01*
X159102500Y-89152380D01*
X160102500Y-88771428D02*
X160864404Y-88771428D01*
X160483452Y-89152380D02*
X160483452Y-88390476D01*
X143619047Y-91871428D02*
X144380952Y-91871428D01*
X144000000Y-92252380D02*
X144000000Y-91490476D01*
X159102500Y-91752380D02*
X159102500Y-90752380D01*
X159340595Y-90752380D01*
X159483452Y-90800000D01*
X159578690Y-90895238D01*
X159626309Y-90990476D01*
X159673928Y-91180952D01*
X159673928Y-91323809D01*
X159626309Y-91514285D01*
X159578690Y-91609523D01*
X159483452Y-91704761D01*
X159340595Y-91752380D01*
X159102500Y-91752380D01*
X160102500Y-91371428D02*
X160864404Y-91371428D01*
X158483452Y-85652380D02*
X159102500Y-85652380D01*
X158769166Y-86033333D01*
X158912023Y-86033333D01*
X159007261Y-86080952D01*
X159054880Y-86128571D01*
X159102500Y-86223809D01*
X159102500Y-86461904D01*
X159054880Y-86557142D01*
X159007261Y-86604761D01*
X158912023Y-86652380D01*
X158626309Y-86652380D01*
X158531071Y-86604761D01*
X158483452Y-86557142D01*
X159388214Y-85652380D02*
X159721547Y-86652380D01*
X160054880Y-85652380D01*
X160292976Y-85652380D02*
X160912023Y-85652380D01*
X160578690Y-86033333D01*
X160721547Y-86033333D01*
X160816785Y-86080952D01*
X160864404Y-86128571D01*
X160912023Y-86223809D01*
X160912023Y-86461904D01*
X160864404Y-86557142D01*
X160816785Y-86604761D01*
X160721547Y-86652380D01*
X160435833Y-86652380D01*
X160340595Y-86604761D01*
X160292976Y-86557142D01*
%TO.C,TP105*%
X130166666Y-98252380D02*
X130500000Y-99252380D01*
X130833333Y-98252380D01*
X131166666Y-98252380D02*
X131166666Y-99061904D01*
X131214285Y-99157142D01*
X131261904Y-99204761D01*
X131357142Y-99252380D01*
X131547619Y-99252380D01*
X131642857Y-99204761D01*
X131690476Y-99157142D01*
X131738095Y-99061904D01*
X131738095Y-98252380D01*
X132166666Y-99204761D02*
X132309523Y-99252380D01*
X132547619Y-99252380D01*
X132642857Y-99204761D01*
X132690476Y-99157142D01*
X132738095Y-99061904D01*
X132738095Y-98966666D01*
X132690476Y-98871428D01*
X132642857Y-98823809D01*
X132547619Y-98776190D01*
X132357142Y-98728571D01*
X132261904Y-98680952D01*
X132214285Y-98633333D01*
X132166666Y-98538095D01*
X132166666Y-98442857D01*
X132214285Y-98347619D01*
X132261904Y-98300000D01*
X132357142Y-98252380D01*
X132595238Y-98252380D01*
X132738095Y-98300000D01*
X133500000Y-98728571D02*
X133642857Y-98776190D01*
X133690476Y-98823809D01*
X133738095Y-98919047D01*
X133738095Y-99061904D01*
X133690476Y-99157142D01*
X133642857Y-99204761D01*
X133547619Y-99252380D01*
X133166666Y-99252380D01*
X133166666Y-98252380D01*
X133500000Y-98252380D01*
X133595238Y-98300000D01*
X133642857Y-98347619D01*
X133690476Y-98442857D01*
X133690476Y-98538095D01*
X133642857Y-98633333D01*
X133595238Y-98680952D01*
X133500000Y-98728571D01*
X133166666Y-98728571D01*
%TO.C,D101*%
X136566666Y-84252380D02*
X136900000Y-85252380D01*
X137233333Y-84252380D01*
X137566666Y-84252380D02*
X137566666Y-85061904D01*
X137614285Y-85157142D01*
X137661904Y-85204761D01*
X137757142Y-85252380D01*
X137947619Y-85252380D01*
X138042857Y-85204761D01*
X138090476Y-85157142D01*
X138138095Y-85061904D01*
X138138095Y-84252380D01*
X138566666Y-85204761D02*
X138709523Y-85252380D01*
X138947619Y-85252380D01*
X139042857Y-85204761D01*
X139090476Y-85157142D01*
X139138095Y-85061904D01*
X139138095Y-84966666D01*
X139090476Y-84871428D01*
X139042857Y-84823809D01*
X138947619Y-84776190D01*
X138757142Y-84728571D01*
X138661904Y-84680952D01*
X138614285Y-84633333D01*
X138566666Y-84538095D01*
X138566666Y-84442857D01*
X138614285Y-84347619D01*
X138661904Y-84300000D01*
X138757142Y-84252380D01*
X138995238Y-84252380D01*
X139138095Y-84300000D01*
X139900000Y-84728571D02*
X140042857Y-84776190D01*
X140090476Y-84823809D01*
X140138095Y-84919047D01*
X140138095Y-85061904D01*
X140090476Y-85157142D01*
X140042857Y-85204761D01*
X139947619Y-85252380D01*
X139566666Y-85252380D01*
X139566666Y-84252380D01*
X139900000Y-84252380D01*
X139995238Y-84300000D01*
X140042857Y-84347619D01*
X140090476Y-84442857D01*
X140090476Y-84538095D01*
X140042857Y-84633333D01*
X139995238Y-84680952D01*
X139900000Y-84728571D01*
X139566666Y-84728571D01*
%TO.C,TP101*%
X138042857Y-98728571D02*
X138185714Y-98776190D01*
X138233333Y-98823809D01*
X138280952Y-98919047D01*
X138280952Y-99061904D01*
X138233333Y-99157142D01*
X138185714Y-99204761D01*
X138090476Y-99252380D01*
X137709523Y-99252380D01*
X137709523Y-98252380D01*
X138042857Y-98252380D01*
X138138095Y-98300000D01*
X138185714Y-98347619D01*
X138233333Y-98442857D01*
X138233333Y-98538095D01*
X138185714Y-98633333D01*
X138138095Y-98680952D01*
X138042857Y-98728571D01*
X137709523Y-98728571D01*
X138661904Y-98966666D02*
X139138095Y-98966666D01*
X138566666Y-99252380D02*
X138900000Y-98252380D01*
X139233333Y-99252380D01*
X139423809Y-98252380D02*
X139995238Y-98252380D01*
X139709523Y-99252380D02*
X139709523Y-98252380D01*
X140328571Y-98871428D02*
X141090476Y-98871428D01*
X140709523Y-99252380D02*
X140709523Y-98490476D01*
%TO.C,TP103*%
X134838095Y-98300000D02*
X134742857Y-98252380D01*
X134600000Y-98252380D01*
X134457142Y-98300000D01*
X134361904Y-98395238D01*
X134314285Y-98490476D01*
X134266666Y-98680952D01*
X134266666Y-98823809D01*
X134314285Y-99014285D01*
X134361904Y-99109523D01*
X134457142Y-99204761D01*
X134600000Y-99252380D01*
X134695238Y-99252380D01*
X134838095Y-99204761D01*
X134885714Y-99157142D01*
X134885714Y-98823809D01*
X134695238Y-98823809D01*
X135314285Y-99252380D02*
X135314285Y-98252380D01*
X135885714Y-99252380D01*
X135885714Y-98252380D01*
X136361904Y-99252380D02*
X136361904Y-98252380D01*
X136600000Y-98252380D01*
X136742857Y-98300000D01*
X136838095Y-98395238D01*
X136885714Y-98490476D01*
X136933333Y-98680952D01*
X136933333Y-98823809D01*
X136885714Y-99014285D01*
X136838095Y-99109523D01*
X136742857Y-99204761D01*
X136600000Y-99252380D01*
X136361904Y-99252380D01*
%TO.C,JP1*%
X126052380Y-98033333D02*
X126766666Y-98033333D01*
X126909523Y-98080952D01*
X127004761Y-98176190D01*
X127052380Y-98319047D01*
X127052380Y-98414285D01*
X127052380Y-97557142D02*
X126052380Y-97557142D01*
X126052380Y-97176190D01*
X126100000Y-97080952D01*
X126147619Y-97033333D01*
X126242857Y-96985714D01*
X126385714Y-96985714D01*
X126480952Y-97033333D01*
X126528571Y-97080952D01*
X126576190Y-97176190D01*
X126576190Y-97557142D01*
X127052380Y-96033333D02*
X127052380Y-96604761D01*
X127052380Y-96319047D02*
X126052380Y-96319047D01*
X126195238Y-96414285D01*
X126290476Y-96509523D01*
X126338095Y-96604761D01*
%TO.C,D102*%
X145400000Y-87852380D02*
X145590476Y-87852380D01*
X145685714Y-87900000D01*
X145780952Y-87995238D01*
X145828571Y-88185714D01*
X145828571Y-88519047D01*
X145780952Y-88709523D01*
X145685714Y-88804761D01*
X145590476Y-88852380D01*
X145400000Y-88852380D01*
X145304761Y-88804761D01*
X145209523Y-88709523D01*
X145161904Y-88519047D01*
X145161904Y-88185714D01*
X145209523Y-87995238D01*
X145304761Y-87900000D01*
X145400000Y-87852380D01*
X146257142Y-87852380D02*
X146257142Y-88661904D01*
X146304761Y-88757142D01*
X146352380Y-88804761D01*
X146447619Y-88852380D01*
X146638095Y-88852380D01*
X146733333Y-88804761D01*
X146780952Y-88757142D01*
X146828571Y-88661904D01*
X146828571Y-87852380D01*
X147161904Y-87852380D02*
X147733333Y-87852380D01*
X147447619Y-88852380D02*
X147447619Y-87852380D01*
%TO.C,D202*%
X136090476Y-92452380D02*
X136090476Y-91452380D01*
X136471428Y-91452380D01*
X136566666Y-91500000D01*
X136614285Y-91547619D01*
X136661904Y-91642857D01*
X136661904Y-91785714D01*
X136614285Y-91880952D01*
X136566666Y-91928571D01*
X136471428Y-91976190D01*
X136090476Y-91976190D01*
X137614285Y-91500000D02*
X137519047Y-91452380D01*
X137376190Y-91452380D01*
X137233333Y-91500000D01*
X137138095Y-91595238D01*
X137090476Y-91690476D01*
X137042857Y-91880952D01*
X137042857Y-92023809D01*
X137090476Y-92214285D01*
X137138095Y-92309523D01*
X137233333Y-92404761D01*
X137376190Y-92452380D01*
X137471428Y-92452380D01*
X137614285Y-92404761D01*
X137661904Y-92357142D01*
X137661904Y-92023809D01*
X137471428Y-92023809D01*
X138280952Y-91452380D02*
X138471428Y-91452380D01*
X138566666Y-91500000D01*
X138661904Y-91595238D01*
X138709523Y-91785714D01*
X138709523Y-92119047D01*
X138661904Y-92309523D01*
X138566666Y-92404761D01*
X138471428Y-92452380D01*
X138280952Y-92452380D01*
X138185714Y-92404761D01*
X138090476Y-92309523D01*
X138042857Y-92119047D01*
X138042857Y-91785714D01*
X138090476Y-91595238D01*
X138185714Y-91500000D01*
X138280952Y-91452380D01*
X139328571Y-91452380D02*
X139519047Y-91452380D01*
X139614285Y-91500000D01*
X139709523Y-91595238D01*
X139757142Y-91785714D01*
X139757142Y-92119047D01*
X139709523Y-92309523D01*
X139614285Y-92404761D01*
X139519047Y-92452380D01*
X139328571Y-92452380D01*
X139233333Y-92404761D01*
X139138095Y-92309523D01*
X139090476Y-92119047D01*
X139090476Y-91785714D01*
X139138095Y-91595238D01*
X139233333Y-91500000D01*
X139328571Y-91452380D01*
X140185714Y-92452380D02*
X140185714Y-91452380D01*
X140423809Y-91452380D01*
X140566666Y-91500000D01*
X140661904Y-91595238D01*
X140709523Y-91690476D01*
X140757142Y-91880952D01*
X140757142Y-92023809D01*
X140709523Y-92214285D01*
X140661904Y-92309523D01*
X140566666Y-92404761D01*
X140423809Y-92452380D01*
X140185714Y-92452380D01*
%TO.C,TP102*%
X145400000Y-83252380D02*
X145590476Y-83252380D01*
X145685714Y-83300000D01*
X145780952Y-83395238D01*
X145828571Y-83585714D01*
X145828571Y-83919047D01*
X145780952Y-84109523D01*
X145685714Y-84204761D01*
X145590476Y-84252380D01*
X145400000Y-84252380D01*
X145304761Y-84204761D01*
X145209523Y-84109523D01*
X145161904Y-83919047D01*
X145161904Y-83585714D01*
X145209523Y-83395238D01*
X145304761Y-83300000D01*
X145400000Y-83252380D01*
X146257142Y-83252380D02*
X146257142Y-84061904D01*
X146304761Y-84157142D01*
X146352380Y-84204761D01*
X146447619Y-84252380D01*
X146638095Y-84252380D01*
X146733333Y-84204761D01*
X146780952Y-84157142D01*
X146828571Y-84061904D01*
X146828571Y-83252380D01*
X147161904Y-83252380D02*
X147733333Y-83252380D01*
X147447619Y-84252380D02*
X147447619Y-83252380D01*
%TO.C,TP104*%
X152361904Y-98252380D02*
X152980952Y-98252380D01*
X152647619Y-98633333D01*
X152790476Y-98633333D01*
X152885714Y-98680952D01*
X152933333Y-98728571D01*
X152980952Y-98823809D01*
X152980952Y-99061904D01*
X152933333Y-99157142D01*
X152885714Y-99204761D01*
X152790476Y-99252380D01*
X152504761Y-99252380D01*
X152409523Y-99204761D01*
X152361904Y-99157142D01*
X153266666Y-98252380D02*
X153600000Y-99252380D01*
X153933333Y-98252380D01*
X154171428Y-98252380D02*
X154790476Y-98252380D01*
X154457142Y-98633333D01*
X154600000Y-98633333D01*
X154695238Y-98680952D01*
X154742857Y-98728571D01*
X154790476Y-98823809D01*
X154790476Y-99061904D01*
X154742857Y-99157142D01*
X154695238Y-99204761D01*
X154600000Y-99252380D01*
X154314285Y-99252380D01*
X154219047Y-99204761D01*
X154171428Y-99157142D01*
%TO.C,JP2*%
X126052380Y-83633333D02*
X126766666Y-83633333D01*
X126909523Y-83680952D01*
X127004761Y-83776190D01*
X127052380Y-83919047D01*
X127052380Y-84014285D01*
X127052380Y-83157142D02*
X126052380Y-83157142D01*
X126052380Y-82776190D01*
X126100000Y-82680952D01*
X126147619Y-82633333D01*
X126242857Y-82585714D01*
X126385714Y-82585714D01*
X126480952Y-82633333D01*
X126528571Y-82680952D01*
X126576190Y-82776190D01*
X126576190Y-83157142D01*
X126147619Y-82204761D02*
X126100000Y-82157142D01*
X126052380Y-82061904D01*
X126052380Y-81823809D01*
X126100000Y-81728571D01*
X126147619Y-81680952D01*
X126242857Y-81633333D01*
X126338095Y-81633333D01*
X126480952Y-81680952D01*
X127052380Y-82252380D01*
X127052380Y-81633333D01*
%TO.C,D203*%
X137685714Y-88557142D02*
X137638095Y-88604761D01*
X137495238Y-88652380D01*
X137400000Y-88652380D01*
X137257142Y-88604761D01*
X137161904Y-88509523D01*
X137114285Y-88414285D01*
X137066666Y-88223809D01*
X137066666Y-88080952D01*
X137114285Y-87890476D01*
X137161904Y-87795238D01*
X137257142Y-87700000D01*
X137400000Y-87652380D01*
X137495238Y-87652380D01*
X137638095Y-87700000D01*
X137685714Y-87747619D01*
X138114285Y-88652380D02*
X138114285Y-87652380D01*
X138114285Y-88128571D02*
X138685714Y-88128571D01*
X138685714Y-88652380D02*
X138685714Y-87652380D01*
X139685714Y-87700000D02*
X139590476Y-87652380D01*
X139447619Y-87652380D01*
X139304761Y-87700000D01*
X139209523Y-87795238D01*
X139161904Y-87890476D01*
X139114285Y-88080952D01*
X139114285Y-88223809D01*
X139161904Y-88414285D01*
X139209523Y-88509523D01*
X139304761Y-88604761D01*
X139447619Y-88652380D01*
X139542857Y-88652380D01*
X139685714Y-88604761D01*
X139733333Y-88557142D01*
X139733333Y-88223809D01*
X139542857Y-88223809D01*
D11*
%TO.C,R204*%
X135437258Y-93077500D02*
X134962742Y-93077500D01*
X135437258Y-94122500D02*
X134962742Y-94122500D01*
%TO.C,TP105*%
X133200000Y-96600000D02*
G75*
G03*
X133200000Y-96600000I-1200000J0D01*
G01*
%TO.C,R101*%
X133862258Y-84122500D02*
X133387742Y-84122500D01*
X133862258Y-83077500D02*
X133387742Y-83077500D01*
%TO.C,R203*%
X131937742Y-94122500D02*
X132412258Y-94122500D01*
X131937742Y-93077500D02*
X132412258Y-93077500D01*
%TO.C,J103*%
X164355000Y-87470000D02*
X164355000Y-95150000D01*
X161695000Y-87470000D02*
X164355000Y-87470000D01*
X164355000Y-84870000D02*
X164355000Y-86200000D01*
X161695000Y-87470000D02*
X161695000Y-95150000D01*
X161695000Y-95150000D02*
X164355000Y-95150000D01*
X163025000Y-84870000D02*
X164355000Y-84870000D01*
%TO.C,R102*%
X142162742Y-87522500D02*
X142637258Y-87522500D01*
X142162742Y-86477500D02*
X142637258Y-86477500D01*
%TO.C,D101*%
X139200000Y-85665000D02*
X136915000Y-85665000D01*
X136915000Y-87135000D02*
X139200000Y-87135000D01*
X136915000Y-85665000D02*
X136915000Y-87135000D01*
%TO.C,C202*%
X133459420Y-86290000D02*
X133740580Y-86290000D01*
X133459420Y-87310000D02*
X133740580Y-87310000D01*
%TO.C,J102*%
X144500000Y-95550000D02*
X145500000Y-95550000D01*
X148060000Y-92090000D02*
X147140000Y-92090000D01*
X146300000Y-97650000D02*
X146300000Y-96050000D01*
X147140000Y-92090000D02*
X147140000Y-93690000D01*
X147300000Y-97650000D02*
X146300000Y-97650000D01*
X142700000Y-96050000D02*
X142700000Y-97650000D01*
X143200000Y-97650000D02*
X143200000Y-99910000D01*
X142860000Y-93690000D02*
X142860000Y-92090000D01*
X141940000Y-99910000D02*
X148060000Y-99910000D01*
X145500000Y-95550000D02*
X145500000Y-99910000D01*
X143700000Y-97650000D02*
X143700000Y-96050000D01*
X142860000Y-92090000D02*
X141940000Y-92090000D01*
X141940000Y-93690000D02*
X142860000Y-93690000D01*
X141940000Y-92090000D02*
X141940000Y-99910000D01*
X147140000Y-93690000D02*
X146860000Y-93690000D01*
X144500000Y-99910000D02*
X144500000Y-95550000D01*
X146300000Y-96050000D02*
X147300000Y-96050000D01*
X143140000Y-93690000D02*
X143140000Y-92475000D01*
X143700000Y-96050000D02*
X142700000Y-96050000D01*
X143700000Y-97650000D02*
X143700000Y-99910000D01*
X148060000Y-93690000D02*
X147140000Y-93690000D01*
X143140000Y-93690000D02*
X142860000Y-93690000D01*
X148060000Y-99910000D02*
X148060000Y-92090000D01*
X147300000Y-96050000D02*
X147300000Y-97650000D01*
X142700000Y-97650000D02*
X143700000Y-97650000D01*
%TO.C,TP101*%
X140600000Y-96650000D02*
G75*
G03*
X140600000Y-96650000I-1200000J0D01*
G01*
%TO.C,TP103*%
X136800000Y-96600000D02*
G75*
G03*
X136800000Y-96600000I-1200000J0D01*
G01*
%TO.C,C203*%
X142259420Y-89690000D02*
X142540580Y-89690000D01*
X142259420Y-90710000D02*
X142540580Y-90710000D01*
%TO.C,U201*%
X131990000Y-91135000D02*
X131990000Y-91610000D01*
X135210000Y-88865000D02*
X135210000Y-88390000D01*
X135210000Y-91135000D02*
X135210000Y-91610000D01*
X135210000Y-91610000D02*
X134735000Y-91610000D01*
X135210000Y-88390000D02*
X134735000Y-88390000D01*
X131990000Y-88865000D02*
X131990000Y-88390000D01*
X131990000Y-88390000D02*
X132465000Y-88390000D01*
%TO.C,R202*%
X133387742Y-85722500D02*
X133862258Y-85722500D01*
X133387742Y-84677500D02*
X133862258Y-84677500D01*
%TO.C,JP1*%
X128100000Y-95800000D02*
X128700000Y-95800000D01*
X128700000Y-98600000D02*
X128100000Y-98600000D01*
X129400000Y-96500000D02*
X129400000Y-97900000D01*
X127400000Y-97900000D02*
X127400000Y-96500000D01*
X128700000Y-98600000D02*
G75*
G03*
X129400000Y-97900000I1J699999D01*
G01*
X127400000Y-97900000D02*
G75*
G03*
X128100000Y-98600000I699999J-1D01*
G01*
X129400000Y-96500000D02*
G75*
G03*
X128700000Y-95800000I-699999J1D01*
G01*
X128100000Y-95800000D02*
G75*
G03*
X127400000Y-96500000I-1J-699999D01*
G01*
%TO.C,D102*%
X147885000Y-89265000D02*
X145600000Y-89265000D01*
X147885000Y-90735000D02*
X147885000Y-89265000D01*
X145600000Y-90735000D02*
X147885000Y-90735000D01*
%TO.C,J101*%
X129920000Y-91300000D02*
X130220000Y-91600000D01*
X129690000Y-86130000D02*
X127620000Y-86130000D01*
X129690000Y-93000000D02*
X129690000Y-93870000D01*
X129690000Y-86130000D02*
X129690000Y-87000000D01*
X129690000Y-93870000D02*
X127620000Y-93870000D01*
X130220000Y-91000000D02*
X130220000Y-91600000D01*
X125220000Y-93870000D02*
X124970000Y-93870000D01*
X129920000Y-91300000D02*
X130220000Y-91000000D01*
X125220000Y-86130000D02*
X124970000Y-86130000D01*
%TO.C,C201*%
X133459420Y-81490000D02*
X133740580Y-81490000D01*
X133459420Y-82510000D02*
X133740580Y-82510000D01*
%TO.C,R205*%
X142162742Y-89122500D02*
X142637258Y-89122500D01*
X142162742Y-88077500D02*
X142637258Y-88077500D01*
%TO.C,D202*%
X139200000Y-92865000D02*
X136915000Y-92865000D01*
X136915000Y-92865000D02*
X136915000Y-94335000D01*
X136915000Y-94335000D02*
X139200000Y-94335000D01*
%TO.C,R206*%
X142637258Y-85922500D02*
X142162742Y-85922500D01*
X142637258Y-84877500D02*
X142162742Y-84877500D01*
%TO.C,U101*%
X150100000Y-86590000D02*
X156110000Y-86590000D01*
X156110000Y-93410000D02*
X156110000Y-92150000D01*
X156110000Y-86590000D02*
X156110000Y-87850000D01*
X152350000Y-93410000D02*
X156110000Y-93410000D01*
%TO.C,TP102*%
X147600000Y-86000000D02*
G75*
G03*
X147600000Y-86000000I-1200000J0D01*
G01*
%TO.C,TP104*%
X154800000Y-96600000D02*
G75*
G03*
X154800000Y-96600000I-1200000J0D01*
G01*
%TO.C,JP2*%
X129400000Y-82100000D02*
X129400000Y-83500000D01*
X128700000Y-84200000D02*
X128100000Y-84200000D01*
X128100000Y-81400000D02*
X128700000Y-81400000D01*
X127400000Y-83500000D02*
X127400000Y-82100000D01*
X127400000Y-83500000D02*
G75*
G03*
X128100000Y-84200000I699999J-1D01*
G01*
X128700000Y-84200000D02*
G75*
G03*
X129400000Y-83500000I1J699999D01*
G01*
X128100000Y-81400000D02*
G75*
G03*
X127400000Y-82100000I-1J-699999D01*
G01*
X129400000Y-82100000D02*
G75*
G03*
X128700000Y-81400000I-699999J1D01*
G01*
%TO.C,D203*%
X139400000Y-89040000D02*
X136715000Y-89040000D01*
X136715000Y-90960000D02*
X139400000Y-90960000D01*
X136715000Y-89040000D02*
X136715000Y-90960000D01*
%TD*%
M02*
