%TF.GenerationSoftware,KiCad,Pcbnew,(6.0.0-0)*%
%TF.CreationDate,2022-08-17T22:10:29+02:00*%
%TF.ProjectId,tpa2012d2_amp_breakout,74706132-3031-4326-9432-5f616d705f62,rev?*%
%TF.SameCoordinates,Original*%
%TF.FileFunction,Legend,Top*%
%TF.FilePolarity,Positive*%
%FSLAX46Y46*%
G04 Gerber Fmt 4.6, Leading zero omitted, Abs format (unit mm)*
G04 Created by KiCad (PCBNEW (6.0.0-0)) date 2022-08-17 22:10:29*
%MOMM*%
%LPD*%
G01*
G04 APERTURE LIST*
%ADD10C,0.150000*%
%ADD11C,0.120000*%
G04 APERTURE END LIST*
D10*
X172152380Y-96914285D02*
X172152380Y-97390476D01*
X171152380Y-97390476D01*
X171152380Y-96390476D02*
X171152380Y-96200000D01*
X171200000Y-96104761D01*
X171295238Y-96009523D01*
X171485714Y-95961904D01*
X171819047Y-95961904D01*
X172009523Y-96009523D01*
X172104761Y-96104761D01*
X172152380Y-96200000D01*
X172152380Y-96390476D01*
X172104761Y-96485714D01*
X172009523Y-96580952D01*
X171819047Y-96628571D01*
X171485714Y-96628571D01*
X171295238Y-96580952D01*
X171200000Y-96485714D01*
X171152380Y-96390476D01*
X172152380Y-92023809D02*
X171152380Y-92023809D01*
X171628571Y-92023809D02*
X171628571Y-91452380D01*
X172152380Y-91452380D02*
X171152380Y-91452380D01*
X172152380Y-90976190D02*
X171152380Y-90976190D01*
X141647380Y-94095238D02*
X141647380Y-93523809D01*
X142647380Y-93809523D02*
X141647380Y-93809523D01*
X142647380Y-93190476D02*
X141647380Y-93190476D01*
X141647380Y-92809523D01*
X141695000Y-92714285D01*
X141742619Y-92666666D01*
X141837857Y-92619047D01*
X141980714Y-92619047D01*
X142075952Y-92666666D01*
X142123571Y-92714285D01*
X142171190Y-92809523D01*
X142171190Y-93190476D01*
X142361666Y-92238095D02*
X142361666Y-91761904D01*
X142647380Y-92333333D02*
X141647380Y-92000000D01*
X142647380Y-91666666D01*
X141742619Y-91380952D02*
X141695000Y-91333333D01*
X141647380Y-91238095D01*
X141647380Y-91000000D01*
X141695000Y-90904761D01*
X141742619Y-90857142D01*
X141837857Y-90809523D01*
X141933095Y-90809523D01*
X142075952Y-90857142D01*
X142647380Y-91428571D01*
X142647380Y-90809523D01*
X141647380Y-90190476D02*
X141647380Y-90095238D01*
X141695000Y-90000000D01*
X141742619Y-89952380D01*
X141837857Y-89904761D01*
X142028333Y-89857142D01*
X142266428Y-89857142D01*
X142456904Y-89904761D01*
X142552142Y-89952380D01*
X142599761Y-90000000D01*
X142647380Y-90095238D01*
X142647380Y-90190476D01*
X142599761Y-90285714D01*
X142552142Y-90333333D01*
X142456904Y-90380952D01*
X142266428Y-90428571D01*
X142028333Y-90428571D01*
X141837857Y-90380952D01*
X141742619Y-90333333D01*
X141695000Y-90285714D01*
X141647380Y-90190476D01*
X142647380Y-88904761D02*
X142647380Y-89476190D01*
X142647380Y-89190476D02*
X141647380Y-89190476D01*
X141790238Y-89285714D01*
X141885476Y-89380952D01*
X141933095Y-89476190D01*
X141742619Y-88523809D02*
X141695000Y-88476190D01*
X141647380Y-88380952D01*
X141647380Y-88142857D01*
X141695000Y-88047619D01*
X141742619Y-88000000D01*
X141837857Y-87952380D01*
X141933095Y-87952380D01*
X142075952Y-88000000D01*
X142647380Y-88571428D01*
X142647380Y-87952380D01*
X142647380Y-87523809D02*
X141647380Y-87523809D01*
X141647380Y-87285714D01*
X141695000Y-87142857D01*
X141790238Y-87047619D01*
X141885476Y-87000000D01*
X142075952Y-86952380D01*
X142218809Y-86952380D01*
X142409285Y-87000000D01*
X142504523Y-87047619D01*
X142599761Y-87142857D01*
X142647380Y-87285714D01*
X142647380Y-87523809D01*
X141742619Y-86571428D02*
X141695000Y-86523809D01*
X141647380Y-86428571D01*
X141647380Y-86190476D01*
X141695000Y-86095238D01*
X141742619Y-86047619D01*
X141837857Y-86000000D01*
X141933095Y-86000000D01*
X142075952Y-86047619D01*
X142647380Y-86619047D01*
X142647380Y-86000000D01*
X143971666Y-91309523D02*
X143971666Y-90833333D01*
X144257380Y-91404761D02*
X143257380Y-91071428D01*
X144257380Y-90738095D01*
X144257380Y-90404761D02*
X143257380Y-90404761D01*
X143971666Y-90071428D01*
X143257380Y-89738095D01*
X144257380Y-89738095D01*
X144257380Y-89261904D02*
X143257380Y-89261904D01*
X143257380Y-88880952D01*
X143305000Y-88785714D01*
X143352619Y-88738095D01*
X143447857Y-88690476D01*
X143590714Y-88690476D01*
X143685952Y-88738095D01*
X143733571Y-88785714D01*
X143781190Y-88880952D01*
X143781190Y-89261904D01*
X148102380Y-86089404D02*
X147102380Y-86089404D01*
X148102380Y-85613214D02*
X147102380Y-85613214D01*
X148102380Y-85041785D01*
X147102380Y-85041785D01*
X173140595Y-93272380D02*
X173473928Y-94272380D01*
X173807261Y-93272380D01*
X174140595Y-94272380D02*
X174140595Y-93272380D01*
X174378690Y-93272380D01*
X174521547Y-93320000D01*
X174616785Y-93415238D01*
X174664404Y-93510476D01*
X174712023Y-93700952D01*
X174712023Y-93843809D01*
X174664404Y-94034285D01*
X174616785Y-94129523D01*
X174521547Y-94224761D01*
X174378690Y-94272380D01*
X174140595Y-94272380D01*
X175140595Y-94272380D02*
X175140595Y-93272380D01*
X175378690Y-93272380D01*
X175521547Y-93320000D01*
X175616785Y-93415238D01*
X175664404Y-93510476D01*
X175712023Y-93700952D01*
X175712023Y-93843809D01*
X175664404Y-94034285D01*
X175616785Y-94129523D01*
X175521547Y-94224761D01*
X175378690Y-94272380D01*
X175140595Y-94272380D01*
X173616785Y-85700000D02*
X173521547Y-85652380D01*
X173378690Y-85652380D01*
X173235833Y-85700000D01*
X173140595Y-85795238D01*
X173092976Y-85890476D01*
X173045357Y-86080952D01*
X173045357Y-86223809D01*
X173092976Y-86414285D01*
X173140595Y-86509523D01*
X173235833Y-86604761D01*
X173378690Y-86652380D01*
X173473928Y-86652380D01*
X173616785Y-86604761D01*
X173664404Y-86557142D01*
X173664404Y-86223809D01*
X173473928Y-86223809D01*
X174092976Y-86652380D02*
X174092976Y-85652380D01*
X174664404Y-86652380D01*
X174664404Y-85652380D01*
X175140595Y-86652380D02*
X175140595Y-85652380D01*
X175378690Y-85652380D01*
X175521547Y-85700000D01*
X175616785Y-85795238D01*
X175664404Y-85890476D01*
X175712023Y-86080952D01*
X175712023Y-86223809D01*
X175664404Y-86414285D01*
X175616785Y-86509523D01*
X175521547Y-86604761D01*
X175378690Y-86652380D01*
X175140595Y-86652380D01*
X173616785Y-89192380D02*
X173616785Y-88192380D01*
X174092976Y-89192380D02*
X174092976Y-88192380D01*
X174664404Y-89192380D01*
X174664404Y-88192380D01*
X175712023Y-89192380D02*
X175378690Y-88716190D01*
X175140595Y-89192380D02*
X175140595Y-88192380D01*
X175521547Y-88192380D01*
X175616785Y-88240000D01*
X175664404Y-88287619D01*
X175712023Y-88382857D01*
X175712023Y-88525714D01*
X175664404Y-88620952D01*
X175616785Y-88668571D01*
X175521547Y-88716190D01*
X175140595Y-88716190D01*
X173807261Y-91732380D02*
X173807261Y-90732380D01*
X174283452Y-91732380D02*
X174283452Y-90732380D01*
X174854880Y-91732380D01*
X174854880Y-90732380D01*
X175807261Y-91732380D02*
X175331071Y-91732380D01*
X175331071Y-90732380D01*
%TO.C,J105*%
X168664285Y-99204761D02*
X168807142Y-99252380D01*
X169045238Y-99252380D01*
X169140476Y-99204761D01*
X169188095Y-99157142D01*
X169235714Y-99061904D01*
X169235714Y-98966666D01*
X169188095Y-98871428D01*
X169140476Y-98823809D01*
X169045238Y-98776190D01*
X168854761Y-98728571D01*
X168759523Y-98680952D01*
X168711904Y-98633333D01*
X168664285Y-98538095D01*
X168664285Y-98442857D01*
X168711904Y-98347619D01*
X168759523Y-98300000D01*
X168854761Y-98252380D01*
X169092857Y-98252380D01*
X169235714Y-98300000D01*
X169664285Y-99252380D02*
X169664285Y-98252380D01*
X169902380Y-98252380D01*
X170045238Y-98300000D01*
X170140476Y-98395238D01*
X170188095Y-98490476D01*
X170235714Y-98680952D01*
X170235714Y-98823809D01*
X170188095Y-99014285D01*
X170140476Y-99109523D01*
X170045238Y-99204761D01*
X169902380Y-99252380D01*
X169664285Y-99252380D01*
%TO.C,J107*%
X159985714Y-98325000D02*
X159890476Y-98277380D01*
X159747619Y-98277380D01*
X159604761Y-98325000D01*
X159509523Y-98420238D01*
X159461904Y-98515476D01*
X159414285Y-98705952D01*
X159414285Y-98848809D01*
X159461904Y-99039285D01*
X159509523Y-99134523D01*
X159604761Y-99229761D01*
X159747619Y-99277380D01*
X159842857Y-99277380D01*
X159985714Y-99229761D01*
X160033333Y-99182142D01*
X160033333Y-98848809D01*
X159842857Y-98848809D01*
X160985714Y-99277380D02*
X160414285Y-99277380D01*
X160700000Y-99277380D02*
X160700000Y-98277380D01*
X160604761Y-98420238D01*
X160509523Y-98515476D01*
X160414285Y-98563095D01*
%TO.C,J102*%
X166487991Y-89304761D02*
X166630848Y-89352380D01*
X166868943Y-89352380D01*
X166964181Y-89304761D01*
X167011800Y-89257142D01*
X167059420Y-89161904D01*
X167059420Y-89066666D01*
X167011800Y-88971428D01*
X166964181Y-88923809D01*
X166868943Y-88876190D01*
X166678467Y-88828571D01*
X166583229Y-88780952D01*
X166535610Y-88733333D01*
X166487991Y-88638095D01*
X166487991Y-88542857D01*
X166535610Y-88447619D01*
X166583229Y-88400000D01*
X166678467Y-88352380D01*
X166916562Y-88352380D01*
X167059420Y-88400000D01*
X167487991Y-89352380D02*
X167487991Y-88352380D01*
X167868943Y-88352380D01*
X167964181Y-88400000D01*
X168011800Y-88447619D01*
X168059420Y-88542857D01*
X168059420Y-88685714D01*
X168011800Y-88780952D01*
X167964181Y-88828571D01*
X167868943Y-88876190D01*
X167487991Y-88876190D01*
X168487991Y-89352380D02*
X168487991Y-88352380D01*
X169059420Y-89352380D02*
X168630848Y-88780952D01*
X169059420Y-88352380D02*
X168487991Y-88923809D01*
X170726086Y-89352380D02*
X170249896Y-89352380D01*
X170249896Y-88352380D01*
%TO.C,J103*%
X158833333Y-89304761D02*
X158976190Y-89352380D01*
X159214285Y-89352380D01*
X159309523Y-89304761D01*
X159357142Y-89257142D01*
X159404761Y-89161904D01*
X159404761Y-89066666D01*
X159357142Y-88971428D01*
X159309523Y-88923809D01*
X159214285Y-88876190D01*
X159023809Y-88828571D01*
X158928571Y-88780952D01*
X158880952Y-88733333D01*
X158833333Y-88638095D01*
X158833333Y-88542857D01*
X158880952Y-88447619D01*
X158928571Y-88400000D01*
X159023809Y-88352380D01*
X159261904Y-88352380D01*
X159404761Y-88400000D01*
X159833333Y-89352380D02*
X159833333Y-88352380D01*
X160214285Y-88352380D01*
X160309523Y-88400000D01*
X160357142Y-88447619D01*
X160404761Y-88542857D01*
X160404761Y-88685714D01*
X160357142Y-88780952D01*
X160309523Y-88828571D01*
X160214285Y-88876190D01*
X159833333Y-88876190D01*
X160833333Y-89352380D02*
X160833333Y-88352380D01*
X161404761Y-89352380D02*
X160976190Y-88780952D01*
X161404761Y-88352380D02*
X160833333Y-88923809D01*
X163166666Y-89352380D02*
X162833333Y-88876190D01*
X162595238Y-89352380D02*
X162595238Y-88352380D01*
X162976190Y-88352380D01*
X163071428Y-88400000D01*
X163119047Y-88447619D01*
X163166666Y-88542857D01*
X163166666Y-88685714D01*
X163119047Y-88780952D01*
X163071428Y-88828571D01*
X162976190Y-88876190D01*
X162595238Y-88876190D01*
%TO.C,J106*%
X164585714Y-98300000D02*
X164490476Y-98252380D01*
X164347619Y-98252380D01*
X164204761Y-98300000D01*
X164109523Y-98395238D01*
X164061904Y-98490476D01*
X164014285Y-98680952D01*
X164014285Y-98823809D01*
X164061904Y-99014285D01*
X164109523Y-99109523D01*
X164204761Y-99204761D01*
X164347619Y-99252380D01*
X164442857Y-99252380D01*
X164585714Y-99204761D01*
X164633333Y-99157142D01*
X164633333Y-98823809D01*
X164442857Y-98823809D01*
X165252380Y-98252380D02*
X165347619Y-98252380D01*
X165442857Y-98300000D01*
X165490476Y-98347619D01*
X165538095Y-98442857D01*
X165585714Y-98633333D01*
X165585714Y-98871428D01*
X165538095Y-99061904D01*
X165490476Y-99157142D01*
X165442857Y-99204761D01*
X165347619Y-99252380D01*
X165252380Y-99252380D01*
X165157142Y-99204761D01*
X165109523Y-99157142D01*
X165061904Y-99061904D01*
X165014285Y-98871428D01*
X165014285Y-98633333D01*
X165061904Y-98442857D01*
X165109523Y-98347619D01*
X165157142Y-98300000D01*
X165252380Y-98252380D01*
D11*
%TO.C,J104*%
X154200000Y-77400000D02*
X153200000Y-77400000D01*
X149700000Y-91400000D02*
X148700000Y-91400000D01*
X148700000Y-91400000D02*
X148700000Y-90400000D01*
X149200000Y-77400000D02*
X150200000Y-77400000D01*
X154200000Y-78400000D02*
X154200000Y-77400000D01*
X154700000Y-81100000D02*
X154700000Y-80100000D01*
X154700000Y-91400000D02*
X153700000Y-91400000D01*
X154700000Y-90400000D02*
X154700000Y-91400000D01*
X149200000Y-78400000D02*
X149200000Y-77400000D01*
X154700000Y-80100000D02*
X153700000Y-80100000D01*
X148700000Y-81100000D02*
X148700000Y-80100000D01*
X148700000Y-80100000D02*
X149700000Y-80100000D01*
%TO.C,C301*%
X146740580Y-91890000D02*
X146459420Y-91890000D01*
X146740580Y-92910000D02*
X146459420Y-92910000D01*
%TO.C,C306*%
X147690000Y-97440580D02*
X147690000Y-97159420D01*
X148710000Y-97440580D02*
X148710000Y-97159420D01*
%TO.C,C302*%
X156460000Y-97390580D02*
X156460000Y-97109420D01*
X155440000Y-97390580D02*
X155440000Y-97109420D01*
%TO.C,J105*%
X168120000Y-92845000D02*
X168120000Y-97985000D01*
X168120000Y-97985000D02*
X170780000Y-97985000D01*
X168120000Y-91575000D02*
X168120000Y-90245000D01*
X170780000Y-92845000D02*
X170780000Y-97985000D01*
X168120000Y-90245000D02*
X169450000Y-90245000D01*
X168120000Y-92845000D02*
X170780000Y-92845000D01*
%TO.C,C303*%
X158060000Y-97390580D02*
X158060000Y-97109420D01*
X157040000Y-97390580D02*
X157040000Y-97109420D01*
%TO.C,J107*%
X158870000Y-92870000D02*
X158870000Y-98010000D01*
X158870000Y-90270000D02*
X160200000Y-90270000D01*
X161530000Y-92870000D02*
X161530000Y-98010000D01*
X158870000Y-92870000D02*
X161530000Y-92870000D01*
X158870000Y-91600000D02*
X158870000Y-90270000D01*
X158870000Y-98010000D02*
X161530000Y-98010000D01*
%TO.C,U301*%
X154650000Y-93150000D02*
X154650000Y-94200000D01*
X149550000Y-98250000D02*
X149550000Y-97200000D01*
X150600000Y-93150000D02*
X149550000Y-93150000D01*
X149550000Y-93150000D02*
X149550000Y-94200000D01*
X153600000Y-93150000D02*
X154650000Y-93150000D01*
X150600000Y-98250000D02*
X149550000Y-98250000D01*
X153600000Y-98250000D02*
X154900000Y-98250000D01*
%TO.C,J102*%
X171660000Y-80090000D02*
X165540000Y-80090000D01*
X166460000Y-86310000D02*
X166740000Y-86310000D01*
X167300000Y-83950000D02*
X166300000Y-83950000D01*
X169100000Y-80090000D02*
X169100000Y-84450000D01*
X166300000Y-83950000D02*
X166300000Y-82350000D01*
X168100000Y-84450000D02*
X168100000Y-80090000D01*
X170460000Y-86310000D02*
X170460000Y-87525000D01*
X170400000Y-82350000D02*
X170400000Y-80090000D01*
X169900000Y-82350000D02*
X169900000Y-83950000D01*
X170900000Y-82350000D02*
X169900000Y-82350000D01*
X165540000Y-80090000D02*
X165540000Y-87910000D01*
X165540000Y-86310000D02*
X166460000Y-86310000D01*
X169100000Y-84450000D02*
X168100000Y-84450000D01*
X170740000Y-87910000D02*
X171660000Y-87910000D01*
X167300000Y-82350000D02*
X167300000Y-83950000D01*
X171660000Y-86310000D02*
X170740000Y-86310000D01*
X169900000Y-83950000D02*
X170900000Y-83950000D01*
X166460000Y-87910000D02*
X166460000Y-86310000D01*
X170460000Y-86310000D02*
X170740000Y-86310000D01*
X165540000Y-87910000D02*
X166460000Y-87910000D01*
X170740000Y-86310000D02*
X170740000Y-87910000D01*
X166300000Y-82350000D02*
X167300000Y-82350000D01*
X170900000Y-83950000D02*
X170900000Y-82350000D01*
X169900000Y-82350000D02*
X169900000Y-80090000D01*
X171660000Y-87910000D02*
X171660000Y-80090000D01*
%TO.C,J103*%
X159700000Y-82400000D02*
X159700000Y-84000000D01*
X158860000Y-86360000D02*
X159140000Y-86360000D01*
X158700000Y-84000000D02*
X158700000Y-82400000D01*
X162300000Y-84000000D02*
X163300000Y-84000000D01*
X157940000Y-86360000D02*
X158860000Y-86360000D01*
X164060000Y-80140000D02*
X157940000Y-80140000D01*
X160500000Y-84500000D02*
X160500000Y-80140000D01*
X164060000Y-87960000D02*
X164060000Y-80140000D01*
X158700000Y-82400000D02*
X159700000Y-82400000D01*
X158860000Y-87960000D02*
X158860000Y-86360000D01*
X157940000Y-87960000D02*
X158860000Y-87960000D01*
X163300000Y-84000000D02*
X163300000Y-82400000D01*
X161500000Y-84500000D02*
X160500000Y-84500000D01*
X162860000Y-86360000D02*
X163140000Y-86360000D01*
X162860000Y-86360000D02*
X162860000Y-87575000D01*
X162300000Y-82400000D02*
X162300000Y-84000000D01*
X163300000Y-82400000D02*
X162300000Y-82400000D01*
X163140000Y-87960000D02*
X164060000Y-87960000D01*
X157940000Y-80140000D02*
X157940000Y-87960000D01*
X162300000Y-82400000D02*
X162300000Y-80140000D01*
X164060000Y-86360000D02*
X163140000Y-86360000D01*
X162800000Y-82400000D02*
X162800000Y-80140000D01*
X163140000Y-86360000D02*
X163140000Y-87960000D01*
X159700000Y-84000000D02*
X158700000Y-84000000D01*
X161500000Y-80140000D02*
X161500000Y-84500000D01*
%TO.C,C304*%
X147010000Y-97159420D02*
X147010000Y-97440580D01*
X145990000Y-97159420D02*
X145990000Y-97440580D01*
%TO.C,J101*%
X177975000Y-95130000D02*
X176645000Y-95130000D01*
X179305000Y-84850000D02*
X176645000Y-84850000D01*
X176645000Y-92530000D02*
X176645000Y-84850000D01*
X179305000Y-92530000D02*
X176645000Y-92530000D01*
X179305000Y-92530000D02*
X179305000Y-84850000D01*
X176645000Y-95130000D02*
X176645000Y-93800000D01*
%TO.C,C305*%
X156890580Y-93310000D02*
X156609420Y-93310000D01*
X156890580Y-92290000D02*
X156609420Y-92290000D01*
%TO.C,C307*%
X146765580Y-93590000D02*
X146484420Y-93590000D01*
X146765580Y-94610000D02*
X146484420Y-94610000D01*
%TO.C,J106*%
X163470000Y-92845000D02*
X163470000Y-97985000D01*
X166130000Y-92845000D02*
X166130000Y-97985000D01*
X163470000Y-92845000D02*
X166130000Y-92845000D01*
X163470000Y-97985000D02*
X166130000Y-97985000D01*
X163470000Y-91575000D02*
X163470000Y-90245000D01*
X163470000Y-90245000D02*
X164800000Y-90245000D01*
%TD*%
M02*
