%TF.GenerationSoftware,KiCad,Pcbnew,(6.0.0-0)*%
%TF.CreationDate,2022-08-17T22:10:29+02:00*%
%TF.ProjectId,tpa2012d2_amp_breakout,74706132-3031-4326-9432-5f616d705f62,rev?*%
%TF.SameCoordinates,Original*%
%TF.FileFunction,Copper,L1,Top*%
%TF.FilePolarity,Positive*%
%FSLAX46Y46*%
G04 Gerber Fmt 4.6, Leading zero omitted, Abs format (unit mm)*
G04 Created by KiCad (PCBNEW (6.0.0-0)) date 2022-08-17 22:10:29*
%MOMM*%
%LPD*%
G01*
G04 APERTURE LIST*
G04 Aperture macros list*
%AMRoundRect*
0 Rectangle with rounded corners*
0 $1 Rounding radius*
0 $2 $3 $4 $5 $6 $7 $8 $9 X,Y pos of 4 corners*
0 Add a 4 corners polygon primitive as box body*
4,1,4,$2,$3,$4,$5,$6,$7,$8,$9,$2,$3,0*
0 Add four circle primitives for the rounded corners*
1,1,$1+$1,$2,$3*
1,1,$1+$1,$4,$5*
1,1,$1+$1,$6,$7*
1,1,$1+$1,$8,$9*
0 Add four rect primitives between the rounded corners*
20,1,$1+$1,$2,$3,$4,$5,0*
20,1,$1+$1,$4,$5,$6,$7,0*
20,1,$1+$1,$6,$7,$8,$9,0*
20,1,$1+$1,$8,$9,$2,$3,0*%
G04 Aperture macros list end*
%TA.AperFunction,SMDPad,CuDef*%
%ADD10R,3.500000X1.500000*%
%TD*%
%TA.AperFunction,SMDPad,CuDef*%
%ADD11RoundRect,0.225000X0.225000X0.250000X-0.225000X0.250000X-0.225000X-0.250000X0.225000X-0.250000X0*%
%TD*%
%TA.AperFunction,SMDPad,CuDef*%
%ADD12RoundRect,0.225000X0.250000X-0.225000X0.250000X0.225000X-0.250000X0.225000X-0.250000X-0.225000X0*%
%TD*%
%TA.AperFunction,ComponentPad*%
%ADD13R,1.700000X1.700000*%
%TD*%
%TA.AperFunction,ComponentPad*%
%ADD14O,1.700000X1.700000*%
%TD*%
%TA.AperFunction,SMDPad,CuDef*%
%ADD15R,0.800000X0.230000*%
%TD*%
%TA.AperFunction,SMDPad,CuDef*%
%ADD16R,0.230000X0.800000*%
%TD*%
%TA.AperFunction,ComponentPad*%
%ADD17C,0.675000*%
%TD*%
%TA.AperFunction,SMDPad,CuDef*%
%ADD18R,1.350000X1.350000*%
%TD*%
%TA.AperFunction,ComponentPad*%
%ADD19RoundRect,0.250000X0.350000X0.625000X-0.350000X0.625000X-0.350000X-0.625000X0.350000X-0.625000X0*%
%TD*%
%TA.AperFunction,ComponentPad*%
%ADD20O,1.200000X1.750000*%
%TD*%
%TA.AperFunction,SMDPad,CuDef*%
%ADD21RoundRect,0.225000X-0.250000X0.225000X-0.250000X-0.225000X0.250000X-0.225000X0.250000X0.225000X0*%
%TD*%
%TA.AperFunction,ViaPad*%
%ADD22C,0.800000*%
%TD*%
%TA.AperFunction,Conductor*%
%ADD23C,0.250000*%
%TD*%
%TA.AperFunction,Conductor*%
%ADD24C,0.200000*%
%TD*%
G04 APERTURE END LIST*
D10*
%TO.P,J104,R*%
%TO.N,INR-*%
X155450000Y-84200000D03*
%TO.P,J104,S*%
%TO.N,GND*%
X147950000Y-82200000D03*
%TO.P,J104,T*%
%TO.N,INL-*%
X147950000Y-89200000D03*
%TD*%
D11*
%TO.P,C301,1*%
%TO.N,VDD*%
X147375000Y-92400000D03*
%TO.P,C301,2*%
%TO.N,GND*%
X145825000Y-92400000D03*
%TD*%
D12*
%TO.P,C306,1*%
%TO.N,Net-(C306-Pad1)*%
X148200000Y-98075000D03*
%TO.P,C306,2*%
%TO.N,GND*%
X148200000Y-96525000D03*
%TD*%
%TO.P,C302,1*%
%TO.N,Net-(C302-Pad1)*%
X155950000Y-98025000D03*
%TO.P,C302,2*%
%TO.N,GND*%
X155950000Y-96475000D03*
%TD*%
D13*
%TO.P,J105,1,Pin_1*%
%TO.N,GND*%
X169450000Y-91575000D03*
D14*
%TO.P,J105,2,Pin_2*%
%TO.N,SD*%
X169450000Y-94115000D03*
%TO.P,J105,3,Pin_3*%
%TO.N,VDD*%
X169450000Y-96655000D03*
%TD*%
D12*
%TO.P,C303,1*%
%TO.N,Net-(C303-Pad1)*%
X157550000Y-98025000D03*
%TO.P,C303,2*%
%TO.N,INL-*%
X157550000Y-96475000D03*
%TD*%
D13*
%TO.P,J107,1,Pin_1*%
%TO.N,unconnected-(J107-Pad1)*%
X160200000Y-91600000D03*
D14*
%TO.P,J107,2,Pin_2*%
%TO.N,G1*%
X160200000Y-94140000D03*
%TO.P,J107,3,Pin_3*%
%TO.N,VDD*%
X160200000Y-96680000D03*
%TD*%
D15*
%TO.P,U301,1,G1*%
%TO.N,G1*%
X154100000Y-96700000D03*
%TO.P,U301,2,OUTL+*%
%TO.N,/TPA2012D2/OUTL+*%
X154100000Y-96200000D03*
%TO.P,U301,3,PVDD*%
%TO.N,VDD*%
X154100000Y-95700000D03*
%TO.P,U301,4,PGND*%
%TO.N,GND*%
X154100000Y-95200000D03*
%TO.P,U301,5,OUTL-*%
%TO.N,/TPA2012D2/OUTL-*%
X154100000Y-94700000D03*
D16*
%TO.P,U301,6,NC*%
%TO.N,unconnected-(U301-Pad6)*%
X153100000Y-93700000D03*
%TO.P,U301,7,SDL*%
%TO.N,SD*%
X152600000Y-93700000D03*
%TO.P,U301,8,SDR*%
X152100000Y-93700000D03*
%TO.P,U301,9,AVDD*%
%TO.N,VDD*%
X151600000Y-93700000D03*
%TO.P,U301,10,NC*%
%TO.N,unconnected-(U301-Pad10)*%
X151100000Y-93700000D03*
D15*
%TO.P,U301,11,OUTR-*%
%TO.N,/TPA2012D2/OUTR-*%
X150100000Y-94700000D03*
%TO.P,U301,12,PGND*%
%TO.N,GND*%
X150100000Y-95200000D03*
%TO.P,U301,13,PVDD*%
%TO.N,VDD*%
X150100000Y-95700000D03*
%TO.P,U301,14,OUTR+*%
%TO.N,/TPA2012D2/OUTR+*%
X150100000Y-96200000D03*
%TO.P,U301,15,G0*%
%TO.N,G0*%
X150100000Y-96700000D03*
D16*
%TO.P,U301,16,INR+*%
%TO.N,Net-(C306-Pad1)*%
X151100000Y-97700000D03*
%TO.P,U301,17,INR-*%
%TO.N,Net-(C304-Pad2)*%
X151600000Y-97700000D03*
D17*
%TO.P,U301,18,AGND*%
%TO.N,GND*%
X152775000Y-95025000D03*
X152775000Y-96375000D03*
X151425000Y-96375000D03*
D18*
X151425000Y-96375000D03*
X152775000Y-96375000D03*
X152775000Y-95025000D03*
X151425000Y-95025000D03*
D17*
X151425000Y-95025000D03*
D16*
X152100000Y-97700000D03*
%TO.P,U301,19,INL-*%
%TO.N,Net-(C303-Pad1)*%
X152600000Y-97700000D03*
%TO.P,U301,20,INL+*%
%TO.N,Net-(C302-Pad1)*%
X153100000Y-97700000D03*
%TD*%
D19*
%TO.P,J102,1,Pin_1*%
%TO.N,/TPA2012D2/OUTL+*%
X169600000Y-86450000D03*
D20*
%TO.P,J102,2,Pin_2*%
%TO.N,/TPA2012D2/OUTL-*%
X167600000Y-86450000D03*
%TD*%
D19*
%TO.P,J103,1,Pin_1*%
%TO.N,/TPA2012D2/OUTR+*%
X162000000Y-86500000D03*
D20*
%TO.P,J103,2,Pin_2*%
%TO.N,/TPA2012D2/OUTR-*%
X160000000Y-86500000D03*
%TD*%
D21*
%TO.P,C304,1*%
%TO.N,INR-*%
X146500000Y-96525000D03*
%TO.P,C304,2*%
%TO.N,Net-(C304-Pad2)*%
X146500000Y-98075000D03*
%TD*%
D13*
%TO.P,J101,1,Pin_1*%
%TO.N,VDD*%
X177975000Y-93800000D03*
D14*
%TO.P,J101,2,Pin_2*%
%TO.N,INL-*%
X177975000Y-91260000D03*
%TO.P,J101,3,Pin_3*%
%TO.N,INR-*%
X177975000Y-88720000D03*
%TO.P,J101,4,Pin_4*%
%TO.N,GND*%
X177975000Y-86180000D03*
%TD*%
D11*
%TO.P,C305,1*%
%TO.N,GND*%
X157525000Y-92800000D03*
%TO.P,C305,2*%
%TO.N,VDD*%
X155975000Y-92800000D03*
%TD*%
%TO.P,C307,1*%
%TO.N,VDD*%
X147400000Y-94100000D03*
%TO.P,C307,2*%
%TO.N,GND*%
X145850000Y-94100000D03*
%TD*%
D13*
%TO.P,J106,1,Pin_1*%
%TO.N,GND*%
X164800000Y-91575000D03*
D14*
%TO.P,J106,2,Pin_2*%
%TO.N,G0*%
X164800000Y-94115000D03*
%TO.P,J106,3,Pin_3*%
%TO.N,VDD*%
X164800000Y-96655000D03*
%TD*%
D22*
%TO.N,VDD*%
X155100000Y-92500000D03*
X153850000Y-90800000D03*
X150400000Y-90175000D03*
%TO.N,GND*%
X149350000Y-94050000D03*
X147950000Y-83550000D03*
X147480686Y-97172102D03*
X145550000Y-91250000D03*
X157406400Y-95357110D03*
X152100000Y-98925000D03*
X155238138Y-94303547D03*
%TO.N,INL-*%
X156600000Y-86200000D03*
X158249500Y-94124006D03*
%TO.N,G0*%
X149266214Y-96866602D03*
%TO.N,/TPA2012D2/OUTL+*%
X156700000Y-91300000D03*
X156687139Y-94070654D03*
%TO.N,/TPA2012D2/OUTR+*%
X151417094Y-92158306D03*
X146750000Y-95450000D03*
%TO.N,SD*%
X167200000Y-89600000D03*
X164600000Y-88300000D03*
%TD*%
D23*
%TO.N,VDD*%
X147325000Y-92675000D02*
X147300000Y-92650000D01*
X169450000Y-96655000D02*
X164800000Y-96655000D01*
X148175000Y-92400000D02*
X150400000Y-90175000D01*
X160225000Y-96655000D02*
X160200000Y-96680000D01*
X155975000Y-93350000D02*
X155962638Y-93362362D01*
X151600000Y-93050000D02*
X153850000Y-90800000D01*
X166899901Y-88375499D02*
X165324910Y-89950490D01*
X174920000Y-96655000D02*
X177775000Y-93800000D01*
X171575499Y-88375499D02*
X166899901Y-88375499D01*
X147900274Y-94300000D02*
X147325000Y-94300000D01*
X155975499Y-94632368D02*
X154907867Y-95700000D01*
X151600000Y-93700000D02*
X151600000Y-93050000D01*
X155962638Y-93362362D02*
X155962638Y-94370753D01*
X154907867Y-95700000D02*
X154100000Y-95700000D01*
X155675000Y-92500000D02*
X155975000Y-92800000D01*
X165324910Y-89950490D02*
X159122372Y-89950490D01*
X177775000Y-93800000D02*
X177000000Y-93800000D01*
X155100000Y-92500000D02*
X155675000Y-92500000D01*
X159122372Y-89950490D02*
X156272862Y-92800000D01*
X147325000Y-94300000D02*
X147325000Y-92675000D01*
X147375000Y-92400000D02*
X148175000Y-92400000D01*
X150100000Y-95700000D02*
X149300274Y-95700000D01*
X169450000Y-96655000D02*
X174920000Y-96655000D01*
X164800000Y-96655000D02*
X160225000Y-96655000D01*
X155962638Y-94370753D02*
X155975499Y-94383614D01*
X155975499Y-94383614D02*
X155975499Y-94632368D01*
X149300274Y-95700000D02*
X147900274Y-94300000D01*
X177000000Y-93800000D02*
X171575499Y-88375499D01*
X156272862Y-92800000D02*
X155975000Y-92800000D01*
%TO.N,GND*%
X145850000Y-92475000D02*
X145825000Y-92450000D01*
X154850000Y-94550000D02*
X155096453Y-94303547D01*
X149350000Y-95114022D02*
X149350000Y-94050000D01*
X147950000Y-82200000D02*
X147950000Y-83550000D01*
X154850000Y-95114022D02*
X154850000Y-94550000D01*
X150100000Y-95200000D02*
X149435978Y-95200000D01*
X157525000Y-92800000D02*
X157525000Y-95238510D01*
X149435978Y-95200000D02*
X149350000Y-95114022D01*
X148200000Y-96525000D02*
X148127788Y-96525000D01*
X155950000Y-96475000D02*
X156288510Y-96475000D01*
X145825000Y-92450000D02*
X145825000Y-91525000D01*
X154764022Y-95200000D02*
X154850000Y-95114022D01*
X154100000Y-95200000D02*
X154764022Y-95200000D01*
X145850000Y-94100000D02*
X145850000Y-92475000D01*
X156288510Y-96475000D02*
X157406400Y-95357110D01*
X157525000Y-95238510D02*
X157406400Y-95357110D01*
X155096453Y-94303547D02*
X155238138Y-94303547D01*
X145825000Y-91525000D02*
X145550000Y-91250000D01*
X148127788Y-96525000D02*
X147480686Y-97172102D01*
X152100000Y-97700000D02*
X152100000Y-98925000D01*
%TO.N,Net-(C302-Pad1)*%
X155625000Y-97700000D02*
X155950000Y-98025000D01*
X153100000Y-97700000D02*
X155625000Y-97700000D01*
%TO.N,Net-(C303-Pad1)*%
X153035498Y-98799520D02*
X156775480Y-98799520D01*
X152600000Y-97700000D02*
X152600000Y-98364022D01*
X156775480Y-98799520D02*
X157550000Y-98025000D01*
X152600000Y-98364022D02*
X153035498Y-98799520D01*
%TO.N,INL-*%
X150750000Y-86200000D02*
X156600000Y-86200000D01*
X157550000Y-96475000D02*
X158249500Y-95775500D01*
X158249500Y-95775500D02*
X158249500Y-94124006D01*
X158350489Y-84449511D02*
X156600000Y-86200000D01*
X150750000Y-86200000D02*
X148000000Y-88950000D01*
X177775000Y-91260000D02*
X170964511Y-84449511D01*
X170964511Y-84449511D02*
X158350489Y-84449511D01*
%TO.N,INR-*%
X144825499Y-88975479D02*
X144825499Y-94750499D01*
X171200000Y-84000000D02*
X155650000Y-84000000D01*
X144825499Y-94750499D02*
X146600000Y-96525000D01*
X149600978Y-84200000D02*
X144825499Y-88975479D01*
X155650000Y-84000000D02*
X155450000Y-84200000D01*
X177775000Y-88720000D02*
X175920000Y-88720000D01*
X155450000Y-84200000D02*
X149600978Y-84200000D01*
X175920000Y-88720000D02*
X171200000Y-84000000D01*
%TO.N,Net-(C304-Pad2)*%
X151600000Y-98364022D02*
X151114502Y-98849520D01*
X147374520Y-98849520D02*
X146600000Y-98075000D01*
X151600000Y-97700000D02*
X151600000Y-98364022D01*
X151114502Y-98849520D02*
X147374520Y-98849520D01*
%TO.N,Net-(C306-Pad1)*%
X151100000Y-97700000D02*
X148575000Y-97700000D01*
X148575000Y-97700000D02*
X148200000Y-98075000D01*
%TO.N,G0*%
X149432816Y-96700000D02*
X149266214Y-96866602D01*
X150100000Y-96700000D02*
X149432816Y-96700000D01*
D24*
%TO.N,/TPA2012D2/OUTL+*%
X168099012Y-87950988D02*
X166724062Y-87950988D01*
X155008217Y-96200000D02*
X156404109Y-94804109D01*
X169600000Y-86450000D02*
X168099012Y-87950988D01*
X158500000Y-89500000D02*
X156700000Y-91300000D01*
X165175050Y-89500000D02*
X158500000Y-89500000D01*
X156404109Y-94795891D02*
X156687139Y-94512861D01*
X156404109Y-94804109D02*
X156404109Y-94795891D01*
X154100000Y-96200000D02*
X155008217Y-96200000D01*
X156687139Y-94512861D02*
X156687139Y-94070654D01*
X166724062Y-87950988D02*
X165175050Y-89500000D01*
%TO.N,/TPA2012D2/OUTL-*%
X157485266Y-89100489D02*
X164949511Y-89100489D01*
X154100000Y-94700000D02*
X154100000Y-92485755D01*
X154100000Y-92485755D02*
X157485266Y-89100489D01*
X164949511Y-89100489D02*
X167600000Y-86450000D01*
D23*
%TO.N,G1*%
X160200000Y-94140000D02*
X159025489Y-95314511D01*
X159025489Y-96251649D02*
X158077138Y-97200000D01*
X159025489Y-95314511D02*
X159025489Y-96251649D01*
X154100000Y-96700000D02*
X154649520Y-97249520D01*
X154649520Y-97249520D02*
X158027618Y-97249520D01*
D24*
%TO.N,/TPA2012D2/OUTR-*%
X154884202Y-87701953D02*
X150100000Y-92486155D01*
X158798047Y-87701953D02*
X154884202Y-87701953D01*
X150100000Y-92486155D02*
X150100000Y-94700000D01*
X160000000Y-86500000D02*
X158798047Y-87701953D01*
%TO.N,/TPA2012D2/OUTR+*%
X150100000Y-96200000D02*
X150024511Y-96124511D01*
X155473932Y-88101468D02*
X151417094Y-92158306D01*
X161618631Y-86500000D02*
X160017163Y-88101468D01*
X160017163Y-88101468D02*
X155473932Y-88101468D01*
X162000000Y-86500000D02*
X161618631Y-86500000D01*
X149124435Y-96124511D02*
X148449924Y-95450000D01*
X150024511Y-96124511D02*
X149124435Y-96124511D01*
X148449924Y-95450000D02*
X146750000Y-95450000D01*
D23*
%TO.N,SD*%
X157128583Y-88546017D02*
X152600000Y-93074600D01*
X169450000Y-94115000D02*
X167200000Y-91865000D01*
X164600000Y-88300000D02*
X164353983Y-88546017D01*
X167200000Y-91865000D02*
X167200000Y-89600000D01*
X152600000Y-93074600D02*
X152600000Y-93700000D01*
X152100000Y-93700000D02*
X152600000Y-93700000D01*
X164353983Y-88546017D02*
X157128583Y-88546017D01*
%TD*%
M02*
