%TF.GenerationSoftware,KiCad,Pcbnew,(6.0.0-0)*%
%TF.CreationDate,2022-08-17T22:10:29+02:00*%
%TF.ProjectId,tpa2012d2_amp_breakout,74706132-3031-4326-9432-5f616d705f62,rev?*%
%TF.SameCoordinates,Original*%
%TF.FileFunction,Soldermask,Top*%
%TF.FilePolarity,Negative*%
%FSLAX46Y46*%
G04 Gerber Fmt 4.6, Leading zero omitted, Abs format (unit mm)*
G04 Created by KiCad (PCBNEW (6.0.0-0)) date 2022-08-17 22:10:29*
%MOMM*%
%LPD*%
G01*
G04 APERTURE LIST*
G04 Aperture macros list*
%AMRoundRect*
0 Rectangle with rounded corners*
0 $1 Rounding radius*
0 $2 $3 $4 $5 $6 $7 $8 $9 X,Y pos of 4 corners*
0 Add a 4 corners polygon primitive as box body*
4,1,4,$2,$3,$4,$5,$6,$7,$8,$9,$2,$3,0*
0 Add four circle primitives for the rounded corners*
1,1,$1+$1,$2,$3*
1,1,$1+$1,$4,$5*
1,1,$1+$1,$6,$7*
1,1,$1+$1,$8,$9*
0 Add four rect primitives between the rounded corners*
20,1,$1+$1,$2,$3,$4,$5,0*
20,1,$1+$1,$4,$5,$6,$7,0*
20,1,$1+$1,$6,$7,$8,$9,0*
20,1,$1+$1,$8,$9,$2,$3,0*%
G04 Aperture macros list end*
%ADD10R,3.500000X1.500000*%
%ADD11RoundRect,0.225000X0.225000X0.250000X-0.225000X0.250000X-0.225000X-0.250000X0.225000X-0.250000X0*%
%ADD12RoundRect,0.225000X0.250000X-0.225000X0.250000X0.225000X-0.250000X0.225000X-0.250000X-0.225000X0*%
%ADD13R,1.700000X1.700000*%
%ADD14O,1.700000X1.700000*%
%ADD15R,0.800000X0.230000*%
%ADD16R,0.230000X0.800000*%
%ADD17C,0.675000*%
%ADD18R,1.350000X1.350000*%
%ADD19RoundRect,0.250000X0.350000X0.625000X-0.350000X0.625000X-0.350000X-0.625000X0.350000X-0.625000X0*%
%ADD20O,1.200000X1.750000*%
%ADD21RoundRect,0.225000X-0.250000X0.225000X-0.250000X-0.225000X0.250000X-0.225000X0.250000X0.225000X0*%
%ADD22C,2.500000*%
G04 APERTURE END LIST*
D10*
%TO.C,J104*%
X155450000Y-84200000D03*
X147950000Y-82200000D03*
X147950000Y-89200000D03*
%TD*%
D11*
%TO.C,C301*%
X147375000Y-92400000D03*
X145825000Y-92400000D03*
%TD*%
D12*
%TO.C,C306*%
X148200000Y-98075000D03*
X148200000Y-96525000D03*
%TD*%
%TO.C,C302*%
X155950000Y-98025000D03*
X155950000Y-96475000D03*
%TD*%
D13*
%TO.C,J105*%
X169450000Y-91575000D03*
D14*
X169450000Y-94115000D03*
X169450000Y-96655000D03*
%TD*%
D12*
%TO.C,C303*%
X157550000Y-98025000D03*
X157550000Y-96475000D03*
%TD*%
D13*
%TO.C,J107*%
X160200000Y-91600000D03*
D14*
X160200000Y-94140000D03*
X160200000Y-96680000D03*
%TD*%
D15*
%TO.C,U301*%
X154100000Y-96700000D03*
X154100000Y-96200000D03*
X154100000Y-95700000D03*
X154100000Y-95200000D03*
X154100000Y-94700000D03*
D16*
X153100000Y-93700000D03*
X152600000Y-93700000D03*
X152100000Y-93700000D03*
X151600000Y-93700000D03*
X151100000Y-93700000D03*
D15*
X150100000Y-94700000D03*
X150100000Y-95200000D03*
X150100000Y-95700000D03*
X150100000Y-96200000D03*
X150100000Y-96700000D03*
D16*
X151100000Y-97700000D03*
X151600000Y-97700000D03*
D17*
X152775000Y-95025000D03*
X152775000Y-96375000D03*
X151425000Y-96375000D03*
D18*
X151425000Y-96375000D03*
X152775000Y-96375000D03*
X152775000Y-95025000D03*
X151425000Y-95025000D03*
D17*
X151425000Y-95025000D03*
D16*
X152100000Y-97700000D03*
X152600000Y-97700000D03*
X153100000Y-97700000D03*
%TD*%
D19*
%TO.C,J102*%
X169600000Y-86450000D03*
D20*
X167600000Y-86450000D03*
%TD*%
D19*
%TO.C,J103*%
X162000000Y-86500000D03*
D20*
X160000000Y-86500000D03*
%TD*%
D21*
%TO.C,C304*%
X146500000Y-96525000D03*
X146500000Y-98075000D03*
%TD*%
D13*
%TO.C,J101*%
X177975000Y-93800000D03*
D14*
X177975000Y-91260000D03*
X177975000Y-88720000D03*
X177975000Y-86180000D03*
%TD*%
D22*
%TO.C,REF\u002A\u002A*%
X143000000Y-83000000D03*
%TD*%
%TO.C,REF\u002A\u002A*%
X143000000Y-97000000D03*
%TD*%
D11*
%TO.C,C305*%
X157525000Y-92800000D03*
X155975000Y-92800000D03*
%TD*%
%TO.C,C307*%
X147400000Y-94100000D03*
X145850000Y-94100000D03*
%TD*%
D13*
%TO.C,J106*%
X164800000Y-91575000D03*
D14*
X164800000Y-94115000D03*
X164800000Y-96655000D03*
%TD*%
M02*
