M48
; DRILL file {KiCad (6.0.0-0)} date Wednesday, August 17, 2022 at 03:34:00 PM
; FORMAT={-:-/ absolute / metric / decimal}
; #@! TF.CreationDate,2022-08-17T15:34:00+02:00
; #@! TF.GenerationSoftware,Kicad,Pcbnew,(6.0.0-0)
; #@! TF.FileFunction,Plated,1,2,PTH
FMAT,2
METRIC
; #@! TA.AperFunction,Plated,PTH,ComponentDrill
T1C0.337
; #@! TA.AperFunction,Plated,PTH,ViaDrill
T2C0.400
; #@! TA.AperFunction,Plated,PTH,ComponentDrill
T3C0.750
; #@! TA.AperFunction,Plated,PTH,ComponentDrill
T4C1.000
%
G90
G05
T1
X151.425Y-95.025
X151.425Y-96.375
X152.775Y-95.025
X152.775Y-96.375
T2
X145.55Y-91.25
X146.75Y-95.45
X147.481Y-97.172
X147.95Y-83.55
X149.266Y-96.867
X149.35Y-94.05
X150.4Y-90.175
X151.417Y-92.158
X152.1Y-98.925
X153.85Y-90.8
X155.1Y-92.5
X155.238Y-94.304
X156.6Y-86.2
X156.687Y-94.071
X156.7Y-91.3
X157.406Y-95.357
X158.249Y-94.124
X164.6Y-88.3
X167.2Y-89.6
T3
X160.0Y-86.5
X162.0Y-86.5
X167.6Y-86.45
X169.6Y-86.45
T4
X160.2Y-91.6
X160.2Y-94.14
X160.2Y-96.68
X164.8Y-91.575
X164.8Y-94.115
X164.8Y-96.655
X169.45Y-91.575
X169.45Y-94.115
X169.45Y-96.655
X177.975Y-86.18
X177.975Y-88.72
X177.975Y-91.26
X177.975Y-93.8
T0
M30
