%TF.GenerationSoftware,KiCad,Pcbnew,(6.0.0-0)*%
%TF.CreationDate,2022-11-25T09:40:39+01:00*%
%TF.ProjectId,pcm5102a_codec_breakout,70636d35-3130-4326-915f-636f6465635f,rev?*%
%TF.SameCoordinates,Original*%
%TF.FileFunction,Legend,Top*%
%TF.FilePolarity,Positive*%
%FSLAX46Y46*%
G04 Gerber Fmt 4.6, Leading zero omitted, Abs format (unit mm)*
G04 Created by KiCad (PCBNEW (6.0.0-0)) date 2022-11-25 09:40:39*
%MOMM*%
%LPD*%
G01*
G04 APERTURE LIST*
G04 Aperture macros list*
%AMRoundRect*
0 Rectangle with rounded corners*
0 $1 Rounding radius*
0 $2 $3 $4 $5 $6 $7 $8 $9 X,Y pos of 4 corners*
0 Add a 4 corners polygon primitive as box body*
4,1,4,$2,$3,$4,$5,$6,$7,$8,$9,$2,$3,0*
0 Add four circle primitives for the rounded corners*
1,1,$1+$1,$2,$3*
1,1,$1+$1,$4,$5*
1,1,$1+$1,$6,$7*
1,1,$1+$1,$8,$9*
0 Add four rect primitives between the rounded corners*
20,1,$1+$1,$2,$3,$4,$5,0*
20,1,$1+$1,$4,$5,$6,$7,0*
20,1,$1+$1,$6,$7,$8,$9,0*
20,1,$1+$1,$8,$9,$2,$3,0*%
G04 Aperture macros list end*
%ADD10C,0.150000*%
%ADD11C,0.120000*%
%ADD12R,1.500000X3.500000*%
%ADD13C,2.100000*%
%ADD14RoundRect,0.140000X0.140000X0.170000X-0.140000X0.170000X-0.140000X-0.170000X0.140000X-0.170000X0*%
%ADD15RoundRect,0.140000X-0.170000X0.140000X-0.170000X-0.140000X0.170000X-0.140000X0.170000X0.140000X0*%
%ADD16RoundRect,0.140000X-0.140000X-0.170000X0.140000X-0.170000X0.140000X0.170000X-0.140000X0.170000X0*%
%ADD17RoundRect,0.250000X-1.075000X-0.550000X1.075000X-0.550000X1.075000X0.550000X-1.075000X0.550000X0*%
%ADD18RoundRect,0.135000X-0.135000X-0.185000X0.135000X-0.185000X0.135000X0.185000X-0.135000X0.185000X0*%
%ADD19R,1.700000X1.700000*%
%ADD20O,1.700000X1.700000*%
%ADD21R,1.500000X0.450000*%
G04 APERTURE END LIST*
D10*
X152557261Y-92992380D02*
X152081071Y-92992380D01*
X152081071Y-91992380D01*
X153462023Y-92992380D02*
X153128690Y-92516190D01*
X152890595Y-92992380D02*
X152890595Y-91992380D01*
X153271547Y-91992380D01*
X153366785Y-92040000D01*
X153414404Y-92087619D01*
X153462023Y-92182857D01*
X153462023Y-92325714D01*
X153414404Y-92420952D01*
X153366785Y-92468571D01*
X153271547Y-92516190D01*
X152890595Y-92516190D01*
X154462023Y-92897142D02*
X154414404Y-92944761D01*
X154271547Y-92992380D01*
X154176309Y-92992380D01*
X154033452Y-92944761D01*
X153938214Y-92849523D01*
X153890595Y-92754285D01*
X153842976Y-92563809D01*
X153842976Y-92420952D01*
X153890595Y-92230476D01*
X153938214Y-92135238D01*
X154033452Y-92040000D01*
X154176309Y-91992380D01*
X154271547Y-91992380D01*
X154414404Y-92040000D01*
X154462023Y-92087619D01*
X154890595Y-92992380D02*
X154890595Y-91992380D01*
X155462023Y-92992380D02*
X155033452Y-92420952D01*
X155462023Y-91992380D02*
X154890595Y-92563809D01*
X153366785Y-95532380D02*
X153366785Y-94532380D01*
X153604880Y-94532380D01*
X153747738Y-94580000D01*
X153842976Y-94675238D01*
X153890595Y-94770476D01*
X153938214Y-94960952D01*
X153938214Y-95103809D01*
X153890595Y-95294285D01*
X153842976Y-95389523D01*
X153747738Y-95484761D01*
X153604880Y-95532380D01*
X153366785Y-95532380D01*
X154366785Y-95532380D02*
X154366785Y-94532380D01*
X154842976Y-95532380D02*
X154842976Y-94532380D01*
X155414404Y-95532380D01*
X155414404Y-94532380D01*
X153366785Y-84420000D02*
X153271547Y-84372380D01*
X153128690Y-84372380D01*
X152985833Y-84420000D01*
X152890595Y-84515238D01*
X152842976Y-84610476D01*
X152795357Y-84800952D01*
X152795357Y-84943809D01*
X152842976Y-85134285D01*
X152890595Y-85229523D01*
X152985833Y-85324761D01*
X153128690Y-85372380D01*
X153223928Y-85372380D01*
X153366785Y-85324761D01*
X153414404Y-85277142D01*
X153414404Y-84943809D01*
X153223928Y-84943809D01*
X153842976Y-85372380D02*
X153842976Y-84372380D01*
X154414404Y-85372380D01*
X154414404Y-84372380D01*
X154890595Y-85372380D02*
X154890595Y-84372380D01*
X155128690Y-84372380D01*
X155271547Y-84420000D01*
X155366785Y-84515238D01*
X155414404Y-84610476D01*
X155462023Y-84800952D01*
X155462023Y-84943809D01*
X155414404Y-85134285D01*
X155366785Y-85229523D01*
X155271547Y-85324761D01*
X155128690Y-85372380D01*
X154890595Y-85372380D01*
X122776190Y-82452380D02*
X122776190Y-81452380D01*
X123157142Y-81452380D01*
X123252380Y-81500000D01*
X123300000Y-81547619D01*
X123347619Y-81642857D01*
X123347619Y-81785714D01*
X123300000Y-81880952D01*
X123252380Y-81928571D01*
X123157142Y-81976190D01*
X122776190Y-81976190D01*
X124347619Y-82357142D02*
X124300000Y-82404761D01*
X124157142Y-82452380D01*
X124061904Y-82452380D01*
X123919047Y-82404761D01*
X123823809Y-82309523D01*
X123776190Y-82214285D01*
X123728571Y-82023809D01*
X123728571Y-81880952D01*
X123776190Y-81690476D01*
X123823809Y-81595238D01*
X123919047Y-81500000D01*
X124061904Y-81452380D01*
X124157142Y-81452380D01*
X124300000Y-81500000D01*
X124347619Y-81547619D01*
X124776190Y-82452380D02*
X124776190Y-81452380D01*
X125109523Y-82166666D01*
X125442857Y-81452380D01*
X125442857Y-82452380D01*
X126395238Y-81452380D02*
X125919047Y-81452380D01*
X125871428Y-81928571D01*
X125919047Y-81880952D01*
X126014285Y-81833333D01*
X126252380Y-81833333D01*
X126347619Y-81880952D01*
X126395238Y-81928571D01*
X126442857Y-82023809D01*
X126442857Y-82261904D01*
X126395238Y-82357142D01*
X126347619Y-82404761D01*
X126252380Y-82452380D01*
X126014285Y-82452380D01*
X125919047Y-82404761D01*
X125871428Y-82357142D01*
X127395238Y-82452380D02*
X126823809Y-82452380D01*
X127109523Y-82452380D02*
X127109523Y-81452380D01*
X127014285Y-81595238D01*
X126919047Y-81690476D01*
X126823809Y-81738095D01*
X128014285Y-81452380D02*
X128109523Y-81452380D01*
X128204761Y-81500000D01*
X128252380Y-81547619D01*
X128300000Y-81642857D01*
X128347619Y-81833333D01*
X128347619Y-82071428D01*
X128300000Y-82261904D01*
X128252380Y-82357142D01*
X128204761Y-82404761D01*
X128109523Y-82452380D01*
X128014285Y-82452380D01*
X127919047Y-82404761D01*
X127871428Y-82357142D01*
X127823809Y-82261904D01*
X127776190Y-82071428D01*
X127776190Y-81833333D01*
X127823809Y-81642857D01*
X127871428Y-81547619D01*
X127919047Y-81500000D01*
X128014285Y-81452380D01*
X128728571Y-81547619D02*
X128776190Y-81500000D01*
X128871428Y-81452380D01*
X129109523Y-81452380D01*
X129204761Y-81500000D01*
X129252380Y-81547619D01*
X129300000Y-81642857D01*
X129300000Y-81738095D01*
X129252380Y-81880952D01*
X128680952Y-82452380D01*
X129300000Y-82452380D01*
X129680952Y-82166666D02*
X130157142Y-82166666D01*
X129585714Y-82452380D02*
X129919047Y-81452380D01*
X130252380Y-82452380D01*
X131919047Y-82357142D02*
X131871428Y-82404761D01*
X131728571Y-82452380D01*
X131633333Y-82452380D01*
X131490476Y-82404761D01*
X131395238Y-82309523D01*
X131347619Y-82214285D01*
X131300000Y-82023809D01*
X131300000Y-81880952D01*
X131347619Y-81690476D01*
X131395238Y-81595238D01*
X131490476Y-81500000D01*
X131633333Y-81452380D01*
X131728571Y-81452380D01*
X131871428Y-81500000D01*
X131919047Y-81547619D01*
X132538095Y-81452380D02*
X132728571Y-81452380D01*
X132823809Y-81500000D01*
X132919047Y-81595238D01*
X132966666Y-81785714D01*
X132966666Y-82119047D01*
X132919047Y-82309523D01*
X132823809Y-82404761D01*
X132728571Y-82452380D01*
X132538095Y-82452380D01*
X132442857Y-82404761D01*
X132347619Y-82309523D01*
X132300000Y-82119047D01*
X132300000Y-81785714D01*
X132347619Y-81595238D01*
X132442857Y-81500000D01*
X132538095Y-81452380D01*
X133395238Y-82452380D02*
X133395238Y-81452380D01*
X133633333Y-81452380D01*
X133776190Y-81500000D01*
X133871428Y-81595238D01*
X133919047Y-81690476D01*
X133966666Y-81880952D01*
X133966666Y-82023809D01*
X133919047Y-82214285D01*
X133871428Y-82309523D01*
X133776190Y-82404761D01*
X133633333Y-82452380D01*
X133395238Y-82452380D01*
X134395238Y-81928571D02*
X134728571Y-81928571D01*
X134871428Y-82452380D02*
X134395238Y-82452380D01*
X134395238Y-81452380D01*
X134871428Y-81452380D01*
X135871428Y-82357142D02*
X135823809Y-82404761D01*
X135680952Y-82452380D01*
X135585714Y-82452380D01*
X135442857Y-82404761D01*
X135347619Y-82309523D01*
X135300000Y-82214285D01*
X135252380Y-82023809D01*
X135252380Y-81880952D01*
X135300000Y-81690476D01*
X135347619Y-81595238D01*
X135442857Y-81500000D01*
X135585714Y-81452380D01*
X135680952Y-81452380D01*
X135823809Y-81500000D01*
X135871428Y-81547619D01*
X152223928Y-89452380D02*
X152414404Y-89452380D01*
X152509642Y-89500000D01*
X152604880Y-89595238D01*
X152652500Y-89785714D01*
X152652500Y-90119047D01*
X152604880Y-90309523D01*
X152509642Y-90404761D01*
X152414404Y-90452380D01*
X152223928Y-90452380D01*
X152128690Y-90404761D01*
X152033452Y-90309523D01*
X151985833Y-90119047D01*
X151985833Y-89785714D01*
X152033452Y-89595238D01*
X152128690Y-89500000D01*
X152223928Y-89452380D01*
X153081071Y-89452380D02*
X153081071Y-90261904D01*
X153128690Y-90357142D01*
X153176309Y-90404761D01*
X153271547Y-90452380D01*
X153462023Y-90452380D01*
X153557261Y-90404761D01*
X153604880Y-90357142D01*
X153652500Y-90261904D01*
X153652500Y-89452380D01*
X153985833Y-89452380D02*
X154557261Y-89452380D01*
X154271547Y-90452380D02*
X154271547Y-89452380D01*
X155462023Y-90452380D02*
X155128690Y-89976190D01*
X154890595Y-90452380D02*
X154890595Y-89452380D01*
X155271547Y-89452380D01*
X155366785Y-89500000D01*
X155414404Y-89547619D01*
X155462023Y-89642857D01*
X155462023Y-89785714D01*
X155414404Y-89880952D01*
X155366785Y-89928571D01*
X155271547Y-89976190D01*
X154890595Y-89976190D01*
X153223928Y-97548571D02*
X153366785Y-97596190D01*
X153414404Y-97643809D01*
X153462023Y-97739047D01*
X153462023Y-97881904D01*
X153414404Y-97977142D01*
X153366785Y-98024761D01*
X153271547Y-98072380D01*
X152890595Y-98072380D01*
X152890595Y-97072380D01*
X153223928Y-97072380D01*
X153319166Y-97120000D01*
X153366785Y-97167619D01*
X153414404Y-97262857D01*
X153414404Y-97358095D01*
X153366785Y-97453333D01*
X153319166Y-97500952D01*
X153223928Y-97548571D01*
X152890595Y-97548571D01*
X154462023Y-97977142D02*
X154414404Y-98024761D01*
X154271547Y-98072380D01*
X154176309Y-98072380D01*
X154033452Y-98024761D01*
X153938214Y-97929523D01*
X153890595Y-97834285D01*
X153842976Y-97643809D01*
X153842976Y-97500952D01*
X153890595Y-97310476D01*
X153938214Y-97215238D01*
X154033452Y-97120000D01*
X154176309Y-97072380D01*
X154271547Y-97072380D01*
X154414404Y-97120000D01*
X154462023Y-97167619D01*
X154890595Y-98072380D02*
X154890595Y-97072380D01*
X155462023Y-98072380D02*
X155033452Y-97500952D01*
X155462023Y-97072380D02*
X154890595Y-97643809D01*
X133052380Y-92714285D02*
X133052380Y-93190476D01*
X132052380Y-93190476D01*
X133052380Y-92380952D02*
X132052380Y-92380952D01*
X133052380Y-91904761D02*
X132052380Y-91904761D01*
X133052380Y-91333333D01*
X132052380Y-91333333D01*
X132528571Y-90857142D02*
X132528571Y-90523809D01*
X133052380Y-90380952D02*
X133052380Y-90857142D01*
X132052380Y-90857142D01*
X132052380Y-90380952D01*
X132052380Y-89000000D02*
X132052380Y-88809523D01*
X132100000Y-88714285D01*
X132195238Y-88619047D01*
X132385714Y-88571428D01*
X132719047Y-88571428D01*
X132909523Y-88619047D01*
X133004761Y-88714285D01*
X133052380Y-88809523D01*
X133052380Y-89000000D01*
X133004761Y-89095238D01*
X132909523Y-89190476D01*
X132719047Y-89238095D01*
X132385714Y-89238095D01*
X132195238Y-89190476D01*
X132100000Y-89095238D01*
X132052380Y-89000000D01*
X132052380Y-88142857D02*
X132861904Y-88142857D01*
X132957142Y-88095238D01*
X133004761Y-88047619D01*
X133052380Y-87952380D01*
X133052380Y-87761904D01*
X133004761Y-87666666D01*
X132957142Y-87619047D01*
X132861904Y-87571428D01*
X132052380Y-87571428D01*
X132052380Y-87238095D02*
X132052380Y-86666666D01*
X133052380Y-86952380D02*
X132052380Y-86952380D01*
X152414404Y-86952380D02*
X152604880Y-86952380D01*
X152700119Y-87000000D01*
X152795357Y-87095238D01*
X152842976Y-87285714D01*
X152842976Y-87619047D01*
X152795357Y-87809523D01*
X152700119Y-87904761D01*
X152604880Y-87952380D01*
X152414404Y-87952380D01*
X152319166Y-87904761D01*
X152223928Y-87809523D01*
X152176309Y-87619047D01*
X152176309Y-87285714D01*
X152223928Y-87095238D01*
X152319166Y-87000000D01*
X152414404Y-86952380D01*
X153271547Y-86952380D02*
X153271547Y-87761904D01*
X153319166Y-87857142D01*
X153366785Y-87904761D01*
X153462023Y-87952380D01*
X153652500Y-87952380D01*
X153747738Y-87904761D01*
X153795357Y-87857142D01*
X153842976Y-87761904D01*
X153842976Y-86952380D01*
X154176309Y-86952380D02*
X154747738Y-86952380D01*
X154462023Y-87952380D02*
X154462023Y-86952380D01*
X155557261Y-87952380D02*
X155081071Y-87952380D01*
X155081071Y-86952380D01*
X152890595Y-81827380D02*
X153223928Y-82827380D01*
X153557261Y-81827380D01*
X153890595Y-82827380D02*
X153890595Y-81827380D01*
X154128690Y-81827380D01*
X154271547Y-81875000D01*
X154366785Y-81970238D01*
X154414404Y-82065476D01*
X154462023Y-82255952D01*
X154462023Y-82398809D01*
X154414404Y-82589285D01*
X154366785Y-82684523D01*
X154271547Y-82779761D01*
X154128690Y-82827380D01*
X153890595Y-82827380D01*
X154890595Y-82827380D02*
X154890595Y-81827380D01*
X155128690Y-81827380D01*
X155271547Y-81875000D01*
X155366785Y-81970238D01*
X155414404Y-82065476D01*
X155462023Y-82255952D01*
X155462023Y-82398809D01*
X155414404Y-82589285D01*
X155366785Y-82684523D01*
X155271547Y-82779761D01*
X155128690Y-82827380D01*
X154890595Y-82827380D01*
D11*
X117300000Y-87500000D02*
X117300000Y-88500000D01*
X131300000Y-92000000D02*
X131300000Y-93000000D01*
X131300000Y-93000000D02*
X130300000Y-93000000D01*
X117300000Y-92500000D02*
X117300000Y-91500000D01*
X118300000Y-87500000D02*
X117300000Y-87500000D01*
X121000000Y-87000000D02*
X120000000Y-87000000D01*
X131300000Y-87000000D02*
X131300000Y-88000000D01*
X130300000Y-87000000D02*
X131300000Y-87000000D01*
X118300000Y-92500000D02*
X117300000Y-92500000D01*
X120000000Y-87000000D02*
X120000000Y-88000000D01*
X121000000Y-93000000D02*
X120000000Y-93000000D01*
X120000000Y-93000000D02*
X120000000Y-92000000D01*
X148307836Y-87660000D02*
X148092164Y-87660000D01*
X148307836Y-86940000D02*
X148092164Y-86940000D01*
X137540000Y-88292164D02*
X137540000Y-88507836D01*
X138260000Y-88292164D02*
X138260000Y-88507836D01*
X135192164Y-87640000D02*
X135407836Y-87640000D01*
X135192164Y-88360000D02*
X135407836Y-88360000D01*
X137160000Y-88292164D02*
X137160000Y-88507836D01*
X136440000Y-88292164D02*
X136440000Y-88507836D01*
X150260000Y-85760000D02*
X150260000Y-84560000D01*
X150260000Y-81240000D02*
X150260000Y-82440000D01*
X145740000Y-82304437D02*
X146804437Y-81240000D01*
X146804437Y-85760000D02*
X150260000Y-85760000D01*
X145740000Y-84695563D02*
X146804437Y-85760000D01*
X146804437Y-81240000D02*
X150260000Y-81240000D01*
X145740000Y-82304437D02*
X145740000Y-82440000D01*
X145740000Y-84695563D02*
X145740000Y-84560000D01*
X135207836Y-93860000D02*
X134992164Y-93860000D01*
X135207836Y-93140000D02*
X134992164Y-93140000D01*
X134992164Y-94240000D02*
X135207836Y-94240000D01*
X134992164Y-94960000D02*
X135207836Y-94960000D01*
X135146359Y-91380000D02*
X135453641Y-91380000D01*
X135146359Y-90620000D02*
X135453641Y-90620000D01*
X156170000Y-83645000D02*
X158830000Y-83645000D01*
X156170000Y-82375000D02*
X156170000Y-81045000D01*
X156170000Y-83645000D02*
X156170000Y-98945000D01*
X156170000Y-81045000D02*
X157500000Y-81045000D01*
X156170000Y-98945000D02*
X158830000Y-98945000D01*
X158830000Y-83645000D02*
X158830000Y-98945000D01*
X142760000Y-98760000D02*
X142760000Y-97560000D01*
X138240000Y-95304437D02*
X138240000Y-95440000D01*
X138240000Y-95304437D02*
X139304437Y-94240000D01*
X139304437Y-98760000D02*
X142760000Y-98760000D01*
X138240000Y-97695563D02*
X139304437Y-98760000D01*
X142760000Y-94240000D02*
X142760000Y-95440000D01*
X139304437Y-94240000D02*
X142760000Y-94240000D01*
X138240000Y-97695563D02*
X138240000Y-97560000D01*
X135146359Y-89380000D02*
X135453641Y-89380000D01*
X135146359Y-88620000D02*
X135453641Y-88620000D01*
X146900000Y-93650000D02*
X138600000Y-93650000D01*
X139400000Y-86350000D02*
X146900000Y-86350000D01*
X138600000Y-93650000D02*
X138600000Y-87150000D01*
X138600000Y-87150000D02*
X139400000Y-86350000D01*
X146900000Y-86350000D02*
X146900000Y-93650000D01*
X135407836Y-91740000D02*
X135192164Y-91740000D01*
X135407836Y-92460000D02*
X135192164Y-92460000D01*
X150260000Y-94240000D02*
X150260000Y-95440000D01*
X145740000Y-97695563D02*
X146804437Y-98760000D01*
X145740000Y-95304437D02*
X146804437Y-94240000D01*
X146804437Y-94240000D02*
X150260000Y-94240000D01*
X145740000Y-97695563D02*
X145740000Y-97560000D01*
X145740000Y-95304437D02*
X145740000Y-95440000D01*
X150260000Y-98760000D02*
X150260000Y-97560000D01*
X146804437Y-98760000D02*
X150260000Y-98760000D01*
X138240000Y-84695563D02*
X138240000Y-84560000D01*
X142760000Y-85760000D02*
X142760000Y-84560000D01*
X138240000Y-84695563D02*
X139304437Y-85760000D01*
X138240000Y-82304437D02*
X139304437Y-81240000D01*
X139304437Y-81240000D02*
X142760000Y-81240000D01*
X138240000Y-82304437D02*
X138240000Y-82440000D01*
X142760000Y-81240000D02*
X142760000Y-82440000D01*
X139304437Y-85760000D02*
X142760000Y-85760000D01*
X137207836Y-93860000D02*
X136992164Y-93860000D01*
X137207836Y-93140000D02*
X136992164Y-93140000D01*
%LPC*%
D12*
X124100000Y-86250000D03*
X122100000Y-93750000D03*
X129100000Y-93750000D03*
D13*
X132100000Y-84400000D03*
X132100000Y-97400000D03*
D14*
X148680000Y-87300000D03*
X147720000Y-87300000D03*
D15*
X137900000Y-87920000D03*
X137900000Y-88880000D03*
D16*
X135780000Y-88000000D03*
X134820000Y-88000000D03*
D15*
X136800000Y-87920000D03*
X136800000Y-88880000D03*
D17*
X146325000Y-83500000D03*
X149675000Y-83500000D03*
D14*
X135580000Y-93500000D03*
X134620000Y-93500000D03*
D16*
X134620000Y-94600000D03*
X135580000Y-94600000D03*
D18*
X134790000Y-91000000D03*
X135810000Y-91000000D03*
D19*
X157500000Y-82375000D03*
D20*
X157500000Y-84915000D03*
X157500000Y-87455000D03*
X157500000Y-89995000D03*
X157500000Y-92535000D03*
X157500000Y-95075000D03*
X157500000Y-97615000D03*
D17*
X138825000Y-96500000D03*
X142175000Y-96500000D03*
D18*
X134790000Y-89000000D03*
X135810000Y-89000000D03*
D21*
X139850000Y-87075000D03*
X139850000Y-87725000D03*
X139850000Y-88375000D03*
X139850000Y-89025000D03*
X139850000Y-89675000D03*
X139850000Y-90325000D03*
X139850000Y-90975000D03*
X139850000Y-91625000D03*
X139850000Y-92275000D03*
X139850000Y-92925000D03*
X145650000Y-92925000D03*
X145650000Y-92275000D03*
X145650000Y-91625000D03*
X145650000Y-90975000D03*
X145650000Y-90325000D03*
X145650000Y-89675000D03*
X145650000Y-89025000D03*
X145650000Y-88375000D03*
X145650000Y-87725000D03*
X145650000Y-87075000D03*
D14*
X135780000Y-92100000D03*
X134820000Y-92100000D03*
D17*
X146325000Y-96500000D03*
X149675000Y-96500000D03*
X138825000Y-83500000D03*
X142175000Y-83500000D03*
D14*
X137580000Y-93500000D03*
X136620000Y-93500000D03*
M02*
