%TF.GenerationSoftware,KiCad,Pcbnew,(6.0.0-0)*%
%TF.CreationDate,2022-11-25T09:40:39+01:00*%
%TF.ProjectId,pcm5102a_codec_breakout,70636d35-3130-4326-915f-636f6465635f,rev?*%
%TF.SameCoordinates,Original*%
%TF.FileFunction,Paste,Top*%
%TF.FilePolarity,Positive*%
%FSLAX46Y46*%
G04 Gerber Fmt 4.6, Leading zero omitted, Abs format (unit mm)*
G04 Created by KiCad (PCBNEW (6.0.0-0)) date 2022-11-25 09:40:39*
%MOMM*%
%LPD*%
G01*
G04 APERTURE LIST*
G04 Aperture macros list*
%AMRoundRect*
0 Rectangle with rounded corners*
0 $1 Rounding radius*
0 $2 $3 $4 $5 $6 $7 $8 $9 X,Y pos of 4 corners*
0 Add a 4 corners polygon primitive as box body*
4,1,4,$2,$3,$4,$5,$6,$7,$8,$9,$2,$3,0*
0 Add four circle primitives for the rounded corners*
1,1,$1+$1,$2,$3*
1,1,$1+$1,$4,$5*
1,1,$1+$1,$6,$7*
1,1,$1+$1,$8,$9*
0 Add four rect primitives between the rounded corners*
20,1,$1+$1,$2,$3,$4,$5,0*
20,1,$1+$1,$4,$5,$6,$7,0*
20,1,$1+$1,$6,$7,$8,$9,0*
20,1,$1+$1,$8,$9,$2,$3,0*%
G04 Aperture macros list end*
%ADD10R,1.500000X3.500000*%
%ADD11RoundRect,0.140000X0.140000X0.170000X-0.140000X0.170000X-0.140000X-0.170000X0.140000X-0.170000X0*%
%ADD12RoundRect,0.140000X-0.170000X0.140000X-0.170000X-0.140000X0.170000X-0.140000X0.170000X0.140000X0*%
%ADD13RoundRect,0.140000X-0.140000X-0.170000X0.140000X-0.170000X0.140000X0.170000X-0.140000X0.170000X0*%
%ADD14RoundRect,0.250000X-1.075000X-0.550000X1.075000X-0.550000X1.075000X0.550000X-1.075000X0.550000X0*%
%ADD15RoundRect,0.135000X-0.135000X-0.185000X0.135000X-0.185000X0.135000X0.185000X-0.135000X0.185000X0*%
%ADD16R,1.500000X0.450000*%
G04 APERTURE END LIST*
D10*
X124100000Y-86250000D03*
X122100000Y-93750000D03*
X129100000Y-93750000D03*
D11*
X148680000Y-87300000D03*
X147720000Y-87300000D03*
D12*
X137900000Y-87920000D03*
X137900000Y-88880000D03*
D13*
X135780000Y-88000000D03*
X134820000Y-88000000D03*
D12*
X136800000Y-87920000D03*
X136800000Y-88880000D03*
D14*
X146325000Y-83500000D03*
X149675000Y-83500000D03*
D11*
X135580000Y-93500000D03*
X134620000Y-93500000D03*
D13*
X134620000Y-94600000D03*
X135580000Y-94600000D03*
D15*
X134790000Y-91000000D03*
X135810000Y-91000000D03*
D14*
X138825000Y-96500000D03*
X142175000Y-96500000D03*
D15*
X134790000Y-89000000D03*
X135810000Y-89000000D03*
D16*
X139850000Y-87075000D03*
X139850000Y-87725000D03*
X139850000Y-88375000D03*
X139850000Y-89025000D03*
X139850000Y-89675000D03*
X139850000Y-90325000D03*
X139850000Y-90975000D03*
X139850000Y-91625000D03*
X139850000Y-92275000D03*
X139850000Y-92925000D03*
X145650000Y-92925000D03*
X145650000Y-92275000D03*
X145650000Y-91625000D03*
X145650000Y-90975000D03*
X145650000Y-90325000D03*
X145650000Y-89675000D03*
X145650000Y-89025000D03*
X145650000Y-88375000D03*
X145650000Y-87725000D03*
X145650000Y-87075000D03*
D11*
X135780000Y-92100000D03*
X134820000Y-92100000D03*
D14*
X146325000Y-96500000D03*
X149675000Y-96500000D03*
X138825000Y-83500000D03*
X142175000Y-83500000D03*
D11*
X137580000Y-93500000D03*
X136620000Y-93500000D03*
M02*
