%FSLAX45Y45*%
G04 Gerber Fmt 4.5, Leading zero omitted, Abs format (unit mm)*
G04 Created by KiCad (PCBNEW (6.0.0-0)) date 2022-11-25 09:41:26*
%MOMM*%
%LPD*%
G01*
G04 APERTURE LIST*
%TA.AperFunction,Profile*%
%ADD10C,0.100000*%
%TD*%
%ADD11C,0.200000*%
%ADD12C,0.210000*%
G04 APERTURE END LIST*
D10*
X12300000Y-8000000D02*
X15700000Y-8000000D01*
X12000000Y-9700000D02*
X12000000Y-8300000D01*
X15700000Y-10000000D02*
G75*
G03*
X16000000Y-9700000I0J300000D01*
G01*
X12000000Y-9700000D02*
G75*
G03*
X12300000Y-10000000I300000J0D01*
G01*
X16000000Y-8300000D02*
X16000000Y-9700000D01*
X15700000Y-10000000D02*
X12300000Y-10000000D01*
X12300000Y-8000000D02*
G75*
G03*
X12000000Y-8300000I0J-300000D01*
G01*
X16000000Y-8300000D02*
G75*
G03*
X15700000Y-8000000I-300000J0D01*
G01*
D11*
D12*
X13105000Y-8335000D02*
X13315000Y-8545000D01*
X13315000Y-8335000D02*
X13105000Y-8545000D01*
X13105000Y-9635000D02*
X13315000Y-9845000D01*
X13315000Y-9635000D02*
X13105000Y-9845000D01*
D11*
X12252619Y-10315476D02*
X12252619Y-10115476D01*
X12300238Y-10115476D01*
X12328809Y-10125000D01*
X12347857Y-10144048D01*
X12357381Y-10163095D01*
X12366905Y-10201190D01*
X12366905Y-10229762D01*
X12357381Y-10267857D01*
X12347857Y-10286905D01*
X12328809Y-10305952D01*
X12300238Y-10315476D01*
X12252619Y-10315476D01*
X12452619Y-10315476D02*
X12452619Y-10182143D01*
X12452619Y-10220238D02*
X12462143Y-10201190D01*
X12471667Y-10191667D01*
X12490714Y-10182143D01*
X12509762Y-10182143D01*
X12576428Y-10315476D02*
X12576428Y-10182143D01*
X12576428Y-10115476D02*
X12566905Y-10125000D01*
X12576428Y-10134524D01*
X12585952Y-10125000D01*
X12576428Y-10115476D01*
X12576428Y-10134524D01*
X12700238Y-10315476D02*
X12681190Y-10305952D01*
X12671667Y-10286905D01*
X12671667Y-10115476D01*
X12805000Y-10315476D02*
X12785952Y-10305952D01*
X12776428Y-10286905D01*
X12776428Y-10115476D01*
X13033571Y-10315476D02*
X13033571Y-10115476D01*
X13100238Y-10258333D01*
X13166905Y-10115476D01*
X13166905Y-10315476D01*
X13347857Y-10315476D02*
X13347857Y-10210714D01*
X13338333Y-10191667D01*
X13319286Y-10182143D01*
X13281190Y-10182143D01*
X13262143Y-10191667D01*
X13347857Y-10305952D02*
X13328809Y-10315476D01*
X13281190Y-10315476D01*
X13262143Y-10305952D01*
X13252619Y-10286905D01*
X13252619Y-10267857D01*
X13262143Y-10248810D01*
X13281190Y-10239286D01*
X13328809Y-10239286D01*
X13347857Y-10229762D01*
X13443095Y-10182143D02*
X13443095Y-10382143D01*
X13443095Y-10191667D02*
X13462143Y-10182143D01*
X13500238Y-10182143D01*
X13519286Y-10191667D01*
X13528809Y-10201190D01*
X13538333Y-10220238D01*
X13538333Y-10277381D01*
X13528809Y-10296429D01*
X13519286Y-10305952D01*
X13500238Y-10315476D01*
X13462143Y-10315476D01*
X13443095Y-10305952D01*
X13624048Y-10296429D02*
X13633571Y-10305952D01*
X13624048Y-10315476D01*
X13614524Y-10305952D01*
X13624048Y-10296429D01*
X13624048Y-10315476D01*
X13624048Y-10191667D02*
X13633571Y-10201190D01*
X13624048Y-10210714D01*
X13614524Y-10201190D01*
X13624048Y-10191667D01*
X13624048Y-10210714D01*
X11795000Y-10545000D02*
X11995000Y-10745000D01*
X11995000Y-10545000D02*
X11795000Y-10745000D01*
X12243095Y-10554524D02*
X12252619Y-10545000D01*
X12271667Y-10535476D01*
X12319286Y-10535476D01*
X12338333Y-10545000D01*
X12347857Y-10554524D01*
X12357381Y-10573571D01*
X12357381Y-10592619D01*
X12347857Y-10621190D01*
X12233571Y-10735476D01*
X12357381Y-10735476D01*
X12443095Y-10716429D02*
X12452619Y-10725952D01*
X12443095Y-10735476D01*
X12433571Y-10725952D01*
X12443095Y-10716429D01*
X12443095Y-10735476D01*
X12643095Y-10735476D02*
X12528809Y-10735476D01*
X12585952Y-10735476D02*
X12585952Y-10535476D01*
X12566905Y-10564048D01*
X12547857Y-10583095D01*
X12528809Y-10592619D01*
X12766905Y-10535476D02*
X12785952Y-10535476D01*
X12805000Y-10545000D01*
X12814524Y-10554524D01*
X12824048Y-10573571D01*
X12833571Y-10611667D01*
X12833571Y-10659286D01*
X12824048Y-10697381D01*
X12814524Y-10716429D01*
X12805000Y-10725952D01*
X12785952Y-10735476D01*
X12766905Y-10735476D01*
X12747857Y-10725952D01*
X12738333Y-10716429D01*
X12728809Y-10697381D01*
X12719286Y-10659286D01*
X12719286Y-10611667D01*
X12728809Y-10573571D01*
X12738333Y-10554524D01*
X12747857Y-10545000D01*
X12766905Y-10535476D01*
X12957381Y-10535476D02*
X12976428Y-10535476D01*
X12995476Y-10545000D01*
X13005000Y-10554524D01*
X13014524Y-10573571D01*
X13024048Y-10611667D01*
X13024048Y-10659286D01*
X13014524Y-10697381D01*
X13005000Y-10716429D01*
X12995476Y-10725952D01*
X12976428Y-10735476D01*
X12957381Y-10735476D01*
X12938333Y-10725952D01*
X12928809Y-10716429D01*
X12919286Y-10697381D01*
X12909762Y-10659286D01*
X12909762Y-10611667D01*
X12919286Y-10573571D01*
X12928809Y-10554524D01*
X12938333Y-10545000D01*
X12957381Y-10535476D01*
X13109762Y-10735476D02*
X13109762Y-10602143D01*
X13109762Y-10621190D02*
X13119286Y-10611667D01*
X13138333Y-10602143D01*
X13166905Y-10602143D01*
X13185952Y-10611667D01*
X13195476Y-10630714D01*
X13195476Y-10735476D01*
X13195476Y-10630714D02*
X13205000Y-10611667D01*
X13224048Y-10602143D01*
X13252619Y-10602143D01*
X13271667Y-10611667D01*
X13281190Y-10630714D01*
X13281190Y-10735476D01*
X13376428Y-10735476D02*
X13376428Y-10602143D01*
X13376428Y-10621190D02*
X13385952Y-10611667D01*
X13405000Y-10602143D01*
X13433571Y-10602143D01*
X13452619Y-10611667D01*
X13462143Y-10630714D01*
X13462143Y-10735476D01*
X13462143Y-10630714D02*
X13471667Y-10611667D01*
X13490714Y-10602143D01*
X13519286Y-10602143D01*
X13538333Y-10611667D01*
X13547857Y-10630714D01*
X13547857Y-10735476D01*
X13938333Y-10525952D02*
X13766905Y-10783095D01*
X14195476Y-10535476D02*
X14214524Y-10535476D01*
X14233571Y-10545000D01*
X14243095Y-10554524D01*
X14252619Y-10573571D01*
X14262143Y-10611667D01*
X14262143Y-10659286D01*
X14252619Y-10697381D01*
X14243095Y-10716429D01*
X14233571Y-10725952D01*
X14214524Y-10735476D01*
X14195476Y-10735476D01*
X14176428Y-10725952D01*
X14166905Y-10716429D01*
X14157381Y-10697381D01*
X14147857Y-10659286D01*
X14147857Y-10611667D01*
X14157381Y-10573571D01*
X14166905Y-10554524D01*
X14176428Y-10545000D01*
X14195476Y-10535476D01*
X14347857Y-10716429D02*
X14357381Y-10725952D01*
X14347857Y-10735476D01*
X14338333Y-10725952D01*
X14347857Y-10716429D01*
X14347857Y-10735476D01*
X14481190Y-10535476D02*
X14500238Y-10535476D01*
X14519286Y-10545000D01*
X14528809Y-10554524D01*
X14538333Y-10573571D01*
X14547857Y-10611667D01*
X14547857Y-10659286D01*
X14538333Y-10697381D01*
X14528809Y-10716429D01*
X14519286Y-10725952D01*
X14500238Y-10735476D01*
X14481190Y-10735476D01*
X14462143Y-10725952D01*
X14452619Y-10716429D01*
X14443095Y-10697381D01*
X14433571Y-10659286D01*
X14433571Y-10611667D01*
X14443095Y-10573571D01*
X14452619Y-10554524D01*
X14462143Y-10545000D01*
X14481190Y-10535476D01*
X14662143Y-10621190D02*
X14643095Y-10611667D01*
X14633571Y-10602143D01*
X14624048Y-10583095D01*
X14624048Y-10573571D01*
X14633571Y-10554524D01*
X14643095Y-10545000D01*
X14662143Y-10535476D01*
X14700238Y-10535476D01*
X14719286Y-10545000D01*
X14728809Y-10554524D01*
X14738333Y-10573571D01*
X14738333Y-10583095D01*
X14728809Y-10602143D01*
X14719286Y-10611667D01*
X14700238Y-10621190D01*
X14662143Y-10621190D01*
X14643095Y-10630714D01*
X14633571Y-10640238D01*
X14624048Y-10659286D01*
X14624048Y-10697381D01*
X14633571Y-10716429D01*
X14643095Y-10725952D01*
X14662143Y-10735476D01*
X14700238Y-10735476D01*
X14719286Y-10725952D01*
X14728809Y-10716429D01*
X14738333Y-10697381D01*
X14738333Y-10659286D01*
X14728809Y-10640238D01*
X14719286Y-10630714D01*
X14700238Y-10621190D01*
X14814524Y-10554524D02*
X14824048Y-10545000D01*
X14843095Y-10535476D01*
X14890714Y-10535476D01*
X14909762Y-10545000D01*
X14919286Y-10554524D01*
X14928809Y-10573571D01*
X14928809Y-10592619D01*
X14919286Y-10621190D01*
X14805000Y-10735476D01*
X14928809Y-10735476D01*
X14995476Y-10535476D02*
X15128809Y-10535476D01*
X15043095Y-10735476D01*
X15195476Y-10535476D02*
X15195476Y-10573571D01*
X15271667Y-10535476D02*
X15271667Y-10573571D01*
X15566905Y-10811667D02*
X15557381Y-10802143D01*
X15538333Y-10773571D01*
X15528809Y-10754524D01*
X15519286Y-10725952D01*
X15509762Y-10678333D01*
X15509762Y-10640238D01*
X15519286Y-10592619D01*
X15528809Y-10564048D01*
X15538333Y-10545000D01*
X15557381Y-10516429D01*
X15566905Y-10506905D01*
X15633571Y-10554524D02*
X15643095Y-10545000D01*
X15662143Y-10535476D01*
X15709762Y-10535476D01*
X15728809Y-10545000D01*
X15738333Y-10554524D01*
X15747857Y-10573571D01*
X15747857Y-10592619D01*
X15738333Y-10621190D01*
X15624048Y-10735476D01*
X15747857Y-10735476D01*
X15985952Y-10735476D02*
X15985952Y-10535476D01*
X16071667Y-10735476D02*
X16071667Y-10630714D01*
X16062143Y-10611667D01*
X16043095Y-10602143D01*
X16014524Y-10602143D01*
X15995476Y-10611667D01*
X15985952Y-10621190D01*
X16195476Y-10735476D02*
X16176428Y-10725952D01*
X16166905Y-10716429D01*
X16157381Y-10697381D01*
X16157381Y-10640238D01*
X16166905Y-10621190D01*
X16176428Y-10611667D01*
X16195476Y-10602143D01*
X16224048Y-10602143D01*
X16243095Y-10611667D01*
X16252619Y-10621190D01*
X16262143Y-10640238D01*
X16262143Y-10697381D01*
X16252619Y-10716429D01*
X16243095Y-10725952D01*
X16224048Y-10735476D01*
X16195476Y-10735476D01*
X16376428Y-10735476D02*
X16357381Y-10725952D01*
X16347857Y-10706905D01*
X16347857Y-10535476D01*
X16528809Y-10725952D02*
X16509762Y-10735476D01*
X16471667Y-10735476D01*
X16452619Y-10725952D01*
X16443095Y-10706905D01*
X16443095Y-10630714D01*
X16452619Y-10611667D01*
X16471667Y-10602143D01*
X16509762Y-10602143D01*
X16528809Y-10611667D01*
X16538333Y-10630714D01*
X16538333Y-10649762D01*
X16443095Y-10668810D01*
X16614524Y-10725952D02*
X16633571Y-10735476D01*
X16671667Y-10735476D01*
X16690714Y-10725952D01*
X16700238Y-10706905D01*
X16700238Y-10697381D01*
X16690714Y-10678333D01*
X16671667Y-10668810D01*
X16643095Y-10668810D01*
X16624048Y-10659286D01*
X16614524Y-10640238D01*
X16614524Y-10630714D01*
X16624048Y-10611667D01*
X16643095Y-10602143D01*
X16671667Y-10602143D01*
X16690714Y-10611667D01*
X16766905Y-10811667D02*
X16776428Y-10802143D01*
X16795476Y-10773571D01*
X16805000Y-10754524D01*
X16814524Y-10725952D01*
X16824048Y-10678333D01*
X16824048Y-10640238D01*
X16814524Y-10592619D01*
X16805000Y-10564048D01*
X16795476Y-10545000D01*
X16776428Y-10516429D01*
X16766905Y-10506905D01*
X17128810Y-10811667D02*
X17119286Y-10802143D01*
X17100238Y-10773571D01*
X17090714Y-10754524D01*
X17081190Y-10725952D01*
X17071667Y-10678333D01*
X17071667Y-10640238D01*
X17081190Y-10592619D01*
X17090714Y-10564048D01*
X17100238Y-10545000D01*
X17119286Y-10516429D01*
X17128810Y-10506905D01*
X17205000Y-10602143D02*
X17205000Y-10735476D01*
X17205000Y-10621190D02*
X17214524Y-10611667D01*
X17233571Y-10602143D01*
X17262143Y-10602143D01*
X17281190Y-10611667D01*
X17290714Y-10630714D01*
X17290714Y-10735476D01*
X17414524Y-10735476D02*
X17395476Y-10725952D01*
X17385952Y-10716429D01*
X17376429Y-10697381D01*
X17376429Y-10640238D01*
X17385952Y-10621190D01*
X17395476Y-10611667D01*
X17414524Y-10602143D01*
X17443095Y-10602143D01*
X17462143Y-10611667D01*
X17471667Y-10621190D01*
X17481190Y-10640238D01*
X17481190Y-10697381D01*
X17471667Y-10716429D01*
X17462143Y-10725952D01*
X17443095Y-10735476D01*
X17414524Y-10735476D01*
X17538333Y-10602143D02*
X17614524Y-10602143D01*
X17566905Y-10535476D02*
X17566905Y-10706905D01*
X17576429Y-10725952D01*
X17595476Y-10735476D01*
X17614524Y-10735476D01*
X17833571Y-10602143D02*
X17833571Y-10802143D01*
X17833571Y-10611667D02*
X17852619Y-10602143D01*
X17890714Y-10602143D01*
X17909762Y-10611667D01*
X17919286Y-10621190D01*
X17928810Y-10640238D01*
X17928810Y-10697381D01*
X17919286Y-10716429D01*
X17909762Y-10725952D01*
X17890714Y-10735476D01*
X17852619Y-10735476D01*
X17833571Y-10725952D01*
X18043095Y-10735476D02*
X18024048Y-10725952D01*
X18014524Y-10706905D01*
X18014524Y-10535476D01*
X18205000Y-10735476D02*
X18205000Y-10630714D01*
X18195476Y-10611667D01*
X18176429Y-10602143D01*
X18138333Y-10602143D01*
X18119286Y-10611667D01*
X18205000Y-10725952D02*
X18185952Y-10735476D01*
X18138333Y-10735476D01*
X18119286Y-10725952D01*
X18109762Y-10706905D01*
X18109762Y-10687857D01*
X18119286Y-10668810D01*
X18138333Y-10659286D01*
X18185952Y-10659286D01*
X18205000Y-10649762D01*
X18271667Y-10602143D02*
X18347857Y-10602143D01*
X18300238Y-10535476D02*
X18300238Y-10706905D01*
X18309762Y-10725952D01*
X18328810Y-10735476D01*
X18347857Y-10735476D01*
X18490714Y-10725952D02*
X18471667Y-10735476D01*
X18433571Y-10735476D01*
X18414524Y-10725952D01*
X18405000Y-10706905D01*
X18405000Y-10630714D01*
X18414524Y-10611667D01*
X18433571Y-10602143D01*
X18471667Y-10602143D01*
X18490714Y-10611667D01*
X18500238Y-10630714D01*
X18500238Y-10649762D01*
X18405000Y-10668810D01*
X18671667Y-10735476D02*
X18671667Y-10535476D01*
X18671667Y-10725952D02*
X18652619Y-10735476D01*
X18614524Y-10735476D01*
X18595476Y-10725952D01*
X18585952Y-10716429D01*
X18576429Y-10697381D01*
X18576429Y-10640238D01*
X18585952Y-10621190D01*
X18595476Y-10611667D01*
X18614524Y-10602143D01*
X18652619Y-10602143D01*
X18671667Y-10611667D01*
X18747857Y-10811667D02*
X18757381Y-10802143D01*
X18776429Y-10773571D01*
X18785952Y-10754524D01*
X18795476Y-10725952D01*
X18805000Y-10678333D01*
X18805000Y-10640238D01*
X18795476Y-10592619D01*
X18785952Y-10564048D01*
X18776429Y-10545000D01*
X18757381Y-10516429D01*
X18747857Y-10506905D01*
M02*
