%TF.GenerationSoftware,KiCad,Pcbnew,(6.0.0-0)*%
%TF.CreationDate,2022-11-28T12:23:11+01:00*%
%TF.ProjectId,wm8904_codec_breakout,776d3839-3034-45f6-936f-6465635f6272,rev?*%
%TF.SameCoordinates,Original*%
%TF.FileFunction,Legend,Top*%
%TF.FilePolarity,Positive*%
%FSLAX46Y46*%
G04 Gerber Fmt 4.6, Leading zero omitted, Abs format (unit mm)*
G04 Created by KiCad (PCBNEW (6.0.0-0)) date 2022-11-28 12:23:11*
%MOMM*%
%LPD*%
G01*
G04 APERTURE LIST*
G04 Aperture macros list*
%AMRoundRect*
0 Rectangle with rounded corners*
0 $1 Rounding radius*
0 $2 $3 $4 $5 $6 $7 $8 $9 X,Y pos of 4 corners*
0 Add a 4 corners polygon primitive as box body*
4,1,4,$2,$3,$4,$5,$6,$7,$8,$9,$2,$3,0*
0 Add four circle primitives for the rounded corners*
1,1,$1+$1,$2,$3*
1,1,$1+$1,$4,$5*
1,1,$1+$1,$6,$7*
1,1,$1+$1,$8,$9*
0 Add four rect primitives between the rounded corners*
20,1,$1+$1,$2,$3,$4,$5,0*
20,1,$1+$1,$4,$5,$6,$7,0*
20,1,$1+$1,$6,$7,$8,$9,0*
20,1,$1+$1,$8,$9,$2,$3,0*%
G04 Aperture macros list end*
%ADD10C,0.150000*%
%ADD11C,0.120000*%
%ADD12RoundRect,0.135000X-0.185000X0.135000X-0.185000X-0.135000X0.185000X-0.135000X0.185000X0.135000X0*%
%ADD13RoundRect,0.140000X-0.140000X-0.170000X0.140000X-0.170000X0.140000X0.170000X-0.140000X0.170000X0*%
%ADD14R,1.700000X1.700000*%
%ADD15O,1.700000X1.700000*%
%ADD16C,2.500000*%
%ADD17RoundRect,0.140000X0.170000X-0.140000X0.170000X0.140000X-0.170000X0.140000X-0.170000X-0.140000X0*%
%ADD18RoundRect,0.135000X0.135000X0.185000X-0.135000X0.185000X-0.135000X-0.185000X0.135000X-0.185000X0*%
%ADD19RoundRect,0.140000X0.140000X0.170000X-0.140000X0.170000X-0.140000X-0.170000X0.140000X-0.170000X0*%
%ADD20R,3.500000X1.500000*%
%ADD21RoundRect,0.140000X-0.170000X0.140000X-0.170000X-0.140000X0.170000X-0.140000X0.170000X0.140000X0*%
%ADD22RoundRect,0.200000X-0.200000X-0.275000X0.200000X-0.275000X0.200000X0.275000X-0.200000X0.275000X0*%
%ADD23O,0.200000X0.400000*%
%ADD24O,0.400000X0.200000*%
%ADD25R,2.700000X2.700000*%
%ADD26R,2.000000X1.500000*%
%ADD27R,2.000000X3.800000*%
%ADD28RoundRect,0.200000X-0.275000X0.200000X-0.275000X-0.200000X0.275000X-0.200000X0.275000X0.200000X0*%
G04 APERTURE END LIST*
D10*
X162217071Y-83660761D02*
X162359928Y-83708380D01*
X162598023Y-83708380D01*
X162693261Y-83660761D01*
X162740880Y-83613142D01*
X162788500Y-83517904D01*
X162788500Y-83422666D01*
X162740880Y-83327428D01*
X162693261Y-83279809D01*
X162598023Y-83232190D01*
X162407547Y-83184571D01*
X162312309Y-83136952D01*
X162264690Y-83089333D01*
X162217071Y-82994095D01*
X162217071Y-82898857D01*
X162264690Y-82803619D01*
X162312309Y-82756000D01*
X162407547Y-82708380D01*
X162645642Y-82708380D01*
X162788500Y-82756000D01*
X163788500Y-83613142D02*
X163740880Y-83660761D01*
X163598023Y-83708380D01*
X163502785Y-83708380D01*
X163359928Y-83660761D01*
X163264690Y-83565523D01*
X163217071Y-83470285D01*
X163169452Y-83279809D01*
X163169452Y-83136952D01*
X163217071Y-82946476D01*
X163264690Y-82851238D01*
X163359928Y-82756000D01*
X163502785Y-82708380D01*
X163598023Y-82708380D01*
X163740880Y-82756000D01*
X163788500Y-82803619D01*
X164693261Y-83708380D02*
X164217071Y-83708380D01*
X164217071Y-82708380D01*
X165026595Y-83708380D02*
X165026595Y-82708380D01*
X165598023Y-83708380D02*
X165169452Y-83136952D01*
X165598023Y-82708380D02*
X165026595Y-83279809D01*
X134212738Y-92858380D02*
X134546071Y-93858380D01*
X134879404Y-92858380D01*
X135212738Y-93858380D02*
X135212738Y-92858380D01*
X135450833Y-92858380D01*
X135593690Y-92906000D01*
X135688928Y-93001238D01*
X135736547Y-93096476D01*
X135784166Y-93286952D01*
X135784166Y-93429809D01*
X135736547Y-93620285D01*
X135688928Y-93715523D01*
X135593690Y-93810761D01*
X135450833Y-93858380D01*
X135212738Y-93858380D01*
X136212738Y-93858380D02*
X136212738Y-92858380D01*
X136450833Y-92858380D01*
X136593690Y-92906000D01*
X136688928Y-93001238D01*
X136736547Y-93096476D01*
X136784166Y-93286952D01*
X136784166Y-93429809D01*
X136736547Y-93620285D01*
X136688928Y-93715523D01*
X136593690Y-93810761D01*
X136450833Y-93858380D01*
X136212738Y-93858380D01*
X162217071Y-86200761D02*
X162359928Y-86248380D01*
X162598023Y-86248380D01*
X162693261Y-86200761D01*
X162740880Y-86153142D01*
X162788500Y-86057904D01*
X162788500Y-85962666D01*
X162740880Y-85867428D01*
X162693261Y-85819809D01*
X162598023Y-85772190D01*
X162407547Y-85724571D01*
X162312309Y-85676952D01*
X162264690Y-85629333D01*
X162217071Y-85534095D01*
X162217071Y-85438857D01*
X162264690Y-85343619D01*
X162312309Y-85296000D01*
X162407547Y-85248380D01*
X162645642Y-85248380D01*
X162788500Y-85296000D01*
X163788500Y-86153142D02*
X163740880Y-86200761D01*
X163598023Y-86248380D01*
X163502785Y-86248380D01*
X163359928Y-86200761D01*
X163264690Y-86105523D01*
X163217071Y-86010285D01*
X163169452Y-85819809D01*
X163169452Y-85676952D01*
X163217071Y-85486476D01*
X163264690Y-85391238D01*
X163359928Y-85296000D01*
X163502785Y-85248380D01*
X163598023Y-85248380D01*
X163740880Y-85296000D01*
X163788500Y-85343619D01*
X164693261Y-86248380D02*
X164217071Y-86248380D01*
X164217071Y-85248380D01*
X165026595Y-86248380D02*
X165026595Y-85248380D01*
X165598023Y-86248380D02*
X165169452Y-85676952D01*
X165598023Y-85248380D02*
X165026595Y-85819809D01*
X163169452Y-78580761D02*
X163312309Y-78628380D01*
X163550404Y-78628380D01*
X163645642Y-78580761D01*
X163693261Y-78533142D01*
X163740880Y-78437904D01*
X163740880Y-78342666D01*
X163693261Y-78247428D01*
X163645642Y-78199809D01*
X163550404Y-78152190D01*
X163359928Y-78104571D01*
X163264690Y-78056952D01*
X163217071Y-78009333D01*
X163169452Y-77914095D01*
X163169452Y-77818857D01*
X163217071Y-77723619D01*
X163264690Y-77676000D01*
X163359928Y-77628380D01*
X163598023Y-77628380D01*
X163740880Y-77676000D01*
X164169452Y-78628380D02*
X164169452Y-77628380D01*
X164407547Y-77628380D01*
X164550404Y-77676000D01*
X164645642Y-77771238D01*
X164693261Y-77866476D01*
X164740880Y-78056952D01*
X164740880Y-78199809D01*
X164693261Y-78390285D01*
X164645642Y-78485523D01*
X164550404Y-78580761D01*
X164407547Y-78628380D01*
X164169452Y-78628380D01*
X165121833Y-78342666D02*
X165598023Y-78342666D01*
X165026595Y-78628380D02*
X165359928Y-77628380D01*
X165693261Y-78628380D01*
X163502785Y-92916000D02*
X163407547Y-92868380D01*
X163264690Y-92868380D01*
X163121833Y-92916000D01*
X163026595Y-93011238D01*
X162978976Y-93106476D01*
X162931357Y-93296952D01*
X162931357Y-93439809D01*
X162978976Y-93630285D01*
X163026595Y-93725523D01*
X163121833Y-93820761D01*
X163264690Y-93868380D01*
X163359928Y-93868380D01*
X163502785Y-93820761D01*
X163550404Y-93773142D01*
X163550404Y-93439809D01*
X163359928Y-93439809D01*
X163978976Y-93868380D02*
X163978976Y-92868380D01*
X164550404Y-93868380D01*
X164550404Y-92868380D01*
X165026595Y-93868380D02*
X165026595Y-92868380D01*
X165264690Y-92868380D01*
X165407547Y-92916000D01*
X165502785Y-93011238D01*
X165550404Y-93106476D01*
X165598023Y-93296952D01*
X165598023Y-93439809D01*
X165550404Y-93630285D01*
X165502785Y-93725523D01*
X165407547Y-93820761D01*
X165264690Y-93868380D01*
X165026595Y-93868380D01*
X134355595Y-91318380D02*
X134355595Y-90318380D01*
X135403214Y-91318380D02*
X135069880Y-90842190D01*
X134831785Y-91318380D02*
X134831785Y-90318380D01*
X135212738Y-90318380D01*
X135307976Y-90366000D01*
X135355595Y-90413619D01*
X135403214Y-90508857D01*
X135403214Y-90651714D01*
X135355595Y-90746952D01*
X135307976Y-90794571D01*
X135212738Y-90842190D01*
X134831785Y-90842190D01*
X136498452Y-91413619D02*
X136403214Y-91366000D01*
X136307976Y-91270761D01*
X136165119Y-91127904D01*
X136069880Y-91080285D01*
X135974642Y-91080285D01*
X136022261Y-91318380D02*
X135927023Y-91270761D01*
X135831785Y-91175523D01*
X135784166Y-90985047D01*
X135784166Y-90651714D01*
X135831785Y-90461238D01*
X135927023Y-90366000D01*
X136022261Y-90318380D01*
X136212738Y-90318380D01*
X136307976Y-90366000D01*
X136403214Y-90461238D01*
X136450833Y-90651714D01*
X136450833Y-90985047D01*
X136403214Y-91175523D01*
X136307976Y-91270761D01*
X136212738Y-91318380D01*
X136022261Y-91318380D01*
X134355595Y-78618380D02*
X134355595Y-77618380D01*
X134688928Y-78332666D01*
X135022261Y-77618380D01*
X135022261Y-78618380D01*
X136069880Y-78523142D02*
X136022261Y-78570761D01*
X135879404Y-78618380D01*
X135784166Y-78618380D01*
X135641309Y-78570761D01*
X135546071Y-78475523D01*
X135498452Y-78380285D01*
X135450833Y-78189809D01*
X135450833Y-78046952D01*
X135498452Y-77856476D01*
X135546071Y-77761238D01*
X135641309Y-77666000D01*
X135784166Y-77618380D01*
X135879404Y-77618380D01*
X136022261Y-77666000D01*
X136069880Y-77713619D01*
X136974642Y-78618380D02*
X136498452Y-78618380D01*
X136498452Y-77618380D01*
X137307976Y-78618380D02*
X137307976Y-77618380D01*
X137879404Y-78618380D02*
X137450833Y-78046952D01*
X137879404Y-77618380D02*
X137307976Y-78189809D01*
X134831785Y-83718380D02*
X134355595Y-83718380D01*
X134355595Y-82718380D01*
X135736547Y-83718380D02*
X135403214Y-83242190D01*
X135165119Y-83718380D02*
X135165119Y-82718380D01*
X135546071Y-82718380D01*
X135641309Y-82766000D01*
X135688928Y-82813619D01*
X135736547Y-82908857D01*
X135736547Y-83051714D01*
X135688928Y-83146952D01*
X135641309Y-83194571D01*
X135546071Y-83242190D01*
X135165119Y-83242190D01*
X136736547Y-83623142D02*
X136688928Y-83670761D01*
X136546071Y-83718380D01*
X136450833Y-83718380D01*
X136307976Y-83670761D01*
X136212738Y-83575523D01*
X136165119Y-83480285D01*
X136117500Y-83289809D01*
X136117500Y-83146952D01*
X136165119Y-82956476D01*
X136212738Y-82861238D01*
X136307976Y-82766000D01*
X136450833Y-82718380D01*
X136546071Y-82718380D01*
X136688928Y-82766000D01*
X136736547Y-82813619D01*
X137641309Y-83718380D02*
X137165119Y-83718380D01*
X137165119Y-82718380D01*
X137974642Y-83718380D02*
X137974642Y-82718380D01*
X138546071Y-83718380D02*
X138117500Y-83146952D01*
X138546071Y-82718380D02*
X137974642Y-83289809D01*
X134355595Y-73538380D02*
X134355595Y-72538380D01*
X134831785Y-73538380D02*
X134831785Y-72538380D01*
X135403214Y-73538380D01*
X135403214Y-72538380D01*
X135831785Y-72633619D02*
X135879404Y-72586000D01*
X135974642Y-72538380D01*
X136212738Y-72538380D01*
X136307976Y-72586000D01*
X136355595Y-72633619D01*
X136403214Y-72728857D01*
X136403214Y-72824095D01*
X136355595Y-72966952D01*
X135784166Y-73538380D01*
X136403214Y-73538380D01*
X137307976Y-73538380D02*
X136831785Y-73538380D01*
X136831785Y-72538380D01*
X134355595Y-76078380D02*
X134355595Y-75078380D01*
X134831785Y-76078380D02*
X134831785Y-75078380D01*
X135403214Y-76078380D01*
X135403214Y-75078380D01*
X136403214Y-76078380D02*
X135831785Y-76078380D01*
X136117500Y-76078380D02*
X136117500Y-75078380D01*
X136022261Y-75221238D01*
X135927023Y-75316476D01*
X135831785Y-75364095D01*
X137307976Y-76078380D02*
X136831785Y-76078380D01*
X136831785Y-75078380D01*
X138355595Y-75030761D02*
X137498452Y-76316476D01*
X138688928Y-76078380D02*
X138688928Y-75078380D01*
X138927023Y-75078380D01*
X139069880Y-75126000D01*
X139165119Y-75221238D01*
X139212738Y-75316476D01*
X139260357Y-75506952D01*
X139260357Y-75649809D01*
X139212738Y-75840285D01*
X139165119Y-75935523D01*
X139069880Y-76030761D01*
X138927023Y-76078380D01*
X138688928Y-76078380D01*
X139688928Y-76078380D02*
X139688928Y-75078380D01*
X140022261Y-75792666D01*
X140355595Y-75078380D01*
X140355595Y-76078380D01*
X140831785Y-76078380D02*
X140831785Y-75078380D01*
X141879404Y-75983142D02*
X141831785Y-76030761D01*
X141688928Y-76078380D01*
X141593690Y-76078380D01*
X141450833Y-76030761D01*
X141355595Y-75935523D01*
X141307976Y-75840285D01*
X141260357Y-75649809D01*
X141260357Y-75506952D01*
X141307976Y-75316476D01*
X141355595Y-75221238D01*
X141450833Y-75126000D01*
X141593690Y-75078380D01*
X141688928Y-75078380D01*
X141831785Y-75126000D01*
X141879404Y-75173619D01*
X142307976Y-76078380D02*
X142307976Y-75078380D01*
X142546071Y-75078380D01*
X142688928Y-75126000D01*
X142784166Y-75221238D01*
X142831785Y-75316476D01*
X142879404Y-75506952D01*
X142879404Y-75649809D01*
X142831785Y-75840285D01*
X142784166Y-75935523D01*
X142688928Y-76030761D01*
X142546071Y-76078380D01*
X142307976Y-76078380D01*
X143260357Y-75792666D02*
X143736547Y-75792666D01*
X143165119Y-76078380D02*
X143498452Y-75078380D01*
X143831785Y-76078380D01*
X144022261Y-75078380D02*
X144593690Y-75078380D01*
X144307976Y-76078380D02*
X144307976Y-75078380D01*
X145450833Y-76078380D02*
X144879404Y-76078380D01*
X145165119Y-76078380D02*
X145165119Y-75078380D01*
X145069880Y-75221238D01*
X144974642Y-75316476D01*
X144879404Y-75364095D01*
X163788500Y-88788380D02*
X163217071Y-88788380D01*
X163502785Y-88788380D02*
X163502785Y-87788380D01*
X163407547Y-87931238D01*
X163312309Y-88026476D01*
X163217071Y-88074095D01*
X164074214Y-87788380D02*
X164407547Y-88788380D01*
X164740880Y-87788380D01*
X165217071Y-88216952D02*
X165121833Y-88169333D01*
X165074214Y-88121714D01*
X165026595Y-88026476D01*
X165026595Y-87978857D01*
X165074214Y-87883619D01*
X165121833Y-87836000D01*
X165217071Y-87788380D01*
X165407547Y-87788380D01*
X165502785Y-87836000D01*
X165550404Y-87883619D01*
X165598023Y-87978857D01*
X165598023Y-88026476D01*
X165550404Y-88121714D01*
X165502785Y-88169333D01*
X165407547Y-88216952D01*
X165217071Y-88216952D01*
X165121833Y-88264571D01*
X165074214Y-88312190D01*
X165026595Y-88407428D01*
X165026595Y-88597904D01*
X165074214Y-88693142D01*
X165121833Y-88740761D01*
X165217071Y-88788380D01*
X165407547Y-88788380D01*
X165502785Y-88740761D01*
X165550404Y-88693142D01*
X165598023Y-88597904D01*
X165598023Y-88407428D01*
X165550404Y-88312190D01*
X165502785Y-88264571D01*
X165407547Y-88216952D01*
X134307976Y-85952666D02*
X134784166Y-85952666D01*
X134212738Y-86238380D02*
X134546071Y-85238380D01*
X134879404Y-86238380D01*
X135212738Y-86238380D02*
X135212738Y-85238380D01*
X135450833Y-85238380D01*
X135593690Y-85286000D01*
X135688928Y-85381238D01*
X135736547Y-85476476D01*
X135784166Y-85666952D01*
X135784166Y-85809809D01*
X135736547Y-86000285D01*
X135688928Y-86095523D01*
X135593690Y-86190761D01*
X135450833Y-86238380D01*
X135212738Y-86238380D01*
X136784166Y-86143142D02*
X136736547Y-86190761D01*
X136593690Y-86238380D01*
X136498452Y-86238380D01*
X136355595Y-86190761D01*
X136260357Y-86095523D01*
X136212738Y-86000285D01*
X136165119Y-85809809D01*
X136165119Y-85666952D01*
X136212738Y-85476476D01*
X136260357Y-85381238D01*
X136355595Y-85286000D01*
X136498452Y-85238380D01*
X136593690Y-85238380D01*
X136736547Y-85286000D01*
X136784166Y-85333619D01*
X137212738Y-86238380D02*
X137212738Y-85238380D01*
X137450833Y-85238380D01*
X137593690Y-85286000D01*
X137688928Y-85381238D01*
X137736547Y-85476476D01*
X137784166Y-85666952D01*
X137784166Y-85809809D01*
X137736547Y-86000285D01*
X137688928Y-86095523D01*
X137593690Y-86190761D01*
X137450833Y-86238380D01*
X137212738Y-86238380D01*
X138165119Y-85952666D02*
X138641309Y-85952666D01*
X138069880Y-86238380D02*
X138403214Y-85238380D01*
X138736547Y-86238380D01*
X138927023Y-85238380D02*
X139498452Y-85238380D01*
X139212738Y-86238380D02*
X139212738Y-85238380D01*
X163502785Y-95456000D02*
X163407547Y-95408380D01*
X163264690Y-95408380D01*
X163121833Y-95456000D01*
X163026595Y-95551238D01*
X162978976Y-95646476D01*
X162931357Y-95836952D01*
X162931357Y-95979809D01*
X162978976Y-96170285D01*
X163026595Y-96265523D01*
X163121833Y-96360761D01*
X163264690Y-96408380D01*
X163359928Y-96408380D01*
X163502785Y-96360761D01*
X163550404Y-96313142D01*
X163550404Y-95979809D01*
X163359928Y-95979809D01*
X163978976Y-96408380D02*
X163978976Y-95408380D01*
X164550404Y-96408380D01*
X164550404Y-95408380D01*
X165026595Y-96408380D02*
X165026595Y-95408380D01*
X165264690Y-95408380D01*
X165407547Y-95456000D01*
X165502785Y-95551238D01*
X165550404Y-95646476D01*
X165598023Y-95836952D01*
X165598023Y-95979809D01*
X165550404Y-96170285D01*
X165502785Y-96265523D01*
X165407547Y-96360761D01*
X165264690Y-96408380D01*
X165026595Y-96408380D01*
X160312309Y-76088380D02*
X160312309Y-75088380D01*
X160312309Y-75564571D02*
X160883738Y-75564571D01*
X160883738Y-76088380D02*
X160883738Y-75088380D01*
X161359928Y-76088380D02*
X161359928Y-75088380D01*
X161740880Y-75088380D01*
X161836119Y-75136000D01*
X161883738Y-75183619D01*
X161931357Y-75278857D01*
X161931357Y-75421714D01*
X161883738Y-75516952D01*
X161836119Y-75564571D01*
X161740880Y-75612190D01*
X161359928Y-75612190D01*
X162550404Y-75088380D02*
X162740880Y-75088380D01*
X162836119Y-75136000D01*
X162931357Y-75231238D01*
X162978976Y-75421714D01*
X162978976Y-75755047D01*
X162931357Y-75945523D01*
X162836119Y-76040761D01*
X162740880Y-76088380D01*
X162550404Y-76088380D01*
X162455166Y-76040761D01*
X162359928Y-75945523D01*
X162312309Y-75755047D01*
X162312309Y-75421714D01*
X162359928Y-75231238D01*
X162455166Y-75136000D01*
X162550404Y-75088380D01*
X163407547Y-75088380D02*
X163407547Y-75897904D01*
X163455166Y-75993142D01*
X163502785Y-76040761D01*
X163598023Y-76088380D01*
X163788500Y-76088380D01*
X163883738Y-76040761D01*
X163931357Y-75993142D01*
X163978976Y-75897904D01*
X163978976Y-75088380D01*
X164312309Y-75088380D02*
X164883738Y-75088380D01*
X164598023Y-76088380D02*
X164598023Y-75088380D01*
X165693261Y-76088380D02*
X165217071Y-76088380D01*
X165217071Y-75088380D01*
X134212738Y-95398380D02*
X134546071Y-96398380D01*
X134879404Y-95398380D01*
X135212738Y-96398380D02*
X135212738Y-95398380D01*
X135450833Y-95398380D01*
X135593690Y-95446000D01*
X135688928Y-95541238D01*
X135736547Y-95636476D01*
X135784166Y-95826952D01*
X135784166Y-95969809D01*
X135736547Y-96160285D01*
X135688928Y-96255523D01*
X135593690Y-96350761D01*
X135450833Y-96398380D01*
X135212738Y-96398380D01*
X136212738Y-96398380D02*
X136212738Y-95398380D01*
X136450833Y-95398380D01*
X136593690Y-95446000D01*
X136688928Y-95541238D01*
X136736547Y-95636476D01*
X136784166Y-95826952D01*
X136784166Y-95969809D01*
X136736547Y-96160285D01*
X136688928Y-96255523D01*
X136593690Y-96350761D01*
X136450833Y-96398380D01*
X136212738Y-96398380D01*
X153785714Y-88052380D02*
X153785714Y-87052380D01*
X153785714Y-87528571D02*
X154357142Y-87528571D01*
X154357142Y-88052380D02*
X154357142Y-87052380D01*
X154833333Y-88052380D02*
X154833333Y-87052380D01*
X155214285Y-87052380D01*
X155309523Y-87100000D01*
X155357142Y-87147619D01*
X155404761Y-87242857D01*
X155404761Y-87385714D01*
X155357142Y-87480952D01*
X155309523Y-87528571D01*
X155214285Y-87576190D01*
X154833333Y-87576190D01*
X156023809Y-87052380D02*
X156214285Y-87052380D01*
X156309523Y-87100000D01*
X156404761Y-87195238D01*
X156452380Y-87385714D01*
X156452380Y-87719047D01*
X156404761Y-87909523D01*
X156309523Y-88004761D01*
X156214285Y-88052380D01*
X156023809Y-88052380D01*
X155928571Y-88004761D01*
X155833333Y-87909523D01*
X155785714Y-87719047D01*
X155785714Y-87385714D01*
X155833333Y-87195238D01*
X155928571Y-87100000D01*
X156023809Y-87052380D01*
X156880952Y-87052380D02*
X156880952Y-87861904D01*
X156928571Y-87957142D01*
X156976190Y-88004761D01*
X157071428Y-88052380D01*
X157261904Y-88052380D01*
X157357142Y-88004761D01*
X157404761Y-87957142D01*
X157452380Y-87861904D01*
X157452380Y-87052380D01*
X157785714Y-87052380D02*
X158357142Y-87052380D01*
X158071428Y-88052380D02*
X158071428Y-87052380D01*
X134355595Y-88778380D02*
X134355595Y-87778380D01*
X134593690Y-87778380D01*
X134736547Y-87826000D01*
X134831785Y-87921238D01*
X134879404Y-88016476D01*
X134927023Y-88206952D01*
X134927023Y-88349809D01*
X134879404Y-88540285D01*
X134831785Y-88635523D01*
X134736547Y-88730761D01*
X134593690Y-88778380D01*
X134355595Y-88778380D01*
X135307976Y-88492666D02*
X135784166Y-88492666D01*
X135212738Y-88778380D02*
X135546071Y-87778380D01*
X135879404Y-88778380D01*
X136784166Y-88683142D02*
X136736547Y-88730761D01*
X136593690Y-88778380D01*
X136498452Y-88778380D01*
X136355595Y-88730761D01*
X136260357Y-88635523D01*
X136212738Y-88540285D01*
X136165119Y-88349809D01*
X136165119Y-88206952D01*
X136212738Y-88016476D01*
X136260357Y-87921238D01*
X136355595Y-87826000D01*
X136498452Y-87778380D01*
X136593690Y-87778380D01*
X136736547Y-87826000D01*
X136784166Y-87873619D01*
X137212738Y-88778380D02*
X137212738Y-87778380D01*
X137450833Y-87778380D01*
X137593690Y-87826000D01*
X137688928Y-87921238D01*
X137736547Y-88016476D01*
X137784166Y-88206952D01*
X137784166Y-88349809D01*
X137736547Y-88540285D01*
X137688928Y-88635523D01*
X137593690Y-88730761D01*
X137450833Y-88778380D01*
X137212738Y-88778380D01*
X138165119Y-88492666D02*
X138641309Y-88492666D01*
X138069880Y-88778380D02*
X138403214Y-87778380D01*
X138736547Y-88778380D01*
X138927023Y-87778380D02*
X139498452Y-87778380D01*
X139212738Y-88778380D02*
X139212738Y-87778380D01*
X134688928Y-80634571D02*
X134831785Y-80682190D01*
X134879404Y-80729809D01*
X134927023Y-80825047D01*
X134927023Y-80967904D01*
X134879404Y-81063142D01*
X134831785Y-81110761D01*
X134736547Y-81158380D01*
X134355595Y-81158380D01*
X134355595Y-80158380D01*
X134688928Y-80158380D01*
X134784166Y-80206000D01*
X134831785Y-80253619D01*
X134879404Y-80348857D01*
X134879404Y-80444095D01*
X134831785Y-80539333D01*
X134784166Y-80586952D01*
X134688928Y-80634571D01*
X134355595Y-80634571D01*
X135927023Y-81063142D02*
X135879404Y-81110761D01*
X135736547Y-81158380D01*
X135641309Y-81158380D01*
X135498452Y-81110761D01*
X135403214Y-81015523D01*
X135355595Y-80920285D01*
X135307976Y-80729809D01*
X135307976Y-80586952D01*
X135355595Y-80396476D01*
X135403214Y-80301238D01*
X135498452Y-80206000D01*
X135641309Y-80158380D01*
X135736547Y-80158380D01*
X135879404Y-80206000D01*
X135927023Y-80253619D01*
X136831785Y-81158380D02*
X136355595Y-81158380D01*
X136355595Y-80158380D01*
X137165119Y-81158380D02*
X137165119Y-80158380D01*
X137736547Y-81158380D02*
X137307976Y-80586952D01*
X137736547Y-80158380D02*
X137165119Y-80729809D01*
X138879404Y-80110761D02*
X138022261Y-81396476D01*
X139736547Y-80206000D02*
X139641309Y-80158380D01*
X139498452Y-80158380D01*
X139355595Y-80206000D01*
X139260357Y-80301238D01*
X139212738Y-80396476D01*
X139165119Y-80586952D01*
X139165119Y-80729809D01*
X139212738Y-80920285D01*
X139260357Y-81015523D01*
X139355595Y-81110761D01*
X139498452Y-81158380D01*
X139593690Y-81158380D01*
X139736547Y-81110761D01*
X139784166Y-81063142D01*
X139784166Y-80729809D01*
X139593690Y-80729809D01*
X140212738Y-81158380D02*
X140212738Y-80158380D01*
X140593690Y-80158380D01*
X140688928Y-80206000D01*
X140736547Y-80253619D01*
X140784166Y-80348857D01*
X140784166Y-80491714D01*
X140736547Y-80586952D01*
X140688928Y-80634571D01*
X140593690Y-80682190D01*
X140212738Y-80682190D01*
X141212738Y-81158380D02*
X141212738Y-80158380D01*
X141879404Y-80158380D02*
X142069880Y-80158380D01*
X142165119Y-80206000D01*
X142260357Y-80301238D01*
X142307976Y-80491714D01*
X142307976Y-80825047D01*
X142260357Y-81015523D01*
X142165119Y-81110761D01*
X142069880Y-81158380D01*
X141879404Y-81158380D01*
X141784166Y-81110761D01*
X141688928Y-81015523D01*
X141641309Y-80825047D01*
X141641309Y-80491714D01*
X141688928Y-80301238D01*
X141784166Y-80206000D01*
X141879404Y-80158380D01*
X143165119Y-80491714D02*
X143165119Y-81158380D01*
X142927023Y-80110761D02*
X142688928Y-80825047D01*
X143307976Y-80825047D01*
X134355595Y-70998380D02*
X134355595Y-69998380D01*
X134831785Y-70998380D02*
X134831785Y-69998380D01*
X135403214Y-70998380D01*
X135403214Y-69998380D01*
X136403214Y-70998380D02*
X135831785Y-70998380D01*
X136117500Y-70998380D02*
X136117500Y-69998380D01*
X136022261Y-70141238D01*
X135927023Y-70236476D01*
X135831785Y-70284095D01*
X137403214Y-70998380D02*
X137069880Y-70522190D01*
X136831785Y-70998380D02*
X136831785Y-69998380D01*
X137212738Y-69998380D01*
X137307976Y-70046000D01*
X137355595Y-70093619D01*
X137403214Y-70188857D01*
X137403214Y-70331714D01*
X137355595Y-70426952D01*
X137307976Y-70474571D01*
X137212738Y-70522190D01*
X136831785Y-70522190D01*
X138546071Y-69950761D02*
X137688928Y-71236476D01*
X138879404Y-70998380D02*
X138879404Y-69998380D01*
X139117500Y-69998380D01*
X139260357Y-70046000D01*
X139355595Y-70141238D01*
X139403214Y-70236476D01*
X139450833Y-70426952D01*
X139450833Y-70569809D01*
X139403214Y-70760285D01*
X139355595Y-70855523D01*
X139260357Y-70950761D01*
X139117500Y-70998380D01*
X138879404Y-70998380D01*
X139879404Y-70998380D02*
X139879404Y-69998380D01*
X140212738Y-70712666D01*
X140546071Y-69998380D01*
X140546071Y-70998380D01*
X141022261Y-70998380D02*
X141022261Y-69998380D01*
X142069880Y-70903142D02*
X142022261Y-70950761D01*
X141879404Y-70998380D01*
X141784166Y-70998380D01*
X141641309Y-70950761D01*
X141546071Y-70855523D01*
X141498452Y-70760285D01*
X141450833Y-70569809D01*
X141450833Y-70426952D01*
X141498452Y-70236476D01*
X141546071Y-70141238D01*
X141641309Y-70046000D01*
X141784166Y-69998380D01*
X141879404Y-69998380D01*
X142022261Y-70046000D01*
X142069880Y-70093619D01*
X142498452Y-70998380D02*
X142498452Y-69998380D01*
X142736547Y-69998380D01*
X142879404Y-70046000D01*
X142974642Y-70141238D01*
X143022261Y-70236476D01*
X143069880Y-70426952D01*
X143069880Y-70569809D01*
X143022261Y-70760285D01*
X142974642Y-70855523D01*
X142879404Y-70950761D01*
X142736547Y-70998380D01*
X142498452Y-70998380D01*
X143450833Y-70712666D02*
X143927023Y-70712666D01*
X143355595Y-70998380D02*
X143688928Y-69998380D01*
X144022261Y-70998380D01*
X144212738Y-69998380D02*
X144784166Y-69998380D01*
X144498452Y-70998380D02*
X144498452Y-69998380D01*
X145069880Y-70093619D02*
X145117500Y-70046000D01*
X145212738Y-69998380D01*
X145450833Y-69998380D01*
X145546071Y-70046000D01*
X145593690Y-70093619D01*
X145641309Y-70188857D01*
X145641309Y-70284095D01*
X145593690Y-70426952D01*
X145022261Y-70998380D01*
X145641309Y-70998380D01*
X134355595Y-68458380D02*
X134355595Y-67458380D01*
X134831785Y-68458380D02*
X134831785Y-67458380D01*
X135403214Y-68458380D01*
X135403214Y-67458380D01*
X135831785Y-67553619D02*
X135879404Y-67506000D01*
X135974642Y-67458380D01*
X136212738Y-67458380D01*
X136307976Y-67506000D01*
X136355595Y-67553619D01*
X136403214Y-67648857D01*
X136403214Y-67744095D01*
X136355595Y-67886952D01*
X135784166Y-68458380D01*
X136403214Y-68458380D01*
X137403214Y-68458380D02*
X137069880Y-67982190D01*
X136831785Y-68458380D02*
X136831785Y-67458380D01*
X137212738Y-67458380D01*
X137307976Y-67506000D01*
X137355595Y-67553619D01*
X137403214Y-67648857D01*
X137403214Y-67791714D01*
X137355595Y-67886952D01*
X137307976Y-67934571D01*
X137212738Y-67982190D01*
X136831785Y-67982190D01*
X159407547Y-68458380D02*
X158931357Y-68458380D01*
X158931357Y-67458380D01*
X159740880Y-68458380D02*
X159740880Y-67458380D01*
X160217071Y-68458380D02*
X160217071Y-67458380D01*
X160788500Y-68458380D01*
X160788500Y-67458380D01*
X161264690Y-67934571D02*
X161598023Y-67934571D01*
X161740880Y-68458380D02*
X161264690Y-68458380D01*
X161264690Y-67458380D01*
X161740880Y-67458380D01*
X162359928Y-67458380D02*
X162550404Y-67458380D01*
X162645642Y-67506000D01*
X162740880Y-67601238D01*
X162788500Y-67791714D01*
X162788500Y-68125047D01*
X162740880Y-68315523D01*
X162645642Y-68410761D01*
X162550404Y-68458380D01*
X162359928Y-68458380D01*
X162264690Y-68410761D01*
X162169452Y-68315523D01*
X162121833Y-68125047D01*
X162121833Y-67791714D01*
X162169452Y-67601238D01*
X162264690Y-67506000D01*
X162359928Y-67458380D01*
X163217071Y-67458380D02*
X163217071Y-68267904D01*
X163264690Y-68363142D01*
X163312309Y-68410761D01*
X163407547Y-68458380D01*
X163598023Y-68458380D01*
X163693261Y-68410761D01*
X163740880Y-68363142D01*
X163788500Y-68267904D01*
X163788500Y-67458380D01*
X164121833Y-67458380D02*
X164693261Y-67458380D01*
X164407547Y-68458380D02*
X164407547Y-67458380D01*
X165598023Y-68458380D02*
X165264690Y-67982190D01*
X165026595Y-68458380D02*
X165026595Y-67458380D01*
X165407547Y-67458380D01*
X165502785Y-67506000D01*
X165550404Y-67553619D01*
X165598023Y-67648857D01*
X165598023Y-67791714D01*
X165550404Y-67886952D01*
X165502785Y-67934571D01*
X165407547Y-67982190D01*
X165026595Y-67982190D01*
X144238095Y-62452380D02*
X144476190Y-63452380D01*
X144666666Y-62738095D01*
X144857142Y-63452380D01*
X145095238Y-62452380D01*
X145476190Y-63452380D02*
X145476190Y-62452380D01*
X145809523Y-63166666D01*
X146142857Y-62452380D01*
X146142857Y-63452380D01*
X146761904Y-62880952D02*
X146666666Y-62833333D01*
X146619047Y-62785714D01*
X146571428Y-62690476D01*
X146571428Y-62642857D01*
X146619047Y-62547619D01*
X146666666Y-62500000D01*
X146761904Y-62452380D01*
X146952380Y-62452380D01*
X147047619Y-62500000D01*
X147095238Y-62547619D01*
X147142857Y-62642857D01*
X147142857Y-62690476D01*
X147095238Y-62785714D01*
X147047619Y-62833333D01*
X146952380Y-62880952D01*
X146761904Y-62880952D01*
X146666666Y-62928571D01*
X146619047Y-62976190D01*
X146571428Y-63071428D01*
X146571428Y-63261904D01*
X146619047Y-63357142D01*
X146666666Y-63404761D01*
X146761904Y-63452380D01*
X146952380Y-63452380D01*
X147047619Y-63404761D01*
X147095238Y-63357142D01*
X147142857Y-63261904D01*
X147142857Y-63071428D01*
X147095238Y-62976190D01*
X147047619Y-62928571D01*
X146952380Y-62880952D01*
X147619047Y-63452380D02*
X147809523Y-63452380D01*
X147904761Y-63404761D01*
X147952380Y-63357142D01*
X148047619Y-63214285D01*
X148095238Y-63023809D01*
X148095238Y-62642857D01*
X148047619Y-62547619D01*
X148000000Y-62500000D01*
X147904761Y-62452380D01*
X147714285Y-62452380D01*
X147619047Y-62500000D01*
X147571428Y-62547619D01*
X147523809Y-62642857D01*
X147523809Y-62880952D01*
X147571428Y-62976190D01*
X147619047Y-63023809D01*
X147714285Y-63071428D01*
X147904761Y-63071428D01*
X148000000Y-63023809D01*
X148047619Y-62976190D01*
X148095238Y-62880952D01*
X148714285Y-62452380D02*
X148809523Y-62452380D01*
X148904761Y-62500000D01*
X148952380Y-62547619D01*
X149000000Y-62642857D01*
X149047619Y-62833333D01*
X149047619Y-63071428D01*
X149000000Y-63261904D01*
X148952380Y-63357142D01*
X148904761Y-63404761D01*
X148809523Y-63452380D01*
X148714285Y-63452380D01*
X148619047Y-63404761D01*
X148571428Y-63357142D01*
X148523809Y-63261904D01*
X148476190Y-63071428D01*
X148476190Y-62833333D01*
X148523809Y-62642857D01*
X148571428Y-62547619D01*
X148619047Y-62500000D01*
X148714285Y-62452380D01*
X149904761Y-62785714D02*
X149904761Y-63452380D01*
X149666666Y-62404761D02*
X149428571Y-63119047D01*
X150047619Y-63119047D01*
X151761904Y-63357142D02*
X151714285Y-63404761D01*
X151571428Y-63452380D01*
X151476190Y-63452380D01*
X151333333Y-63404761D01*
X151238095Y-63309523D01*
X151190476Y-63214285D01*
X151142857Y-63023809D01*
X151142857Y-62880952D01*
X151190476Y-62690476D01*
X151238095Y-62595238D01*
X151333333Y-62500000D01*
X151476190Y-62452380D01*
X151571428Y-62452380D01*
X151714285Y-62500000D01*
X151761904Y-62547619D01*
X152380952Y-62452380D02*
X152571428Y-62452380D01*
X152666666Y-62500000D01*
X152761904Y-62595238D01*
X152809523Y-62785714D01*
X152809523Y-63119047D01*
X152761904Y-63309523D01*
X152666666Y-63404761D01*
X152571428Y-63452380D01*
X152380952Y-63452380D01*
X152285714Y-63404761D01*
X152190476Y-63309523D01*
X152142857Y-63119047D01*
X152142857Y-62785714D01*
X152190476Y-62595238D01*
X152285714Y-62500000D01*
X152380952Y-62452380D01*
X153238095Y-63452380D02*
X153238095Y-62452380D01*
X153476190Y-62452380D01*
X153619047Y-62500000D01*
X153714285Y-62595238D01*
X153761904Y-62690476D01*
X153809523Y-62880952D01*
X153809523Y-63023809D01*
X153761904Y-63214285D01*
X153714285Y-63309523D01*
X153619047Y-63404761D01*
X153476190Y-63452380D01*
X153238095Y-63452380D01*
X154238095Y-62928571D02*
X154571428Y-62928571D01*
X154714285Y-63452380D02*
X154238095Y-63452380D01*
X154238095Y-62452380D01*
X154714285Y-62452380D01*
X155714285Y-63357142D02*
X155666666Y-63404761D01*
X155523809Y-63452380D01*
X155428571Y-63452380D01*
X155285714Y-63404761D01*
X155190476Y-63309523D01*
X155142857Y-63214285D01*
X155095238Y-63023809D01*
X155095238Y-62880952D01*
X155142857Y-62690476D01*
X155190476Y-62595238D01*
X155285714Y-62500000D01*
X155428571Y-62452380D01*
X155523809Y-62452380D01*
X155666666Y-62500000D01*
X155714285Y-62547619D01*
X163169452Y-81120761D02*
X163312309Y-81168380D01*
X163550404Y-81168380D01*
X163645642Y-81120761D01*
X163693261Y-81073142D01*
X163740880Y-80977904D01*
X163740880Y-80882666D01*
X163693261Y-80787428D01*
X163645642Y-80739809D01*
X163550404Y-80692190D01*
X163359928Y-80644571D01*
X163264690Y-80596952D01*
X163217071Y-80549333D01*
X163169452Y-80454095D01*
X163169452Y-80358857D01*
X163217071Y-80263619D01*
X163264690Y-80216000D01*
X163359928Y-80168380D01*
X163598023Y-80168380D01*
X163740880Y-80216000D01*
X164169452Y-81168380D02*
X164169452Y-80168380D01*
X164407547Y-80168380D01*
X164550404Y-80216000D01*
X164645642Y-80311238D01*
X164693261Y-80406476D01*
X164740880Y-80596952D01*
X164740880Y-80739809D01*
X164693261Y-80930285D01*
X164645642Y-81025523D01*
X164550404Y-81120761D01*
X164407547Y-81168380D01*
X164169452Y-81168380D01*
X165121833Y-80882666D02*
X165598023Y-80882666D01*
X165026595Y-81168380D02*
X165359928Y-80168380D01*
X165693261Y-81168380D01*
X160121833Y-73548380D02*
X160121833Y-72548380D01*
X160121833Y-73024571D02*
X160693261Y-73024571D01*
X160693261Y-73548380D02*
X160693261Y-72548380D01*
X161169452Y-73548380D02*
X161169452Y-72548380D01*
X161550404Y-72548380D01*
X161645642Y-72596000D01*
X161693261Y-72643619D01*
X161740880Y-72738857D01*
X161740880Y-72881714D01*
X161693261Y-72976952D01*
X161645642Y-73024571D01*
X161550404Y-73072190D01*
X161169452Y-73072190D01*
X162359928Y-72548380D02*
X162550404Y-72548380D01*
X162645642Y-72596000D01*
X162740880Y-72691238D01*
X162788500Y-72881714D01*
X162788500Y-73215047D01*
X162740880Y-73405523D01*
X162645642Y-73500761D01*
X162550404Y-73548380D01*
X162359928Y-73548380D01*
X162264690Y-73500761D01*
X162169452Y-73405523D01*
X162121833Y-73215047D01*
X162121833Y-72881714D01*
X162169452Y-72691238D01*
X162264690Y-72596000D01*
X162359928Y-72548380D01*
X163217071Y-72548380D02*
X163217071Y-73357904D01*
X163264690Y-73453142D01*
X163312309Y-73500761D01*
X163407547Y-73548380D01*
X163598023Y-73548380D01*
X163693261Y-73500761D01*
X163740880Y-73453142D01*
X163788500Y-73357904D01*
X163788500Y-72548380D01*
X164121833Y-72548380D02*
X164693261Y-72548380D01*
X164407547Y-73548380D02*
X164407547Y-72548380D01*
X165598023Y-73548380D02*
X165264690Y-73072190D01*
X165026595Y-73548380D02*
X165026595Y-72548380D01*
X165407547Y-72548380D01*
X165502785Y-72596000D01*
X165550404Y-72643619D01*
X165598023Y-72738857D01*
X165598023Y-72881714D01*
X165550404Y-72976952D01*
X165502785Y-73024571D01*
X165407547Y-73072190D01*
X165026595Y-73072190D01*
X159598023Y-71008380D02*
X159121833Y-71008380D01*
X159121833Y-70008380D01*
X159931357Y-71008380D02*
X159931357Y-70008380D01*
X160407547Y-71008380D02*
X160407547Y-70008380D01*
X160978976Y-71008380D01*
X160978976Y-70008380D01*
X161455166Y-70484571D02*
X161788500Y-70484571D01*
X161931357Y-71008380D02*
X161455166Y-71008380D01*
X161455166Y-70008380D01*
X161931357Y-70008380D01*
X162550404Y-70008380D02*
X162740880Y-70008380D01*
X162836119Y-70056000D01*
X162931357Y-70151238D01*
X162978976Y-70341714D01*
X162978976Y-70675047D01*
X162931357Y-70865523D01*
X162836119Y-70960761D01*
X162740880Y-71008380D01*
X162550404Y-71008380D01*
X162455166Y-70960761D01*
X162359928Y-70865523D01*
X162312309Y-70675047D01*
X162312309Y-70341714D01*
X162359928Y-70151238D01*
X162455166Y-70056000D01*
X162550404Y-70008380D01*
X163407547Y-70008380D02*
X163407547Y-70817904D01*
X163455166Y-70913142D01*
X163502785Y-70960761D01*
X163598023Y-71008380D01*
X163788500Y-71008380D01*
X163883738Y-70960761D01*
X163931357Y-70913142D01*
X163978976Y-70817904D01*
X163978976Y-70008380D01*
X164312309Y-70008380D02*
X164883738Y-70008380D01*
X164598023Y-71008380D02*
X164598023Y-70008380D01*
X165693261Y-71008380D02*
X165217071Y-71008380D01*
X165217071Y-70008380D01*
X163502785Y-90376000D02*
X163407547Y-90328380D01*
X163264690Y-90328380D01*
X163121833Y-90376000D01*
X163026595Y-90471238D01*
X162978976Y-90566476D01*
X162931357Y-90756952D01*
X162931357Y-90899809D01*
X162978976Y-91090285D01*
X163026595Y-91185523D01*
X163121833Y-91280761D01*
X163264690Y-91328380D01*
X163359928Y-91328380D01*
X163502785Y-91280761D01*
X163550404Y-91233142D01*
X163550404Y-90899809D01*
X163359928Y-90899809D01*
X163978976Y-91328380D02*
X163978976Y-90328380D01*
X164550404Y-91328380D01*
X164550404Y-90328380D01*
X165026595Y-91328380D02*
X165026595Y-90328380D01*
X165264690Y-90328380D01*
X165407547Y-90376000D01*
X165502785Y-90471238D01*
X165550404Y-90566476D01*
X165598023Y-90756952D01*
X165598023Y-90899809D01*
X165550404Y-91090285D01*
X165502785Y-91185523D01*
X165407547Y-91280761D01*
X165264690Y-91328380D01*
X165026595Y-91328380D01*
X143000000Y-88052380D02*
X143000000Y-87052380D01*
X143476190Y-88052380D02*
X143476190Y-87052380D01*
X144047619Y-88052380D01*
X144047619Y-87052380D01*
X144476190Y-87147619D02*
X144523809Y-87100000D01*
X144619047Y-87052380D01*
X144857142Y-87052380D01*
X144952380Y-87100000D01*
X145000000Y-87147619D01*
X145047619Y-87242857D01*
X145047619Y-87338095D01*
X145000000Y-87480952D01*
X144428571Y-88052380D01*
X145047619Y-88052380D01*
D11*
X148980000Y-68046359D02*
X148980000Y-68353641D01*
X148220000Y-68046359D02*
X148220000Y-68353641D01*
X153492164Y-71640000D02*
X153707836Y-71640000D01*
X153492164Y-72360000D02*
X153707836Y-72360000D01*
X130890000Y-69266000D02*
X133550000Y-69266000D01*
X130890000Y-97266000D02*
X133550000Y-97266000D01*
X130890000Y-69266000D02*
X130890000Y-97266000D01*
X132220000Y-66666000D02*
X133550000Y-66666000D01*
X133550000Y-66666000D02*
X133550000Y-67996000D01*
X133550000Y-69266000D02*
X133550000Y-97266000D01*
X147440000Y-77607836D02*
X147440000Y-77392164D01*
X148160000Y-77607836D02*
X148160000Y-77392164D01*
X144153641Y-71820000D02*
X143846359Y-71820000D01*
X144153641Y-72580000D02*
X143846359Y-72580000D01*
X152242164Y-76560000D02*
X152457836Y-76560000D01*
X152242164Y-75840000D02*
X152457836Y-75840000D01*
X155307836Y-77360000D02*
X155092164Y-77360000D01*
X155307836Y-76640000D02*
X155092164Y-76640000D01*
X159000000Y-88600000D02*
X159000000Y-89600000D01*
X158500000Y-101600000D02*
X158500000Y-102600000D01*
X159000000Y-99900000D02*
X158000000Y-99900000D01*
X153000000Y-98900000D02*
X153000000Y-99900000D01*
X158000000Y-88600000D02*
X159000000Y-88600000D01*
X153000000Y-88600000D02*
X154000000Y-88600000D01*
X158500000Y-102600000D02*
X157500000Y-102600000D01*
X153000000Y-89600000D02*
X153000000Y-88600000D01*
X153000000Y-99900000D02*
X154000000Y-99900000D01*
X153500000Y-101600000D02*
X153500000Y-102600000D01*
X153500000Y-102600000D02*
X154500000Y-102600000D01*
X159000000Y-98900000D02*
X159000000Y-99900000D01*
X149240000Y-68092164D02*
X149240000Y-68307836D01*
X149960000Y-68092164D02*
X149960000Y-68307836D01*
X151160000Y-77392164D02*
X151160000Y-77607836D01*
X150440000Y-77392164D02*
X150440000Y-77607836D01*
X155962534Y-71775790D02*
X156437050Y-71775790D01*
X155962534Y-72820790D02*
X156437050Y-72820790D01*
X147160000Y-68092164D02*
X147160000Y-68307836D01*
X146440000Y-68092164D02*
X146440000Y-68307836D01*
X149440000Y-77607836D02*
X149440000Y-77392164D01*
X150160000Y-77607836D02*
X150160000Y-77392164D01*
X166450000Y-97266000D02*
X169110000Y-97266000D01*
X167780000Y-66666000D02*
X169110000Y-66666000D01*
X169110000Y-66666000D02*
X169110000Y-67996000D01*
X166450000Y-69266000D02*
X166450000Y-97266000D01*
X166450000Y-69266000D02*
X169110000Y-69266000D01*
X169110000Y-69266000D02*
X169110000Y-97266000D01*
X152150000Y-75350000D02*
X151800000Y-75350000D01*
X147850000Y-71050000D02*
X148200000Y-71050000D01*
X152150000Y-71400000D02*
X152150000Y-71050000D01*
X147850000Y-71400000D02*
X147850000Y-71050000D01*
X147850000Y-75000000D02*
X147850000Y-75400000D01*
X152150000Y-75000000D02*
X152150000Y-75350000D01*
X152150000Y-71050000D02*
X151800000Y-71050000D01*
X155092164Y-74640000D02*
X155307836Y-74640000D01*
X155092164Y-75360000D02*
X155307836Y-75360000D01*
X151910000Y-85810000D02*
X151910000Y-84550000D01*
X145900000Y-78990000D02*
X151910000Y-78990000D01*
X151910000Y-78990000D02*
X151910000Y-80250000D01*
X148150000Y-85810000D02*
X151910000Y-85810000D01*
X145160000Y-68092164D02*
X145160000Y-68307836D01*
X144440000Y-68092164D02*
X144440000Y-68307836D01*
X145972164Y-71840000D02*
X146187836Y-71840000D01*
X145972164Y-72560000D02*
X146187836Y-72560000D01*
X153587742Y-68722500D02*
X154062258Y-68722500D01*
X153587742Y-67677500D02*
X154062258Y-67677500D01*
X150960000Y-68092164D02*
X150960000Y-68307836D01*
X150240000Y-68092164D02*
X150240000Y-68307836D01*
X146160000Y-68092164D02*
X146160000Y-68307836D01*
X145440000Y-68092164D02*
X145440000Y-68307836D01*
X156477500Y-75762742D02*
X156477500Y-76237258D01*
X157522500Y-75762742D02*
X157522500Y-76237258D01*
X141500000Y-102600000D02*
X142500000Y-102600000D01*
X141000000Y-88600000D02*
X142000000Y-88600000D01*
X147000000Y-98900000D02*
X147000000Y-99900000D01*
X147000000Y-99900000D02*
X146000000Y-99900000D01*
X141000000Y-99900000D02*
X142000000Y-99900000D01*
X146500000Y-101600000D02*
X146500000Y-102600000D01*
X146500000Y-102600000D02*
X145500000Y-102600000D01*
X147000000Y-88600000D02*
X147000000Y-89600000D01*
X141000000Y-89600000D02*
X141000000Y-88600000D01*
X141500000Y-101600000D02*
X141500000Y-102600000D01*
X141000000Y-98900000D02*
X141000000Y-99900000D01*
X146000000Y-88600000D02*
X147000000Y-88600000D01*
X155962534Y-70175790D02*
X156437050Y-70175790D01*
X155962534Y-71220790D02*
X156437050Y-71220790D01*
X155307836Y-75640000D02*
X155092164Y-75640000D01*
X155307836Y-76360000D02*
X155092164Y-76360000D01*
X153492164Y-70640000D02*
X153707836Y-70640000D01*
X153492164Y-71360000D02*
X153707836Y-71360000D01*
X151985000Y-68307836D02*
X151985000Y-68092164D01*
X151265000Y-68307836D02*
X151265000Y-68092164D01*
%LPC*%
D12*
X148600000Y-67690000D03*
X148600000Y-68710000D03*
D13*
X153120000Y-72000000D03*
X154080000Y-72000000D03*
D14*
X132220000Y-67996000D03*
D15*
X132220000Y-70536000D03*
X132220000Y-73076000D03*
X132220000Y-75616000D03*
X132220000Y-78156000D03*
X132220000Y-80696000D03*
X132220000Y-83236000D03*
X132220000Y-85776000D03*
X132220000Y-88316000D03*
X132220000Y-90856000D03*
X132220000Y-93396000D03*
X132220000Y-95936000D03*
D16*
X167000000Y-63000000D03*
D17*
X147800000Y-77980000D03*
X147800000Y-77020000D03*
D18*
X144510000Y-72200000D03*
X143490000Y-72200000D03*
D13*
X151870000Y-76200000D03*
X152830000Y-76200000D03*
D19*
X155680000Y-77000000D03*
X154720000Y-77000000D03*
D16*
X133000000Y-63000000D03*
D20*
X152250000Y-95800000D03*
X159750000Y-97800000D03*
X159750000Y-90800000D03*
D21*
X149600000Y-67720000D03*
X149600000Y-68680000D03*
X150800000Y-77020000D03*
X150800000Y-77980000D03*
D22*
X155374792Y-72298290D03*
X157024792Y-72298290D03*
D21*
X146800000Y-67720000D03*
X146800000Y-68680000D03*
D17*
X149800000Y-77980000D03*
X149800000Y-77020000D03*
D14*
X167780000Y-67996000D03*
D15*
X167780000Y-70536000D03*
X167780000Y-73076000D03*
X167780000Y-75616000D03*
X167780000Y-78156000D03*
X167780000Y-80696000D03*
X167780000Y-83236000D03*
X167780000Y-85776000D03*
X167780000Y-88316000D03*
X167780000Y-90856000D03*
X167780000Y-93396000D03*
X167780000Y-95936000D03*
D23*
X148600000Y-75000000D03*
X149000000Y-75000000D03*
X149400000Y-75000000D03*
X149800000Y-75000000D03*
X150200000Y-75000000D03*
X150600000Y-75000000D03*
X151000000Y-75000000D03*
X151400000Y-75000000D03*
D24*
X151800000Y-74600000D03*
X151800000Y-74200000D03*
X151800000Y-73800000D03*
X151800000Y-73400000D03*
X151800000Y-73000000D03*
X151800000Y-72600000D03*
X151800000Y-72200000D03*
X151800000Y-71800000D03*
D23*
X151400000Y-71400000D03*
X151000000Y-71400000D03*
X150600000Y-71400000D03*
X150200000Y-71400000D03*
X149800000Y-71400000D03*
X149400000Y-71400000D03*
X149000000Y-71400000D03*
X148600000Y-71400000D03*
D24*
X148200000Y-71800000D03*
X148200000Y-72200000D03*
X148200000Y-72600000D03*
X148200000Y-73000000D03*
X148200000Y-73400000D03*
X148200000Y-73800000D03*
X148200000Y-74200000D03*
X148200000Y-74600000D03*
D25*
X150000000Y-73200000D03*
D13*
X154720000Y-75000000D03*
X155680000Y-75000000D03*
D26*
X146850000Y-80100000D03*
X146850000Y-82400000D03*
D27*
X153150000Y-82400000D03*
D26*
X146850000Y-84700000D03*
D21*
X144800000Y-67720000D03*
X144800000Y-68680000D03*
D13*
X145600000Y-72200000D03*
X146560000Y-72200000D03*
D22*
X153000000Y-68200000D03*
X154650000Y-68200000D03*
D21*
X150600000Y-67720000D03*
X150600000Y-68680000D03*
X145800000Y-67720000D03*
X145800000Y-68680000D03*
D28*
X157000000Y-75175000D03*
X157000000Y-76825000D03*
D20*
X140250000Y-95800000D03*
X147750000Y-97800000D03*
X147750000Y-90800000D03*
D22*
X155374792Y-70698290D03*
X157024792Y-70698290D03*
D19*
X155680000Y-76000000D03*
X154720000Y-76000000D03*
D13*
X153120000Y-71000000D03*
X154080000Y-71000000D03*
D17*
X151625000Y-68680000D03*
X151625000Y-67720000D03*
M02*
