%TF.GenerationSoftware,KiCad,Pcbnew,(6.0.0-0)*%
%TF.CreationDate,2022-11-28T12:15:48+01:00*%
%TF.ProjectId,wm8904_codec_breakout,776d3839-3034-45f6-936f-6465635f6272,rev?*%
%TF.SameCoordinates,Original*%
%TF.FileFunction,Legend,Bot*%
%TF.FilePolarity,Positive*%
%FSLAX46Y46*%
G04 Gerber Fmt 4.6, Leading zero omitted, Abs format (unit mm)*
G04 Created by KiCad (PCBNEW (6.0.0-0)) date 2022-11-28 12:15:48*
%MOMM*%
%LPD*%
G01*
G04 APERTURE LIST*
%ADD10C,0.150000*%
%ADD11R,1.700000X1.700000*%
%ADD12O,1.700000X1.700000*%
%ADD13C,2.500000*%
G04 APERTURE END LIST*
D10*
X150809523Y-74652380D02*
X150476190Y-75652380D01*
X150142857Y-74652380D01*
X149857142Y-74747619D02*
X149809523Y-74700000D01*
X149714285Y-74652380D01*
X149476190Y-74652380D01*
X149380952Y-74700000D01*
X149333333Y-74747619D01*
X149285714Y-74842857D01*
X149285714Y-74938095D01*
X149333333Y-75080952D01*
X149904761Y-75652380D01*
X149285714Y-75652380D01*
%LPC*%
D11*
X132220000Y-67996000D03*
D12*
X132220000Y-70536000D03*
X132220000Y-73076000D03*
X132220000Y-75616000D03*
X132220000Y-78156000D03*
X132220000Y-80696000D03*
X132220000Y-83236000D03*
X132220000Y-85776000D03*
X132220000Y-88316000D03*
X132220000Y-90856000D03*
X132220000Y-93396000D03*
X132220000Y-95936000D03*
D13*
X167000000Y-63000000D03*
X133000000Y-63000000D03*
D11*
X167780000Y-67996000D03*
D12*
X167780000Y-70536000D03*
X167780000Y-73076000D03*
X167780000Y-75616000D03*
X167780000Y-78156000D03*
X167780000Y-80696000D03*
X167780000Y-83236000D03*
X167780000Y-85776000D03*
X167780000Y-88316000D03*
X167780000Y-90856000D03*
X167780000Y-93396000D03*
X167780000Y-95936000D03*
M02*
