%TF.GenerationSoftware,KiCad,Pcbnew,(6.0.0-0)*%
%TF.CreationDate,2022-11-28T12:15:47+01:00*%
%TF.ProjectId,wm8904_codec_breakout,776d3839-3034-45f6-936f-6465635f6272,rev?*%
%TF.SameCoordinates,Original*%
%TF.FileFunction,Copper,L2,Bot*%
%TF.FilePolarity,Positive*%
%FSLAX46Y46*%
G04 Gerber Fmt 4.6, Leading zero omitted, Abs format (unit mm)*
G04 Created by KiCad (PCBNEW (6.0.0-0)) date 2022-11-28 12:15:47*
%MOMM*%
%LPD*%
G01*
G04 APERTURE LIST*
%TA.AperFunction,ComponentPad*%
%ADD10R,1.700000X1.700000*%
%TD*%
%TA.AperFunction,ComponentPad*%
%ADD11O,1.700000X1.700000*%
%TD*%
%TA.AperFunction,ViaPad*%
%ADD12C,0.800000*%
%TD*%
%TA.AperFunction,Conductor*%
%ADD13C,0.200000*%
%TD*%
G04 APERTURE END LIST*
D10*
X132220000Y-67996000D03*
D11*
X132220000Y-70536000D03*
X132220000Y-73076000D03*
X132220000Y-75616000D03*
X132220000Y-78156000D03*
X132220000Y-80696000D03*
X132220000Y-83236000D03*
X132220000Y-85776000D03*
X132220000Y-88316000D03*
X132220000Y-90856000D03*
X132220000Y-93396000D03*
X132220000Y-95936000D03*
D10*
X167780000Y-67996000D03*
D11*
X167780000Y-70536000D03*
X167780000Y-73076000D03*
X167780000Y-75616000D03*
X167780000Y-78156000D03*
X167780000Y-80696000D03*
X167780000Y-83236000D03*
X167780000Y-85776000D03*
X167780000Y-88316000D03*
X167780000Y-90856000D03*
X167780000Y-93396000D03*
X167780000Y-95936000D03*
D12*
X150393061Y-76179485D03*
X152886843Y-70096391D03*
X152112138Y-75208057D03*
X154710128Y-74000628D03*
X150600000Y-67000000D03*
X158200000Y-76800000D03*
X147800000Y-78800000D03*
X147800000Y-96200000D03*
X149021201Y-70136395D03*
X149600000Y-67000000D03*
X159800000Y-96200000D03*
X150600000Y-78600000D03*
X145800000Y-67200000D03*
X155800000Y-78000000D03*
X155600000Y-68200000D03*
X158500000Y-71700000D03*
X148800000Y-80200000D03*
X143400000Y-71235500D03*
X147709500Y-67000000D03*
X147800000Y-70200000D03*
X151800000Y-78000000D03*
X148000000Y-76200000D03*
X160100000Y-83700000D03*
X158100000Y-83700000D03*
X144600000Y-73800000D03*
X144600000Y-86400000D03*
X140200000Y-87000000D03*
X140200000Y-69600000D03*
D13*
X147709500Y-67090500D02*
X143564500Y-71235500D01*
X147709500Y-67000000D02*
X147709500Y-67090500D01*
X150800000Y-77000000D02*
X148800000Y-77000000D01*
X148800000Y-77000000D02*
X148000000Y-76200000D01*
X148000000Y-76200000D02*
X148000000Y-70400000D01*
X151800000Y-78000000D02*
X150800000Y-77000000D01*
X148000000Y-70400000D02*
X147800000Y-70200000D01*
X160100000Y-83296000D02*
X160100000Y-83700000D01*
X167780000Y-75616000D02*
X160100000Y-83296000D01*
X167780000Y-73076000D02*
X158100000Y-82756000D01*
X158100000Y-82756000D02*
X158100000Y-83700000D01*
X144600000Y-86400000D02*
X144600000Y-73800000D01*
X140200000Y-87000000D02*
X140200000Y-69600000D01*
%TA.AperFunction,Conductor*%
G36*
X166970057Y-60509500D02*
G01*
X166984858Y-60511805D01*
X166984861Y-60511805D01*
X166993730Y-60513186D01*
X167010899Y-60510941D01*
X167034839Y-60510108D01*
X167292770Y-60525710D01*
X167307874Y-60527544D01*
X167378648Y-60540514D01*
X167588879Y-60579040D01*
X167603641Y-60582678D01*
X167876408Y-60667675D01*
X167890627Y-60673069D01*
X168151140Y-60790316D01*
X168164609Y-60797385D01*
X168409095Y-60945182D01*
X168421617Y-60953825D01*
X168646507Y-61130016D01*
X168657895Y-61140106D01*
X168859894Y-61342105D01*
X168869984Y-61353493D01*
X169046175Y-61578383D01*
X169054818Y-61590905D01*
X169202615Y-61835391D01*
X169209684Y-61848860D01*
X169228306Y-61890237D01*
X169326930Y-62109370D01*
X169332325Y-62123592D01*
X169411658Y-62378179D01*
X169417321Y-62396353D01*
X169420962Y-62411127D01*
X169472456Y-62692126D01*
X169474290Y-62707230D01*
X169489455Y-62957929D01*
X169488198Y-62984639D01*
X169488195Y-62984859D01*
X169486814Y-62993730D01*
X169487978Y-63002632D01*
X169487978Y-63002635D01*
X169490936Y-63025251D01*
X169492000Y-63041589D01*
X169492000Y-96950672D01*
X169490500Y-96970056D01*
X169486814Y-96993730D01*
X169488454Y-97006270D01*
X169489059Y-97010897D01*
X169489892Y-97034839D01*
X169474290Y-97292770D01*
X169472456Y-97307874D01*
X169423619Y-97574376D01*
X169420962Y-97588873D01*
X169417322Y-97603641D01*
X169339143Y-97854528D01*
X169332326Y-97876404D01*
X169326931Y-97890627D01*
X169248345Y-98065240D01*
X169209686Y-98151136D01*
X169202615Y-98164609D01*
X169054818Y-98409095D01*
X169046175Y-98421617D01*
X168869984Y-98646507D01*
X168859894Y-98657895D01*
X168657895Y-98859894D01*
X168646507Y-98869984D01*
X168421617Y-99046175D01*
X168409095Y-99054818D01*
X168164609Y-99202615D01*
X168151140Y-99209684D01*
X167890630Y-99326930D01*
X167876408Y-99332325D01*
X167603641Y-99417322D01*
X167588879Y-99420960D01*
X167378648Y-99459486D01*
X167307874Y-99472456D01*
X167292770Y-99474290D01*
X167042071Y-99489455D01*
X167015361Y-99488198D01*
X167015141Y-99488195D01*
X167006270Y-99486814D01*
X166997368Y-99487978D01*
X166997365Y-99487978D01*
X166974749Y-99490936D01*
X166958411Y-99492000D01*
X133049328Y-99492000D01*
X133029943Y-99490500D01*
X133015142Y-99488195D01*
X133015139Y-99488195D01*
X133006270Y-99486814D01*
X132989101Y-99489059D01*
X132965161Y-99489892D01*
X132707230Y-99474290D01*
X132692126Y-99472456D01*
X132621352Y-99459486D01*
X132411121Y-99420960D01*
X132396359Y-99417322D01*
X132123592Y-99332325D01*
X132109370Y-99326930D01*
X131848860Y-99209684D01*
X131835391Y-99202615D01*
X131590905Y-99054818D01*
X131578383Y-99046175D01*
X131353493Y-98869984D01*
X131342105Y-98859894D01*
X131140106Y-98657895D01*
X131130016Y-98646507D01*
X130953825Y-98421617D01*
X130945182Y-98409095D01*
X130797385Y-98164609D01*
X130790314Y-98151136D01*
X130751656Y-98065240D01*
X130673069Y-97890627D01*
X130667674Y-97876404D01*
X130660857Y-97854528D01*
X130634789Y-97770872D01*
X142887634Y-97770872D01*
X142889543Y-97800000D01*
X142900953Y-97974072D01*
X142951079Y-98171443D01*
X143036333Y-98356373D01*
X143153861Y-98522671D01*
X143157995Y-98526698D01*
X143287135Y-98652501D01*
X143299726Y-98664767D01*
X143304522Y-98667972D01*
X143304525Y-98667974D01*
X143372440Y-98713353D01*
X143469043Y-98777901D01*
X143474346Y-98780179D01*
X143474349Y-98780181D01*
X143558989Y-98816545D01*
X143656142Y-98858285D01*
X143729609Y-98874909D01*
X143849120Y-98901952D01*
X143849126Y-98901953D01*
X143854757Y-98903227D01*
X143860528Y-98903454D01*
X143860530Y-98903454D01*
X143921504Y-98905850D01*
X144058237Y-98911222D01*
X144160388Y-98896411D01*
X144254045Y-98882832D01*
X144254050Y-98882831D01*
X144259766Y-98882002D01*
X144265238Y-98880144D01*
X144265240Y-98880144D01*
X144447131Y-98818400D01*
X144447133Y-98818399D01*
X144452595Y-98816545D01*
X144630267Y-98717044D01*
X144786831Y-98586831D01*
X144917044Y-98430267D01*
X145016545Y-98252595D01*
X145042312Y-98176690D01*
X145080144Y-98065240D01*
X145080144Y-98065238D01*
X145082002Y-98059766D01*
X145082831Y-98054050D01*
X145082832Y-98054045D01*
X145106525Y-97890630D01*
X145111222Y-97858237D01*
X145112747Y-97800000D01*
X145110071Y-97770872D01*
X154887634Y-97770872D01*
X154889543Y-97800000D01*
X154900953Y-97974072D01*
X154951079Y-98171443D01*
X155036333Y-98356373D01*
X155153861Y-98522671D01*
X155157995Y-98526698D01*
X155287135Y-98652501D01*
X155299726Y-98664767D01*
X155304522Y-98667972D01*
X155304525Y-98667974D01*
X155372440Y-98713353D01*
X155469043Y-98777901D01*
X155474346Y-98780179D01*
X155474349Y-98780181D01*
X155558989Y-98816545D01*
X155656142Y-98858285D01*
X155729609Y-98874909D01*
X155849120Y-98901952D01*
X155849126Y-98901953D01*
X155854757Y-98903227D01*
X155860528Y-98903454D01*
X155860530Y-98903454D01*
X155921504Y-98905850D01*
X156058237Y-98911222D01*
X156160388Y-98896411D01*
X156254045Y-98882832D01*
X156254050Y-98882831D01*
X156259766Y-98882002D01*
X156265238Y-98880144D01*
X156265240Y-98880144D01*
X156447131Y-98818400D01*
X156447133Y-98818399D01*
X156452595Y-98816545D01*
X156630267Y-98717044D01*
X156786831Y-98586831D01*
X156917044Y-98430267D01*
X157016545Y-98252595D01*
X157042312Y-98176690D01*
X157080144Y-98065240D01*
X157080144Y-98065238D01*
X157082002Y-98059766D01*
X157082831Y-98054050D01*
X157082832Y-98054045D01*
X157106525Y-97890630D01*
X157111222Y-97858237D01*
X157112747Y-97800000D01*
X157094114Y-97597218D01*
X157091761Y-97588873D01*
X157040408Y-97406791D01*
X157038839Y-97401227D01*
X156948773Y-97218591D01*
X156939865Y-97206661D01*
X156830385Y-97060051D01*
X156826932Y-97055427D01*
X156677397Y-96917198D01*
X156505177Y-96808535D01*
X156316037Y-96733076D01*
X156310377Y-96731950D01*
X156310373Y-96731949D01*
X156121982Y-96694476D01*
X156121977Y-96694476D01*
X156116314Y-96693349D01*
X156110539Y-96693273D01*
X156110535Y-96693273D01*
X156008527Y-96691938D01*
X155912695Y-96690683D01*
X155906998Y-96691662D01*
X155906997Y-96691662D01*
X155890621Y-96694476D01*
X155712000Y-96725169D01*
X155520950Y-96795651D01*
X155515989Y-96798603D01*
X155515988Y-96798603D01*
X155350912Y-96896813D01*
X155350909Y-96896815D01*
X155345944Y-96899769D01*
X155192842Y-97034036D01*
X155189267Y-97038571D01*
X155189266Y-97038572D01*
X155175979Y-97055427D01*
X155066772Y-97193955D01*
X155064083Y-97199066D01*
X155064081Y-97199069D01*
X155026556Y-97270393D01*
X154971956Y-97374170D01*
X154970242Y-97379691D01*
X154970240Y-97379695D01*
X154961827Y-97406791D01*
X154911569Y-97568647D01*
X154887634Y-97770872D01*
X145110071Y-97770872D01*
X145094114Y-97597218D01*
X145091761Y-97588873D01*
X145040408Y-97406791D01*
X145038839Y-97401227D01*
X144948773Y-97218591D01*
X144939865Y-97206661D01*
X144830385Y-97060051D01*
X144826932Y-97055427D01*
X144677397Y-96917198D01*
X144505177Y-96808535D01*
X144316037Y-96733076D01*
X144310377Y-96731950D01*
X144310373Y-96731949D01*
X144121982Y-96694476D01*
X144121977Y-96694476D01*
X144116314Y-96693349D01*
X144110539Y-96693273D01*
X144110535Y-96693273D01*
X144008527Y-96691938D01*
X143912695Y-96690683D01*
X143906998Y-96691662D01*
X143906997Y-96691662D01*
X143890621Y-96694476D01*
X143712000Y-96725169D01*
X143520950Y-96795651D01*
X143515989Y-96798603D01*
X143515988Y-96798603D01*
X143350912Y-96896813D01*
X143350909Y-96896815D01*
X143345944Y-96899769D01*
X143192842Y-97034036D01*
X143189267Y-97038571D01*
X143189266Y-97038572D01*
X143175979Y-97055427D01*
X143066772Y-97193955D01*
X143064083Y-97199066D01*
X143064081Y-97199069D01*
X143026556Y-97270393D01*
X142971956Y-97374170D01*
X142970242Y-97379691D01*
X142970240Y-97379695D01*
X142961827Y-97406791D01*
X142911569Y-97568647D01*
X142887634Y-97770872D01*
X130634789Y-97770872D01*
X130582678Y-97603641D01*
X130579038Y-97588873D01*
X130576382Y-97574376D01*
X130527544Y-97307874D01*
X130525710Y-97292770D01*
X130510545Y-97042071D01*
X130511802Y-97015361D01*
X130511805Y-97015141D01*
X130513186Y-97006270D01*
X130511547Y-96993730D01*
X130509064Y-96974749D01*
X130508000Y-96958411D01*
X130508000Y-95902695D01*
X130857251Y-95902695D01*
X130857548Y-95907848D01*
X130857548Y-95907851D01*
X130863011Y-96002590D01*
X130870110Y-96125715D01*
X130871247Y-96130761D01*
X130871248Y-96130767D01*
X130885449Y-96193778D01*
X130919222Y-96343639D01*
X131003266Y-96550616D01*
X131005965Y-96555020D01*
X131116389Y-96735216D01*
X131119987Y-96741088D01*
X131266250Y-96909938D01*
X131438126Y-97052632D01*
X131631000Y-97165338D01*
X131839692Y-97245030D01*
X131844760Y-97246061D01*
X131844763Y-97246062D01*
X131939862Y-97265410D01*
X132058597Y-97289567D01*
X132063772Y-97289757D01*
X132063774Y-97289757D01*
X132276673Y-97297564D01*
X132276677Y-97297564D01*
X132281837Y-97297753D01*
X132286957Y-97297097D01*
X132286959Y-97297097D01*
X132498288Y-97270025D01*
X132498289Y-97270025D01*
X132503416Y-97269368D01*
X132508366Y-97267883D01*
X132712429Y-97206661D01*
X132712434Y-97206659D01*
X132717384Y-97205174D01*
X132917994Y-97106896D01*
X133099860Y-96977173D01*
X133258096Y-96819489D01*
X133317594Y-96736689D01*
X133385435Y-96642277D01*
X133388453Y-96638077D01*
X133487430Y-96437811D01*
X133552370Y-96224069D01*
X133555017Y-96203966D01*
X166448257Y-96203966D01*
X166478565Y-96338446D01*
X166481645Y-96348275D01*
X166561770Y-96545603D01*
X166566413Y-96554794D01*
X166677694Y-96736388D01*
X166683777Y-96744699D01*
X166823213Y-96905667D01*
X166830580Y-96912883D01*
X166994434Y-97048916D01*
X167002881Y-97054831D01*
X167186756Y-97162279D01*
X167196042Y-97166729D01*
X167395001Y-97242703D01*
X167404899Y-97245579D01*
X167508250Y-97266606D01*
X167522299Y-97265410D01*
X167526000Y-97255065D01*
X167526000Y-97254517D01*
X168034000Y-97254517D01*
X168038064Y-97268359D01*
X168051478Y-97270393D01*
X168058184Y-97269534D01*
X168068262Y-97267392D01*
X168272255Y-97206191D01*
X168281842Y-97202433D01*
X168473095Y-97108739D01*
X168481945Y-97103464D01*
X168655328Y-96979792D01*
X168663200Y-96973139D01*
X168814052Y-96822812D01*
X168820730Y-96814965D01*
X168945003Y-96642020D01*
X168950313Y-96633183D01*
X169044670Y-96442267D01*
X169048469Y-96432672D01*
X169110377Y-96228910D01*
X169112555Y-96218837D01*
X169113986Y-96207962D01*
X169111775Y-96193778D01*
X169098617Y-96190000D01*
X168052115Y-96190000D01*
X168036876Y-96194475D01*
X168035671Y-96195865D01*
X168034000Y-96203548D01*
X168034000Y-97254517D01*
X167526000Y-97254517D01*
X167526000Y-96208115D01*
X167521525Y-96192876D01*
X167520135Y-96191671D01*
X167512452Y-96190000D01*
X166463225Y-96190000D01*
X166449694Y-96193973D01*
X166448257Y-96203966D01*
X133555017Y-96203966D01*
X133581529Y-96002590D01*
X133583156Y-95936000D01*
X133564852Y-95713361D01*
X133554006Y-95670183D01*
X166444389Y-95670183D01*
X166445912Y-95678607D01*
X166458292Y-95682000D01*
X167507885Y-95682000D01*
X167523124Y-95677525D01*
X167524329Y-95676135D01*
X167526000Y-95668452D01*
X167526000Y-95663885D01*
X168034000Y-95663885D01*
X168038475Y-95679124D01*
X168039865Y-95680329D01*
X168047548Y-95682000D01*
X169098344Y-95682000D01*
X169111875Y-95678027D01*
X169113180Y-95668947D01*
X169071214Y-95501875D01*
X169067894Y-95492124D01*
X168982972Y-95296814D01*
X168978105Y-95287739D01*
X168862426Y-95108926D01*
X168856136Y-95100757D01*
X168712806Y-94943240D01*
X168705273Y-94936215D01*
X168538139Y-94804222D01*
X168529552Y-94798517D01*
X168492116Y-94777851D01*
X168442146Y-94727419D01*
X168427374Y-94657976D01*
X168452490Y-94591571D01*
X168479842Y-94564964D01*
X168655327Y-94439792D01*
X168663200Y-94433139D01*
X168814052Y-94282812D01*
X168820730Y-94274965D01*
X168945003Y-94102020D01*
X168950313Y-94093183D01*
X169044670Y-93902267D01*
X169048469Y-93892672D01*
X169110377Y-93688910D01*
X169112555Y-93678837D01*
X169113986Y-93667962D01*
X169111775Y-93653778D01*
X169098617Y-93650000D01*
X168052115Y-93650000D01*
X168036876Y-93654475D01*
X168035671Y-93655865D01*
X168034000Y-93663548D01*
X168034000Y-95663885D01*
X167526000Y-95663885D01*
X167526000Y-93668115D01*
X167521525Y-93652876D01*
X167520135Y-93651671D01*
X167512452Y-93650000D01*
X166463225Y-93650000D01*
X166449694Y-93653973D01*
X166448257Y-93663966D01*
X166478565Y-93798446D01*
X166481645Y-93808275D01*
X166561770Y-94005603D01*
X166566413Y-94014794D01*
X166677694Y-94196388D01*
X166683777Y-94204699D01*
X166823213Y-94365667D01*
X166830580Y-94372883D01*
X166994434Y-94508916D01*
X167002881Y-94514831D01*
X167072479Y-94555501D01*
X167121203Y-94607140D01*
X167134274Y-94676923D01*
X167107543Y-94742694D01*
X167067087Y-94776053D01*
X167058462Y-94780542D01*
X167049738Y-94786036D01*
X166879433Y-94913905D01*
X166871726Y-94920748D01*
X166724590Y-95074717D01*
X166718104Y-95082727D01*
X166598098Y-95258649D01*
X166593000Y-95267623D01*
X166503338Y-95460783D01*
X166499775Y-95470470D01*
X166444389Y-95670183D01*
X133554006Y-95670183D01*
X133510431Y-95496702D01*
X133421354Y-95291840D01*
X133300014Y-95104277D01*
X133149670Y-94939051D01*
X133145619Y-94935852D01*
X133145615Y-94935848D01*
X132978414Y-94803800D01*
X132978410Y-94803798D01*
X132974359Y-94800598D01*
X132933053Y-94777796D01*
X132883084Y-94727364D01*
X132868312Y-94657921D01*
X132893428Y-94591516D01*
X132920780Y-94564909D01*
X132964603Y-94533650D01*
X133099860Y-94437173D01*
X133258096Y-94279489D01*
X133317594Y-94196689D01*
X133385435Y-94102277D01*
X133388453Y-94098077D01*
X133487430Y-93897811D01*
X133552370Y-93684069D01*
X133581529Y-93462590D01*
X133583156Y-93396000D01*
X133564852Y-93173361D01*
X133554006Y-93130183D01*
X166444389Y-93130183D01*
X166445912Y-93138607D01*
X166458292Y-93142000D01*
X167507885Y-93142000D01*
X167523124Y-93137525D01*
X167524329Y-93136135D01*
X167526000Y-93128452D01*
X167526000Y-93123885D01*
X168034000Y-93123885D01*
X168038475Y-93139124D01*
X168039865Y-93140329D01*
X168047548Y-93142000D01*
X169098344Y-93142000D01*
X169111875Y-93138027D01*
X169113180Y-93128947D01*
X169071214Y-92961875D01*
X169067894Y-92952124D01*
X168982972Y-92756814D01*
X168978105Y-92747739D01*
X168862426Y-92568926D01*
X168856136Y-92560757D01*
X168712806Y-92403240D01*
X168705273Y-92396215D01*
X168538139Y-92264222D01*
X168529552Y-92258517D01*
X168492116Y-92237851D01*
X168442146Y-92187419D01*
X168427374Y-92117976D01*
X168452490Y-92051571D01*
X168479842Y-92024964D01*
X168655327Y-91899792D01*
X168663200Y-91893139D01*
X168814052Y-91742812D01*
X168820730Y-91734965D01*
X168945003Y-91562020D01*
X168950313Y-91553183D01*
X169044670Y-91362267D01*
X169048469Y-91352672D01*
X169110377Y-91148910D01*
X169112555Y-91138837D01*
X169113986Y-91127962D01*
X169111775Y-91113778D01*
X169098617Y-91110000D01*
X168052115Y-91110000D01*
X168036876Y-91114475D01*
X168035671Y-91115865D01*
X168034000Y-91123548D01*
X168034000Y-93123885D01*
X167526000Y-93123885D01*
X167526000Y-91128115D01*
X167521525Y-91112876D01*
X167520135Y-91111671D01*
X167512452Y-91110000D01*
X166463225Y-91110000D01*
X166449694Y-91113973D01*
X166448257Y-91123966D01*
X166478565Y-91258446D01*
X166481645Y-91268275D01*
X166561770Y-91465603D01*
X166566413Y-91474794D01*
X166677694Y-91656388D01*
X166683777Y-91664699D01*
X166823213Y-91825667D01*
X166830580Y-91832883D01*
X166994434Y-91968916D01*
X167002881Y-91974831D01*
X167072479Y-92015501D01*
X167121203Y-92067140D01*
X167134274Y-92136923D01*
X167107543Y-92202694D01*
X167067087Y-92236053D01*
X167058462Y-92240542D01*
X167049738Y-92246036D01*
X166879433Y-92373905D01*
X166871726Y-92380748D01*
X166724590Y-92534717D01*
X166718104Y-92542727D01*
X166598098Y-92718649D01*
X166593000Y-92727623D01*
X166503338Y-92920783D01*
X166499775Y-92930470D01*
X166444389Y-93130183D01*
X133554006Y-93130183D01*
X133510431Y-92956702D01*
X133421354Y-92751840D01*
X133300014Y-92564277D01*
X133149670Y-92399051D01*
X133145619Y-92395852D01*
X133145615Y-92395848D01*
X132978414Y-92263800D01*
X132978410Y-92263798D01*
X132974359Y-92260598D01*
X132933053Y-92237796D01*
X132883084Y-92187364D01*
X132868312Y-92117921D01*
X132893428Y-92051516D01*
X132920780Y-92024909D01*
X132984197Y-91979674D01*
X133099860Y-91897173D01*
X133135246Y-91861911D01*
X133226603Y-91770872D01*
X142887634Y-91770872D01*
X142889543Y-91800000D01*
X142900953Y-91974072D01*
X142951079Y-92171443D01*
X143036333Y-92356373D01*
X143153861Y-92522671D01*
X143299726Y-92664767D01*
X143304522Y-92667972D01*
X143304525Y-92667974D01*
X143423533Y-92747492D01*
X143469043Y-92777901D01*
X143474346Y-92780179D01*
X143474349Y-92780181D01*
X143558989Y-92816545D01*
X143656142Y-92858285D01*
X143729609Y-92874909D01*
X143849120Y-92901952D01*
X143849126Y-92901953D01*
X143854757Y-92903227D01*
X143860528Y-92903454D01*
X143860530Y-92903454D01*
X143921504Y-92905850D01*
X144058237Y-92911222D01*
X144160388Y-92896411D01*
X144254045Y-92882832D01*
X144254050Y-92882831D01*
X144259766Y-92882002D01*
X144265238Y-92880144D01*
X144265240Y-92880144D01*
X144447131Y-92818400D01*
X144447133Y-92818399D01*
X144452595Y-92816545D01*
X144630267Y-92717044D01*
X144786831Y-92586831D01*
X144917044Y-92430267D01*
X145016545Y-92252595D01*
X145018772Y-92246036D01*
X145080144Y-92065240D01*
X145080144Y-92065238D01*
X145082002Y-92059766D01*
X145082831Y-92054050D01*
X145082832Y-92054045D01*
X145105197Y-91899792D01*
X145111222Y-91858237D01*
X145112747Y-91800000D01*
X145110071Y-91770872D01*
X154887634Y-91770872D01*
X154889543Y-91800000D01*
X154900953Y-91974072D01*
X154951079Y-92171443D01*
X155036333Y-92356373D01*
X155153861Y-92522671D01*
X155299726Y-92664767D01*
X155304522Y-92667972D01*
X155304525Y-92667974D01*
X155423533Y-92747492D01*
X155469043Y-92777901D01*
X155474346Y-92780179D01*
X155474349Y-92780181D01*
X155558989Y-92816545D01*
X155656142Y-92858285D01*
X155729609Y-92874909D01*
X155849120Y-92901952D01*
X155849126Y-92901953D01*
X155854757Y-92903227D01*
X155860528Y-92903454D01*
X155860530Y-92903454D01*
X155921504Y-92905850D01*
X156058237Y-92911222D01*
X156160388Y-92896411D01*
X156254045Y-92882832D01*
X156254050Y-92882831D01*
X156259766Y-92882002D01*
X156265238Y-92880144D01*
X156265240Y-92880144D01*
X156447131Y-92818400D01*
X156447133Y-92818399D01*
X156452595Y-92816545D01*
X156630267Y-92717044D01*
X156786831Y-92586831D01*
X156917044Y-92430267D01*
X157016545Y-92252595D01*
X157018772Y-92246036D01*
X157080144Y-92065240D01*
X157080144Y-92065238D01*
X157082002Y-92059766D01*
X157082831Y-92054050D01*
X157082832Y-92054045D01*
X157105197Y-91899792D01*
X157111222Y-91858237D01*
X157112747Y-91800000D01*
X157094114Y-91597218D01*
X157038839Y-91401227D01*
X156948773Y-91218591D01*
X156926989Y-91189418D01*
X156830385Y-91060051D01*
X156826932Y-91055427D01*
X156677397Y-90917198D01*
X156645089Y-90896813D01*
X156510057Y-90811614D01*
X156505177Y-90808535D01*
X156316037Y-90733076D01*
X156310377Y-90731950D01*
X156310373Y-90731949D01*
X156121982Y-90694476D01*
X156121977Y-90694476D01*
X156116314Y-90693349D01*
X156110539Y-90693273D01*
X156110535Y-90693273D01*
X156008527Y-90691938D01*
X155912695Y-90690683D01*
X155906998Y-90691662D01*
X155906997Y-90691662D01*
X155890621Y-90694476D01*
X155712000Y-90725169D01*
X155520950Y-90795651D01*
X155515989Y-90798603D01*
X155515988Y-90798603D01*
X155350912Y-90896813D01*
X155350909Y-90896815D01*
X155345944Y-90899769D01*
X155192842Y-91034036D01*
X155066772Y-91193955D01*
X155064083Y-91199066D01*
X155064081Y-91199069D01*
X155030109Y-91263639D01*
X154971956Y-91374170D01*
X154970242Y-91379691D01*
X154970240Y-91379695D01*
X154913547Y-91562277D01*
X154911569Y-91568647D01*
X154887634Y-91770872D01*
X145110071Y-91770872D01*
X145094114Y-91597218D01*
X145038839Y-91401227D01*
X144948773Y-91218591D01*
X144926989Y-91189418D01*
X144830385Y-91060051D01*
X144826932Y-91055427D01*
X144677397Y-90917198D01*
X144645089Y-90896813D01*
X144510057Y-90811614D01*
X144505177Y-90808535D01*
X144316037Y-90733076D01*
X144310377Y-90731950D01*
X144310373Y-90731949D01*
X144121982Y-90694476D01*
X144121977Y-90694476D01*
X144116314Y-90693349D01*
X144110539Y-90693273D01*
X144110535Y-90693273D01*
X144008527Y-90691938D01*
X143912695Y-90690683D01*
X143906998Y-90691662D01*
X143906997Y-90691662D01*
X143890621Y-90694476D01*
X143712000Y-90725169D01*
X143520950Y-90795651D01*
X143515989Y-90798603D01*
X143515988Y-90798603D01*
X143350912Y-90896813D01*
X143350909Y-90896815D01*
X143345944Y-90899769D01*
X143192842Y-91034036D01*
X143066772Y-91193955D01*
X143064083Y-91199066D01*
X143064081Y-91199069D01*
X143030109Y-91263639D01*
X142971956Y-91374170D01*
X142970242Y-91379691D01*
X142970240Y-91379695D01*
X142913547Y-91562277D01*
X142911569Y-91568647D01*
X142887634Y-91770872D01*
X133226603Y-91770872D01*
X133254435Y-91743137D01*
X133258096Y-91739489D01*
X133317594Y-91656689D01*
X133385435Y-91562277D01*
X133388453Y-91558077D01*
X133476615Y-91379695D01*
X133485136Y-91362453D01*
X133485137Y-91362451D01*
X133487430Y-91357811D01*
X133535660Y-91199069D01*
X133550865Y-91149023D01*
X133550865Y-91149021D01*
X133552370Y-91144069D01*
X133581529Y-90922590D01*
X133581736Y-90914117D01*
X133583074Y-90859365D01*
X133583074Y-90859361D01*
X133583156Y-90856000D01*
X133564852Y-90633361D01*
X133510431Y-90416702D01*
X133421354Y-90211840D01*
X133300014Y-90024277D01*
X133149670Y-89859051D01*
X133145619Y-89855852D01*
X133145615Y-89855848D01*
X132978414Y-89723800D01*
X132978410Y-89723798D01*
X132974359Y-89720598D01*
X132933053Y-89697796D01*
X132883084Y-89647364D01*
X132868312Y-89577921D01*
X132893428Y-89511516D01*
X132920780Y-89484909D01*
X132964603Y-89453650D01*
X133099860Y-89357173D01*
X133258096Y-89199489D01*
X133317594Y-89116689D01*
X133385435Y-89022277D01*
X133388453Y-89018077D01*
X133487430Y-88817811D01*
X133552370Y-88604069D01*
X133581529Y-88382590D01*
X133583156Y-88316000D01*
X133564852Y-88093361D01*
X133510431Y-87876702D01*
X133421354Y-87671840D01*
X133300014Y-87484277D01*
X133149670Y-87319051D01*
X133145619Y-87315852D01*
X133145615Y-87315848D01*
X132978414Y-87183800D01*
X132978410Y-87183798D01*
X132974359Y-87180598D01*
X132933053Y-87157796D01*
X132883084Y-87107364D01*
X132868312Y-87037921D01*
X132882655Y-87000000D01*
X139286496Y-87000000D01*
X139306458Y-87189928D01*
X139365473Y-87371556D01*
X139460960Y-87536944D01*
X139588747Y-87678866D01*
X139743248Y-87791118D01*
X139749276Y-87793802D01*
X139749278Y-87793803D01*
X139911681Y-87866109D01*
X139917712Y-87868794D01*
X140011113Y-87888647D01*
X140098056Y-87907128D01*
X140098061Y-87907128D01*
X140104513Y-87908500D01*
X140295487Y-87908500D01*
X140301939Y-87907128D01*
X140301944Y-87907128D01*
X140388887Y-87888647D01*
X140482288Y-87868794D01*
X140488319Y-87866109D01*
X140650722Y-87793803D01*
X140650724Y-87793802D01*
X140656752Y-87791118D01*
X140811253Y-87678866D01*
X140939040Y-87536944D01*
X141034527Y-87371556D01*
X141093542Y-87189928D01*
X141113504Y-87000000D01*
X141107714Y-86944909D01*
X141094232Y-86816635D01*
X141094232Y-86816633D01*
X141093542Y-86810072D01*
X141034527Y-86628444D01*
X140939040Y-86463056D01*
X140934621Y-86458148D01*
X140882264Y-86400000D01*
X143686496Y-86400000D01*
X143687186Y-86406565D01*
X143705067Y-86576689D01*
X143706458Y-86589928D01*
X143765473Y-86771556D01*
X143860960Y-86936944D01*
X143865378Y-86941851D01*
X143865379Y-86941852D01*
X143960772Y-87047797D01*
X143988747Y-87078866D01*
X144087843Y-87150864D01*
X144133176Y-87183800D01*
X144143248Y-87191118D01*
X144149276Y-87193802D01*
X144149278Y-87193803D01*
X144311681Y-87266109D01*
X144317712Y-87268794D01*
X144411113Y-87288647D01*
X144498056Y-87307128D01*
X144498061Y-87307128D01*
X144504513Y-87308500D01*
X144695487Y-87308500D01*
X144701939Y-87307128D01*
X144701944Y-87307128D01*
X144788887Y-87288647D01*
X144882288Y-87268794D01*
X144888319Y-87266109D01*
X145050722Y-87193803D01*
X145050724Y-87193802D01*
X145056752Y-87191118D01*
X145066825Y-87183800D01*
X145112157Y-87150864D01*
X145211253Y-87078866D01*
X145239228Y-87047797D01*
X145334621Y-86941852D01*
X145334622Y-86941851D01*
X145339040Y-86936944D01*
X145434527Y-86771556D01*
X145493542Y-86589928D01*
X145494934Y-86576689D01*
X145512814Y-86406565D01*
X145513504Y-86400000D01*
X145501944Y-86290013D01*
X145494232Y-86216635D01*
X145494232Y-86216633D01*
X145493542Y-86210072D01*
X145434527Y-86028444D01*
X145339040Y-85863056D01*
X145323600Y-85845908D01*
X145240864Y-85754020D01*
X145210146Y-85690013D01*
X145208500Y-85669710D01*
X145208500Y-83700000D01*
X157186496Y-83700000D01*
X157187186Y-83706565D01*
X157202993Y-83856956D01*
X157206458Y-83889928D01*
X157265473Y-84071556D01*
X157360960Y-84236944D01*
X157488747Y-84378866D01*
X157643248Y-84491118D01*
X157649276Y-84493802D01*
X157649278Y-84493803D01*
X157811681Y-84566109D01*
X157817712Y-84568794D01*
X157911113Y-84588647D01*
X157998056Y-84607128D01*
X157998061Y-84607128D01*
X158004513Y-84608500D01*
X158195487Y-84608500D01*
X158201939Y-84607128D01*
X158201944Y-84607128D01*
X158288887Y-84588647D01*
X158382288Y-84568794D01*
X158388319Y-84566109D01*
X158550722Y-84493803D01*
X158550724Y-84493802D01*
X158556752Y-84491118D01*
X158711253Y-84378866D01*
X158839040Y-84236944D01*
X158934527Y-84071556D01*
X158980167Y-83931090D01*
X159020241Y-83872486D01*
X159085637Y-83844849D01*
X159155594Y-83856956D01*
X159207900Y-83904962D01*
X159219832Y-83931089D01*
X159265473Y-84071556D01*
X159360960Y-84236944D01*
X159488747Y-84378866D01*
X159643248Y-84491118D01*
X159649276Y-84493802D01*
X159649278Y-84493803D01*
X159811681Y-84566109D01*
X159817712Y-84568794D01*
X159911113Y-84588647D01*
X159998056Y-84607128D01*
X159998061Y-84607128D01*
X160004513Y-84608500D01*
X160195487Y-84608500D01*
X160201939Y-84607128D01*
X160201944Y-84607128D01*
X160288887Y-84588647D01*
X160382288Y-84568794D01*
X160388319Y-84566109D01*
X160550722Y-84493803D01*
X160550724Y-84493802D01*
X160556752Y-84491118D01*
X160711253Y-84378866D01*
X160839040Y-84236944D01*
X160934527Y-84071556D01*
X160993542Y-83889928D01*
X160997008Y-83856956D01*
X161012814Y-83706565D01*
X161013504Y-83700000D01*
X160998280Y-83555151D01*
X160994232Y-83516635D01*
X160994232Y-83516633D01*
X160993542Y-83510072D01*
X160956812Y-83397029D01*
X160954784Y-83326063D01*
X160987550Y-83268999D01*
X166203092Y-78053457D01*
X166265404Y-78019431D01*
X166336219Y-78024496D01*
X166393055Y-78067043D01*
X166417978Y-78135298D01*
X166430110Y-78345715D01*
X166431247Y-78350761D01*
X166431248Y-78350767D01*
X166437223Y-78377279D01*
X166479222Y-78563639D01*
X166563266Y-78770616D01*
X166679987Y-78961088D01*
X166826250Y-79129938D01*
X166998126Y-79272632D01*
X167068595Y-79313811D01*
X167071445Y-79315476D01*
X167120169Y-79367114D01*
X167133240Y-79436897D01*
X167106509Y-79502669D01*
X167066055Y-79536027D01*
X167053607Y-79542507D01*
X167049474Y-79545610D01*
X167049471Y-79545612D01*
X167025247Y-79563800D01*
X166874965Y-79676635D01*
X166720629Y-79838138D01*
X166594743Y-80022680D01*
X166500688Y-80225305D01*
X166440989Y-80440570D01*
X166417251Y-80662695D01*
X166417548Y-80667848D01*
X166417548Y-80667851D01*
X166423011Y-80762590D01*
X166430110Y-80885715D01*
X166431247Y-80890761D01*
X166431248Y-80890767D01*
X166451119Y-80978939D01*
X166479222Y-81103639D01*
X166563266Y-81310616D01*
X166679987Y-81501088D01*
X166826250Y-81669938D01*
X166998126Y-81812632D01*
X167068595Y-81853811D01*
X167071445Y-81855476D01*
X167120169Y-81907114D01*
X167133240Y-81976897D01*
X167106509Y-82042669D01*
X167066055Y-82076027D01*
X167053607Y-82082507D01*
X167049474Y-82085610D01*
X167049471Y-82085612D01*
X167025247Y-82103800D01*
X166874965Y-82216635D01*
X166871393Y-82220373D01*
X166743768Y-82353925D01*
X166720629Y-82378138D01*
X166594743Y-82562680D01*
X166500688Y-82765305D01*
X166440989Y-82980570D01*
X166417251Y-83202695D01*
X166417548Y-83207848D01*
X166417548Y-83207851D01*
X166424267Y-83324373D01*
X166430110Y-83425715D01*
X166431247Y-83430761D01*
X166431248Y-83430767D01*
X166439844Y-83468909D01*
X166479222Y-83643639D01*
X166563266Y-83850616D01*
X166679987Y-84041088D01*
X166826250Y-84209938D01*
X166998126Y-84352632D01*
X167034616Y-84373955D01*
X167071445Y-84395476D01*
X167120169Y-84447114D01*
X167133240Y-84516897D01*
X167106509Y-84582669D01*
X167066055Y-84616027D01*
X167053607Y-84622507D01*
X167049474Y-84625610D01*
X167049471Y-84625612D01*
X167025247Y-84643800D01*
X166874965Y-84756635D01*
X166720629Y-84918138D01*
X166594743Y-85102680D01*
X166500688Y-85305305D01*
X166440989Y-85520570D01*
X166417251Y-85742695D01*
X166417548Y-85747848D01*
X166417548Y-85747851D01*
X166429812Y-85960547D01*
X166430110Y-85965715D01*
X166431247Y-85970761D01*
X166431248Y-85970767D01*
X166442957Y-86022721D01*
X166479222Y-86183639D01*
X166563266Y-86390616D01*
X166679987Y-86581088D01*
X166826250Y-86749938D01*
X166998126Y-86892632D01*
X167064172Y-86931226D01*
X167071445Y-86935476D01*
X167120169Y-86987114D01*
X167133240Y-87056897D01*
X167106509Y-87122669D01*
X167066055Y-87156027D01*
X167053607Y-87162507D01*
X167049474Y-87165610D01*
X167049471Y-87165612D01*
X166910218Y-87270166D01*
X166874965Y-87296635D01*
X166720629Y-87458138D01*
X166594743Y-87642680D01*
X166580226Y-87673955D01*
X166525841Y-87791118D01*
X166500688Y-87845305D01*
X166440989Y-88060570D01*
X166417251Y-88282695D01*
X166417548Y-88287848D01*
X166417548Y-88287851D01*
X166423011Y-88382590D01*
X166430110Y-88505715D01*
X166431247Y-88510761D01*
X166431248Y-88510767D01*
X166451119Y-88598939D01*
X166479222Y-88723639D01*
X166563266Y-88930616D01*
X166679987Y-89121088D01*
X166826250Y-89289938D01*
X166998126Y-89432632D01*
X167071445Y-89475476D01*
X167071955Y-89475774D01*
X167120679Y-89527412D01*
X167133750Y-89597195D01*
X167107019Y-89662967D01*
X167066562Y-89696327D01*
X167058457Y-89700546D01*
X167049738Y-89706036D01*
X166879433Y-89833905D01*
X166871726Y-89840748D01*
X166724590Y-89994717D01*
X166718104Y-90002727D01*
X166598098Y-90178649D01*
X166593000Y-90187623D01*
X166503338Y-90380783D01*
X166499775Y-90390470D01*
X166444389Y-90590183D01*
X166445912Y-90598607D01*
X166458292Y-90602000D01*
X169098344Y-90602000D01*
X169111875Y-90598027D01*
X169113180Y-90588947D01*
X169071214Y-90421875D01*
X169067894Y-90412124D01*
X168982972Y-90216814D01*
X168978105Y-90207739D01*
X168862426Y-90028926D01*
X168856136Y-90020757D01*
X168712806Y-89863240D01*
X168705273Y-89856215D01*
X168538139Y-89724222D01*
X168529556Y-89718520D01*
X168492602Y-89698120D01*
X168442631Y-89647687D01*
X168427859Y-89578245D01*
X168452975Y-89511839D01*
X168480327Y-89485232D01*
X168503797Y-89468491D01*
X168659860Y-89357173D01*
X168818096Y-89199489D01*
X168877594Y-89116689D01*
X168945435Y-89022277D01*
X168948453Y-89018077D01*
X169047430Y-88817811D01*
X169112370Y-88604069D01*
X169141529Y-88382590D01*
X169143156Y-88316000D01*
X169124852Y-88093361D01*
X169070431Y-87876702D01*
X168981354Y-87671840D01*
X168860014Y-87484277D01*
X168709670Y-87319051D01*
X168705619Y-87315852D01*
X168705615Y-87315848D01*
X168538414Y-87183800D01*
X168538410Y-87183798D01*
X168534359Y-87180598D01*
X168493053Y-87157796D01*
X168443084Y-87107364D01*
X168428312Y-87037921D01*
X168453428Y-86971516D01*
X168480780Y-86944909D01*
X168524603Y-86913650D01*
X168659860Y-86817173D01*
X168818096Y-86659489D01*
X168877594Y-86576689D01*
X168945435Y-86482277D01*
X168948453Y-86478077D01*
X168958303Y-86458148D01*
X169045136Y-86282453D01*
X169045137Y-86282451D01*
X169047430Y-86277811D01*
X169112370Y-86064069D01*
X169141529Y-85842590D01*
X169143156Y-85776000D01*
X169124852Y-85553361D01*
X169070431Y-85336702D01*
X168981354Y-85131840D01*
X168860014Y-84944277D01*
X168709670Y-84779051D01*
X168705619Y-84775852D01*
X168705615Y-84775848D01*
X168538414Y-84643800D01*
X168538410Y-84643798D01*
X168534359Y-84640598D01*
X168493053Y-84617796D01*
X168443084Y-84567364D01*
X168428312Y-84497921D01*
X168453428Y-84431516D01*
X168480780Y-84404909D01*
X168524603Y-84373650D01*
X168659860Y-84277173D01*
X168818096Y-84119489D01*
X168877594Y-84036689D01*
X168945435Y-83942277D01*
X168948453Y-83938077D01*
X168964820Y-83904962D01*
X169045136Y-83742453D01*
X169045137Y-83742451D01*
X169047430Y-83737811D01*
X169112370Y-83524069D01*
X169141529Y-83302590D01*
X169143156Y-83236000D01*
X169124852Y-83013361D01*
X169070431Y-82796702D01*
X168981354Y-82591840D01*
X168860014Y-82404277D01*
X168709670Y-82239051D01*
X168705619Y-82235852D01*
X168705615Y-82235848D01*
X168538414Y-82103800D01*
X168538410Y-82103798D01*
X168534359Y-82100598D01*
X168493053Y-82077796D01*
X168443084Y-82027364D01*
X168428312Y-81957921D01*
X168453428Y-81891516D01*
X168480780Y-81864909D01*
X168524603Y-81833650D01*
X168659860Y-81737173D01*
X168818096Y-81579489D01*
X168877594Y-81496689D01*
X168945435Y-81402277D01*
X168948453Y-81398077D01*
X169047430Y-81197811D01*
X169112370Y-80984069D01*
X169141529Y-80762590D01*
X169143156Y-80696000D01*
X169124852Y-80473361D01*
X169070431Y-80256702D01*
X168981354Y-80051840D01*
X168860014Y-79864277D01*
X168709670Y-79699051D01*
X168705619Y-79695852D01*
X168705615Y-79695848D01*
X168538414Y-79563800D01*
X168538410Y-79563798D01*
X168534359Y-79560598D01*
X168493053Y-79537796D01*
X168443084Y-79487364D01*
X168428312Y-79417921D01*
X168453428Y-79351516D01*
X168480780Y-79324909D01*
X168524603Y-79293650D01*
X168659860Y-79197173D01*
X168818096Y-79039489D01*
X168877594Y-78956689D01*
X168945435Y-78862277D01*
X168948453Y-78858077D01*
X169047430Y-78657811D01*
X169112370Y-78444069D01*
X169141529Y-78222590D01*
X169142327Y-78189928D01*
X169143074Y-78159365D01*
X169143074Y-78159361D01*
X169143156Y-78156000D01*
X169124852Y-77933361D01*
X169070431Y-77716702D01*
X168981354Y-77511840D01*
X168860014Y-77324277D01*
X168709670Y-77159051D01*
X168705619Y-77155852D01*
X168705615Y-77155848D01*
X168538414Y-77023800D01*
X168538410Y-77023798D01*
X168534359Y-77020598D01*
X168493053Y-76997796D01*
X168443084Y-76947364D01*
X168428312Y-76877921D01*
X168453428Y-76811516D01*
X168480780Y-76784909D01*
X168541144Y-76741852D01*
X168659860Y-76657173D01*
X168818096Y-76499489D01*
X168877594Y-76416689D01*
X168945435Y-76322277D01*
X168948453Y-76318077D01*
X169003566Y-76206565D01*
X169045136Y-76122453D01*
X169045137Y-76122451D01*
X169047430Y-76117811D01*
X169112370Y-75904069D01*
X169141529Y-75682590D01*
X169143156Y-75616000D01*
X169124852Y-75393361D01*
X169070431Y-75176702D01*
X168981354Y-74971840D01*
X168860014Y-74784277D01*
X168709670Y-74619051D01*
X168705619Y-74615852D01*
X168705615Y-74615848D01*
X168538414Y-74483800D01*
X168538410Y-74483798D01*
X168534359Y-74480598D01*
X168493053Y-74457796D01*
X168443084Y-74407364D01*
X168428312Y-74337921D01*
X168453428Y-74271516D01*
X168480780Y-74244909D01*
X168524603Y-74213650D01*
X168659860Y-74117173D01*
X168818096Y-73959489D01*
X168877594Y-73876689D01*
X168945435Y-73782277D01*
X168948453Y-73778077D01*
X169034589Y-73603794D01*
X169045136Y-73582453D01*
X169045137Y-73582451D01*
X169047430Y-73577811D01*
X169112370Y-73364069D01*
X169141529Y-73142590D01*
X169143156Y-73076000D01*
X169124852Y-72853361D01*
X169070431Y-72636702D01*
X168981354Y-72431840D01*
X168860014Y-72244277D01*
X168709670Y-72079051D01*
X168705619Y-72075852D01*
X168705615Y-72075848D01*
X168538414Y-71943800D01*
X168538410Y-71943798D01*
X168534359Y-71940598D01*
X168493053Y-71917796D01*
X168443084Y-71867364D01*
X168428312Y-71797921D01*
X168453428Y-71731516D01*
X168480780Y-71704909D01*
X168524603Y-71673650D01*
X168659860Y-71577173D01*
X168818096Y-71419489D01*
X168877594Y-71336689D01*
X168945435Y-71242277D01*
X168948453Y-71238077D01*
X168952972Y-71228935D01*
X169045136Y-71042453D01*
X169045137Y-71042451D01*
X169047430Y-71037811D01*
X169095721Y-70878866D01*
X169110865Y-70829023D01*
X169110865Y-70829021D01*
X169112370Y-70824069D01*
X169141529Y-70602590D01*
X169141900Y-70587396D01*
X169143074Y-70539365D01*
X169143074Y-70539361D01*
X169143156Y-70536000D01*
X169124852Y-70313361D01*
X169070431Y-70096702D01*
X168981354Y-69891840D01*
X168860014Y-69704277D01*
X168856532Y-69700450D01*
X168712798Y-69542488D01*
X168681746Y-69478642D01*
X168690141Y-69408143D01*
X168735317Y-69353375D01*
X168761761Y-69339706D01*
X168868297Y-69299767D01*
X168876705Y-69296615D01*
X168993261Y-69209261D01*
X169080615Y-69092705D01*
X169131745Y-68956316D01*
X169138500Y-68894134D01*
X169138500Y-67097866D01*
X169131745Y-67035684D01*
X169080615Y-66899295D01*
X168993261Y-66782739D01*
X168876705Y-66695385D01*
X168740316Y-66644255D01*
X168678134Y-66637500D01*
X166881866Y-66637500D01*
X166819684Y-66644255D01*
X166683295Y-66695385D01*
X166566739Y-66782739D01*
X166479385Y-66899295D01*
X166428255Y-67035684D01*
X166421500Y-67097866D01*
X166421500Y-68894134D01*
X166428255Y-68956316D01*
X166479385Y-69092705D01*
X166566739Y-69209261D01*
X166683295Y-69296615D01*
X166691704Y-69299767D01*
X166691705Y-69299768D01*
X166800451Y-69340535D01*
X166857216Y-69383176D01*
X166881916Y-69449738D01*
X166866709Y-69519087D01*
X166847316Y-69545568D01*
X166720629Y-69678138D01*
X166594743Y-69862680D01*
X166500688Y-70065305D01*
X166440989Y-70280570D01*
X166417251Y-70502695D01*
X166417548Y-70507848D01*
X166417548Y-70507851D01*
X166423011Y-70602590D01*
X166430110Y-70725715D01*
X166431247Y-70730761D01*
X166431248Y-70730767D01*
X166451119Y-70818939D01*
X166479222Y-70943639D01*
X166563266Y-71150616D01*
X166679987Y-71341088D01*
X166826250Y-71509938D01*
X166998126Y-71652632D01*
X167068595Y-71693811D01*
X167071445Y-71695476D01*
X167120169Y-71747114D01*
X167133240Y-71816897D01*
X167106509Y-71882669D01*
X167066055Y-71916027D01*
X167061787Y-71918249D01*
X167053607Y-71922507D01*
X167049474Y-71925610D01*
X167049471Y-71925612D01*
X166879100Y-72053530D01*
X166874965Y-72056635D01*
X166720629Y-72218138D01*
X166594743Y-72402680D01*
X166500688Y-72605305D01*
X166440989Y-72820570D01*
X166417251Y-73042695D01*
X166417548Y-73047848D01*
X166417548Y-73047851D01*
X166423011Y-73142590D01*
X166430110Y-73265715D01*
X166431247Y-73270762D01*
X166431248Y-73270766D01*
X166446492Y-73338408D01*
X166468200Y-73434729D01*
X166469956Y-73442521D01*
X166465420Y-73513372D01*
X166436134Y-73559317D01*
X157703766Y-82291685D01*
X157691375Y-82302552D01*
X157666013Y-82322013D01*
X157641526Y-82353925D01*
X157641523Y-82353928D01*
X157641517Y-82353936D01*
X157602889Y-82404277D01*
X157568476Y-82449124D01*
X157530218Y-82541487D01*
X157507162Y-82597150D01*
X157491500Y-82716115D01*
X157491500Y-82716120D01*
X157486250Y-82756000D01*
X157487328Y-82764188D01*
X157490422Y-82787690D01*
X157491500Y-82804136D01*
X157491500Y-82969710D01*
X157471498Y-83037831D01*
X157459136Y-83054020D01*
X157360960Y-83163056D01*
X157265473Y-83328444D01*
X157206458Y-83510072D01*
X157205768Y-83516633D01*
X157205768Y-83516635D01*
X157201720Y-83555151D01*
X157186496Y-83700000D01*
X145208500Y-83700000D01*
X145208500Y-74530290D01*
X145228502Y-74462169D01*
X145240864Y-74445980D01*
X145334621Y-74341852D01*
X145334622Y-74341851D01*
X145339040Y-74336944D01*
X145434527Y-74171556D01*
X145493542Y-73989928D01*
X145497183Y-73955292D01*
X145512814Y-73806565D01*
X145513504Y-73800000D01*
X145502470Y-73695020D01*
X145494232Y-73616635D01*
X145494232Y-73616633D01*
X145493542Y-73610072D01*
X145434527Y-73428444D01*
X145339040Y-73263056D01*
X145211253Y-73121134D01*
X145103291Y-73042695D01*
X145062094Y-73012763D01*
X145062093Y-73012762D01*
X145056752Y-73008882D01*
X145050724Y-73006198D01*
X145050722Y-73006197D01*
X144888319Y-72933891D01*
X144888318Y-72933891D01*
X144882288Y-72931206D01*
X144788888Y-72911353D01*
X144701944Y-72892872D01*
X144701939Y-72892872D01*
X144695487Y-72891500D01*
X144504513Y-72891500D01*
X144498061Y-72892872D01*
X144498056Y-72892872D01*
X144411112Y-72911353D01*
X144317712Y-72931206D01*
X144311682Y-72933891D01*
X144311681Y-72933891D01*
X144149278Y-73006197D01*
X144149276Y-73006198D01*
X144143248Y-73008882D01*
X144137907Y-73012762D01*
X144137906Y-73012763D01*
X144096709Y-73042695D01*
X143988747Y-73121134D01*
X143860960Y-73263056D01*
X143765473Y-73428444D01*
X143706458Y-73610072D01*
X143705768Y-73616633D01*
X143705768Y-73616635D01*
X143697530Y-73695020D01*
X143686496Y-73800000D01*
X143687186Y-73806565D01*
X143702818Y-73955292D01*
X143706458Y-73989928D01*
X143765473Y-74171556D01*
X143860960Y-74336944D01*
X143865378Y-74341851D01*
X143865379Y-74341852D01*
X143959136Y-74445980D01*
X143989854Y-74509987D01*
X143991500Y-74530290D01*
X143991500Y-85669710D01*
X143971498Y-85737831D01*
X143959136Y-85754020D01*
X143876400Y-85845908D01*
X143860960Y-85863056D01*
X143765473Y-86028444D01*
X143706458Y-86210072D01*
X143705768Y-86216633D01*
X143705768Y-86216635D01*
X143698056Y-86290013D01*
X143686496Y-86400000D01*
X140882264Y-86400000D01*
X140840864Y-86354020D01*
X140810146Y-86290013D01*
X140808500Y-86269710D01*
X140808500Y-71235500D01*
X142486496Y-71235500D01*
X142487186Y-71242065D01*
X142505393Y-71415292D01*
X142506458Y-71425428D01*
X142565473Y-71607056D01*
X142660960Y-71772444D01*
X142665378Y-71777351D01*
X142665379Y-71777352D01*
X142715159Y-71832638D01*
X142788747Y-71914366D01*
X142943248Y-72026618D01*
X142949276Y-72029302D01*
X142949278Y-72029303D01*
X143111681Y-72101609D01*
X143117712Y-72104294D01*
X143211113Y-72124147D01*
X143298056Y-72142628D01*
X143298061Y-72142628D01*
X143304513Y-72144000D01*
X143495487Y-72144000D01*
X143501939Y-72142628D01*
X143501944Y-72142628D01*
X143588887Y-72124147D01*
X143682288Y-72104294D01*
X143688319Y-72101609D01*
X143850722Y-72029303D01*
X143850724Y-72029302D01*
X143856752Y-72026618D01*
X144011253Y-71914366D01*
X144084841Y-71832638D01*
X144134621Y-71777352D01*
X144134622Y-71777351D01*
X144139040Y-71772444D01*
X144234527Y-71607056D01*
X144293542Y-71425428D01*
X144295739Y-71404521D01*
X144322750Y-71338865D01*
X144331954Y-71328595D01*
X145460549Y-70200000D01*
X146886496Y-70200000D01*
X146887186Y-70206565D01*
X146898411Y-70313361D01*
X146906458Y-70389928D01*
X146965473Y-70571556D01*
X146968776Y-70577278D01*
X146968777Y-70577279D01*
X146985306Y-70605908D01*
X147060960Y-70736944D01*
X147065378Y-70741851D01*
X147065379Y-70741852D01*
X147143868Y-70829023D01*
X147188747Y-70878866D01*
X147194089Y-70882747D01*
X147194091Y-70882749D01*
X147339561Y-70988439D01*
X147382915Y-71044661D01*
X147391500Y-71090375D01*
X147391500Y-75469710D01*
X147371498Y-75537831D01*
X147359136Y-75554020D01*
X147265379Y-75658148D01*
X147260960Y-75663056D01*
X147202686Y-75763990D01*
X147178596Y-75805715D01*
X147165473Y-75828444D01*
X147106458Y-76010072D01*
X147086496Y-76200000D01*
X147106458Y-76389928D01*
X147165473Y-76571556D01*
X147168776Y-76577278D01*
X147168777Y-76577279D01*
X147177992Y-76593240D01*
X147260960Y-76736944D01*
X147388747Y-76878866D01*
X147543248Y-76991118D01*
X147549276Y-76993802D01*
X147549278Y-76993803D01*
X147609461Y-77020598D01*
X147717712Y-77068794D01*
X147811113Y-77088647D01*
X147898056Y-77107128D01*
X147898061Y-77107128D01*
X147904513Y-77108500D01*
X147995761Y-77108500D01*
X148063882Y-77128502D01*
X148084856Y-77145405D01*
X148335685Y-77396234D01*
X148346552Y-77408625D01*
X148366013Y-77433987D01*
X148372563Y-77439013D01*
X148397921Y-77458471D01*
X148397937Y-77458485D01*
X148435588Y-77487375D01*
X148493124Y-77531524D01*
X148641149Y-77592838D01*
X148649336Y-77593916D01*
X148649337Y-77593916D01*
X148660542Y-77595391D01*
X148691738Y-77599498D01*
X148760115Y-77608500D01*
X148760118Y-77608500D01*
X148760126Y-77608501D01*
X148791811Y-77612672D01*
X148800000Y-77613750D01*
X148831693Y-77609578D01*
X148848136Y-77608500D01*
X150495761Y-77608500D01*
X150563882Y-77628502D01*
X150584856Y-77645405D01*
X150850281Y-77910830D01*
X150884307Y-77973142D01*
X150886841Y-77996716D01*
X150886496Y-78000000D01*
X150887186Y-78006565D01*
X150902540Y-78152646D01*
X150906458Y-78189928D01*
X150965473Y-78371556D01*
X151060960Y-78536944D01*
X151065378Y-78541851D01*
X151065379Y-78541852D01*
X151165328Y-78652857D01*
X151188747Y-78678866D01*
X151287843Y-78750864D01*
X151315030Y-78770616D01*
X151343248Y-78791118D01*
X151349276Y-78793802D01*
X151349278Y-78793803D01*
X151511681Y-78866109D01*
X151517712Y-78868794D01*
X151611112Y-78888647D01*
X151698056Y-78907128D01*
X151698061Y-78907128D01*
X151704513Y-78908500D01*
X151895487Y-78908500D01*
X151901939Y-78907128D01*
X151901944Y-78907128D01*
X151988888Y-78888647D01*
X152082288Y-78868794D01*
X152088319Y-78866109D01*
X152250722Y-78793803D01*
X152250724Y-78793802D01*
X152256752Y-78791118D01*
X152284971Y-78770616D01*
X152312157Y-78750864D01*
X152411253Y-78678866D01*
X152434672Y-78652857D01*
X152534621Y-78541852D01*
X152534622Y-78541851D01*
X152539040Y-78536944D01*
X152634527Y-78371556D01*
X152693542Y-78189928D01*
X152697461Y-78152646D01*
X152712814Y-78006565D01*
X152713504Y-78000000D01*
X152708468Y-77952081D01*
X152694232Y-77816635D01*
X152694232Y-77816633D01*
X152693542Y-77810072D01*
X152634527Y-77628444D01*
X152626044Y-77613750D01*
X152597314Y-77563990D01*
X152539040Y-77463056D01*
X152411253Y-77321134D01*
X152256752Y-77208882D01*
X152250724Y-77206198D01*
X152250722Y-77206197D01*
X152088319Y-77133891D01*
X152088318Y-77133891D01*
X152082288Y-77131206D01*
X151988888Y-77111353D01*
X151901944Y-77092872D01*
X151901939Y-77092872D01*
X151895487Y-77091500D01*
X151804239Y-77091500D01*
X151736118Y-77071498D01*
X151715144Y-77054595D01*
X151264315Y-76603766D01*
X151253448Y-76591375D01*
X151239013Y-76572563D01*
X151233987Y-76566013D01*
X151202075Y-76541526D01*
X151202072Y-76541523D01*
X151106876Y-76468476D01*
X150958851Y-76407162D01*
X150950664Y-76406084D01*
X150950663Y-76406084D01*
X150939458Y-76404609D01*
X150908262Y-76400502D01*
X150839885Y-76391500D01*
X150839882Y-76391500D01*
X150839874Y-76391499D01*
X150808189Y-76387328D01*
X150800000Y-76386250D01*
X150768307Y-76390422D01*
X150751864Y-76391500D01*
X149104239Y-76391500D01*
X149036118Y-76371498D01*
X149015144Y-76354595D01*
X148949719Y-76289170D01*
X148915693Y-76226858D01*
X148913159Y-76203284D01*
X148913504Y-76200000D01*
X148893542Y-76010072D01*
X148834527Y-75828444D01*
X148821405Y-75805715D01*
X148797314Y-75763990D01*
X148739040Y-75663056D01*
X148734621Y-75658148D01*
X148640864Y-75554020D01*
X148610146Y-75490013D01*
X148608500Y-75469710D01*
X148608500Y-70650397D01*
X148625380Y-70587398D01*
X148634527Y-70571556D01*
X148693542Y-70389928D01*
X148701590Y-70313361D01*
X148712814Y-70206565D01*
X148713504Y-70200000D01*
X148712814Y-70193435D01*
X148694232Y-70016635D01*
X148694232Y-70016633D01*
X148693542Y-70010072D01*
X148634527Y-69828444D01*
X148539040Y-69663056D01*
X148433254Y-69545568D01*
X148415675Y-69526045D01*
X148415674Y-69526044D01*
X148411253Y-69521134D01*
X148256752Y-69408882D01*
X148250724Y-69406198D01*
X148250722Y-69406197D01*
X148088319Y-69333891D01*
X148088318Y-69333891D01*
X148082288Y-69331206D01*
X147988887Y-69311353D01*
X147901944Y-69292872D01*
X147901939Y-69292872D01*
X147895487Y-69291500D01*
X147704513Y-69291500D01*
X147698061Y-69292872D01*
X147698056Y-69292872D01*
X147611113Y-69311353D01*
X147517712Y-69331206D01*
X147511682Y-69333891D01*
X147511681Y-69333891D01*
X147349278Y-69406197D01*
X147349276Y-69406198D01*
X147343248Y-69408882D01*
X147188747Y-69521134D01*
X147184326Y-69526044D01*
X147184325Y-69526045D01*
X147166747Y-69545568D01*
X147060960Y-69663056D01*
X146965473Y-69828444D01*
X146906458Y-70010072D01*
X146905768Y-70016633D01*
X146905768Y-70016635D01*
X146887186Y-70193435D01*
X146886496Y-70200000D01*
X145460549Y-70200000D01*
X147715144Y-67945405D01*
X147777456Y-67911379D01*
X147791885Y-67909828D01*
X147791818Y-67909190D01*
X147798385Y-67908500D01*
X147804987Y-67908500D01*
X147811439Y-67907128D01*
X147811444Y-67907128D01*
X147898388Y-67888647D01*
X147991788Y-67868794D01*
X147997819Y-67866109D01*
X148160222Y-67793803D01*
X148160224Y-67793802D01*
X148166252Y-67791118D01*
X148320753Y-67678866D01*
X148448540Y-67536944D01*
X148544027Y-67371556D01*
X148603042Y-67189928D01*
X148609361Y-67129811D01*
X148622314Y-67006565D01*
X148623004Y-67000000D01*
X148603042Y-66810072D01*
X148544027Y-66628444D01*
X148448540Y-66463056D01*
X148320753Y-66321134D01*
X148166252Y-66208882D01*
X148160224Y-66206198D01*
X148160222Y-66206197D01*
X147997819Y-66133891D01*
X147997818Y-66133891D01*
X147991788Y-66131206D01*
X147898388Y-66111353D01*
X147811444Y-66092872D01*
X147811439Y-66092872D01*
X147804987Y-66091500D01*
X147614013Y-66091500D01*
X147607561Y-66092872D01*
X147607556Y-66092872D01*
X147520612Y-66111353D01*
X147427212Y-66131206D01*
X147421182Y-66133891D01*
X147421181Y-66133891D01*
X147258778Y-66206197D01*
X147258776Y-66206198D01*
X147252748Y-66208882D01*
X147098247Y-66321134D01*
X146970460Y-66463056D01*
X146874973Y-66628444D01*
X146815958Y-66810072D01*
X146795996Y-67000000D01*
X146796686Y-67006565D01*
X146803358Y-67070042D01*
X146790586Y-67139880D01*
X146767143Y-67172308D01*
X143640323Y-70299128D01*
X143578011Y-70333154D01*
X143525033Y-70333280D01*
X143510966Y-70330290D01*
X143501943Y-70328372D01*
X143501941Y-70328372D01*
X143495487Y-70327000D01*
X143304513Y-70327000D01*
X143298061Y-70328372D01*
X143298056Y-70328372D01*
X143211112Y-70346853D01*
X143117712Y-70366706D01*
X143111682Y-70369391D01*
X143111681Y-70369391D01*
X142949278Y-70441697D01*
X142949276Y-70441698D01*
X142943248Y-70444382D01*
X142788747Y-70556634D01*
X142784326Y-70561544D01*
X142784325Y-70561545D01*
X142704323Y-70650397D01*
X142660960Y-70698556D01*
X142565473Y-70863944D01*
X142506458Y-71045572D01*
X142505768Y-71052133D01*
X142505768Y-71052135D01*
X142494955Y-71155020D01*
X142486496Y-71235500D01*
X140808500Y-71235500D01*
X140808500Y-70330290D01*
X140828502Y-70262169D01*
X140840864Y-70245980D01*
X140934621Y-70141852D01*
X140934622Y-70141851D01*
X140939040Y-70136944D01*
X141034527Y-69971556D01*
X141093542Y-69789928D01*
X141102947Y-69700450D01*
X141112814Y-69606565D01*
X141113504Y-69600000D01*
X141093542Y-69410072D01*
X141034527Y-69228444D01*
X141026559Y-69214642D01*
X140956158Y-69092705D01*
X140939040Y-69063056D01*
X140835858Y-68948460D01*
X140815675Y-68926045D01*
X140815674Y-68926044D01*
X140811253Y-68921134D01*
X140656752Y-68808882D01*
X140650724Y-68806198D01*
X140650722Y-68806197D01*
X140488319Y-68733891D01*
X140488318Y-68733891D01*
X140482288Y-68731206D01*
X140388888Y-68711353D01*
X140301944Y-68692872D01*
X140301939Y-68692872D01*
X140295487Y-68691500D01*
X140104513Y-68691500D01*
X140098061Y-68692872D01*
X140098056Y-68692872D01*
X140011112Y-68711353D01*
X139917712Y-68731206D01*
X139911682Y-68733891D01*
X139911681Y-68733891D01*
X139749278Y-68806197D01*
X139749276Y-68806198D01*
X139743248Y-68808882D01*
X139588747Y-68921134D01*
X139584326Y-68926044D01*
X139584325Y-68926045D01*
X139564143Y-68948460D01*
X139460960Y-69063056D01*
X139443842Y-69092705D01*
X139373442Y-69214642D01*
X139365473Y-69228444D01*
X139306458Y-69410072D01*
X139286496Y-69600000D01*
X139287186Y-69606565D01*
X139297054Y-69700450D01*
X139306458Y-69789928D01*
X139365473Y-69971556D01*
X139460960Y-70136944D01*
X139465378Y-70141851D01*
X139465379Y-70141852D01*
X139559136Y-70245980D01*
X139589854Y-70309987D01*
X139591500Y-70330290D01*
X139591500Y-86269710D01*
X139571498Y-86337831D01*
X139559136Y-86354020D01*
X139465379Y-86458148D01*
X139460960Y-86463056D01*
X139365473Y-86628444D01*
X139306458Y-86810072D01*
X139305768Y-86816633D01*
X139305768Y-86816635D01*
X139292286Y-86944909D01*
X139286496Y-87000000D01*
X132882655Y-87000000D01*
X132893428Y-86971516D01*
X132920780Y-86944909D01*
X132964603Y-86913650D01*
X133099860Y-86817173D01*
X133258096Y-86659489D01*
X133317594Y-86576689D01*
X133385435Y-86482277D01*
X133388453Y-86478077D01*
X133398303Y-86458148D01*
X133485136Y-86282453D01*
X133485137Y-86282451D01*
X133487430Y-86277811D01*
X133552370Y-86064069D01*
X133581529Y-85842590D01*
X133583156Y-85776000D01*
X133564852Y-85553361D01*
X133510431Y-85336702D01*
X133421354Y-85131840D01*
X133300014Y-84944277D01*
X133149670Y-84779051D01*
X133145619Y-84775852D01*
X133145615Y-84775848D01*
X132978414Y-84643800D01*
X132978410Y-84643798D01*
X132974359Y-84640598D01*
X132933053Y-84617796D01*
X132883084Y-84567364D01*
X132868312Y-84497921D01*
X132893428Y-84431516D01*
X132920780Y-84404909D01*
X132964603Y-84373650D01*
X133099860Y-84277173D01*
X133258096Y-84119489D01*
X133317594Y-84036689D01*
X133385435Y-83942277D01*
X133388453Y-83938077D01*
X133404820Y-83904962D01*
X133485136Y-83742453D01*
X133485137Y-83742451D01*
X133487430Y-83737811D01*
X133552370Y-83524069D01*
X133581529Y-83302590D01*
X133583156Y-83236000D01*
X133564852Y-83013361D01*
X133510431Y-82796702D01*
X133421354Y-82591840D01*
X133300014Y-82404277D01*
X133149670Y-82239051D01*
X133145619Y-82235852D01*
X133145615Y-82235848D01*
X132978414Y-82103800D01*
X132978410Y-82103798D01*
X132974359Y-82100598D01*
X132933053Y-82077796D01*
X132883084Y-82027364D01*
X132868312Y-81957921D01*
X132893428Y-81891516D01*
X132920780Y-81864909D01*
X132964603Y-81833650D01*
X133099860Y-81737173D01*
X133258096Y-81579489D01*
X133317594Y-81496689D01*
X133385435Y-81402277D01*
X133388453Y-81398077D01*
X133487430Y-81197811D01*
X133552370Y-80984069D01*
X133581529Y-80762590D01*
X133583156Y-80696000D01*
X133564852Y-80473361D01*
X133510431Y-80256702D01*
X133421354Y-80051840D01*
X133300014Y-79864277D01*
X133149670Y-79699051D01*
X133145619Y-79695852D01*
X133145615Y-79695848D01*
X132978414Y-79563800D01*
X132978410Y-79563798D01*
X132974359Y-79560598D01*
X132933053Y-79537796D01*
X132883084Y-79487364D01*
X132868312Y-79417921D01*
X132893428Y-79351516D01*
X132920780Y-79324909D01*
X132964603Y-79293650D01*
X133099860Y-79197173D01*
X133258096Y-79039489D01*
X133317594Y-78956689D01*
X133385435Y-78862277D01*
X133388453Y-78858077D01*
X133487430Y-78657811D01*
X133552370Y-78444069D01*
X133581529Y-78222590D01*
X133582327Y-78189928D01*
X133583074Y-78159365D01*
X133583074Y-78159361D01*
X133583156Y-78156000D01*
X133564852Y-77933361D01*
X133510431Y-77716702D01*
X133421354Y-77511840D01*
X133300014Y-77324277D01*
X133149670Y-77159051D01*
X133145619Y-77155852D01*
X133145615Y-77155848D01*
X132978414Y-77023800D01*
X132978410Y-77023798D01*
X132974359Y-77020598D01*
X132933053Y-76997796D01*
X132883084Y-76947364D01*
X132868312Y-76877921D01*
X132893428Y-76811516D01*
X132920780Y-76784909D01*
X132981144Y-76741852D01*
X133099860Y-76657173D01*
X133258096Y-76499489D01*
X133317594Y-76416689D01*
X133385435Y-76322277D01*
X133388453Y-76318077D01*
X133443566Y-76206565D01*
X133485136Y-76122453D01*
X133485137Y-76122451D01*
X133487430Y-76117811D01*
X133552370Y-75904069D01*
X133581529Y-75682590D01*
X133583156Y-75616000D01*
X133564852Y-75393361D01*
X133510431Y-75176702D01*
X133421354Y-74971840D01*
X133300014Y-74784277D01*
X133149670Y-74619051D01*
X133145619Y-74615852D01*
X133145615Y-74615848D01*
X132978414Y-74483800D01*
X132978410Y-74483798D01*
X132974359Y-74480598D01*
X132933053Y-74457796D01*
X132883084Y-74407364D01*
X132868312Y-74337921D01*
X132893428Y-74271516D01*
X132920780Y-74244909D01*
X132964603Y-74213650D01*
X133099860Y-74117173D01*
X133258096Y-73959489D01*
X133317594Y-73876689D01*
X133385435Y-73782277D01*
X133388453Y-73778077D01*
X133474589Y-73603794D01*
X133485136Y-73582453D01*
X133485137Y-73582451D01*
X133487430Y-73577811D01*
X133552370Y-73364069D01*
X133581529Y-73142590D01*
X133583156Y-73076000D01*
X133564852Y-72853361D01*
X133510431Y-72636702D01*
X133421354Y-72431840D01*
X133300014Y-72244277D01*
X133149670Y-72079051D01*
X133145619Y-72075852D01*
X133145615Y-72075848D01*
X132978414Y-71943800D01*
X132978410Y-71943798D01*
X132974359Y-71940598D01*
X132933053Y-71917796D01*
X132883084Y-71867364D01*
X132868312Y-71797921D01*
X132893428Y-71731516D01*
X132920780Y-71704909D01*
X132964603Y-71673650D01*
X133099860Y-71577173D01*
X133258096Y-71419489D01*
X133317594Y-71336689D01*
X133385435Y-71242277D01*
X133388453Y-71238077D01*
X133392972Y-71228935D01*
X133485136Y-71042453D01*
X133485137Y-71042451D01*
X133487430Y-71037811D01*
X133535721Y-70878866D01*
X133550865Y-70829023D01*
X133550865Y-70829021D01*
X133552370Y-70824069D01*
X133581529Y-70602590D01*
X133581900Y-70587396D01*
X133583074Y-70539365D01*
X133583074Y-70539361D01*
X133583156Y-70536000D01*
X133564852Y-70313361D01*
X133510431Y-70096702D01*
X133421354Y-69891840D01*
X133300014Y-69704277D01*
X133296532Y-69700450D01*
X133152798Y-69542488D01*
X133121746Y-69478642D01*
X133130141Y-69408143D01*
X133175317Y-69353375D01*
X133201761Y-69339706D01*
X133308297Y-69299767D01*
X133316705Y-69296615D01*
X133433261Y-69209261D01*
X133520615Y-69092705D01*
X133571745Y-68956316D01*
X133578500Y-68894134D01*
X133578500Y-67097866D01*
X133571745Y-67035684D01*
X133520615Y-66899295D01*
X133433261Y-66782739D01*
X133316705Y-66695385D01*
X133180316Y-66644255D01*
X133118134Y-66637500D01*
X131321866Y-66637500D01*
X131259684Y-66644255D01*
X131123295Y-66695385D01*
X131006739Y-66782739D01*
X130919385Y-66899295D01*
X130868255Y-67035684D01*
X130861500Y-67097866D01*
X130861500Y-68894134D01*
X130868255Y-68956316D01*
X130919385Y-69092705D01*
X131006739Y-69209261D01*
X131123295Y-69296615D01*
X131131704Y-69299767D01*
X131131705Y-69299768D01*
X131240451Y-69340535D01*
X131297216Y-69383176D01*
X131321916Y-69449738D01*
X131306709Y-69519087D01*
X131287316Y-69545568D01*
X131160629Y-69678138D01*
X131034743Y-69862680D01*
X130940688Y-70065305D01*
X130880989Y-70280570D01*
X130857251Y-70502695D01*
X130857548Y-70507848D01*
X130857548Y-70507851D01*
X130863011Y-70602590D01*
X130870110Y-70725715D01*
X130871247Y-70730761D01*
X130871248Y-70730767D01*
X130891119Y-70818939D01*
X130919222Y-70943639D01*
X131003266Y-71150616D01*
X131119987Y-71341088D01*
X131266250Y-71509938D01*
X131438126Y-71652632D01*
X131508595Y-71693811D01*
X131511445Y-71695476D01*
X131560169Y-71747114D01*
X131573240Y-71816897D01*
X131546509Y-71882669D01*
X131506055Y-71916027D01*
X131501787Y-71918249D01*
X131493607Y-71922507D01*
X131489474Y-71925610D01*
X131489471Y-71925612D01*
X131319100Y-72053530D01*
X131314965Y-72056635D01*
X131160629Y-72218138D01*
X131034743Y-72402680D01*
X130940688Y-72605305D01*
X130880989Y-72820570D01*
X130857251Y-73042695D01*
X130857548Y-73047848D01*
X130857548Y-73047851D01*
X130863011Y-73142590D01*
X130870110Y-73265715D01*
X130871247Y-73270761D01*
X130871248Y-73270767D01*
X130891119Y-73358939D01*
X130919222Y-73483639D01*
X131003266Y-73690616D01*
X131119987Y-73881088D01*
X131266250Y-74049938D01*
X131438126Y-74192632D01*
X131508595Y-74233811D01*
X131511445Y-74235476D01*
X131560169Y-74287114D01*
X131573240Y-74356897D01*
X131546509Y-74422669D01*
X131506055Y-74456027D01*
X131493607Y-74462507D01*
X131489474Y-74465610D01*
X131489471Y-74465612D01*
X131469155Y-74480866D01*
X131314965Y-74596635D01*
X131160629Y-74758138D01*
X131034743Y-74942680D01*
X130940688Y-75145305D01*
X130880989Y-75360570D01*
X130857251Y-75582695D01*
X130857548Y-75587848D01*
X130857548Y-75587851D01*
X130863011Y-75682590D01*
X130870110Y-75805715D01*
X130871247Y-75810761D01*
X130871248Y-75810767D01*
X130891119Y-75898939D01*
X130919222Y-76023639D01*
X131003266Y-76230616D01*
X131005965Y-76235020D01*
X131113390Y-76410322D01*
X131119987Y-76421088D01*
X131266250Y-76589938D01*
X131438126Y-76732632D01*
X131508595Y-76773811D01*
X131511445Y-76775476D01*
X131560169Y-76827114D01*
X131573240Y-76896897D01*
X131546509Y-76962669D01*
X131506055Y-76996027D01*
X131493607Y-77002507D01*
X131489474Y-77005610D01*
X131489471Y-77005612D01*
X131319100Y-77133530D01*
X131314965Y-77136635D01*
X131160629Y-77298138D01*
X131034743Y-77482680D01*
X131010604Y-77534684D01*
X130973903Y-77613750D01*
X130940688Y-77685305D01*
X130880989Y-77900570D01*
X130857251Y-78122695D01*
X130857548Y-78127848D01*
X130857548Y-78127851D01*
X130863011Y-78222590D01*
X130870110Y-78345715D01*
X130871247Y-78350761D01*
X130871248Y-78350767D01*
X130877223Y-78377279D01*
X130919222Y-78563639D01*
X131003266Y-78770616D01*
X131119987Y-78961088D01*
X131266250Y-79129938D01*
X131438126Y-79272632D01*
X131508595Y-79313811D01*
X131511445Y-79315476D01*
X131560169Y-79367114D01*
X131573240Y-79436897D01*
X131546509Y-79502669D01*
X131506055Y-79536027D01*
X131493607Y-79542507D01*
X131489474Y-79545610D01*
X131489471Y-79545612D01*
X131465247Y-79563800D01*
X131314965Y-79676635D01*
X131160629Y-79838138D01*
X131034743Y-80022680D01*
X130940688Y-80225305D01*
X130880989Y-80440570D01*
X130857251Y-80662695D01*
X130857548Y-80667848D01*
X130857548Y-80667851D01*
X130863011Y-80762590D01*
X130870110Y-80885715D01*
X130871247Y-80890761D01*
X130871248Y-80890767D01*
X130891119Y-80978939D01*
X130919222Y-81103639D01*
X131003266Y-81310616D01*
X131119987Y-81501088D01*
X131266250Y-81669938D01*
X131438126Y-81812632D01*
X131508595Y-81853811D01*
X131511445Y-81855476D01*
X131560169Y-81907114D01*
X131573240Y-81976897D01*
X131546509Y-82042669D01*
X131506055Y-82076027D01*
X131493607Y-82082507D01*
X131489474Y-82085610D01*
X131489471Y-82085612D01*
X131465247Y-82103800D01*
X131314965Y-82216635D01*
X131311393Y-82220373D01*
X131183768Y-82353925D01*
X131160629Y-82378138D01*
X131034743Y-82562680D01*
X130940688Y-82765305D01*
X130880989Y-82980570D01*
X130857251Y-83202695D01*
X130857548Y-83207848D01*
X130857548Y-83207851D01*
X130864267Y-83324373D01*
X130870110Y-83425715D01*
X130871247Y-83430761D01*
X130871248Y-83430767D01*
X130879844Y-83468909D01*
X130919222Y-83643639D01*
X131003266Y-83850616D01*
X131119987Y-84041088D01*
X131266250Y-84209938D01*
X131438126Y-84352632D01*
X131474616Y-84373955D01*
X131511445Y-84395476D01*
X131560169Y-84447114D01*
X131573240Y-84516897D01*
X131546509Y-84582669D01*
X131506055Y-84616027D01*
X131493607Y-84622507D01*
X131489474Y-84625610D01*
X131489471Y-84625612D01*
X131465247Y-84643800D01*
X131314965Y-84756635D01*
X131160629Y-84918138D01*
X131034743Y-85102680D01*
X130940688Y-85305305D01*
X130880989Y-85520570D01*
X130857251Y-85742695D01*
X130857548Y-85747848D01*
X130857548Y-85747851D01*
X130869812Y-85960547D01*
X130870110Y-85965715D01*
X130871247Y-85970761D01*
X130871248Y-85970767D01*
X130882957Y-86022721D01*
X130919222Y-86183639D01*
X131003266Y-86390616D01*
X131119987Y-86581088D01*
X131266250Y-86749938D01*
X131438126Y-86892632D01*
X131504172Y-86931226D01*
X131511445Y-86935476D01*
X131560169Y-86987114D01*
X131573240Y-87056897D01*
X131546509Y-87122669D01*
X131506055Y-87156027D01*
X131493607Y-87162507D01*
X131489474Y-87165610D01*
X131489471Y-87165612D01*
X131350218Y-87270166D01*
X131314965Y-87296635D01*
X131160629Y-87458138D01*
X131034743Y-87642680D01*
X131020226Y-87673955D01*
X130965841Y-87791118D01*
X130940688Y-87845305D01*
X130880989Y-88060570D01*
X130857251Y-88282695D01*
X130857548Y-88287848D01*
X130857548Y-88287851D01*
X130863011Y-88382590D01*
X130870110Y-88505715D01*
X130871247Y-88510761D01*
X130871248Y-88510767D01*
X130891119Y-88598939D01*
X130919222Y-88723639D01*
X131003266Y-88930616D01*
X131119987Y-89121088D01*
X131266250Y-89289938D01*
X131438126Y-89432632D01*
X131508595Y-89473811D01*
X131511445Y-89475476D01*
X131560169Y-89527114D01*
X131573240Y-89596897D01*
X131546509Y-89662669D01*
X131506055Y-89696027D01*
X131493607Y-89702507D01*
X131489474Y-89705610D01*
X131489471Y-89705612D01*
X131465247Y-89723800D01*
X131314965Y-89836635D01*
X131160629Y-89998138D01*
X131157715Y-90002410D01*
X131157714Y-90002411D01*
X131145404Y-90020457D01*
X131034743Y-90182680D01*
X130940688Y-90385305D01*
X130880989Y-90600570D01*
X130857251Y-90822695D01*
X130857548Y-90827848D01*
X130857548Y-90827851D01*
X130862926Y-90921118D01*
X130870110Y-91045715D01*
X130871247Y-91050761D01*
X130871248Y-91050767D01*
X130885449Y-91113778D01*
X130919222Y-91263639D01*
X131003266Y-91470616D01*
X131005965Y-91475020D01*
X131080848Y-91597218D01*
X131119987Y-91661088D01*
X131266250Y-91829938D01*
X131438126Y-91972632D01*
X131450177Y-91979674D01*
X131511445Y-92015476D01*
X131560169Y-92067114D01*
X131573240Y-92136897D01*
X131546509Y-92202669D01*
X131506055Y-92236027D01*
X131493607Y-92242507D01*
X131489474Y-92245610D01*
X131489471Y-92245612D01*
X131465247Y-92263800D01*
X131314965Y-92376635D01*
X131311393Y-92380373D01*
X131175410Y-92522671D01*
X131160629Y-92538138D01*
X131157715Y-92542410D01*
X131157714Y-92542411D01*
X131145404Y-92560457D01*
X131034743Y-92722680D01*
X130990311Y-92818400D01*
X130971798Y-92858285D01*
X130940688Y-92925305D01*
X130880989Y-93140570D01*
X130857251Y-93362695D01*
X130857548Y-93367848D01*
X130857548Y-93367851D01*
X130863011Y-93462590D01*
X130870110Y-93585715D01*
X130871247Y-93590761D01*
X130871248Y-93590767D01*
X130885449Y-93653778D01*
X130919222Y-93803639D01*
X131003266Y-94010616D01*
X131119987Y-94201088D01*
X131266250Y-94369938D01*
X131438126Y-94512632D01*
X131508595Y-94553811D01*
X131511445Y-94555476D01*
X131560169Y-94607114D01*
X131573240Y-94676897D01*
X131546509Y-94742669D01*
X131506055Y-94776027D01*
X131493607Y-94782507D01*
X131489474Y-94785610D01*
X131489471Y-94785612D01*
X131465247Y-94803800D01*
X131314965Y-94916635D01*
X131160629Y-95078138D01*
X131157715Y-95082410D01*
X131157714Y-95082411D01*
X131145404Y-95100457D01*
X131034743Y-95262680D01*
X130940688Y-95465305D01*
X130880989Y-95680570D01*
X130857251Y-95902695D01*
X130508000Y-95902695D01*
X130508000Y-63107655D01*
X131239858Y-63107655D01*
X131275104Y-63366638D01*
X131276412Y-63371124D01*
X131276412Y-63371126D01*
X131296098Y-63438664D01*
X131348243Y-63617567D01*
X131457668Y-63854928D01*
X131460231Y-63858837D01*
X131598410Y-64069596D01*
X131598414Y-64069601D01*
X131600976Y-64073509D01*
X131775018Y-64268506D01*
X131975970Y-64435637D01*
X131979973Y-64438066D01*
X132195422Y-64568804D01*
X132195426Y-64568806D01*
X132199419Y-64571229D01*
X132440455Y-64672303D01*
X132693783Y-64736641D01*
X132698434Y-64737109D01*
X132698438Y-64737110D01*
X132891308Y-64756531D01*
X132910867Y-64758500D01*
X133066354Y-64758500D01*
X133068679Y-64758327D01*
X133068685Y-64758327D01*
X133256000Y-64744407D01*
X133256004Y-64744406D01*
X133260652Y-64744061D01*
X133265200Y-64743032D01*
X133265206Y-64743031D01*
X133451601Y-64700853D01*
X133515577Y-64686377D01*
X133551769Y-64672303D01*
X133754824Y-64593340D01*
X133754827Y-64593339D01*
X133759177Y-64591647D01*
X133986098Y-64461951D01*
X134191357Y-64300138D01*
X134370443Y-64109763D01*
X134519424Y-63895009D01*
X134635025Y-63660593D01*
X134714707Y-63411665D01*
X134756721Y-63153693D01*
X134757324Y-63107655D01*
X165239858Y-63107655D01*
X165275104Y-63366638D01*
X165276412Y-63371124D01*
X165276412Y-63371126D01*
X165296098Y-63438664D01*
X165348243Y-63617567D01*
X165457668Y-63854928D01*
X165460231Y-63858837D01*
X165598410Y-64069596D01*
X165598414Y-64069601D01*
X165600976Y-64073509D01*
X165775018Y-64268506D01*
X165975970Y-64435637D01*
X165979973Y-64438066D01*
X166195422Y-64568804D01*
X166195426Y-64568806D01*
X166199419Y-64571229D01*
X166440455Y-64672303D01*
X166693783Y-64736641D01*
X166698434Y-64737109D01*
X166698438Y-64737110D01*
X166891308Y-64756531D01*
X166910867Y-64758500D01*
X167066354Y-64758500D01*
X167068679Y-64758327D01*
X167068685Y-64758327D01*
X167256000Y-64744407D01*
X167256004Y-64744406D01*
X167260652Y-64744061D01*
X167265200Y-64743032D01*
X167265206Y-64743031D01*
X167451601Y-64700853D01*
X167515577Y-64686377D01*
X167551769Y-64672303D01*
X167754824Y-64593340D01*
X167754827Y-64593339D01*
X167759177Y-64591647D01*
X167986098Y-64461951D01*
X168191357Y-64300138D01*
X168370443Y-64109763D01*
X168519424Y-63895009D01*
X168635025Y-63660593D01*
X168714707Y-63411665D01*
X168756721Y-63153693D01*
X168758871Y-62989446D01*
X168760081Y-62897022D01*
X168760081Y-62897019D01*
X168760142Y-62892345D01*
X168724896Y-62633362D01*
X168710473Y-62583877D01*
X168703902Y-62561336D01*
X168651757Y-62382433D01*
X168542332Y-62145072D01*
X168434403Y-61980453D01*
X168401590Y-61930404D01*
X168401586Y-61930399D01*
X168399024Y-61926491D01*
X168224982Y-61731494D01*
X168024030Y-61564363D01*
X167976844Y-61535730D01*
X167804578Y-61431196D01*
X167804574Y-61431194D01*
X167800581Y-61428771D01*
X167559545Y-61327697D01*
X167306217Y-61263359D01*
X167301566Y-61262891D01*
X167301562Y-61262890D01*
X167092271Y-61241816D01*
X167089133Y-61241500D01*
X166933646Y-61241500D01*
X166931321Y-61241673D01*
X166931315Y-61241673D01*
X166744000Y-61255593D01*
X166743996Y-61255594D01*
X166739348Y-61255939D01*
X166734800Y-61256968D01*
X166734794Y-61256969D01*
X166548399Y-61299147D01*
X166484423Y-61313623D01*
X166480071Y-61315315D01*
X166480069Y-61315316D01*
X166245176Y-61406660D01*
X166245173Y-61406661D01*
X166240823Y-61408353D01*
X166013902Y-61538049D01*
X165808643Y-61699862D01*
X165629557Y-61890237D01*
X165480576Y-62104991D01*
X165478510Y-62109181D01*
X165478508Y-62109184D01*
X165474987Y-62116325D01*
X165364975Y-62339407D01*
X165363553Y-62343850D01*
X165363552Y-62343852D01*
X165344418Y-62403626D01*
X165285293Y-62588335D01*
X165243279Y-62846307D01*
X165239858Y-63107655D01*
X134757324Y-63107655D01*
X134758871Y-62989446D01*
X134760081Y-62897022D01*
X134760081Y-62897019D01*
X134760142Y-62892345D01*
X134724896Y-62633362D01*
X134710473Y-62583877D01*
X134703902Y-62561336D01*
X134651757Y-62382433D01*
X134542332Y-62145072D01*
X134434403Y-61980453D01*
X134401590Y-61930404D01*
X134401586Y-61930399D01*
X134399024Y-61926491D01*
X134224982Y-61731494D01*
X134024030Y-61564363D01*
X133976844Y-61535730D01*
X133804578Y-61431196D01*
X133804574Y-61431194D01*
X133800581Y-61428771D01*
X133559545Y-61327697D01*
X133306217Y-61263359D01*
X133301566Y-61262891D01*
X133301562Y-61262890D01*
X133092271Y-61241816D01*
X133089133Y-61241500D01*
X132933646Y-61241500D01*
X132931321Y-61241673D01*
X132931315Y-61241673D01*
X132744000Y-61255593D01*
X132743996Y-61255594D01*
X132739348Y-61255939D01*
X132734800Y-61256968D01*
X132734794Y-61256969D01*
X132548399Y-61299147D01*
X132484423Y-61313623D01*
X132480071Y-61315315D01*
X132480069Y-61315316D01*
X132245176Y-61406660D01*
X132245173Y-61406661D01*
X132240823Y-61408353D01*
X132013902Y-61538049D01*
X131808643Y-61699862D01*
X131629557Y-61890237D01*
X131480576Y-62104991D01*
X131478510Y-62109181D01*
X131478508Y-62109184D01*
X131474987Y-62116325D01*
X131364975Y-62339407D01*
X131363553Y-62343850D01*
X131363552Y-62343852D01*
X131344418Y-62403626D01*
X131285293Y-62588335D01*
X131243279Y-62846307D01*
X131239858Y-63107655D01*
X130508000Y-63107655D01*
X130508000Y-63049328D01*
X130509500Y-63029943D01*
X130511805Y-63015142D01*
X130511805Y-63015139D01*
X130513186Y-63006270D01*
X130510941Y-62989101D01*
X130510108Y-62965161D01*
X130525710Y-62707230D01*
X130527544Y-62692126D01*
X130579038Y-62411127D01*
X130582679Y-62396353D01*
X130588343Y-62378179D01*
X130667675Y-62123592D01*
X130673070Y-62109370D01*
X130771694Y-61890237D01*
X130790316Y-61848860D01*
X130797385Y-61835391D01*
X130945182Y-61590905D01*
X130953825Y-61578383D01*
X131130016Y-61353493D01*
X131140106Y-61342105D01*
X131342105Y-61140106D01*
X131353493Y-61130016D01*
X131578383Y-60953825D01*
X131590905Y-60945182D01*
X131835391Y-60797385D01*
X131848860Y-60790316D01*
X132109373Y-60673069D01*
X132123592Y-60667675D01*
X132396359Y-60582678D01*
X132411121Y-60579040D01*
X132621352Y-60540514D01*
X132692126Y-60527544D01*
X132707230Y-60525710D01*
X132957929Y-60510545D01*
X132984639Y-60511802D01*
X132984859Y-60511805D01*
X132993730Y-60513186D01*
X133002632Y-60512022D01*
X133002635Y-60512022D01*
X133025251Y-60509064D01*
X133041589Y-60508000D01*
X166950672Y-60508000D01*
X166970057Y-60509500D01*
G37*
%TD.AperFunction*%
M02*
