%TF.GenerationSoftware,KiCad,Pcbnew,(6.0.0-0)*%
%TF.CreationDate,2022-11-28T12:15:47+01:00*%
%TF.ProjectId,wm8904_codec_breakout,776d3839-3034-45f6-936f-6465635f6272,rev?*%
%TF.SameCoordinates,Original*%
%TF.FileFunction,Copper,L1,Top*%
%TF.FilePolarity,Positive*%
%FSLAX46Y46*%
G04 Gerber Fmt 4.6, Leading zero omitted, Abs format (unit mm)*
G04 Created by KiCad (PCBNEW (6.0.0-0)) date 2022-11-28 12:15:47*
%MOMM*%
%LPD*%
G01*
G04 APERTURE LIST*
G04 Aperture macros list*
%AMRoundRect*
0 Rectangle with rounded corners*
0 $1 Rounding radius*
0 $2 $3 $4 $5 $6 $7 $8 $9 X,Y pos of 4 corners*
0 Add a 4 corners polygon primitive as box body*
4,1,4,$2,$3,$4,$5,$6,$7,$8,$9,$2,$3,0*
0 Add four circle primitives for the rounded corners*
1,1,$1+$1,$2,$3*
1,1,$1+$1,$4,$5*
1,1,$1+$1,$6,$7*
1,1,$1+$1,$8,$9*
0 Add four rect primitives between the rounded corners*
20,1,$1+$1,$2,$3,$4,$5,0*
20,1,$1+$1,$4,$5,$6,$7,0*
20,1,$1+$1,$6,$7,$8,$9,0*
20,1,$1+$1,$8,$9,$2,$3,0*%
G04 Aperture macros list end*
%TA.AperFunction,SMDPad,CuDef*%
%ADD10RoundRect,0.135000X-0.185000X0.135000X-0.185000X-0.135000X0.185000X-0.135000X0.185000X0.135000X0*%
%TD*%
%TA.AperFunction,SMDPad,CuDef*%
%ADD11RoundRect,0.140000X-0.140000X-0.170000X0.140000X-0.170000X0.140000X0.170000X-0.140000X0.170000X0*%
%TD*%
%TA.AperFunction,ComponentPad*%
%ADD12R,1.700000X1.700000*%
%TD*%
%TA.AperFunction,ComponentPad*%
%ADD13O,1.700000X1.700000*%
%TD*%
%TA.AperFunction,SMDPad,CuDef*%
%ADD14RoundRect,0.140000X0.170000X-0.140000X0.170000X0.140000X-0.170000X0.140000X-0.170000X-0.140000X0*%
%TD*%
%TA.AperFunction,SMDPad,CuDef*%
%ADD15RoundRect,0.135000X0.135000X0.185000X-0.135000X0.185000X-0.135000X-0.185000X0.135000X-0.185000X0*%
%TD*%
%TA.AperFunction,SMDPad,CuDef*%
%ADD16RoundRect,0.140000X0.140000X0.170000X-0.140000X0.170000X-0.140000X-0.170000X0.140000X-0.170000X0*%
%TD*%
%TA.AperFunction,SMDPad,CuDef*%
%ADD17R,3.500000X1.500000*%
%TD*%
%TA.AperFunction,SMDPad,CuDef*%
%ADD18RoundRect,0.140000X-0.170000X0.140000X-0.170000X-0.140000X0.170000X-0.140000X0.170000X0.140000X0*%
%TD*%
%TA.AperFunction,SMDPad,CuDef*%
%ADD19RoundRect,0.200000X-0.200000X-0.275000X0.200000X-0.275000X0.200000X0.275000X-0.200000X0.275000X0*%
%TD*%
%TA.AperFunction,SMDPad,CuDef*%
%ADD20O,0.200000X0.400000*%
%TD*%
%TA.AperFunction,SMDPad,CuDef*%
%ADD21O,0.400000X0.200000*%
%TD*%
%TA.AperFunction,SMDPad,CuDef*%
%ADD22R,2.700000X2.700000*%
%TD*%
%TA.AperFunction,SMDPad,CuDef*%
%ADD23R,2.000000X1.500000*%
%TD*%
%TA.AperFunction,SMDPad,CuDef*%
%ADD24R,2.000000X3.800000*%
%TD*%
%TA.AperFunction,SMDPad,CuDef*%
%ADD25RoundRect,0.200000X-0.275000X0.200000X-0.275000X-0.200000X0.275000X-0.200000X0.275000X0.200000X0*%
%TD*%
%TA.AperFunction,ViaPad*%
%ADD26C,0.800000*%
%TD*%
%TA.AperFunction,Conductor*%
%ADD27C,0.200000*%
%TD*%
%TA.AperFunction,Conductor*%
%ADD28C,0.250000*%
%TD*%
G04 APERTURE END LIST*
D10*
X148600000Y-67690000D03*
X148600000Y-68710000D03*
D11*
X153120000Y-72000000D03*
X154080000Y-72000000D03*
D12*
X132220000Y-67996000D03*
D13*
X132220000Y-70536000D03*
X132220000Y-73076000D03*
X132220000Y-75616000D03*
X132220000Y-78156000D03*
X132220000Y-80696000D03*
X132220000Y-83236000D03*
X132220000Y-85776000D03*
X132220000Y-88316000D03*
X132220000Y-90856000D03*
X132220000Y-93396000D03*
X132220000Y-95936000D03*
D14*
X147800000Y-77980000D03*
X147800000Y-77020000D03*
D15*
X144510000Y-72200000D03*
X143490000Y-72200000D03*
D11*
X151870000Y-76200000D03*
X152830000Y-76200000D03*
D16*
X155680000Y-77000000D03*
X154720000Y-77000000D03*
D17*
X152250000Y-95800000D03*
X159750000Y-97800000D03*
X159750000Y-90800000D03*
D18*
X149600000Y-67720000D03*
X149600000Y-68680000D03*
X150800000Y-77020000D03*
X150800000Y-77980000D03*
D19*
X155374792Y-72298290D03*
X157024792Y-72298290D03*
D18*
X146800000Y-67720000D03*
X146800000Y-68680000D03*
D14*
X149800000Y-77980000D03*
X149800000Y-77020000D03*
D12*
X167780000Y-67996000D03*
D13*
X167780000Y-70536000D03*
X167780000Y-73076000D03*
X167780000Y-75616000D03*
X167780000Y-78156000D03*
X167780000Y-80696000D03*
X167780000Y-83236000D03*
X167780000Y-85776000D03*
X167780000Y-88316000D03*
X167780000Y-90856000D03*
X167780000Y-93396000D03*
X167780000Y-95936000D03*
D20*
X148600000Y-75000000D03*
X149000000Y-75000000D03*
X149400000Y-75000000D03*
X149800000Y-75000000D03*
X150200000Y-75000000D03*
X150600000Y-75000000D03*
X151000000Y-75000000D03*
X151400000Y-75000000D03*
D21*
X151800000Y-74600000D03*
X151800000Y-74200000D03*
X151800000Y-73800000D03*
X151800000Y-73400000D03*
X151800000Y-73000000D03*
X151800000Y-72600000D03*
X151800000Y-72200000D03*
X151800000Y-71800000D03*
D20*
X151400000Y-71400000D03*
X151000000Y-71400000D03*
X150600000Y-71400000D03*
X150200000Y-71400000D03*
X149800000Y-71400000D03*
X149400000Y-71400000D03*
X149000000Y-71400000D03*
X148600000Y-71400000D03*
D21*
X148200000Y-71800000D03*
X148200000Y-72200000D03*
X148200000Y-72600000D03*
X148200000Y-73000000D03*
X148200000Y-73400000D03*
X148200000Y-73800000D03*
X148200000Y-74200000D03*
X148200000Y-74600000D03*
D22*
X150000000Y-73200000D03*
D11*
X154720000Y-75000000D03*
X155680000Y-75000000D03*
D23*
X146850000Y-80100000D03*
X146850000Y-82400000D03*
D24*
X153150000Y-82400000D03*
D23*
X146850000Y-84700000D03*
D18*
X144800000Y-67720000D03*
X144800000Y-68680000D03*
D11*
X145600000Y-72200000D03*
X146560000Y-72200000D03*
D19*
X153000000Y-68200000D03*
X154650000Y-68200000D03*
D18*
X150600000Y-67720000D03*
X150600000Y-68680000D03*
X145800000Y-67720000D03*
X145800000Y-68680000D03*
D25*
X157000000Y-75175000D03*
X157000000Y-76825000D03*
D17*
X140250000Y-95800000D03*
X147750000Y-97800000D03*
X147750000Y-90800000D03*
D19*
X155374792Y-70698290D03*
X157024792Y-70698290D03*
D16*
X155680000Y-76000000D03*
X154720000Y-76000000D03*
D11*
X153120000Y-71000000D03*
X154080000Y-71000000D03*
D14*
X151625000Y-68680000D03*
X151625000Y-67720000D03*
D26*
X150393061Y-76179485D03*
X152886843Y-70096391D03*
X152112138Y-75208057D03*
X154710128Y-74000628D03*
X150600000Y-67000000D03*
X158200000Y-76800000D03*
X147800000Y-78800000D03*
X147800000Y-96200000D03*
X149021201Y-70136395D03*
X149600000Y-67000000D03*
X159800000Y-96200000D03*
X150600000Y-78600000D03*
X145800000Y-67200000D03*
X155800000Y-78000000D03*
X155600000Y-68200000D03*
X158500000Y-71700000D03*
X148800000Y-80200000D03*
X143400000Y-71235500D03*
X147709500Y-67000000D03*
X147800000Y-70200000D03*
X151800000Y-78000000D03*
X148000000Y-76200000D03*
X160100000Y-83700000D03*
X158100000Y-83700000D03*
X144600000Y-73800000D03*
X144600000Y-86400000D03*
X140200000Y-87000000D03*
X140200000Y-69600000D03*
D27*
X151400000Y-75445761D02*
X151499012Y-75544774D01*
X151499012Y-75829012D02*
X151870000Y-76200000D01*
X151400000Y-75000000D02*
X151400000Y-75445761D01*
X151499012Y-75544774D02*
X151499012Y-75829012D01*
X152093326Y-74200000D02*
X152811639Y-74918313D01*
X152811639Y-75497801D02*
X152800489Y-75508951D01*
X152811639Y-74918313D02*
X152811639Y-75497801D01*
X151800000Y-74200000D02*
X152093326Y-74200000D01*
X152800489Y-75508951D02*
X152800489Y-76170489D01*
X152800489Y-76170489D02*
X152830000Y-76200000D01*
X155680000Y-76000000D02*
X155680000Y-77000000D01*
X155680000Y-77880000D02*
X155800000Y-78000000D01*
D28*
X147750000Y-96250000D02*
X147800000Y-96200000D01*
D27*
X149400000Y-71400000D02*
X149400000Y-70399206D01*
X154650000Y-68200000D02*
X155600000Y-68200000D01*
X150800000Y-78400000D02*
X150600000Y-78600000D01*
X149284012Y-70399206D02*
X149021201Y-70136395D01*
X151400000Y-71400000D02*
X152703609Y-70096391D01*
X150200000Y-73400000D02*
X150000000Y-73200000D01*
X147800000Y-77980000D02*
X147800000Y-78800000D01*
D28*
X159750000Y-96250000D02*
X159800000Y-96200000D01*
D27*
X152800000Y-72600000D02*
X154300000Y-74100000D01*
X151800000Y-74600000D02*
X151800000Y-74895919D01*
X152703609Y-70096391D02*
X152886843Y-70096391D01*
X157000000Y-76825000D02*
X158175000Y-76825000D01*
X150600000Y-67720000D02*
X150600000Y-67000000D01*
X157498290Y-70698290D02*
X158500000Y-71700000D01*
X150200000Y-75000000D02*
X150200000Y-73400000D01*
X150800000Y-77980000D02*
X150800000Y-78400000D01*
X157024792Y-70698290D02*
X157498290Y-70698290D01*
X145800000Y-67720000D02*
X145800000Y-67200000D01*
X155680000Y-77000000D02*
X155680000Y-77880000D01*
X150200000Y-75986424D02*
X150393061Y-76179485D01*
X149600000Y-67720000D02*
X149600000Y-67000000D01*
X149400000Y-70399206D02*
X149390775Y-70389981D01*
X149800000Y-77980000D02*
X150800000Y-77980000D01*
X154300000Y-74100000D02*
X154610756Y-74100000D01*
X154610756Y-74100000D02*
X154710128Y-74000628D01*
D28*
X159750000Y-97900000D02*
X159750000Y-96250000D01*
D27*
X151800000Y-72600000D02*
X152800000Y-72600000D01*
X145800000Y-67720000D02*
X146800000Y-67720000D01*
X158175000Y-76825000D02*
X158200000Y-76800000D01*
X148700000Y-80100000D02*
X148800000Y-80200000D01*
X146850000Y-80100000D02*
X148700000Y-80100000D01*
X149400000Y-70399206D02*
X149284012Y-70399206D01*
X157024792Y-72298290D02*
X157901710Y-72298290D01*
D28*
X147750000Y-97900000D02*
X147750000Y-96250000D01*
D27*
X151800000Y-74895919D02*
X152112138Y-75208057D01*
X157901710Y-72298290D02*
X158500000Y-71700000D01*
X150200000Y-75000000D02*
X150200000Y-75986424D01*
X154561575Y-77000000D02*
X154720000Y-77000000D01*
X151800000Y-73800000D02*
X152258319Y-73800000D01*
X152258319Y-73800000D02*
X153211150Y-74752831D01*
X153211150Y-74752831D02*
X153211150Y-75649575D01*
X153211150Y-75649575D02*
X154561575Y-77000000D01*
X153610661Y-74587350D02*
X153610661Y-75484092D01*
X153610661Y-75484092D02*
X154126569Y-76000000D01*
X154126569Y-76000000D02*
X154720000Y-76000000D01*
X152423311Y-73400000D02*
X153610661Y-74587350D01*
X151800000Y-73400000D02*
X152423311Y-73400000D01*
X143400000Y-72110000D02*
X143400000Y-71235500D01*
D28*
X148600000Y-68710000D02*
X147709500Y-67819500D01*
X147709500Y-67819500D02*
X147709500Y-67000000D01*
D27*
X149600000Y-68680000D02*
X150200000Y-69280000D01*
X149570000Y-68710000D02*
X149600000Y-68680000D01*
X143490000Y-72200000D02*
X143400000Y-72110000D01*
X150200000Y-69280000D02*
X150200000Y-71400000D01*
X148600000Y-68710000D02*
X149570000Y-68710000D01*
X149800000Y-69925949D02*
X149274051Y-69400000D01*
X149800000Y-71400000D02*
X149800000Y-69925949D01*
X146800000Y-69000000D02*
X146800000Y-68680000D01*
X147200000Y-69400000D02*
X146800000Y-69000000D01*
X149274051Y-69400000D02*
X147200000Y-69400000D01*
X147320000Y-71200000D02*
X144800000Y-68680000D01*
X148600000Y-71400000D02*
X147800000Y-71400000D01*
X147600000Y-71200000D02*
X147320000Y-71200000D01*
X147800000Y-71400000D02*
X147600000Y-71200000D01*
X155680000Y-75000000D02*
X156825000Y-75000000D01*
X156825000Y-75000000D02*
X157000000Y-75175000D01*
X150600000Y-71400000D02*
X150600000Y-68680000D01*
X149799511Y-77019511D02*
X149800000Y-77020000D01*
X151099501Y-75710256D02*
X151000000Y-75610755D01*
X151000000Y-75000000D02*
X150600000Y-75000000D01*
X147800000Y-70200000D02*
X148065006Y-70200000D01*
X146850000Y-82400000D02*
X153150000Y-82400000D01*
X149693560Y-75889741D02*
X149693560Y-76469229D01*
X145550489Y-79050489D02*
X145550489Y-81100489D01*
X147320000Y-70200000D02*
X147800000Y-70200000D01*
X147800000Y-76400000D02*
X148000000Y-76200000D01*
X149800000Y-75000000D02*
X149800000Y-75783301D01*
X151000000Y-75610755D02*
X151000000Y-75000000D01*
X150800000Y-77020000D02*
X150820000Y-77020000D01*
X153150000Y-82400000D02*
X161864000Y-82400000D01*
X161864000Y-82400000D02*
X167780000Y-88316000D01*
X145550489Y-81100489D02*
X146850000Y-82400000D01*
X149693560Y-76469229D02*
X149799511Y-76575180D01*
X149800000Y-75783301D02*
X149693560Y-75889741D01*
X148065006Y-70200000D02*
X149000000Y-71134994D01*
X149800000Y-77020000D02*
X150800000Y-77020000D01*
X151099501Y-76720499D02*
X151099501Y-75710256D01*
X149799511Y-76575180D02*
X149799511Y-77019511D01*
X147800000Y-77020000D02*
X147800000Y-76400000D01*
X145800000Y-68680000D02*
X147320000Y-70200000D01*
X147580978Y-77020000D02*
X145550489Y-79050489D01*
X150800000Y-77020000D02*
X151099501Y-76720499D01*
X150820000Y-77020000D02*
X151800000Y-78000000D01*
X149000000Y-71134994D02*
X149000000Y-71400000D01*
X147800000Y-77020000D02*
X147580978Y-77020000D01*
X151800000Y-73000000D02*
X152623431Y-73000000D01*
X154720000Y-75000000D02*
X154720000Y-74980000D01*
X154720000Y-74980000D02*
X155700000Y-74000000D01*
X155700000Y-74000000D02*
X165300000Y-74000000D01*
X152623431Y-73000000D02*
X154623431Y-75000000D01*
X160100000Y-90450000D02*
X159750000Y-90800000D01*
X165300000Y-74000000D02*
X166916000Y-75616000D01*
X160100000Y-83700000D02*
X160100000Y-90450000D01*
X166916000Y-75616000D02*
X167780000Y-75616000D01*
X154623431Y-75000000D02*
X154720000Y-75000000D01*
X151800000Y-72200000D02*
X152920000Y-72200000D01*
X152250000Y-92050000D02*
X152250000Y-95800000D01*
X152920000Y-72200000D02*
X153120000Y-72000000D01*
X153120000Y-72000000D02*
X154196000Y-73076000D01*
X158100000Y-83700000D02*
X158100000Y-86200000D01*
X154196000Y-73076000D02*
X167780000Y-73076000D01*
X158100000Y-86200000D02*
X152250000Y-92050000D01*
D28*
X147750000Y-89550000D02*
X147750000Y-90800000D01*
D27*
X143634000Y-73076000D02*
X144510000Y-72200000D01*
X132220000Y-73076000D02*
X143634000Y-73076000D01*
X144600000Y-73800000D02*
X144600000Y-72290000D01*
X147700000Y-89500000D02*
X144600000Y-86400000D01*
X144600000Y-72290000D02*
X144510000Y-72200000D01*
D28*
X147700000Y-89500000D02*
X147750000Y-89550000D01*
D27*
X144510000Y-72200000D02*
X145600000Y-72200000D01*
X153120000Y-71000000D02*
X154620000Y-69500000D01*
X154620000Y-69500000D02*
X166744000Y-69500000D01*
X152600000Y-71000000D02*
X151800000Y-71800000D01*
X153120000Y-71000000D02*
X152600000Y-71000000D01*
X166744000Y-69500000D02*
X167780000Y-70536000D01*
X132220000Y-67996000D02*
X132516000Y-67700000D01*
X140200000Y-69600000D02*
X142920000Y-69600000D01*
X144800000Y-67210755D02*
X145710256Y-66300499D01*
X132516000Y-67700000D02*
X144780000Y-67700000D01*
X140250000Y-95900000D02*
X140250000Y-87050000D01*
X144780000Y-67700000D02*
X144800000Y-67720000D01*
X140250000Y-87050000D02*
X140200000Y-87000000D01*
X145710256Y-66300499D02*
X148100499Y-66300499D01*
X142920000Y-69600000D02*
X144800000Y-67720000D01*
X148100499Y-66300499D02*
X148600000Y-66800000D01*
X144800000Y-67720000D02*
X144800000Y-67210755D01*
X148600000Y-66800000D02*
X148600000Y-67690000D01*
X151000000Y-70400000D02*
X151000000Y-71400000D01*
X151000000Y-71400000D02*
X151000000Y-70993989D01*
X151000000Y-70993989D02*
X153019469Y-68974520D01*
X151625000Y-69775000D02*
X151000000Y-70400000D01*
X151625000Y-68680000D02*
X151625000Y-69775000D01*
X153019469Y-68974520D02*
X166801480Y-68974520D01*
X166801480Y-68974520D02*
X167780000Y-67996000D01*
X145827575Y-70536000D02*
X132220000Y-70536000D01*
X147091575Y-71800000D02*
X145827575Y-70536000D01*
X148200000Y-71800000D02*
X147091575Y-71800000D01*
X147091575Y-72600000D02*
X144075575Y-75616000D01*
X144075575Y-75616000D02*
X132220000Y-75616000D01*
X148200000Y-72600000D02*
X147091575Y-72600000D01*
X147385787Y-73000000D02*
X148200000Y-73000000D01*
X132220000Y-78156000D02*
X142229787Y-78156000D01*
X142229787Y-78156000D02*
X147385787Y-73000000D01*
X140254785Y-80696000D02*
X132220000Y-80696000D01*
X148200000Y-73400000D02*
X147550785Y-73400000D01*
X147550785Y-73400000D02*
X140254785Y-80696000D01*
X148200000Y-73800000D02*
X147715778Y-73800000D01*
X147715778Y-73800000D02*
X138279778Y-83236000D01*
X138279778Y-83236000D02*
X132220000Y-83236000D01*
X148200000Y-74200000D02*
X147880771Y-74200000D01*
X147880771Y-74200000D02*
X136304771Y-85776000D01*
X136304771Y-85776000D02*
X132220000Y-85776000D01*
X154080000Y-72000000D02*
X155076502Y-72000000D01*
X155076502Y-72000000D02*
X155374792Y-72298290D01*
X148045761Y-74600000D02*
X134329761Y-88316000D01*
X148200000Y-74600000D02*
X148045761Y-74600000D01*
X134329761Y-88316000D02*
X132220000Y-88316000D01*
X146560000Y-72200000D02*
X148200000Y-72200000D01*
X155073082Y-71000000D02*
X155374792Y-70698290D01*
X154080000Y-71000000D02*
X155073082Y-71000000D01*
X148210755Y-75000000D02*
X132354755Y-90856000D01*
X132354755Y-90856000D02*
X132220000Y-90856000D01*
X148600000Y-75000000D02*
X148210755Y-75000000D01*
X152520000Y-67720000D02*
X153000000Y-68200000D01*
X151625000Y-67720000D02*
X152520000Y-67720000D01*
X141016000Y-84600000D02*
X146750000Y-84600000D01*
X132220000Y-95936000D02*
X132220000Y-93396000D01*
X132220000Y-93396000D02*
X141016000Y-84600000D01*
X146750000Y-84600000D02*
X146850000Y-84700000D01*
X149190480Y-75655281D02*
X149190480Y-78302055D01*
X149400000Y-75445761D02*
X149190480Y-75655281D01*
X149400000Y-75000000D02*
X149400000Y-75445761D01*
X150588425Y-79700000D02*
X166784000Y-79700000D01*
X166784000Y-79700000D02*
X167780000Y-80696000D01*
X167780000Y-80696000D02*
X167780000Y-78156000D01*
X149190480Y-78302055D02*
X150588425Y-79700000D01*
X148790970Y-78467539D02*
X150523920Y-80200489D01*
X149000000Y-75000000D02*
X149000000Y-75280768D01*
X150523920Y-80200489D02*
X164744489Y-80200489D01*
X148790970Y-75489798D02*
X148790970Y-78467539D01*
D28*
X167780000Y-83236000D02*
X167780000Y-85776000D01*
D27*
X149000000Y-75280768D02*
X148790970Y-75489798D01*
X164744489Y-80200489D02*
X167780000Y-83236000D01*
M02*
