M48
; DRILL file {KiCad (6.0.0-0)} date Wednesday, August 17, 2022 at 10:21:43 PM
; FORMAT={-:-/ absolute / metric / decimal}
; #@! TF.CreationDate,2022-08-17T22:21:43+02:00
; #@! TF.GenerationSoftware,Kicad,Pcbnew,(6.0.0-0)
; #@! TF.FileFunction,Plated,1,2,PTH
FMAT,2
METRIC
; #@! TA.AperFunction,Plated,PTH,ViaDrill
T1C0.400
; #@! TA.AperFunction,Plated,PTH,ComponentDrill
T2C1.000
%
G90
G05
T1
X140.2Y-69.6
X140.2Y-87.0
X143.4Y-71.236
X144.6Y-73.8
X144.6Y-86.4
X145.8Y-67.2
X147.709Y-67.0
X147.8Y-70.2
X147.8Y-78.8
X147.8Y-96.2
X148.0Y-76.2
X148.8Y-80.2
X149.021Y-70.136
X149.6Y-67.0
X150.207Y-76.179
X150.6Y-67.0
X150.6Y-78.6
X151.8Y-78.0
X152.1Y-75.215
X155.6Y-68.2
X155.8Y-78.0
X158.2Y-76.8
X158.5Y-71.7
X159.8Y-96.2
X161.6Y-86.8
X163.8Y-86.8
X165.8Y-80.2
X166.2Y-75.2
T2
X132.22Y-67.996
X132.22Y-70.536
X132.22Y-73.076
X132.22Y-75.616
X132.22Y-78.156
X132.22Y-80.696
X132.22Y-83.236
X132.22Y-85.776
X132.22Y-88.316
X132.22Y-90.856
X132.22Y-93.396
X132.22Y-95.936
X167.78Y-67.996
X167.78Y-70.536
X167.78Y-73.076
X167.78Y-75.616
X167.78Y-78.156
X167.78Y-80.696
X167.78Y-83.236
X167.78Y-85.776
X167.78Y-88.316
X167.78Y-90.856
X167.78Y-93.396
X167.78Y-95.936
T0
M30
