%FSLAX45Y45*%
G04 Gerber Fmt 4.5, Leading zero omitted, Abs format (unit mm)*
G04 Created by KiCad (PCBNEW (6.0.0-0)) date 2022-08-17 21:30:09*
%MOMM*%
%LPD*%
G01*
G04 APERTURE LIST*
%TA.AperFunction,Profile*%
%ADD10C,0.100000*%
%TD*%
%ADD11C,0.200000*%
%ADD12C,0.250000*%
G04 APERTURE END LIST*
D10*
X13300000Y-6000000D02*
X16700000Y-6000000D01*
X16700000Y-10000000D02*
G75*
G03*
X17000000Y-9700000I0J300000D01*
G01*
X17000000Y-6300000D02*
X17000000Y-9700000D01*
X17000000Y-6300000D02*
G75*
G03*
X16700000Y-6000000I-300000J0D01*
G01*
X13000000Y-9700000D02*
X13000000Y-6300000D01*
X13000000Y-9700000D02*
G75*
G03*
X13300000Y-10000000I300000J0D01*
G01*
X13300000Y-6000000D02*
G75*
G03*
X13000000Y-6300000I0J-300000D01*
G01*
X16700000Y-10000000D02*
X13300000Y-10000000D01*
D11*
D12*
X13175000Y-6175000D02*
X13425000Y-6425000D01*
X13425000Y-6175000D02*
X13175000Y-6425000D01*
X16575000Y-6175000D02*
X16825000Y-6425000D01*
X16825000Y-6175000D02*
X16575000Y-6425000D01*
D11*
X13252619Y-10315476D02*
X13252619Y-10115476D01*
X13300238Y-10115476D01*
X13328809Y-10125000D01*
X13347857Y-10144048D01*
X13357381Y-10163095D01*
X13366905Y-10201190D01*
X13366905Y-10229762D01*
X13357381Y-10267857D01*
X13347857Y-10286905D01*
X13328809Y-10305952D01*
X13300238Y-10315476D01*
X13252619Y-10315476D01*
X13452619Y-10315476D02*
X13452619Y-10182143D01*
X13452619Y-10220238D02*
X13462143Y-10201190D01*
X13471667Y-10191667D01*
X13490714Y-10182143D01*
X13509762Y-10182143D01*
X13576428Y-10315476D02*
X13576428Y-10182143D01*
X13576428Y-10115476D02*
X13566905Y-10125000D01*
X13576428Y-10134524D01*
X13585952Y-10125000D01*
X13576428Y-10115476D01*
X13576428Y-10134524D01*
X13700238Y-10315476D02*
X13681190Y-10305952D01*
X13671667Y-10286905D01*
X13671667Y-10115476D01*
X13805000Y-10315476D02*
X13785952Y-10305952D01*
X13776428Y-10286905D01*
X13776428Y-10115476D01*
X14033571Y-10315476D02*
X14033571Y-10115476D01*
X14100238Y-10258333D01*
X14166905Y-10115476D01*
X14166905Y-10315476D01*
X14347857Y-10315476D02*
X14347857Y-10210714D01*
X14338333Y-10191667D01*
X14319286Y-10182143D01*
X14281190Y-10182143D01*
X14262143Y-10191667D01*
X14347857Y-10305952D02*
X14328809Y-10315476D01*
X14281190Y-10315476D01*
X14262143Y-10305952D01*
X14252619Y-10286905D01*
X14252619Y-10267857D01*
X14262143Y-10248810D01*
X14281190Y-10239286D01*
X14328809Y-10239286D01*
X14347857Y-10229762D01*
X14443095Y-10182143D02*
X14443095Y-10382143D01*
X14443095Y-10191667D02*
X14462143Y-10182143D01*
X14500238Y-10182143D01*
X14519286Y-10191667D01*
X14528809Y-10201190D01*
X14538333Y-10220238D01*
X14538333Y-10277381D01*
X14528809Y-10296429D01*
X14519286Y-10305952D01*
X14500238Y-10315476D01*
X14462143Y-10315476D01*
X14443095Y-10305952D01*
X14624048Y-10296429D02*
X14633571Y-10305952D01*
X14624048Y-10315476D01*
X14614524Y-10305952D01*
X14624048Y-10296429D01*
X14624048Y-10315476D01*
X14624048Y-10191667D02*
X14633571Y-10201190D01*
X14624048Y-10210714D01*
X14614524Y-10201190D01*
X14624048Y-10191667D01*
X14624048Y-10210714D01*
X12795000Y-10545000D02*
X12995000Y-10745000D01*
X12995000Y-10545000D02*
X12795000Y-10745000D01*
X13243095Y-10554524D02*
X13252619Y-10545000D01*
X13271667Y-10535476D01*
X13319286Y-10535476D01*
X13338333Y-10545000D01*
X13347857Y-10554524D01*
X13357381Y-10573571D01*
X13357381Y-10592619D01*
X13347857Y-10621190D01*
X13233571Y-10735476D01*
X13357381Y-10735476D01*
X13443095Y-10716429D02*
X13452619Y-10725952D01*
X13443095Y-10735476D01*
X13433571Y-10725952D01*
X13443095Y-10716429D01*
X13443095Y-10735476D01*
X13633571Y-10535476D02*
X13538333Y-10535476D01*
X13528809Y-10630714D01*
X13538333Y-10621190D01*
X13557381Y-10611667D01*
X13605000Y-10611667D01*
X13624048Y-10621190D01*
X13633571Y-10630714D01*
X13643095Y-10649762D01*
X13643095Y-10697381D01*
X13633571Y-10716429D01*
X13624048Y-10725952D01*
X13605000Y-10735476D01*
X13557381Y-10735476D01*
X13538333Y-10725952D01*
X13528809Y-10716429D01*
X13766905Y-10535476D02*
X13785952Y-10535476D01*
X13805000Y-10545000D01*
X13814524Y-10554524D01*
X13824048Y-10573571D01*
X13833571Y-10611667D01*
X13833571Y-10659286D01*
X13824048Y-10697381D01*
X13814524Y-10716429D01*
X13805000Y-10725952D01*
X13785952Y-10735476D01*
X13766905Y-10735476D01*
X13747857Y-10725952D01*
X13738333Y-10716429D01*
X13728809Y-10697381D01*
X13719286Y-10659286D01*
X13719286Y-10611667D01*
X13728809Y-10573571D01*
X13738333Y-10554524D01*
X13747857Y-10545000D01*
X13766905Y-10535476D01*
X13957381Y-10535476D02*
X13976428Y-10535476D01*
X13995476Y-10545000D01*
X14005000Y-10554524D01*
X14014524Y-10573571D01*
X14024048Y-10611667D01*
X14024048Y-10659286D01*
X14014524Y-10697381D01*
X14005000Y-10716429D01*
X13995476Y-10725952D01*
X13976428Y-10735476D01*
X13957381Y-10735476D01*
X13938333Y-10725952D01*
X13928809Y-10716429D01*
X13919286Y-10697381D01*
X13909762Y-10659286D01*
X13909762Y-10611667D01*
X13919286Y-10573571D01*
X13928809Y-10554524D01*
X13938333Y-10545000D01*
X13957381Y-10535476D01*
X14109762Y-10735476D02*
X14109762Y-10602143D01*
X14109762Y-10621190D02*
X14119286Y-10611667D01*
X14138333Y-10602143D01*
X14166905Y-10602143D01*
X14185952Y-10611667D01*
X14195476Y-10630714D01*
X14195476Y-10735476D01*
X14195476Y-10630714D02*
X14205000Y-10611667D01*
X14224048Y-10602143D01*
X14252619Y-10602143D01*
X14271667Y-10611667D01*
X14281190Y-10630714D01*
X14281190Y-10735476D01*
X14376428Y-10735476D02*
X14376428Y-10602143D01*
X14376428Y-10621190D02*
X14385952Y-10611667D01*
X14405000Y-10602143D01*
X14433571Y-10602143D01*
X14452619Y-10611667D01*
X14462143Y-10630714D01*
X14462143Y-10735476D01*
X14462143Y-10630714D02*
X14471667Y-10611667D01*
X14490714Y-10602143D01*
X14519286Y-10602143D01*
X14538333Y-10611667D01*
X14547857Y-10630714D01*
X14547857Y-10735476D01*
X14938333Y-10525952D02*
X14766905Y-10783095D01*
X15195476Y-10535476D02*
X15214524Y-10535476D01*
X15233571Y-10545000D01*
X15243095Y-10554524D01*
X15252619Y-10573571D01*
X15262143Y-10611667D01*
X15262143Y-10659286D01*
X15252619Y-10697381D01*
X15243095Y-10716429D01*
X15233571Y-10725952D01*
X15214524Y-10735476D01*
X15195476Y-10735476D01*
X15176428Y-10725952D01*
X15166905Y-10716429D01*
X15157381Y-10697381D01*
X15147857Y-10659286D01*
X15147857Y-10611667D01*
X15157381Y-10573571D01*
X15166905Y-10554524D01*
X15176428Y-10545000D01*
X15195476Y-10535476D01*
X15347857Y-10716429D02*
X15357381Y-10725952D01*
X15347857Y-10735476D01*
X15338333Y-10725952D01*
X15347857Y-10716429D01*
X15347857Y-10735476D01*
X15481190Y-10535476D02*
X15500238Y-10535476D01*
X15519286Y-10545000D01*
X15528809Y-10554524D01*
X15538333Y-10573571D01*
X15547857Y-10611667D01*
X15547857Y-10659286D01*
X15538333Y-10697381D01*
X15528809Y-10716429D01*
X15519286Y-10725952D01*
X15500238Y-10735476D01*
X15481190Y-10735476D01*
X15462143Y-10725952D01*
X15452619Y-10716429D01*
X15443095Y-10697381D01*
X15433571Y-10659286D01*
X15433571Y-10611667D01*
X15443095Y-10573571D01*
X15452619Y-10554524D01*
X15462143Y-10545000D01*
X15481190Y-10535476D01*
X15643095Y-10735476D02*
X15681190Y-10735476D01*
X15700238Y-10725952D01*
X15709762Y-10716429D01*
X15728809Y-10687857D01*
X15738333Y-10649762D01*
X15738333Y-10573571D01*
X15728809Y-10554524D01*
X15719286Y-10545000D01*
X15700238Y-10535476D01*
X15662143Y-10535476D01*
X15643095Y-10545000D01*
X15633571Y-10554524D01*
X15624048Y-10573571D01*
X15624048Y-10621190D01*
X15633571Y-10640238D01*
X15643095Y-10649762D01*
X15662143Y-10659286D01*
X15700238Y-10659286D01*
X15719286Y-10649762D01*
X15728809Y-10640238D01*
X15738333Y-10621190D01*
X15852619Y-10621190D02*
X15833571Y-10611667D01*
X15824048Y-10602143D01*
X15814524Y-10583095D01*
X15814524Y-10573571D01*
X15824048Y-10554524D01*
X15833571Y-10545000D01*
X15852619Y-10535476D01*
X15890714Y-10535476D01*
X15909762Y-10545000D01*
X15919286Y-10554524D01*
X15928809Y-10573571D01*
X15928809Y-10583095D01*
X15919286Y-10602143D01*
X15909762Y-10611667D01*
X15890714Y-10621190D01*
X15852619Y-10621190D01*
X15833571Y-10630714D01*
X15824048Y-10640238D01*
X15814524Y-10659286D01*
X15814524Y-10697381D01*
X15824048Y-10716429D01*
X15833571Y-10725952D01*
X15852619Y-10735476D01*
X15890714Y-10735476D01*
X15909762Y-10725952D01*
X15919286Y-10716429D01*
X15928809Y-10697381D01*
X15928809Y-10659286D01*
X15919286Y-10640238D01*
X15909762Y-10630714D01*
X15890714Y-10621190D01*
X16100238Y-10602143D02*
X16100238Y-10735476D01*
X16052619Y-10525952D02*
X16005000Y-10668810D01*
X16128809Y-10668810D01*
X16195476Y-10535476D02*
X16195476Y-10573571D01*
X16271667Y-10535476D02*
X16271667Y-10573571D01*
X16566905Y-10811667D02*
X16557381Y-10802143D01*
X16538333Y-10773571D01*
X16528809Y-10754524D01*
X16519286Y-10725952D01*
X16509762Y-10678333D01*
X16509762Y-10640238D01*
X16519286Y-10592619D01*
X16528809Y-10564048D01*
X16538333Y-10545000D01*
X16557381Y-10516429D01*
X16566905Y-10506905D01*
X16633571Y-10554524D02*
X16643095Y-10545000D01*
X16662143Y-10535476D01*
X16709762Y-10535476D01*
X16728809Y-10545000D01*
X16738333Y-10554524D01*
X16747857Y-10573571D01*
X16747857Y-10592619D01*
X16738333Y-10621190D01*
X16624048Y-10735476D01*
X16747857Y-10735476D01*
X16985952Y-10735476D02*
X16985952Y-10535476D01*
X17071667Y-10735476D02*
X17071667Y-10630714D01*
X17062143Y-10611667D01*
X17043095Y-10602143D01*
X17014524Y-10602143D01*
X16995476Y-10611667D01*
X16985952Y-10621190D01*
X17195476Y-10735476D02*
X17176429Y-10725952D01*
X17166905Y-10716429D01*
X17157381Y-10697381D01*
X17157381Y-10640238D01*
X17166905Y-10621190D01*
X17176429Y-10611667D01*
X17195476Y-10602143D01*
X17224048Y-10602143D01*
X17243095Y-10611667D01*
X17252619Y-10621190D01*
X17262143Y-10640238D01*
X17262143Y-10697381D01*
X17252619Y-10716429D01*
X17243095Y-10725952D01*
X17224048Y-10735476D01*
X17195476Y-10735476D01*
X17376429Y-10735476D02*
X17357381Y-10725952D01*
X17347857Y-10706905D01*
X17347857Y-10535476D01*
X17528810Y-10725952D02*
X17509762Y-10735476D01*
X17471667Y-10735476D01*
X17452619Y-10725952D01*
X17443095Y-10706905D01*
X17443095Y-10630714D01*
X17452619Y-10611667D01*
X17471667Y-10602143D01*
X17509762Y-10602143D01*
X17528810Y-10611667D01*
X17538333Y-10630714D01*
X17538333Y-10649762D01*
X17443095Y-10668810D01*
X17614524Y-10725952D02*
X17633571Y-10735476D01*
X17671667Y-10735476D01*
X17690714Y-10725952D01*
X17700238Y-10706905D01*
X17700238Y-10697381D01*
X17690714Y-10678333D01*
X17671667Y-10668810D01*
X17643095Y-10668810D01*
X17624048Y-10659286D01*
X17614524Y-10640238D01*
X17614524Y-10630714D01*
X17624048Y-10611667D01*
X17643095Y-10602143D01*
X17671667Y-10602143D01*
X17690714Y-10611667D01*
X17766905Y-10811667D02*
X17776429Y-10802143D01*
X17795476Y-10773571D01*
X17805000Y-10754524D01*
X17814524Y-10725952D01*
X17824048Y-10678333D01*
X17824048Y-10640238D01*
X17814524Y-10592619D01*
X17805000Y-10564048D01*
X17795476Y-10545000D01*
X17776429Y-10516429D01*
X17766905Y-10506905D01*
X18128810Y-10811667D02*
X18119286Y-10802143D01*
X18100238Y-10773571D01*
X18090714Y-10754524D01*
X18081190Y-10725952D01*
X18071667Y-10678333D01*
X18071667Y-10640238D01*
X18081190Y-10592619D01*
X18090714Y-10564048D01*
X18100238Y-10545000D01*
X18119286Y-10516429D01*
X18128810Y-10506905D01*
X18205000Y-10602143D02*
X18205000Y-10735476D01*
X18205000Y-10621190D02*
X18214524Y-10611667D01*
X18233571Y-10602143D01*
X18262143Y-10602143D01*
X18281190Y-10611667D01*
X18290714Y-10630714D01*
X18290714Y-10735476D01*
X18414524Y-10735476D02*
X18395476Y-10725952D01*
X18385952Y-10716429D01*
X18376429Y-10697381D01*
X18376429Y-10640238D01*
X18385952Y-10621190D01*
X18395476Y-10611667D01*
X18414524Y-10602143D01*
X18443095Y-10602143D01*
X18462143Y-10611667D01*
X18471667Y-10621190D01*
X18481190Y-10640238D01*
X18481190Y-10697381D01*
X18471667Y-10716429D01*
X18462143Y-10725952D01*
X18443095Y-10735476D01*
X18414524Y-10735476D01*
X18538333Y-10602143D02*
X18614524Y-10602143D01*
X18566905Y-10535476D02*
X18566905Y-10706905D01*
X18576429Y-10725952D01*
X18595476Y-10735476D01*
X18614524Y-10735476D01*
X18833571Y-10602143D02*
X18833571Y-10802143D01*
X18833571Y-10611667D02*
X18852619Y-10602143D01*
X18890714Y-10602143D01*
X18909762Y-10611667D01*
X18919286Y-10621190D01*
X18928810Y-10640238D01*
X18928810Y-10697381D01*
X18919286Y-10716429D01*
X18909762Y-10725952D01*
X18890714Y-10735476D01*
X18852619Y-10735476D01*
X18833571Y-10725952D01*
X19043095Y-10735476D02*
X19024048Y-10725952D01*
X19014524Y-10706905D01*
X19014524Y-10535476D01*
X19205000Y-10735476D02*
X19205000Y-10630714D01*
X19195476Y-10611667D01*
X19176429Y-10602143D01*
X19138333Y-10602143D01*
X19119286Y-10611667D01*
X19205000Y-10725952D02*
X19185952Y-10735476D01*
X19138333Y-10735476D01*
X19119286Y-10725952D01*
X19109762Y-10706905D01*
X19109762Y-10687857D01*
X19119286Y-10668810D01*
X19138333Y-10659286D01*
X19185952Y-10659286D01*
X19205000Y-10649762D01*
X19271667Y-10602143D02*
X19347857Y-10602143D01*
X19300238Y-10535476D02*
X19300238Y-10706905D01*
X19309762Y-10725952D01*
X19328810Y-10735476D01*
X19347857Y-10735476D01*
X19490714Y-10725952D02*
X19471667Y-10735476D01*
X19433571Y-10735476D01*
X19414524Y-10725952D01*
X19405000Y-10706905D01*
X19405000Y-10630714D01*
X19414524Y-10611667D01*
X19433571Y-10602143D01*
X19471667Y-10602143D01*
X19490714Y-10611667D01*
X19500238Y-10630714D01*
X19500238Y-10649762D01*
X19405000Y-10668810D01*
X19671667Y-10735476D02*
X19671667Y-10535476D01*
X19671667Y-10725952D02*
X19652619Y-10735476D01*
X19614524Y-10735476D01*
X19595476Y-10725952D01*
X19585952Y-10716429D01*
X19576429Y-10697381D01*
X19576429Y-10640238D01*
X19585952Y-10621190D01*
X19595476Y-10611667D01*
X19614524Y-10602143D01*
X19652619Y-10602143D01*
X19671667Y-10611667D01*
X19747857Y-10811667D02*
X19757381Y-10802143D01*
X19776429Y-10773571D01*
X19785952Y-10754524D01*
X19795476Y-10725952D01*
X19805000Y-10678333D01*
X19805000Y-10640238D01*
X19795476Y-10592619D01*
X19785952Y-10564048D01*
X19776429Y-10545000D01*
X19757381Y-10516429D01*
X19747857Y-10506905D01*
M02*
