%TF.GenerationSoftware,KiCad,Pcbnew,(6.0.0-0)*%
%TF.CreationDate,2022-08-17T15:37:39+02:00*%
%TF.ProjectId,wm8904_codec_breakout,776d3839-3034-45f6-936f-6465635f6272,rev?*%
%TF.SameCoordinates,Original*%
%TF.FileFunction,Soldermask,Top*%
%TF.FilePolarity,Negative*%
%FSLAX46Y46*%
G04 Gerber Fmt 4.6, Leading zero omitted, Abs format (unit mm)*
G04 Created by KiCad (PCBNEW (6.0.0-0)) date 2022-08-17 15:37:39*
%MOMM*%
%LPD*%
G01*
G04 APERTURE LIST*
G04 Aperture macros list*
%AMRoundRect*
0 Rectangle with rounded corners*
0 $1 Rounding radius*
0 $2 $3 $4 $5 $6 $7 $8 $9 X,Y pos of 4 corners*
0 Add a 4 corners polygon primitive as box body*
4,1,4,$2,$3,$4,$5,$6,$7,$8,$9,$2,$3,0*
0 Add four circle primitives for the rounded corners*
1,1,$1+$1,$2,$3*
1,1,$1+$1,$4,$5*
1,1,$1+$1,$6,$7*
1,1,$1+$1,$8,$9*
0 Add four rect primitives between the rounded corners*
20,1,$1+$1,$2,$3,$4,$5,0*
20,1,$1+$1,$4,$5,$6,$7,0*
20,1,$1+$1,$6,$7,$8,$9,0*
20,1,$1+$1,$8,$9,$2,$3,0*%
G04 Aperture macros list end*
%ADD10RoundRect,0.135000X-0.185000X0.135000X-0.185000X-0.135000X0.185000X-0.135000X0.185000X0.135000X0*%
%ADD11RoundRect,0.140000X-0.140000X-0.170000X0.140000X-0.170000X0.140000X0.170000X-0.140000X0.170000X0*%
%ADD12R,1.700000X1.700000*%
%ADD13O,1.700000X1.700000*%
%ADD14C,2.500000*%
%ADD15RoundRect,0.140000X0.170000X-0.140000X0.170000X0.140000X-0.170000X0.140000X-0.170000X-0.140000X0*%
%ADD16RoundRect,0.135000X0.135000X0.185000X-0.135000X0.185000X-0.135000X-0.185000X0.135000X-0.185000X0*%
%ADD17RoundRect,0.140000X0.140000X0.170000X-0.140000X0.170000X-0.140000X-0.170000X0.140000X-0.170000X0*%
%ADD18R,3.500000X1.500000*%
%ADD19RoundRect,0.140000X-0.170000X0.140000X-0.170000X-0.140000X0.170000X-0.140000X0.170000X0.140000X0*%
%ADD20RoundRect,0.200000X-0.200000X-0.275000X0.200000X-0.275000X0.200000X0.275000X-0.200000X0.275000X0*%
%ADD21O,0.200000X0.400000*%
%ADD22O,0.400000X0.200000*%
%ADD23R,2.700000X2.700000*%
%ADD24R,2.000000X1.500000*%
%ADD25R,2.000000X3.800000*%
%ADD26RoundRect,0.200000X-0.275000X0.200000X-0.275000X-0.200000X0.275000X-0.200000X0.275000X0.200000X0*%
G04 APERTURE END LIST*
D10*
%TO.C,R205*%
X148600000Y-67690000D03*
X148600000Y-68710000D03*
%TD*%
D11*
%TO.C,C208*%
X153120000Y-72000000D03*
X154080000Y-72000000D03*
%TD*%
D12*
%TO.C,J101*%
X132220000Y-67996000D03*
D13*
X132220000Y-70536000D03*
X132220000Y-73076000D03*
X132220000Y-75616000D03*
X132220000Y-78156000D03*
X132220000Y-80696000D03*
X132220000Y-83236000D03*
X132220000Y-85776000D03*
X132220000Y-88316000D03*
X132220000Y-90856000D03*
X132220000Y-93396000D03*
X132220000Y-95936000D03*
%TD*%
D14*
%TO.C,REF\u002A\u002A*%
X167000000Y-63000000D03*
%TD*%
D15*
%TO.C,C202*%
X147800000Y-77980000D03*
X147800000Y-77020000D03*
%TD*%
D16*
%TO.C,R203*%
X144510000Y-72200000D03*
X143490000Y-72200000D03*
%TD*%
D11*
%TO.C,C204*%
X151870000Y-76200000D03*
X152830000Y-76200000D03*
%TD*%
D17*
%TO.C,C205*%
X155680000Y-77000000D03*
X154720000Y-77000000D03*
%TD*%
D14*
%TO.C,REF\u002A\u002A*%
X133000000Y-63000000D03*
%TD*%
D18*
%TO.C,J104*%
X152250000Y-95800000D03*
X159750000Y-97800000D03*
X159700000Y-91050000D03*
%TD*%
D19*
%TO.C,C216*%
X149600000Y-67720000D03*
X149600000Y-68680000D03*
%TD*%
%TO.C,C203*%
X150800000Y-77020000D03*
X150800000Y-77980000D03*
%TD*%
D20*
%TO.C,R202*%
X155374792Y-72298290D03*
X157024792Y-72298290D03*
%TD*%
D19*
%TO.C,C214*%
X146800000Y-67720000D03*
X146800000Y-68680000D03*
%TD*%
D15*
%TO.C,C201*%
X149800000Y-77980000D03*
X149800000Y-77020000D03*
%TD*%
D12*
%TO.C,J102*%
X167780000Y-67996000D03*
D13*
X167780000Y-70536000D03*
X167780000Y-73076000D03*
X167780000Y-75616000D03*
X167780000Y-78156000D03*
X167780000Y-80696000D03*
X167780000Y-83236000D03*
X167780000Y-85776000D03*
X167780000Y-88316000D03*
X167780000Y-90856000D03*
X167780000Y-93396000D03*
X167780000Y-95936000D03*
%TD*%
D21*
%TO.C,U201*%
X148600000Y-75000000D03*
X149000000Y-75000000D03*
X149400000Y-75000000D03*
X149800000Y-75000000D03*
X150200000Y-75000000D03*
X150600000Y-75000000D03*
X151000000Y-75000000D03*
X151400000Y-75000000D03*
D22*
X151800000Y-74600000D03*
X151800000Y-74200000D03*
X151800000Y-73800000D03*
X151800000Y-73400000D03*
X151800000Y-73000000D03*
X151800000Y-72600000D03*
X151800000Y-72200000D03*
X151800000Y-71800000D03*
D21*
X151400000Y-71400000D03*
X151000000Y-71400000D03*
X150600000Y-71400000D03*
X150200000Y-71400000D03*
X149800000Y-71400000D03*
X149400000Y-71400000D03*
X149000000Y-71400000D03*
X148600000Y-71400000D03*
D22*
X148200000Y-71800000D03*
X148200000Y-72200000D03*
X148200000Y-72600000D03*
X148200000Y-73000000D03*
X148200000Y-73400000D03*
X148200000Y-73800000D03*
X148200000Y-74200000D03*
X148200000Y-74600000D03*
D23*
X150000000Y-73200000D03*
%TD*%
D11*
%TO.C,C207*%
X154720000Y-75000000D03*
X155680000Y-75000000D03*
%TD*%
D24*
%TO.C,U101*%
X146850000Y-80100000D03*
X146850000Y-82400000D03*
D25*
X153150000Y-82400000D03*
D24*
X146850000Y-84700000D03*
%TD*%
D19*
%TO.C,C211*%
X144800000Y-67720000D03*
X144800000Y-68680000D03*
%TD*%
D11*
%TO.C,C209*%
X145600000Y-72200000D03*
X146560000Y-72200000D03*
%TD*%
D20*
%TO.C,R206*%
X153000000Y-68200000D03*
X154650000Y-68200000D03*
%TD*%
D19*
%TO.C,C215*%
X150600000Y-67720000D03*
X150600000Y-68680000D03*
%TD*%
%TO.C,C212*%
X145800000Y-67720000D03*
X145800000Y-68680000D03*
%TD*%
D26*
%TO.C,R201*%
X157000000Y-75175000D03*
X157000000Y-76825000D03*
%TD*%
D18*
%TO.C,J103*%
X140250000Y-95800000D03*
X147750000Y-97800000D03*
X147700000Y-91050000D03*
%TD*%
D20*
%TO.C,R204*%
X155374792Y-70698290D03*
X157024792Y-70698290D03*
%TD*%
D17*
%TO.C,C206*%
X155680000Y-76000000D03*
X154720000Y-76000000D03*
%TD*%
D11*
%TO.C,C210*%
X153120000Y-71000000D03*
X154080000Y-71000000D03*
%TD*%
D15*
%TO.C,C213*%
X151625000Y-68680000D03*
X151625000Y-67720000D03*
%TD*%
M02*
