%TF.GenerationSoftware,KiCad,Pcbnew,(6.0.0-0)*%
%TF.CreationDate,2022-08-17T22:21:40+02:00*%
%TF.ProjectId,wm8904_codec_breakout,776d3839-3034-45f6-936f-6465635f6272,rev?*%
%TF.SameCoordinates,Original*%
%TF.FileFunction,Copper,L1,Top*%
%TF.FilePolarity,Positive*%
%FSLAX46Y46*%
G04 Gerber Fmt 4.6, Leading zero omitted, Abs format (unit mm)*
G04 Created by KiCad (PCBNEW (6.0.0-0)) date 2022-08-17 22:21:40*
%MOMM*%
%LPD*%
G01*
G04 APERTURE LIST*
G04 Aperture macros list*
%AMRoundRect*
0 Rectangle with rounded corners*
0 $1 Rounding radius*
0 $2 $3 $4 $5 $6 $7 $8 $9 X,Y pos of 4 corners*
0 Add a 4 corners polygon primitive as box body*
4,1,4,$2,$3,$4,$5,$6,$7,$8,$9,$2,$3,0*
0 Add four circle primitives for the rounded corners*
1,1,$1+$1,$2,$3*
1,1,$1+$1,$4,$5*
1,1,$1+$1,$6,$7*
1,1,$1+$1,$8,$9*
0 Add four rect primitives between the rounded corners*
20,1,$1+$1,$2,$3,$4,$5,0*
20,1,$1+$1,$4,$5,$6,$7,0*
20,1,$1+$1,$6,$7,$8,$9,0*
20,1,$1+$1,$8,$9,$2,$3,0*%
G04 Aperture macros list end*
%TA.AperFunction,SMDPad,CuDef*%
%ADD10R,3.500000X1.500000*%
%TD*%
%TA.AperFunction,SMDPad,CuDef*%
%ADD11RoundRect,0.135000X-0.185000X0.135000X-0.185000X-0.135000X0.185000X-0.135000X0.185000X0.135000X0*%
%TD*%
%TA.AperFunction,SMDPad,CuDef*%
%ADD12RoundRect,0.140000X-0.140000X-0.170000X0.140000X-0.170000X0.140000X0.170000X-0.140000X0.170000X0*%
%TD*%
%TA.AperFunction,ComponentPad*%
%ADD13R,1.700000X1.700000*%
%TD*%
%TA.AperFunction,ComponentPad*%
%ADD14O,1.700000X1.700000*%
%TD*%
%TA.AperFunction,SMDPad,CuDef*%
%ADD15RoundRect,0.140000X0.170000X-0.140000X0.170000X0.140000X-0.170000X0.140000X-0.170000X-0.140000X0*%
%TD*%
%TA.AperFunction,SMDPad,CuDef*%
%ADD16RoundRect,0.135000X0.135000X0.185000X-0.135000X0.185000X-0.135000X-0.185000X0.135000X-0.185000X0*%
%TD*%
%TA.AperFunction,SMDPad,CuDef*%
%ADD17RoundRect,0.140000X0.140000X0.170000X-0.140000X0.170000X-0.140000X-0.170000X0.140000X-0.170000X0*%
%TD*%
%TA.AperFunction,SMDPad,CuDef*%
%ADD18RoundRect,0.140000X-0.170000X0.140000X-0.170000X-0.140000X0.170000X-0.140000X0.170000X0.140000X0*%
%TD*%
%TA.AperFunction,SMDPad,CuDef*%
%ADD19RoundRect,0.200000X-0.200000X-0.275000X0.200000X-0.275000X0.200000X0.275000X-0.200000X0.275000X0*%
%TD*%
%TA.AperFunction,SMDPad,CuDef*%
%ADD20O,0.200000X0.400000*%
%TD*%
%TA.AperFunction,SMDPad,CuDef*%
%ADD21O,0.400000X0.200000*%
%TD*%
%TA.AperFunction,SMDPad,CuDef*%
%ADD22R,2.700000X2.700000*%
%TD*%
%TA.AperFunction,SMDPad,CuDef*%
%ADD23R,2.000000X1.500000*%
%TD*%
%TA.AperFunction,SMDPad,CuDef*%
%ADD24R,2.000000X3.800000*%
%TD*%
%TA.AperFunction,SMDPad,CuDef*%
%ADD25RoundRect,0.200000X-0.275000X0.200000X-0.275000X-0.200000X0.275000X-0.200000X0.275000X0.200000X0*%
%TD*%
%TA.AperFunction,ViaPad*%
%ADD26C,0.800000*%
%TD*%
%TA.AperFunction,Conductor*%
%ADD27C,0.200000*%
%TD*%
%TA.AperFunction,Conductor*%
%ADD28C,0.250000*%
%TD*%
G04 APERTURE END LIST*
D10*
%TO.P,J103,R*%
%TO.N,IN2R*%
X140250000Y-95800000D03*
%TO.P,J103,S*%
%TO.N,GND*%
X147750000Y-97800000D03*
%TO.P,J103,T*%
%TO.N,IN2L*%
X147750000Y-90800000D03*
%TD*%
%TO.P,J104,R*%
%TO.N,HPOUTR*%
X152250000Y-95800000D03*
%TO.P,J104,S*%
%TO.N,GND*%
X159750000Y-97800000D03*
%TO.P,J104,T*%
%TO.N,HPOUTL*%
X159750000Y-90800000D03*
%TD*%
D11*
%TO.P,R205,1*%
%TO.N,IN2R*%
X148600000Y-67690000D03*
%TO.P,R205,2*%
%TO.N,/wm8904/MICBIAS*%
X148600000Y-68710000D03*
%TD*%
D12*
%TO.P,C208,1*%
%TO.N,HPOUTR*%
X153120000Y-72000000D03*
%TO.P,C208,2*%
%TO.N,Net-(C208-Pad2)*%
X154080000Y-72000000D03*
%TD*%
D13*
%TO.P,J101,1,Pin_1*%
%TO.N,IN2R*%
X132220000Y-67996000D03*
D14*
%TO.P,J101,2,Pin_2*%
%TO.N,IN1R{slash}DMICDAT2*%
X132220000Y-70536000D03*
%TO.P,J101,3,Pin_3*%
%TO.N,IN2L*%
X132220000Y-73076000D03*
%TO.P,J101,4,Pin_4*%
%TO.N,IN1L{slash}DMICDAT1*%
X132220000Y-75616000D03*
%TO.P,J101,5,Pin_5*%
%TO.N,MCLK*%
X132220000Y-78156000D03*
%TO.P,J101,6,Pin_6*%
%TO.N,BCLK{slash}GPIO4*%
X132220000Y-80696000D03*
%TO.P,J101,7,Pin_7*%
%TO.N,LRCLK*%
X132220000Y-83236000D03*
%TO.P,J101,8,Pin_8*%
%TO.N,ADCDAT*%
X132220000Y-85776000D03*
%TO.P,J101,9,Pin_9*%
%TO.N,DACDAT*%
X132220000Y-88316000D03*
%TO.P,J101,10,Pin_10*%
%TO.N,IRQ{slash}GPIO1*%
X132220000Y-90856000D03*
%TO.P,J101,11,Pin_11*%
%TO.N,VDD*%
X132220000Y-93396000D03*
%TO.P,J101,12,Pin_12*%
%TO.N,1V8*%
X132220000Y-95936000D03*
%TD*%
D15*
%TO.P,C202,1*%
%TO.N,GND*%
X147800000Y-77980000D03*
%TO.P,C202,2*%
%TO.N,1V8*%
X147800000Y-77020000D03*
%TD*%
D16*
%TO.P,R203,1*%
%TO.N,IN2L*%
X144510000Y-72200000D03*
%TO.P,R203,2*%
%TO.N,/wm8904/MICBIAS*%
X143490000Y-72200000D03*
%TD*%
D12*
%TO.P,C204,1*%
%TO.N,Net-(C204-Pad1)*%
X151870000Y-76200000D03*
%TO.P,C204,2*%
%TO.N,Net-(C204-Pad2)*%
X152830000Y-76200000D03*
%TD*%
D17*
%TO.P,C205,1*%
%TO.N,GND*%
X155680000Y-77000000D03*
%TO.P,C205,2*%
%TO.N,Net-(C205-Pad2)*%
X154720000Y-77000000D03*
%TD*%
D18*
%TO.P,C216,1*%
%TO.N,GND*%
X149600000Y-67720000D03*
%TO.P,C216,2*%
%TO.N,/wm8904/MICBIAS*%
X149600000Y-68680000D03*
%TD*%
%TO.P,C203,1*%
%TO.N,1V8*%
X150800000Y-77020000D03*
%TO.P,C203,2*%
%TO.N,GND*%
X150800000Y-77980000D03*
%TD*%
D19*
%TO.P,R202,1*%
%TO.N,Net-(C208-Pad2)*%
X155374792Y-72298290D03*
%TO.P,R202,2*%
%TO.N,GND*%
X157024792Y-72298290D03*
%TD*%
D18*
%TO.P,C214,1*%
%TO.N,GND*%
X146800000Y-67720000D03*
%TO.P,C214,2*%
%TO.N,Net-(C214-Pad2)*%
X146800000Y-68680000D03*
%TD*%
D15*
%TO.P,C201,1*%
%TO.N,GND*%
X149800000Y-77980000D03*
%TO.P,C201,2*%
%TO.N,1V8*%
X149800000Y-77020000D03*
%TD*%
D13*
%TO.P,J102,1,Pin_1*%
%TO.N,LINEOUTR*%
X167780000Y-67996000D03*
D14*
%TO.P,J102,2,Pin_2*%
%TO.N,LINEOUTFB*%
X167780000Y-70536000D03*
%TO.P,J102,3,Pin_3*%
%TO.N,LINEOUTL*%
X167780000Y-73076000D03*
%TO.P,J102,4,Pin_4*%
%TO.N,HPOUTR*%
X167780000Y-75616000D03*
%TO.P,J102,5,Pin_5*%
%TO.N,HPOUTFB*%
X167780000Y-78156000D03*
%TO.P,J102,6,Pin_6*%
%TO.N,HPOUTL*%
X167780000Y-80696000D03*
%TO.P,J102,7,Pin_7*%
%TO.N,SDA*%
X167780000Y-83236000D03*
%TO.P,J102,8,Pin_8*%
X167780000Y-85776000D03*
%TO.P,J102,9,Pin_9*%
%TO.N,SCLK*%
X167780000Y-88316000D03*
%TO.P,J102,10,Pin_10*%
X167780000Y-90856000D03*
%TO.P,J102,11,Pin_11*%
%TO.N,GND*%
X167780000Y-93396000D03*
%TO.P,J102,12,Pin_12*%
X167780000Y-95936000D03*
%TD*%
D20*
%TO.P,U201,1,IRQ/GPIO1*%
%TO.N,IRQ{slash}GPIO1*%
X148600000Y-75000000D03*
%TO.P,U201,2,SCLK*%
%TO.N,SCLK*%
X149000000Y-75000000D03*
%TO.P,U201,3,SDA*%
%TO.N,SDA*%
X149400000Y-75000000D03*
%TO.P,U201,4,DBVDD*%
%TO.N,1V8*%
X149800000Y-75000000D03*
%TO.P,U201,5,DGND*%
%TO.N,GND*%
X150200000Y-75000000D03*
%TO.P,U201,6,DCVDD*%
%TO.N,1V8*%
X150600000Y-75000000D03*
%TO.P,U201,7,CPVDD*%
X151000000Y-75000000D03*
%TO.P,U201,8,CPCA*%
%TO.N,Net-(C204-Pad1)*%
X151400000Y-75000000D03*
D21*
%TO.P,U201,9,CPGND*%
%TO.N,GND*%
X151800000Y-74600000D03*
%TO.P,U201,10,CPCB*%
%TO.N,Net-(C204-Pad2)*%
X151800000Y-74200000D03*
%TO.P,U201,11,CPVOUTP*%
%TO.N,Net-(C205-Pad2)*%
X151800000Y-73800000D03*
%TO.P,U201,12,CPVOUTN*%
%TO.N,Net-(C206-Pad2)*%
X151800000Y-73400000D03*
%TO.P,U201,13,HPOUTL*%
%TO.N,HPOUTL*%
X151800000Y-73000000D03*
%TO.P,U201,14,HPOUTFB*%
%TO.N,HPOUTFB*%
X151800000Y-72600000D03*
%TO.P,U201,15,HPOUTR*%
%TO.N,HPOUTR*%
X151800000Y-72200000D03*
%TO.P,U201,16,LINEOUTL*%
%TO.N,LINEOUTL*%
X151800000Y-71800000D03*
D20*
%TO.P,U201,17,LINEOUTFB*%
%TO.N,LINEOUTFB*%
X151400000Y-71400000D03*
%TO.P,U201,18,LINEOUTR*%
%TO.N,LINEOUTR*%
X151000000Y-71400000D03*
%TO.P,U201,19,MICVDD*%
%TO.N,/wm8904/MICVDD*%
X150600000Y-71400000D03*
%TO.P,U201,20,MICBIAS*%
%TO.N,/wm8904/MICBIAS*%
X150200000Y-71400000D03*
%TO.P,U201,21,VMIDC*%
%TO.N,Net-(C214-Pad2)*%
X149800000Y-71400000D03*
%TO.P,U201,22,AGND*%
%TO.N,GND*%
X149400000Y-71400000D03*
%TO.P,U201,23,AVDD*%
%TO.N,1V8*%
X149000000Y-71400000D03*
%TO.P,U201,24,INR2*%
%TO.N,Net-(C211-Pad2)*%
X148600000Y-71400000D03*
D21*
%TO.P,U201,25,IN1R/DMICDAT2*%
%TO.N,IN1R{slash}DMICDAT2*%
X148200000Y-71800000D03*
%TO.P,U201,26,IN2L*%
%TO.N,Net-(C209-Pad2)*%
X148200000Y-72200000D03*
%TO.P,U201,27,IN1L/DMICDAT1*%
%TO.N,IN1L{slash}DMICDAT1*%
X148200000Y-72600000D03*
%TO.P,U201,28,MCLK*%
%TO.N,MCLK*%
X148200000Y-73000000D03*
%TO.P,U201,29,BCLK/GPIO4*%
%TO.N,BCLK{slash}GPIO4*%
X148200000Y-73400000D03*
%TO.P,U201,30,LRCLK*%
%TO.N,LRCLK*%
X148200000Y-73800000D03*
%TO.P,U201,31,ADCDAT*%
%TO.N,ADCDAT*%
X148200000Y-74200000D03*
%TO.P,U201,32,DACDAT*%
%TO.N,DACDAT*%
X148200000Y-74600000D03*
D22*
%TO.P,U201,33,GND*%
%TO.N,GND*%
X150000000Y-73200000D03*
%TD*%
D12*
%TO.P,C207,1*%
%TO.N,HPOUTL*%
X154720000Y-75000000D03*
%TO.P,C207,2*%
%TO.N,Net-(C207-Pad2)*%
X155680000Y-75000000D03*
%TD*%
D23*
%TO.P,U101,1,GND*%
%TO.N,GND*%
X146850000Y-80100000D03*
%TO.P,U101,2,VO*%
%TO.N,1V8*%
X146850000Y-82400000D03*
D24*
X153150000Y-82400000D03*
D23*
%TO.P,U101,3,VI*%
%TO.N,VDD*%
X146850000Y-84700000D03*
%TD*%
D18*
%TO.P,C211,1*%
%TO.N,IN2R*%
X144800000Y-67720000D03*
%TO.P,C211,2*%
%TO.N,Net-(C211-Pad2)*%
X144800000Y-68680000D03*
%TD*%
D12*
%TO.P,C209,1*%
%TO.N,IN2L*%
X145600000Y-72200000D03*
%TO.P,C209,2*%
%TO.N,Net-(C209-Pad2)*%
X146560000Y-72200000D03*
%TD*%
D19*
%TO.P,R206,1*%
%TO.N,Net-(C213-Pad2)*%
X153000000Y-68200000D03*
%TO.P,R206,2*%
%TO.N,GND*%
X154650000Y-68200000D03*
%TD*%
D18*
%TO.P,C215,1*%
%TO.N,GND*%
X150600000Y-67720000D03*
%TO.P,C215,2*%
%TO.N,/wm8904/MICVDD*%
X150600000Y-68680000D03*
%TD*%
%TO.P,C212,1*%
%TO.N,GND*%
X145800000Y-67720000D03*
%TO.P,C212,2*%
%TO.N,1V8*%
X145800000Y-68680000D03*
%TD*%
D25*
%TO.P,R201,1*%
%TO.N,Net-(C207-Pad2)*%
X157000000Y-75175000D03*
%TO.P,R201,2*%
%TO.N,GND*%
X157000000Y-76825000D03*
%TD*%
D19*
%TO.P,R204,1*%
%TO.N,Net-(C210-Pad2)*%
X155374792Y-70698290D03*
%TO.P,R204,2*%
%TO.N,GND*%
X157024792Y-70698290D03*
%TD*%
D17*
%TO.P,C206,1*%
%TO.N,GND*%
X155680000Y-76000000D03*
%TO.P,C206,2*%
%TO.N,Net-(C206-Pad2)*%
X154720000Y-76000000D03*
%TD*%
D12*
%TO.P,C210,1*%
%TO.N,LINEOUTL*%
X153120000Y-71000000D03*
%TO.P,C210,2*%
%TO.N,Net-(C210-Pad2)*%
X154080000Y-71000000D03*
%TD*%
D15*
%TO.P,C213,1*%
%TO.N,LINEOUTR*%
X151625000Y-68680000D03*
%TO.P,C213,2*%
%TO.N,Net-(C213-Pad2)*%
X151625000Y-67720000D03*
%TD*%
D26*
%TO.N,GND*%
X150206939Y-76179485D03*
X152099500Y-75214997D03*
X150600000Y-67000000D03*
X158200000Y-76800000D03*
X147800000Y-78800000D03*
X147800000Y-96200000D03*
X149021201Y-70136395D03*
X149600000Y-67000000D03*
X159800000Y-96200000D03*
X150600000Y-78600000D03*
X145800000Y-67200000D03*
X155800000Y-78000000D03*
X155600000Y-68200000D03*
X158500000Y-71700000D03*
X148800000Y-80200000D03*
%TO.N,/wm8904/MICBIAS*%
X143400000Y-71235500D03*
X147709500Y-67000000D03*
%TO.N,1V8*%
X147800000Y-70200000D03*
X151800000Y-78000000D03*
X148000000Y-76200000D03*
%TO.N,HPOUTL*%
X165800000Y-80200000D03*
X163800000Y-86800000D03*
%TO.N,HPOUTR*%
X166200000Y-75200000D03*
X161600000Y-86800000D03*
%TO.N,IN2L*%
X144600000Y-73800000D03*
X144600000Y-86400000D03*
%TO.N,IN2R*%
X140200000Y-87000000D03*
X140200000Y-69600000D03*
%TD*%
D27*
%TO.N,Net-(C204-Pad1)*%
X151400000Y-75730000D02*
X151870000Y-76200000D01*
X151400000Y-75000000D02*
X151400000Y-75730000D01*
%TO.N,Net-(C204-Pad2)*%
X152800489Y-74926727D02*
X152800489Y-76170489D01*
X151800000Y-74200000D02*
X152073762Y-74200000D01*
X152800489Y-76170489D02*
X152830000Y-76200000D01*
X152073762Y-74200000D02*
X152800489Y-74926727D01*
%TO.N,GND*%
X155680000Y-76000000D02*
X155680000Y-77000000D01*
X155680000Y-77880000D02*
X155800000Y-78000000D01*
D28*
X147750000Y-96250000D02*
X147800000Y-96200000D01*
D27*
X149400000Y-71400000D02*
X149400000Y-70399206D01*
X150200000Y-73400000D02*
X150000000Y-73200000D01*
X154650000Y-68200000D02*
X155600000Y-68200000D01*
X150800000Y-78400000D02*
X150600000Y-78600000D01*
X149284012Y-70399206D02*
X149021201Y-70136395D01*
X151800000Y-74915497D02*
X152099500Y-75214997D01*
X147800000Y-77980000D02*
X147800000Y-78800000D01*
D28*
X159750000Y-96250000D02*
X159800000Y-96200000D01*
D27*
X157000000Y-76825000D02*
X158175000Y-76825000D01*
X150600000Y-67720000D02*
X150600000Y-67000000D01*
X157498290Y-70698290D02*
X158500000Y-71700000D01*
X150800000Y-77980000D02*
X150800000Y-78400000D01*
X150200000Y-75000000D02*
X150200000Y-76172546D01*
X157024792Y-70698290D02*
X157498290Y-70698290D01*
X145800000Y-67720000D02*
X145800000Y-67200000D01*
X155680000Y-77000000D02*
X155680000Y-77880000D01*
X149600000Y-67720000D02*
X149600000Y-67000000D01*
X149400000Y-70399206D02*
X149390775Y-70389981D01*
X149800000Y-77980000D02*
X150800000Y-77980000D01*
D28*
X159750000Y-97900000D02*
X159750000Y-96250000D01*
D27*
X145800000Y-67720000D02*
X146800000Y-67720000D01*
X158175000Y-76825000D02*
X158200000Y-76800000D01*
X148700000Y-80100000D02*
X148800000Y-80200000D01*
X150200000Y-75000000D02*
X150200000Y-73400000D01*
X146850000Y-80100000D02*
X148700000Y-80100000D01*
X149400000Y-70399206D02*
X149284012Y-70399206D01*
X157024792Y-72298290D02*
X157901710Y-72298290D01*
D28*
X147750000Y-97900000D02*
X147750000Y-96250000D01*
D27*
X157901710Y-72298290D02*
X158500000Y-71700000D01*
X150200000Y-76172546D02*
X150206939Y-76179485D01*
X151800000Y-74600000D02*
X151800000Y-74915497D01*
%TO.N,Net-(C205-Pad2)*%
X153200000Y-74761244D02*
X153200000Y-75638425D01*
X151800000Y-73800000D02*
X152238756Y-73800000D01*
X153200000Y-75638425D02*
X154561575Y-77000000D01*
X152238756Y-73800000D02*
X153200000Y-74761244D01*
X154561575Y-77000000D02*
X154720000Y-77000000D01*
%TO.N,Net-(C206-Pad2)*%
X151800000Y-73400000D02*
X152403762Y-73400000D01*
X152403762Y-73400000D02*
X153600000Y-74596238D01*
X154126569Y-76000000D02*
X154720000Y-76000000D01*
X153600000Y-74596238D02*
X153600000Y-75473431D01*
X153600000Y-75473431D02*
X154126569Y-76000000D01*
%TO.N,/wm8904/MICBIAS*%
X143400000Y-72110000D02*
X143400000Y-71235500D01*
D28*
X148600000Y-68710000D02*
X147709500Y-67819500D01*
X147709500Y-67819500D02*
X147709500Y-67000000D01*
D27*
X149600000Y-68680000D02*
X150200000Y-69280000D01*
X149570000Y-68710000D02*
X149600000Y-68680000D01*
X143490000Y-72200000D02*
X143400000Y-72110000D01*
X150200000Y-69280000D02*
X150200000Y-71400000D01*
X148600000Y-68710000D02*
X149570000Y-68710000D01*
%TO.N,Net-(C214-Pad2)*%
X149800000Y-69925949D02*
X149274051Y-69400000D01*
X149800000Y-71400000D02*
X149800000Y-69925949D01*
X146800000Y-69000000D02*
X146800000Y-68680000D01*
X147200000Y-69400000D02*
X146800000Y-69000000D01*
X149274051Y-69400000D02*
X147200000Y-69400000D01*
%TO.N,Net-(C211-Pad2)*%
X147320000Y-71200000D02*
X144800000Y-68680000D01*
X148600000Y-71400000D02*
X147800000Y-71400000D01*
X147600000Y-71200000D02*
X147320000Y-71200000D01*
X147800000Y-71400000D02*
X147600000Y-71200000D01*
%TO.N,Net-(C207-Pad2)*%
X155680000Y-75000000D02*
X156825000Y-75000000D01*
X156825000Y-75000000D02*
X157000000Y-75175000D01*
%TO.N,/wm8904/MICVDD*%
X150600000Y-71400000D02*
X150600000Y-68680000D01*
%TO.N,1V8*%
X149800000Y-75000000D02*
X149800000Y-75597179D01*
X150700000Y-75000000D02*
X150906440Y-75206440D01*
X147800000Y-70200000D02*
X148065006Y-70200000D01*
X149800000Y-76761791D02*
X149800000Y-77020000D01*
X146850000Y-82400000D02*
X153150000Y-82400000D01*
X150600000Y-75000000D02*
X151000000Y-75000000D01*
X145550489Y-79050489D02*
X145550489Y-81100489D01*
X150600000Y-76775669D02*
X150600000Y-76820000D01*
X147320000Y-70200000D02*
X147800000Y-70200000D01*
X147800000Y-76400000D02*
X148000000Y-76200000D01*
X150906440Y-76469229D02*
X150600000Y-76775669D01*
D28*
X133158511Y-96874511D02*
X145024511Y-96874511D01*
D27*
X150800000Y-77020000D02*
X150820000Y-77020000D01*
X145550489Y-81100489D02*
X146850000Y-82400000D01*
X148065006Y-70200000D02*
X149000000Y-71134994D01*
X149800000Y-77020000D02*
X150800000Y-77020000D01*
D28*
X149824511Y-92074511D02*
X149824511Y-85374511D01*
X132220000Y-95936000D02*
X133158511Y-96874511D01*
D27*
X149507438Y-75889741D02*
X149507438Y-76469229D01*
X149507438Y-76469229D02*
X149800000Y-76761791D01*
X150600000Y-75000000D02*
X150700000Y-75000000D01*
X147800000Y-77020000D02*
X147800000Y-76400000D01*
X145800000Y-68680000D02*
X147320000Y-70200000D01*
X147580978Y-77020000D02*
X145550489Y-79050489D01*
X150600000Y-76820000D02*
X150800000Y-77020000D01*
X150820000Y-77020000D02*
X151800000Y-78000000D01*
X149000000Y-71134994D02*
X149000000Y-71400000D01*
D28*
X145024511Y-96874511D02*
X149824511Y-92074511D01*
X149824511Y-85374511D02*
X146850000Y-82400000D01*
D27*
X150906440Y-75206440D02*
X150906440Y-76469229D01*
X147800000Y-77020000D02*
X147580978Y-77020000D01*
X149800000Y-75597179D02*
X149507438Y-75889741D01*
%TO.N,HPOUTL*%
X151800000Y-73000000D02*
X152623431Y-73000000D01*
X161474480Y-74390480D02*
X167780000Y-80696000D01*
X152623431Y-73000000D02*
X154623431Y-75000000D01*
D28*
X159750000Y-90800000D02*
X159800000Y-90800000D01*
D27*
X155329520Y-74390480D02*
X161474480Y-74390480D01*
X166296000Y-80696000D02*
X167780000Y-80696000D01*
X154720000Y-75000000D02*
X155329520Y-74390480D01*
D28*
X159800000Y-90800000D02*
X163800000Y-86800000D01*
D27*
X165800000Y-80200000D02*
X166296000Y-80696000D01*
X154623431Y-75000000D02*
X154720000Y-75000000D01*
%TO.N,HPOUTR*%
X154711458Y-73591458D02*
X165755458Y-73591458D01*
X151800000Y-72200000D02*
X152920000Y-72200000D01*
X158709677Y-86800000D02*
X161600000Y-86800000D01*
X152920000Y-72200000D02*
X153120000Y-72000000D01*
X166200000Y-75200000D02*
X167364000Y-75200000D01*
X165755458Y-73591458D02*
X167780000Y-75616000D01*
X152250000Y-95900000D02*
X152250000Y-93259677D01*
X152250000Y-93259677D02*
X158709677Y-86800000D01*
X167364000Y-75200000D02*
X167780000Y-75616000D01*
X153120000Y-72000000D02*
X154711458Y-73591458D01*
D28*
%TO.N,IN2L*%
X147750000Y-89550000D02*
X147750000Y-90800000D01*
D27*
X143634000Y-73076000D02*
X144510000Y-72200000D01*
X132220000Y-73076000D02*
X143634000Y-73076000D01*
X144600000Y-73800000D02*
X144600000Y-72290000D01*
X147700000Y-89500000D02*
X144600000Y-86400000D01*
X144600000Y-72290000D02*
X144510000Y-72200000D01*
D28*
X147700000Y-89500000D02*
X147750000Y-89550000D01*
D27*
X144510000Y-72200000D02*
X145600000Y-72200000D01*
%TO.N,LINEOUTL*%
X154114148Y-69773541D02*
X164477541Y-69773541D01*
X164477541Y-69773541D02*
X167780000Y-73076000D01*
X153120000Y-71000000D02*
X153120000Y-70767689D01*
X152600000Y-71000000D02*
X151800000Y-71800000D01*
X153120000Y-71000000D02*
X152600000Y-71000000D01*
X153120000Y-70767689D02*
X154114148Y-69773541D01*
%TO.N,IN2R*%
X132220000Y-67996000D02*
X132516000Y-67700000D01*
X140200000Y-69600000D02*
X142920000Y-69600000D01*
X144800000Y-67210755D02*
X145710256Y-66300499D01*
X132516000Y-67700000D02*
X144780000Y-67700000D01*
X140250000Y-95900000D02*
X140250000Y-87050000D01*
X144780000Y-67700000D02*
X144800000Y-67720000D01*
X140250000Y-87050000D02*
X140200000Y-87000000D01*
X145710256Y-66300499D02*
X148100499Y-66300499D01*
X142920000Y-69600000D02*
X144800000Y-67720000D01*
X148100499Y-66300499D02*
X148600000Y-66800000D01*
X144800000Y-67720000D02*
X144800000Y-67210755D01*
X148600000Y-66800000D02*
X148600000Y-67690000D01*
%TO.N,LINEOUTR*%
X153160474Y-68974520D02*
X166801480Y-68974520D01*
X151000000Y-70400000D02*
X151000000Y-71400000D01*
X166801480Y-68974520D02*
X167780000Y-67996000D01*
X151000000Y-71400000D02*
X151000000Y-71134994D01*
X151000000Y-71134994D02*
X153160474Y-68974520D01*
X151625000Y-69775000D02*
X151000000Y-70400000D01*
X151625000Y-68680000D02*
X151625000Y-69775000D01*
%TO.N,IN1R{slash}DMICDAT2*%
X145827575Y-70536000D02*
X132220000Y-70536000D01*
X147091575Y-71800000D02*
X145827575Y-70536000D01*
X148200000Y-71800000D02*
X147091575Y-71800000D01*
%TO.N,IN1L{slash}DMICDAT1*%
X147091575Y-72600000D02*
X144075575Y-75616000D01*
X144075575Y-75616000D02*
X132220000Y-75616000D01*
X148200000Y-72600000D02*
X147091575Y-72600000D01*
%TO.N,MCLK*%
X147385787Y-73000000D02*
X148200000Y-73000000D01*
X132220000Y-78156000D02*
X142229787Y-78156000D01*
X142229787Y-78156000D02*
X147385787Y-73000000D01*
%TO.N,BCLK{slash}GPIO4*%
X140254785Y-80696000D02*
X132220000Y-80696000D01*
X148200000Y-73400000D02*
X147550785Y-73400000D01*
X147550785Y-73400000D02*
X140254785Y-80696000D01*
%TO.N,LRCLK*%
X148200000Y-73800000D02*
X147715778Y-73800000D01*
X147715778Y-73800000D02*
X138279778Y-83236000D01*
X138279778Y-83236000D02*
X132220000Y-83236000D01*
%TO.N,ADCDAT*%
X148200000Y-74200000D02*
X147880771Y-74200000D01*
X147880771Y-74200000D02*
X136304771Y-85776000D01*
X136304771Y-85776000D02*
X132220000Y-85776000D01*
%TO.N,Net-(C208-Pad2)*%
X154080000Y-72000000D02*
X155076502Y-72000000D01*
X155076502Y-72000000D02*
X155374792Y-72298290D01*
%TO.N,DACDAT*%
X148045761Y-74600000D02*
X134329761Y-88316000D01*
X148200000Y-74600000D02*
X148045761Y-74600000D01*
X134329761Y-88316000D02*
X132220000Y-88316000D01*
%TO.N,Net-(C209-Pad2)*%
X146560000Y-72200000D02*
X148200000Y-72200000D01*
%TO.N,Net-(C210-Pad2)*%
X155073082Y-71000000D02*
X155374792Y-70698290D01*
X154080000Y-71000000D02*
X155073082Y-71000000D01*
%TO.N,IRQ{slash}GPIO1*%
X148210755Y-75000000D02*
X132354755Y-90856000D01*
X132354755Y-90856000D02*
X132220000Y-90856000D01*
X148600000Y-75000000D02*
X148210755Y-75000000D01*
%TO.N,Net-(C213-Pad2)*%
X152520000Y-67720000D02*
X153000000Y-68200000D01*
X151625000Y-67720000D02*
X152520000Y-67720000D01*
%TO.N,VDD*%
X141016000Y-84600000D02*
X146750000Y-84600000D01*
X132220000Y-93396000D02*
X141016000Y-84600000D01*
X146750000Y-84600000D02*
X146850000Y-84700000D01*
%TO.N,LINEOUTFB*%
X153425970Y-69374030D02*
X151400000Y-71400000D01*
X166618030Y-69374030D02*
X153425970Y-69374030D01*
X167780000Y-70536000D02*
X166618030Y-69374030D01*
%TO.N,HPOUTFB*%
X154190970Y-73990970D02*
X163614970Y-73990970D01*
X163614970Y-73990970D02*
X167780000Y-78156000D01*
X151800000Y-72600000D02*
X152800000Y-72600000D01*
X152800000Y-72600000D02*
X154190970Y-73990970D01*
%TO.N,SDA*%
X163433744Y-78889744D02*
X151299501Y-78889744D01*
D28*
X167780000Y-83236000D02*
X167780000Y-85776000D01*
D27*
X151299501Y-78889744D02*
X150889744Y-79299501D01*
X149400000Y-75432185D02*
X149400000Y-75000000D01*
X149107928Y-78219503D02*
X149107928Y-75724257D01*
X149107928Y-75724257D02*
X149400000Y-75432185D01*
X150889744Y-79299501D02*
X150187926Y-79299501D01*
X150187926Y-79299501D02*
X149107928Y-78219503D01*
X167780000Y-83236000D02*
X163433744Y-78889744D01*
%TO.N,SCLK*%
X149000000Y-75000000D02*
X149000000Y-75267192D01*
X150022442Y-79699011D02*
X151055228Y-79699011D01*
X158814489Y-79350489D02*
X167780000Y-88316000D01*
X149000000Y-75267192D02*
X148708417Y-75558775D01*
X148708417Y-78384986D02*
X150022442Y-79699011D01*
X151403750Y-79350489D02*
X158814489Y-79350489D01*
D28*
X167780000Y-88316000D02*
X167780000Y-90856000D01*
D27*
X151055228Y-79699011D02*
X151403750Y-79350489D01*
X148708417Y-75558775D02*
X148708417Y-78384986D01*
%TD*%
M02*
