%FSLAX45Y45*%
G04 Gerber Fmt 4.5, Leading zero omitted, Abs format (unit mm)*
G04 Created by KiCad (PCBNEW (6.0.0-0)) date 2022-08-17 21:30:09*
%MOMM*%
%LPD*%
G01*
G04 APERTURE LIST*
%TA.AperFunction,Profile*%
%ADD10C,0.100000*%
%TD*%
%ADD11C,0.200000*%
%ADD12C,0.040000*%
%ADD13C,0.100000*%
G04 APERTURE END LIST*
D10*
X13300000Y-6000000D02*
X16700000Y-6000000D01*
X16700000Y-10000000D02*
G75*
G03*
X17000000Y-9700000I0J300000D01*
G01*
X17000000Y-6300000D02*
X17000000Y-9700000D01*
X17000000Y-6300000D02*
G75*
G03*
X16700000Y-6000000I-300000J0D01*
G01*
X13000000Y-9700000D02*
X13000000Y-6300000D01*
X13000000Y-9700000D02*
G75*
G03*
X13300000Y-10000000I300000J0D01*
G01*
X13300000Y-6000000D02*
G75*
G03*
X13000000Y-6300000I0J-300000D01*
G01*
X16700000Y-10000000D02*
X13300000Y-10000000D01*
D11*
D12*
X14000000Y-6940000D02*
X14040000Y-6980000D01*
X14040000Y-6940000D02*
X14000000Y-6980000D01*
X14000000Y-8680000D02*
X14040000Y-8720000D01*
X14040000Y-8680000D02*
X14000000Y-8720000D01*
X14320000Y-7103550D02*
X14360000Y-7143550D01*
X14360000Y-7103550D02*
X14320000Y-7143550D01*
X14440000Y-7360000D02*
X14480000Y-7400000D01*
X14480000Y-7360000D02*
X14440000Y-7400000D01*
X14440000Y-8620000D02*
X14480000Y-8660000D01*
X14480000Y-8620000D02*
X14440000Y-8660000D01*
X14560000Y-6700000D02*
X14600000Y-6740000D01*
X14600000Y-6700000D02*
X14560000Y-6740000D01*
X14750950Y-6680000D02*
X14790950Y-6720000D01*
X14790950Y-6680000D02*
X14750950Y-6720000D01*
X14760000Y-7000000D02*
X14800000Y-7040000D01*
X14800000Y-7000000D02*
X14760000Y-7040000D01*
X14760000Y-7860000D02*
X14800000Y-7900000D01*
X14800000Y-7860000D02*
X14760000Y-7900000D01*
X14760000Y-9600000D02*
X14800000Y-9640000D01*
X14800000Y-9600000D02*
X14760000Y-9640000D01*
X14780000Y-7600000D02*
X14820000Y-7640000D01*
X14820000Y-7600000D02*
X14780000Y-7640000D01*
X14860000Y-8000000D02*
X14900000Y-8040000D01*
X14900000Y-8000000D02*
X14860000Y-8040000D01*
X14882120Y-6993639D02*
X14922120Y-7033639D01*
X14922120Y-6993639D02*
X14882120Y-7033639D01*
X14940000Y-6680000D02*
X14980000Y-6720000D01*
X14980000Y-6680000D02*
X14940000Y-6720000D01*
X15000694Y-7597948D02*
X15040694Y-7637948D01*
X15040694Y-7597948D02*
X15000694Y-7637948D01*
X15040000Y-6680000D02*
X15080000Y-6720000D01*
X15080000Y-6680000D02*
X15040000Y-6720000D01*
X15040000Y-7840000D02*
X15080000Y-7880000D01*
X15080000Y-7840000D02*
X15040000Y-7880000D01*
X15160000Y-7780000D02*
X15200000Y-7820000D01*
X15200000Y-7780000D02*
X15160000Y-7820000D01*
X15189950Y-7501500D02*
X15229950Y-7541500D01*
X15229950Y-7501500D02*
X15189950Y-7541500D01*
X15540000Y-6800000D02*
X15580000Y-6840000D01*
X15580000Y-6800000D02*
X15540000Y-6840000D01*
X15560000Y-7780000D02*
X15600000Y-7820000D01*
X15600000Y-7780000D02*
X15560000Y-7820000D01*
X15800000Y-7660000D02*
X15840000Y-7700000D01*
X15840000Y-7660000D02*
X15800000Y-7700000D01*
X15830000Y-7150000D02*
X15870000Y-7190000D01*
X15870000Y-7150000D02*
X15830000Y-7190000D01*
X15960000Y-9600000D02*
X16000000Y-9640000D01*
X16000000Y-9600000D02*
X15960000Y-9640000D01*
X16140000Y-8660000D02*
X16180000Y-8700000D01*
X16180000Y-8660000D02*
X16140000Y-8700000D01*
X16360000Y-8660000D02*
X16400000Y-8700000D01*
X16400000Y-8660000D02*
X16360000Y-8700000D01*
X16560000Y-8000000D02*
X16600000Y-8040000D01*
X16600000Y-8000000D02*
X16560000Y-8040000D01*
X16600000Y-7500000D02*
X16640000Y-7540000D01*
X16640000Y-7500000D02*
X16600000Y-7540000D01*
D13*
X13272000Y-6799600D02*
G75*
G03*
X13272000Y-6799600I-50000J0D01*
G01*
X13272000Y-7053600D02*
G75*
G03*
X13272000Y-7053600I-50000J0D01*
G01*
X13272000Y-7307600D02*
G75*
G03*
X13272000Y-7307600I-50000J0D01*
G01*
X13272000Y-7561600D02*
G75*
G03*
X13272000Y-7561600I-50000J0D01*
G01*
X13272000Y-7815600D02*
G75*
G03*
X13272000Y-7815600I-50000J0D01*
G01*
X13272000Y-8069600D02*
G75*
G03*
X13272000Y-8069600I-50000J0D01*
G01*
X13272000Y-8323600D02*
G75*
G03*
X13272000Y-8323600I-50000J0D01*
G01*
X13272000Y-8577600D02*
G75*
G03*
X13272000Y-8577600I-50000J0D01*
G01*
X13272000Y-8831600D02*
G75*
G03*
X13272000Y-8831600I-50000J0D01*
G01*
X13272000Y-9085600D02*
G75*
G03*
X13272000Y-9085600I-50000J0D01*
G01*
X13272000Y-9339600D02*
G75*
G03*
X13272000Y-9339600I-50000J0D01*
G01*
X13272000Y-9593600D02*
G75*
G03*
X13272000Y-9593600I-50000J0D01*
G01*
X16828000Y-6799600D02*
G75*
G03*
X16828000Y-6799600I-50000J0D01*
G01*
X16828000Y-7053600D02*
G75*
G03*
X16828000Y-7053600I-50000J0D01*
G01*
X16828000Y-7307600D02*
G75*
G03*
X16828000Y-7307600I-50000J0D01*
G01*
X16828000Y-7561600D02*
G75*
G03*
X16828000Y-7561600I-50000J0D01*
G01*
X16828000Y-7815600D02*
G75*
G03*
X16828000Y-7815600I-50000J0D01*
G01*
X16828000Y-8069600D02*
G75*
G03*
X16828000Y-8069600I-50000J0D01*
G01*
X16828000Y-8323600D02*
G75*
G03*
X16828000Y-8323600I-50000J0D01*
G01*
X16828000Y-8577600D02*
G75*
G03*
X16828000Y-8577600I-50000J0D01*
G01*
X16828000Y-8831600D02*
G75*
G03*
X16828000Y-8831600I-50000J0D01*
G01*
X16828000Y-9085600D02*
G75*
G03*
X16828000Y-9085600I-50000J0D01*
G01*
X16828000Y-9339600D02*
G75*
G03*
X16828000Y-9339600I-50000J0D01*
G01*
X16828000Y-9593600D02*
G75*
G03*
X16828000Y-9593600I-50000J0D01*
G01*
D11*
X13252619Y-10315476D02*
X13252619Y-10115476D01*
X13300238Y-10115476D01*
X13328809Y-10125000D01*
X13347857Y-10144048D01*
X13357381Y-10163095D01*
X13366905Y-10201190D01*
X13366905Y-10229762D01*
X13357381Y-10267857D01*
X13347857Y-10286905D01*
X13328809Y-10305952D01*
X13300238Y-10315476D01*
X13252619Y-10315476D01*
X13452619Y-10315476D02*
X13452619Y-10182143D01*
X13452619Y-10220238D02*
X13462143Y-10201190D01*
X13471667Y-10191667D01*
X13490714Y-10182143D01*
X13509762Y-10182143D01*
X13576428Y-10315476D02*
X13576428Y-10182143D01*
X13576428Y-10115476D02*
X13566905Y-10125000D01*
X13576428Y-10134524D01*
X13585952Y-10125000D01*
X13576428Y-10115476D01*
X13576428Y-10134524D01*
X13700238Y-10315476D02*
X13681190Y-10305952D01*
X13671667Y-10286905D01*
X13671667Y-10115476D01*
X13805000Y-10315476D02*
X13785952Y-10305952D01*
X13776428Y-10286905D01*
X13776428Y-10115476D01*
X14033571Y-10315476D02*
X14033571Y-10115476D01*
X14100238Y-10258333D01*
X14166905Y-10115476D01*
X14166905Y-10315476D01*
X14347857Y-10315476D02*
X14347857Y-10210714D01*
X14338333Y-10191667D01*
X14319286Y-10182143D01*
X14281190Y-10182143D01*
X14262143Y-10191667D01*
X14347857Y-10305952D02*
X14328809Y-10315476D01*
X14281190Y-10315476D01*
X14262143Y-10305952D01*
X14252619Y-10286905D01*
X14252619Y-10267857D01*
X14262143Y-10248810D01*
X14281190Y-10239286D01*
X14328809Y-10239286D01*
X14347857Y-10229762D01*
X14443095Y-10182143D02*
X14443095Y-10382143D01*
X14443095Y-10191667D02*
X14462143Y-10182143D01*
X14500238Y-10182143D01*
X14519286Y-10191667D01*
X14528809Y-10201190D01*
X14538333Y-10220238D01*
X14538333Y-10277381D01*
X14528809Y-10296429D01*
X14519286Y-10305952D01*
X14500238Y-10315476D01*
X14462143Y-10315476D01*
X14443095Y-10305952D01*
X14624048Y-10296429D02*
X14633571Y-10305952D01*
X14624048Y-10315476D01*
X14614524Y-10305952D01*
X14624048Y-10296429D01*
X14624048Y-10315476D01*
X14624048Y-10191667D02*
X14633571Y-10201190D01*
X14624048Y-10210714D01*
X14614524Y-10201190D01*
X14624048Y-10191667D01*
X14624048Y-10210714D01*
D12*
X12955000Y-10625000D02*
X12995000Y-10665000D01*
X12995000Y-10625000D02*
X12955000Y-10665000D01*
D11*
X13290714Y-10535476D02*
X13309762Y-10535476D01*
X13328809Y-10545000D01*
X13338333Y-10554524D01*
X13347857Y-10573571D01*
X13357381Y-10611667D01*
X13357381Y-10659286D01*
X13347857Y-10697381D01*
X13338333Y-10716429D01*
X13328809Y-10725952D01*
X13309762Y-10735476D01*
X13290714Y-10735476D01*
X13271667Y-10725952D01*
X13262143Y-10716429D01*
X13252619Y-10697381D01*
X13243095Y-10659286D01*
X13243095Y-10611667D01*
X13252619Y-10573571D01*
X13262143Y-10554524D01*
X13271667Y-10545000D01*
X13290714Y-10535476D01*
X13443095Y-10716429D02*
X13452619Y-10725952D01*
X13443095Y-10735476D01*
X13433571Y-10725952D01*
X13443095Y-10716429D01*
X13443095Y-10735476D01*
X13624048Y-10602143D02*
X13624048Y-10735476D01*
X13576428Y-10525952D02*
X13528809Y-10668810D01*
X13652619Y-10668810D01*
X13766905Y-10535476D02*
X13785952Y-10535476D01*
X13805000Y-10545000D01*
X13814524Y-10554524D01*
X13824048Y-10573571D01*
X13833571Y-10611667D01*
X13833571Y-10659286D01*
X13824048Y-10697381D01*
X13814524Y-10716429D01*
X13805000Y-10725952D01*
X13785952Y-10735476D01*
X13766905Y-10735476D01*
X13747857Y-10725952D01*
X13738333Y-10716429D01*
X13728809Y-10697381D01*
X13719286Y-10659286D01*
X13719286Y-10611667D01*
X13728809Y-10573571D01*
X13738333Y-10554524D01*
X13747857Y-10545000D01*
X13766905Y-10535476D01*
X13957381Y-10535476D02*
X13976428Y-10535476D01*
X13995476Y-10545000D01*
X14005000Y-10554524D01*
X14014524Y-10573571D01*
X14024048Y-10611667D01*
X14024048Y-10659286D01*
X14014524Y-10697381D01*
X14005000Y-10716429D01*
X13995476Y-10725952D01*
X13976428Y-10735476D01*
X13957381Y-10735476D01*
X13938333Y-10725952D01*
X13928809Y-10716429D01*
X13919286Y-10697381D01*
X13909762Y-10659286D01*
X13909762Y-10611667D01*
X13919286Y-10573571D01*
X13928809Y-10554524D01*
X13938333Y-10545000D01*
X13957381Y-10535476D01*
X14109762Y-10735476D02*
X14109762Y-10602143D01*
X14109762Y-10621190D02*
X14119286Y-10611667D01*
X14138333Y-10602143D01*
X14166905Y-10602143D01*
X14185952Y-10611667D01*
X14195476Y-10630714D01*
X14195476Y-10735476D01*
X14195476Y-10630714D02*
X14205000Y-10611667D01*
X14224048Y-10602143D01*
X14252619Y-10602143D01*
X14271667Y-10611667D01*
X14281190Y-10630714D01*
X14281190Y-10735476D01*
X14376428Y-10735476D02*
X14376428Y-10602143D01*
X14376428Y-10621190D02*
X14385952Y-10611667D01*
X14405000Y-10602143D01*
X14433571Y-10602143D01*
X14452619Y-10611667D01*
X14462143Y-10630714D01*
X14462143Y-10735476D01*
X14462143Y-10630714D02*
X14471667Y-10611667D01*
X14490714Y-10602143D01*
X14519286Y-10602143D01*
X14538333Y-10611667D01*
X14547857Y-10630714D01*
X14547857Y-10735476D01*
X14938333Y-10525952D02*
X14766905Y-10783095D01*
X15195476Y-10535476D02*
X15214524Y-10535476D01*
X15233571Y-10545000D01*
X15243095Y-10554524D01*
X15252619Y-10573571D01*
X15262143Y-10611667D01*
X15262143Y-10659286D01*
X15252619Y-10697381D01*
X15243095Y-10716429D01*
X15233571Y-10725952D01*
X15214524Y-10735476D01*
X15195476Y-10735476D01*
X15176428Y-10725952D01*
X15166905Y-10716429D01*
X15157381Y-10697381D01*
X15147857Y-10659286D01*
X15147857Y-10611667D01*
X15157381Y-10573571D01*
X15166905Y-10554524D01*
X15176428Y-10545000D01*
X15195476Y-10535476D01*
X15347857Y-10716429D02*
X15357381Y-10725952D01*
X15347857Y-10735476D01*
X15338333Y-10725952D01*
X15347857Y-10716429D01*
X15347857Y-10735476D01*
X15481190Y-10535476D02*
X15500238Y-10535476D01*
X15519286Y-10545000D01*
X15528809Y-10554524D01*
X15538333Y-10573571D01*
X15547857Y-10611667D01*
X15547857Y-10659286D01*
X15538333Y-10697381D01*
X15528809Y-10716429D01*
X15519286Y-10725952D01*
X15500238Y-10735476D01*
X15481190Y-10735476D01*
X15462143Y-10725952D01*
X15452619Y-10716429D01*
X15443095Y-10697381D01*
X15433571Y-10659286D01*
X15433571Y-10611667D01*
X15443095Y-10573571D01*
X15452619Y-10554524D01*
X15462143Y-10545000D01*
X15481190Y-10535476D01*
X15738333Y-10735476D02*
X15624048Y-10735476D01*
X15681190Y-10735476D02*
X15681190Y-10535476D01*
X15662143Y-10564048D01*
X15643095Y-10583095D01*
X15624048Y-10592619D01*
X15919286Y-10535476D02*
X15824048Y-10535476D01*
X15814524Y-10630714D01*
X15824048Y-10621190D01*
X15843095Y-10611667D01*
X15890714Y-10611667D01*
X15909762Y-10621190D01*
X15919286Y-10630714D01*
X15928809Y-10649762D01*
X15928809Y-10697381D01*
X15919286Y-10716429D01*
X15909762Y-10725952D01*
X15890714Y-10735476D01*
X15843095Y-10735476D01*
X15824048Y-10725952D01*
X15814524Y-10716429D01*
X15995476Y-10535476D02*
X16128809Y-10535476D01*
X16043095Y-10735476D01*
X16195476Y-10535476D02*
X16195476Y-10573571D01*
X16271667Y-10535476D02*
X16271667Y-10573571D01*
X16566905Y-10811667D02*
X16557381Y-10802143D01*
X16538333Y-10773571D01*
X16528809Y-10754524D01*
X16519286Y-10725952D01*
X16509762Y-10678333D01*
X16509762Y-10640238D01*
X16519286Y-10592619D01*
X16528809Y-10564048D01*
X16538333Y-10545000D01*
X16557381Y-10516429D01*
X16566905Y-10506905D01*
X16633571Y-10554524D02*
X16643095Y-10545000D01*
X16662143Y-10535476D01*
X16709762Y-10535476D01*
X16728809Y-10545000D01*
X16738333Y-10554524D01*
X16747857Y-10573571D01*
X16747857Y-10592619D01*
X16738333Y-10621190D01*
X16624048Y-10735476D01*
X16747857Y-10735476D01*
X16862143Y-10621190D02*
X16843095Y-10611667D01*
X16833571Y-10602143D01*
X16824048Y-10583095D01*
X16824048Y-10573571D01*
X16833571Y-10554524D01*
X16843095Y-10545000D01*
X16862143Y-10535476D01*
X16900238Y-10535476D01*
X16919286Y-10545000D01*
X16928810Y-10554524D01*
X16938333Y-10573571D01*
X16938333Y-10583095D01*
X16928810Y-10602143D01*
X16919286Y-10611667D01*
X16900238Y-10621190D01*
X16862143Y-10621190D01*
X16843095Y-10630714D01*
X16833571Y-10640238D01*
X16824048Y-10659286D01*
X16824048Y-10697381D01*
X16833571Y-10716429D01*
X16843095Y-10725952D01*
X16862143Y-10735476D01*
X16900238Y-10735476D01*
X16919286Y-10725952D01*
X16928810Y-10716429D01*
X16938333Y-10697381D01*
X16938333Y-10659286D01*
X16928810Y-10640238D01*
X16919286Y-10630714D01*
X16900238Y-10621190D01*
X17176429Y-10735476D02*
X17176429Y-10535476D01*
X17262143Y-10735476D02*
X17262143Y-10630714D01*
X17252619Y-10611667D01*
X17233571Y-10602143D01*
X17205000Y-10602143D01*
X17185952Y-10611667D01*
X17176429Y-10621190D01*
X17385952Y-10735476D02*
X17366905Y-10725952D01*
X17357381Y-10716429D01*
X17347857Y-10697381D01*
X17347857Y-10640238D01*
X17357381Y-10621190D01*
X17366905Y-10611667D01*
X17385952Y-10602143D01*
X17414524Y-10602143D01*
X17433571Y-10611667D01*
X17443095Y-10621190D01*
X17452619Y-10640238D01*
X17452619Y-10697381D01*
X17443095Y-10716429D01*
X17433571Y-10725952D01*
X17414524Y-10735476D01*
X17385952Y-10735476D01*
X17566905Y-10735476D02*
X17547857Y-10725952D01*
X17538333Y-10706905D01*
X17538333Y-10535476D01*
X17719286Y-10725952D02*
X17700238Y-10735476D01*
X17662143Y-10735476D01*
X17643095Y-10725952D01*
X17633571Y-10706905D01*
X17633571Y-10630714D01*
X17643095Y-10611667D01*
X17662143Y-10602143D01*
X17700238Y-10602143D01*
X17719286Y-10611667D01*
X17728810Y-10630714D01*
X17728810Y-10649762D01*
X17633571Y-10668810D01*
X17805000Y-10725952D02*
X17824048Y-10735476D01*
X17862143Y-10735476D01*
X17881190Y-10725952D01*
X17890714Y-10706905D01*
X17890714Y-10697381D01*
X17881190Y-10678333D01*
X17862143Y-10668810D01*
X17833571Y-10668810D01*
X17814524Y-10659286D01*
X17805000Y-10640238D01*
X17805000Y-10630714D01*
X17814524Y-10611667D01*
X17833571Y-10602143D01*
X17862143Y-10602143D01*
X17881190Y-10611667D01*
X17957381Y-10811667D02*
X17966905Y-10802143D01*
X17985952Y-10773571D01*
X17995476Y-10754524D01*
X18005000Y-10725952D01*
X18014524Y-10678333D01*
X18014524Y-10640238D01*
X18005000Y-10592619D01*
X17995476Y-10564048D01*
X17985952Y-10545000D01*
X17966905Y-10516429D01*
X17957381Y-10506905D01*
D13*
X12995000Y-10909000D02*
G75*
G03*
X12995000Y-10909000I-50000J0D01*
G01*
D11*
X13357381Y-10999476D02*
X13243095Y-10999476D01*
X13300238Y-10999476D02*
X13300238Y-10799476D01*
X13281190Y-10828048D01*
X13262143Y-10847095D01*
X13243095Y-10856619D01*
X13443095Y-10980429D02*
X13452619Y-10989952D01*
X13443095Y-10999476D01*
X13433571Y-10989952D01*
X13443095Y-10980429D01*
X13443095Y-10999476D01*
X13576428Y-10799476D02*
X13595476Y-10799476D01*
X13614524Y-10809000D01*
X13624048Y-10818524D01*
X13633571Y-10837571D01*
X13643095Y-10875667D01*
X13643095Y-10923286D01*
X13633571Y-10961381D01*
X13624048Y-10980429D01*
X13614524Y-10989952D01*
X13595476Y-10999476D01*
X13576428Y-10999476D01*
X13557381Y-10989952D01*
X13547857Y-10980429D01*
X13538333Y-10961381D01*
X13528809Y-10923286D01*
X13528809Y-10875667D01*
X13538333Y-10837571D01*
X13547857Y-10818524D01*
X13557381Y-10809000D01*
X13576428Y-10799476D01*
X13766905Y-10799476D02*
X13785952Y-10799476D01*
X13805000Y-10809000D01*
X13814524Y-10818524D01*
X13824048Y-10837571D01*
X13833571Y-10875667D01*
X13833571Y-10923286D01*
X13824048Y-10961381D01*
X13814524Y-10980429D01*
X13805000Y-10989952D01*
X13785952Y-10999476D01*
X13766905Y-10999476D01*
X13747857Y-10989952D01*
X13738333Y-10980429D01*
X13728809Y-10961381D01*
X13719286Y-10923286D01*
X13719286Y-10875667D01*
X13728809Y-10837571D01*
X13738333Y-10818524D01*
X13747857Y-10809000D01*
X13766905Y-10799476D01*
X13957381Y-10799476D02*
X13976428Y-10799476D01*
X13995476Y-10809000D01*
X14005000Y-10818524D01*
X14014524Y-10837571D01*
X14024048Y-10875667D01*
X14024048Y-10923286D01*
X14014524Y-10961381D01*
X14005000Y-10980429D01*
X13995476Y-10989952D01*
X13976428Y-10999476D01*
X13957381Y-10999476D01*
X13938333Y-10989952D01*
X13928809Y-10980429D01*
X13919286Y-10961381D01*
X13909762Y-10923286D01*
X13909762Y-10875667D01*
X13919286Y-10837571D01*
X13928809Y-10818524D01*
X13938333Y-10809000D01*
X13957381Y-10799476D01*
X14109762Y-10999476D02*
X14109762Y-10866143D01*
X14109762Y-10885190D02*
X14119286Y-10875667D01*
X14138333Y-10866143D01*
X14166905Y-10866143D01*
X14185952Y-10875667D01*
X14195476Y-10894714D01*
X14195476Y-10999476D01*
X14195476Y-10894714D02*
X14205000Y-10875667D01*
X14224048Y-10866143D01*
X14252619Y-10866143D01*
X14271667Y-10875667D01*
X14281190Y-10894714D01*
X14281190Y-10999476D01*
X14376428Y-10999476D02*
X14376428Y-10866143D01*
X14376428Y-10885190D02*
X14385952Y-10875667D01*
X14405000Y-10866143D01*
X14433571Y-10866143D01*
X14452619Y-10875667D01*
X14462143Y-10894714D01*
X14462143Y-10999476D01*
X14462143Y-10894714D02*
X14471667Y-10875667D01*
X14490714Y-10866143D01*
X14519286Y-10866143D01*
X14538333Y-10875667D01*
X14547857Y-10894714D01*
X14547857Y-10999476D01*
X14938333Y-10789952D02*
X14766905Y-11047095D01*
X15195476Y-10799476D02*
X15214524Y-10799476D01*
X15233571Y-10809000D01*
X15243095Y-10818524D01*
X15252619Y-10837571D01*
X15262143Y-10875667D01*
X15262143Y-10923286D01*
X15252619Y-10961381D01*
X15243095Y-10980429D01*
X15233571Y-10989952D01*
X15214524Y-10999476D01*
X15195476Y-10999476D01*
X15176428Y-10989952D01*
X15166905Y-10980429D01*
X15157381Y-10961381D01*
X15147857Y-10923286D01*
X15147857Y-10875667D01*
X15157381Y-10837571D01*
X15166905Y-10818524D01*
X15176428Y-10809000D01*
X15195476Y-10799476D01*
X15347857Y-10980429D02*
X15357381Y-10989952D01*
X15347857Y-10999476D01*
X15338333Y-10989952D01*
X15347857Y-10980429D01*
X15347857Y-10999476D01*
X15481190Y-10799476D02*
X15500238Y-10799476D01*
X15519286Y-10809000D01*
X15528809Y-10818524D01*
X15538333Y-10837571D01*
X15547857Y-10875667D01*
X15547857Y-10923286D01*
X15538333Y-10961381D01*
X15528809Y-10980429D01*
X15519286Y-10989952D01*
X15500238Y-10999476D01*
X15481190Y-10999476D01*
X15462143Y-10989952D01*
X15452619Y-10980429D01*
X15443095Y-10961381D01*
X15433571Y-10923286D01*
X15433571Y-10875667D01*
X15443095Y-10837571D01*
X15452619Y-10818524D01*
X15462143Y-10809000D01*
X15481190Y-10799476D01*
X15614524Y-10799476D02*
X15738333Y-10799476D01*
X15671667Y-10875667D01*
X15700238Y-10875667D01*
X15719286Y-10885190D01*
X15728809Y-10894714D01*
X15738333Y-10913762D01*
X15738333Y-10961381D01*
X15728809Y-10980429D01*
X15719286Y-10989952D01*
X15700238Y-10999476D01*
X15643095Y-10999476D01*
X15624048Y-10989952D01*
X15614524Y-10980429D01*
X15833571Y-10999476D02*
X15871667Y-10999476D01*
X15890714Y-10989952D01*
X15900238Y-10980429D01*
X15919286Y-10951857D01*
X15928809Y-10913762D01*
X15928809Y-10837571D01*
X15919286Y-10818524D01*
X15909762Y-10809000D01*
X15890714Y-10799476D01*
X15852619Y-10799476D01*
X15833571Y-10809000D01*
X15824048Y-10818524D01*
X15814524Y-10837571D01*
X15814524Y-10885190D01*
X15824048Y-10904238D01*
X15833571Y-10913762D01*
X15852619Y-10923286D01*
X15890714Y-10923286D01*
X15909762Y-10913762D01*
X15919286Y-10904238D01*
X15928809Y-10885190D01*
X16100238Y-10866143D02*
X16100238Y-10999476D01*
X16052619Y-10789952D02*
X16005000Y-10932810D01*
X16128809Y-10932810D01*
X16195476Y-10799476D02*
X16195476Y-10837571D01*
X16271667Y-10799476D02*
X16271667Y-10837571D01*
X16566905Y-11075667D02*
X16557381Y-11066143D01*
X16538333Y-11037571D01*
X16528809Y-11018524D01*
X16519286Y-10989952D01*
X16509762Y-10942333D01*
X16509762Y-10904238D01*
X16519286Y-10856619D01*
X16528809Y-10828048D01*
X16538333Y-10809000D01*
X16557381Y-10780429D01*
X16566905Y-10770905D01*
X16633571Y-10818524D02*
X16643095Y-10809000D01*
X16662143Y-10799476D01*
X16709762Y-10799476D01*
X16728809Y-10809000D01*
X16738333Y-10818524D01*
X16747857Y-10837571D01*
X16747857Y-10856619D01*
X16738333Y-10885190D01*
X16624048Y-10999476D01*
X16747857Y-10999476D01*
X16919286Y-10866143D02*
X16919286Y-10999476D01*
X16871667Y-10789952D02*
X16824048Y-10932810D01*
X16947857Y-10932810D01*
X17176429Y-10999476D02*
X17176429Y-10799476D01*
X17262143Y-10999476D02*
X17262143Y-10894714D01*
X17252619Y-10875667D01*
X17233571Y-10866143D01*
X17205000Y-10866143D01*
X17185952Y-10875667D01*
X17176429Y-10885190D01*
X17385952Y-10999476D02*
X17366905Y-10989952D01*
X17357381Y-10980429D01*
X17347857Y-10961381D01*
X17347857Y-10904238D01*
X17357381Y-10885190D01*
X17366905Y-10875667D01*
X17385952Y-10866143D01*
X17414524Y-10866143D01*
X17433571Y-10875667D01*
X17443095Y-10885190D01*
X17452619Y-10904238D01*
X17452619Y-10961381D01*
X17443095Y-10980429D01*
X17433571Y-10989952D01*
X17414524Y-10999476D01*
X17385952Y-10999476D01*
X17566905Y-10999476D02*
X17547857Y-10989952D01*
X17538333Y-10970905D01*
X17538333Y-10799476D01*
X17719286Y-10989952D02*
X17700238Y-10999476D01*
X17662143Y-10999476D01*
X17643095Y-10989952D01*
X17633571Y-10970905D01*
X17633571Y-10894714D01*
X17643095Y-10875667D01*
X17662143Y-10866143D01*
X17700238Y-10866143D01*
X17719286Y-10875667D01*
X17728810Y-10894714D01*
X17728810Y-10913762D01*
X17633571Y-10932810D01*
X17805000Y-10989952D02*
X17824048Y-10999476D01*
X17862143Y-10999476D01*
X17881190Y-10989952D01*
X17890714Y-10970905D01*
X17890714Y-10961381D01*
X17881190Y-10942333D01*
X17862143Y-10932810D01*
X17833571Y-10932810D01*
X17814524Y-10923286D01*
X17805000Y-10904238D01*
X17805000Y-10894714D01*
X17814524Y-10875667D01*
X17833571Y-10866143D01*
X17862143Y-10866143D01*
X17881190Y-10875667D01*
X17957381Y-11075667D02*
X17966905Y-11066143D01*
X17985952Y-11037571D01*
X17995476Y-11018524D01*
X18005000Y-10989952D01*
X18014524Y-10942333D01*
X18014524Y-10904238D01*
X18005000Y-10856619D01*
X17995476Y-10828048D01*
X17985952Y-10809000D01*
X17966905Y-10780429D01*
X17957381Y-10770905D01*
M02*
