%TF.GenerationSoftware,KiCad,Pcbnew,(6.0.0-0)*%
%TF.CreationDate,2022-08-17T15:23:26+02:00*%
%TF.ProjectId,ap3722at_mic_breakout,61703337-3232-4617-945f-6d69635f6272,rev?*%
%TF.SameCoordinates,Original*%
%TF.FileFunction,Legend,Top*%
%TF.FilePolarity,Positive*%
%FSLAX46Y46*%
G04 Gerber Fmt 4.6, Leading zero omitted, Abs format (unit mm)*
G04 Created by KiCad (PCBNEW (6.0.0-0)) date 2022-08-17 15:23:26*
%MOMM*%
%LPD*%
G01*
G04 APERTURE LIST*
G04 Aperture macros list*
%AMRoundRect*
0 Rectangle with rounded corners*
0 $1 Rounding radius*
0 $2 $3 $4 $5 $6 $7 $8 $9 X,Y pos of 4 corners*
0 Add a 4 corners polygon primitive as box body*
4,1,4,$2,$3,$4,$5,$6,$7,$8,$9,$2,$3,0*
0 Add four circle primitives for the rounded corners*
1,1,$1+$1,$2,$3*
1,1,$1+$1,$4,$5*
1,1,$1+$1,$6,$7*
1,1,$1+$1,$8,$9*
0 Add four rect primitives between the rounded corners*
20,1,$1+$1,$2,$3,$4,$5,0*
20,1,$1+$1,$4,$5,$6,$7,0*
20,1,$1+$1,$6,$7,$8,$9,0*
20,1,$1+$1,$8,$9,$2,$3,0*%
G04 Aperture macros list end*
%ADD10C,0.150000*%
%ADD11C,0.120000*%
%ADD12R,1.700000X1.700000*%
%ADD13O,1.700000X1.700000*%
%ADD14C,0.700000*%
%ADD15C,2.500000*%
%ADD16RoundRect,0.225000X-0.250000X0.225000X-0.250000X-0.225000X0.250000X-0.225000X0.250000X0.225000X0*%
G04 APERTURE END LIST*
D10*
X158261666Y-116452380D02*
X158261666Y-115976190D01*
X158547380Y-116547619D02*
X157547380Y-116214285D01*
X158547380Y-115880952D01*
X158547380Y-115547619D02*
X157547380Y-115547619D01*
X157547380Y-115166666D01*
X157595000Y-115071428D01*
X157642619Y-115023809D01*
X157737857Y-114976190D01*
X157880714Y-114976190D01*
X157975952Y-115023809D01*
X158023571Y-115071428D01*
X158071190Y-115166666D01*
X158071190Y-115547619D01*
X157547380Y-114642857D02*
X157547380Y-114023809D01*
X157928333Y-114357142D01*
X157928333Y-114214285D01*
X157975952Y-114119047D01*
X158023571Y-114071428D01*
X158118809Y-114023809D01*
X158356904Y-114023809D01*
X158452142Y-114071428D01*
X158499761Y-114119047D01*
X158547380Y-114214285D01*
X158547380Y-114500000D01*
X158499761Y-114595238D01*
X158452142Y-114642857D01*
X157547380Y-113690476D02*
X157547380Y-113023809D01*
X158547380Y-113452380D01*
X157642619Y-112690476D02*
X157595000Y-112642857D01*
X157547380Y-112547619D01*
X157547380Y-112309523D01*
X157595000Y-112214285D01*
X157642619Y-112166666D01*
X157737857Y-112119047D01*
X157833095Y-112119047D01*
X157975952Y-112166666D01*
X158547380Y-112738095D01*
X158547380Y-112119047D01*
X157642619Y-111738095D02*
X157595000Y-111690476D01*
X157547380Y-111595238D01*
X157547380Y-111357142D01*
X157595000Y-111261904D01*
X157642619Y-111214285D01*
X157737857Y-111166666D01*
X157833095Y-111166666D01*
X157975952Y-111214285D01*
X158547380Y-111785714D01*
X158547380Y-111166666D01*
X158261666Y-110785714D02*
X158261666Y-110309523D01*
X158547380Y-110880952D02*
X157547380Y-110547619D01*
X158547380Y-110214285D01*
X157547380Y-110023809D02*
X157547380Y-109452380D01*
X158547380Y-109738095D02*
X157547380Y-109738095D01*
X160157380Y-114071428D02*
X159157380Y-114071428D01*
X159871666Y-113738095D01*
X159157380Y-113404761D01*
X160157380Y-113404761D01*
X160157380Y-112928571D02*
X159157380Y-112928571D01*
X160062142Y-111880952D02*
X160109761Y-111928571D01*
X160157380Y-112071428D01*
X160157380Y-112166666D01*
X160109761Y-112309523D01*
X160014523Y-112404761D01*
X159919285Y-112452380D01*
X159728809Y-112500000D01*
X159585952Y-112500000D01*
X159395476Y-112452380D01*
X159300238Y-112404761D01*
X159205000Y-112309523D01*
X159157380Y-112166666D01*
X159157380Y-112071428D01*
X159205000Y-111928571D01*
X159252619Y-111880952D01*
X169674678Y-112431544D02*
X169865154Y-112431544D01*
X169960392Y-112479164D01*
X170055630Y-112574402D01*
X170103250Y-112764878D01*
X170103250Y-113098211D01*
X170055630Y-113288687D01*
X169960392Y-113383925D01*
X169865154Y-113431544D01*
X169674678Y-113431544D01*
X169579440Y-113383925D01*
X169484202Y-113288687D01*
X169436583Y-113098211D01*
X169436583Y-112764878D01*
X169484202Y-112574402D01*
X169579440Y-112479164D01*
X169674678Y-112431544D01*
X170531821Y-112431544D02*
X170531821Y-113241068D01*
X170579440Y-113336306D01*
X170627059Y-113383925D01*
X170722297Y-113431544D01*
X170912773Y-113431544D01*
X171008011Y-113383925D01*
X171055630Y-113336306D01*
X171103250Y-113241068D01*
X171103250Y-112431544D01*
X171436583Y-112431544D02*
X172008011Y-112431544D01*
X171722297Y-113431544D02*
X171722297Y-112431544D01*
X169341345Y-114971544D02*
X169674678Y-115971544D01*
X170008011Y-114971544D01*
X170341345Y-115971544D02*
X170341345Y-114971544D01*
X170579440Y-114971544D01*
X170722297Y-115019164D01*
X170817535Y-115114402D01*
X170865154Y-115209640D01*
X170912773Y-115400116D01*
X170912773Y-115542973D01*
X170865154Y-115733449D01*
X170817535Y-115828687D01*
X170722297Y-115923925D01*
X170579440Y-115971544D01*
X170341345Y-115971544D01*
X171341345Y-115971544D02*
X171341345Y-114971544D01*
X171579440Y-114971544D01*
X171722297Y-115019164D01*
X171817535Y-115114402D01*
X171865154Y-115209640D01*
X171912773Y-115400116D01*
X171912773Y-115542973D01*
X171865154Y-115733449D01*
X171817535Y-115828687D01*
X171722297Y-115923925D01*
X171579440Y-115971544D01*
X171341345Y-115971544D01*
X169817535Y-109939164D02*
X169722297Y-109891544D01*
X169579440Y-109891544D01*
X169436583Y-109939164D01*
X169341345Y-110034402D01*
X169293726Y-110129640D01*
X169246107Y-110320116D01*
X169246107Y-110462973D01*
X169293726Y-110653449D01*
X169341345Y-110748687D01*
X169436583Y-110843925D01*
X169579440Y-110891544D01*
X169674678Y-110891544D01*
X169817535Y-110843925D01*
X169865154Y-110796306D01*
X169865154Y-110462973D01*
X169674678Y-110462973D01*
X170293726Y-110891544D02*
X170293726Y-109891544D01*
X170865154Y-110891544D01*
X170865154Y-109891544D01*
X171341345Y-110891544D02*
X171341345Y-109891544D01*
X171579440Y-109891544D01*
X171722297Y-109939164D01*
X171817535Y-110034402D01*
X171865154Y-110129640D01*
X171912773Y-110320116D01*
X171912773Y-110462973D01*
X171865154Y-110653449D01*
X171817535Y-110748687D01*
X171722297Y-110843925D01*
X171579440Y-110891544D01*
X171341345Y-110891544D01*
D11*
%TO.C,J1*%
X175330000Y-116855000D02*
X174000000Y-116855000D01*
X175330000Y-114255000D02*
X175330000Y-109115000D01*
X175330000Y-115525000D02*
X175330000Y-116855000D01*
X172670000Y-114255000D02*
X172670000Y-109115000D01*
X175330000Y-114255000D02*
X172670000Y-114255000D01*
X175330000Y-109115000D02*
X172670000Y-109115000D01*
%TO.C,M201*%
X164476000Y-114778000D02*
X164476000Y-115286000D01*
X164476000Y-115286000D02*
X164984000Y-115286000D01*
X164984000Y-115286000D02*
X164476000Y-114778000D01*
%TO.C,C201*%
X162490000Y-112859420D02*
X162490000Y-113140580D01*
X163510000Y-112859420D02*
X163510000Y-113140580D01*
%TD*%
%LPC*%
D12*
%TO.C,J1*%
X174000000Y-115525000D03*
D13*
X174000000Y-112985000D03*
X174000000Y-110445000D03*
%TD*%
D14*
%TO.C,M201*%
X165425000Y-114330000D03*
X166575000Y-111670000D03*
X165425000Y-111670000D03*
X166575000Y-114330000D03*
%TD*%
D15*
%TO.C,REF\u002A\u002A*%
X158900000Y-120100000D03*
%TD*%
%TO.C,REF\u002A\u002A*%
X158900000Y-105900000D03*
%TD*%
D16*
%TO.C,C201*%
X163000000Y-112225000D03*
X163000000Y-113775000D03*
%TD*%
M02*
