%TF.GenerationSoftware,KiCad,Pcbnew,(6.0.0-0)*%
%TF.CreationDate,2022-08-17T15:23:25+02:00*%
%TF.ProjectId,ap3722at_mic_breakout,61703337-3232-4617-945f-6d69635f6272,rev?*%
%TF.SameCoordinates,Original*%
%TF.FileFunction,Copper,L1,Top*%
%TF.FilePolarity,Positive*%
%FSLAX46Y46*%
G04 Gerber Fmt 4.6, Leading zero omitted, Abs format (unit mm)*
G04 Created by KiCad (PCBNEW (6.0.0-0)) date 2022-08-17 15:23:25*
%MOMM*%
%LPD*%
G01*
G04 APERTURE LIST*
G04 Aperture macros list*
%AMRoundRect*
0 Rectangle with rounded corners*
0 $1 Rounding radius*
0 $2 $3 $4 $5 $6 $7 $8 $9 X,Y pos of 4 corners*
0 Add a 4 corners polygon primitive as box body*
4,1,4,$2,$3,$4,$5,$6,$7,$8,$9,$2,$3,0*
0 Add four circle primitives for the rounded corners*
1,1,$1+$1,$2,$3*
1,1,$1+$1,$4,$5*
1,1,$1+$1,$6,$7*
1,1,$1+$1,$8,$9*
0 Add four rect primitives between the rounded corners*
20,1,$1+$1,$2,$3,$4,$5,0*
20,1,$1+$1,$4,$5,$6,$7,0*
20,1,$1+$1,$6,$7,$8,$9,0*
20,1,$1+$1,$8,$9,$2,$3,0*%
G04 Aperture macros list end*
%TA.AperFunction,ComponentPad*%
%ADD10R,1.700000X1.700000*%
%TD*%
%TA.AperFunction,ComponentPad*%
%ADD11O,1.700000X1.700000*%
%TD*%
%TA.AperFunction,SMDPad,CuDef*%
%ADD12C,0.700000*%
%TD*%
%TA.AperFunction,SMDPad,CuDef*%
%ADD13RoundRect,0.225000X-0.250000X0.225000X-0.250000X-0.225000X0.250000X-0.225000X0.250000X0.225000X0*%
%TD*%
%TA.AperFunction,ViaPad*%
%ADD14C,0.800000*%
%TD*%
%TA.AperFunction,Conductor*%
%ADD15C,0.250000*%
%TD*%
G04 APERTURE END LIST*
D10*
%TO.P,J1,1,Pin_1*%
%TO.N,VDD*%
X174000000Y-115525000D03*
D11*
%TO.P,J1,2,Pin_2*%
%TO.N,OUT*%
X174000000Y-112985000D03*
%TO.P,J1,3,Pin_3*%
%TO.N,GND*%
X174000000Y-110445000D03*
%TD*%
D12*
%TO.P,M201,1,VDD*%
%TO.N,VDD*%
X165425000Y-114330000D03*
%TO.P,M201,2,GND*%
%TO.N,GND*%
X166575000Y-111670000D03*
X165425000Y-111670000D03*
%TO.P,M201,3,OUT*%
%TO.N,OUT*%
X166575000Y-114330000D03*
%TD*%
D13*
%TO.P,C201,1*%
%TO.N,GND*%
X163000000Y-112225000D03*
%TO.P,C201,2*%
%TO.N,VDD*%
X163000000Y-113775000D03*
%TD*%
D14*
%TO.N,GND*%
X165400000Y-110800000D03*
X163000000Y-111000000D03*
X166600000Y-110800000D03*
%TD*%
D15*
%TO.N,GND*%
X166575000Y-111670000D02*
X166575000Y-110825000D01*
X165425000Y-111670000D02*
X165425000Y-110825000D01*
X165425000Y-110825000D02*
X165400000Y-110800000D01*
X163000000Y-112225000D02*
X163000000Y-111000000D01*
X166575000Y-110825000D02*
X166600000Y-110800000D01*
%TO.N,VDD*%
X173875000Y-115400000D02*
X174000000Y-115525000D01*
X166495000Y-115400000D02*
X173875000Y-115400000D01*
X165425000Y-114330000D02*
X166495000Y-115400000D01*
X165330000Y-114330000D02*
X165425000Y-114330000D01*
X164775000Y-113775000D02*
X165330000Y-114330000D01*
X163000000Y-113775000D02*
X164775000Y-113775000D01*
%TO.N,OUT*%
X167905000Y-113000000D02*
X168200000Y-113000000D01*
X168215000Y-112985000D02*
X174000000Y-112985000D01*
X168200000Y-113000000D02*
X168215000Y-112985000D01*
X166575000Y-114330000D02*
X167905000Y-113000000D01*
%TD*%
M02*
