%TF.GenerationSoftware,KiCad,Pcbnew,(6.0.0-0)*%
%TF.CreationDate,2022-08-17T15:23:25+02:00*%
%TF.ProjectId,ap3722at_mic_breakout,61703337-3232-4617-945f-6d69635f6272,rev?*%
%TF.SameCoordinates,Original*%
%TF.FileFunction,Copper,L2,Bot*%
%TF.FilePolarity,Positive*%
%FSLAX46Y46*%
G04 Gerber Fmt 4.6, Leading zero omitted, Abs format (unit mm)*
G04 Created by KiCad (PCBNEW (6.0.0-0)) date 2022-08-17 15:23:25*
%MOMM*%
%LPD*%
G01*
G04 APERTURE LIST*
%TA.AperFunction,ComponentPad*%
%ADD10R,1.700000X1.700000*%
%TD*%
%TA.AperFunction,ComponentPad*%
%ADD11O,1.700000X1.700000*%
%TD*%
%TA.AperFunction,ViaPad*%
%ADD12C,0.800000*%
%TD*%
G04 APERTURE END LIST*
D10*
%TO.P,J1,1,Pin_1*%
%TO.N,VDD*%
X174000000Y-115525000D03*
D11*
%TO.P,J1,2,Pin_2*%
%TO.N,OUT*%
X174000000Y-112985000D03*
%TO.P,J1,3,Pin_3*%
%TO.N,GND*%
X174000000Y-110445000D03*
%TD*%
D12*
%TO.N,GND*%
X165400000Y-110800000D03*
X163000000Y-111000000D03*
X166600000Y-110800000D03*
%TD*%
%TA.AperFunction,Conductor*%
%TO.N,GND*%
G36*
X172970057Y-103509500D02*
G01*
X172984858Y-103511805D01*
X172984861Y-103511805D01*
X172993730Y-103513186D01*
X173010899Y-103510941D01*
X173034839Y-103510108D01*
X173292770Y-103525710D01*
X173307874Y-103527544D01*
X173378648Y-103540514D01*
X173588879Y-103579040D01*
X173603641Y-103582678D01*
X173876408Y-103667675D01*
X173890627Y-103673069D01*
X174151140Y-103790316D01*
X174164609Y-103797385D01*
X174409095Y-103945182D01*
X174421617Y-103953825D01*
X174646507Y-104130016D01*
X174657895Y-104140106D01*
X174859894Y-104342105D01*
X174869984Y-104353493D01*
X175046175Y-104578383D01*
X175054818Y-104590905D01*
X175202615Y-104835391D01*
X175209684Y-104848860D01*
X175297992Y-105045072D01*
X175326930Y-105109370D01*
X175332326Y-105123596D01*
X175417321Y-105396353D01*
X175420960Y-105411121D01*
X175459486Y-105621352D01*
X175472456Y-105692126D01*
X175474290Y-105707230D01*
X175489455Y-105957929D01*
X175488198Y-105984639D01*
X175488195Y-105984859D01*
X175486814Y-105993730D01*
X175487978Y-106002632D01*
X175487978Y-106002635D01*
X175490936Y-106025251D01*
X175492000Y-106041589D01*
X175492000Y-109864765D01*
X175471998Y-109932886D01*
X175418342Y-109979379D01*
X175348068Y-109989483D01*
X175283488Y-109959989D01*
X175250450Y-109915007D01*
X175202972Y-109805814D01*
X175198105Y-109796739D01*
X175082426Y-109617926D01*
X175076136Y-109609757D01*
X174932806Y-109452240D01*
X174925273Y-109445215D01*
X174758139Y-109313222D01*
X174749552Y-109307517D01*
X174563117Y-109204599D01*
X174553705Y-109200369D01*
X174352959Y-109129280D01*
X174342988Y-109126646D01*
X174271837Y-109113972D01*
X174258540Y-109115432D01*
X174254000Y-109129989D01*
X174254000Y-110573000D01*
X174233998Y-110641121D01*
X174180342Y-110687614D01*
X174128000Y-110699000D01*
X172683225Y-110699000D01*
X172669694Y-110702973D01*
X172668257Y-110712966D01*
X172698565Y-110847446D01*
X172701645Y-110857275D01*
X172781770Y-111054603D01*
X172786413Y-111063794D01*
X172897694Y-111245388D01*
X172903777Y-111253699D01*
X173043213Y-111414667D01*
X173050580Y-111421883D01*
X173214434Y-111557916D01*
X173222881Y-111563831D01*
X173291969Y-111604203D01*
X173340693Y-111655842D01*
X173353764Y-111725625D01*
X173327033Y-111791396D01*
X173286584Y-111824752D01*
X173273607Y-111831507D01*
X173269474Y-111834610D01*
X173269471Y-111834612D01*
X173245247Y-111852800D01*
X173094965Y-111965635D01*
X172940629Y-112127138D01*
X172814743Y-112311680D01*
X172799007Y-112345580D01*
X172740496Y-112471633D01*
X172720688Y-112514305D01*
X172660989Y-112729570D01*
X172637251Y-112951695D01*
X172650110Y-113174715D01*
X172651247Y-113179761D01*
X172651248Y-113179767D01*
X172672275Y-113273069D01*
X172699222Y-113392639D01*
X172783266Y-113599616D01*
X172899987Y-113790088D01*
X173046250Y-113958938D01*
X173050230Y-113962242D01*
X173054981Y-113966187D01*
X173094616Y-114025090D01*
X173096113Y-114096071D01*
X173058997Y-114156593D01*
X173018724Y-114181112D01*
X172903295Y-114224385D01*
X172786739Y-114311739D01*
X172699385Y-114428295D01*
X172648255Y-114564684D01*
X172641500Y-114626866D01*
X172641500Y-116423134D01*
X172648255Y-116485316D01*
X172699385Y-116621705D01*
X172786739Y-116738261D01*
X172903295Y-116825615D01*
X173039684Y-116876745D01*
X173101866Y-116883500D01*
X174898134Y-116883500D01*
X174960316Y-116876745D01*
X175096705Y-116825615D01*
X175213261Y-116738261D01*
X175265174Y-116668994D01*
X175322033Y-116626479D01*
X175392852Y-116621453D01*
X175455145Y-116655513D01*
X175489135Y-116717845D01*
X175492000Y-116744559D01*
X175492000Y-119950672D01*
X175490500Y-119970056D01*
X175486814Y-119993730D01*
X175488454Y-120006270D01*
X175489059Y-120010897D01*
X175489892Y-120034839D01*
X175474290Y-120292770D01*
X175472456Y-120307874D01*
X175434294Y-120516123D01*
X175420962Y-120588873D01*
X175417321Y-120603647D01*
X175332326Y-120876404D01*
X175326931Y-120890627D01*
X175296233Y-120958837D01*
X175209686Y-121151136D01*
X175202615Y-121164609D01*
X175054818Y-121409095D01*
X175046175Y-121421617D01*
X174869984Y-121646507D01*
X174859894Y-121657895D01*
X174657895Y-121859894D01*
X174646507Y-121869984D01*
X174421617Y-122046175D01*
X174409095Y-122054818D01*
X174164609Y-122202615D01*
X174151140Y-122209684D01*
X173890630Y-122326930D01*
X173876408Y-122332325D01*
X173603641Y-122417322D01*
X173588879Y-122420960D01*
X173378648Y-122459486D01*
X173307874Y-122472456D01*
X173292770Y-122474290D01*
X173042071Y-122489455D01*
X173015361Y-122488198D01*
X173015141Y-122488195D01*
X173006270Y-122486814D01*
X172997368Y-122487978D01*
X172997365Y-122487978D01*
X172974749Y-122490936D01*
X172958411Y-122492000D01*
X159049328Y-122492000D01*
X159029943Y-122490500D01*
X159015142Y-122488195D01*
X159015139Y-122488195D01*
X159006270Y-122486814D01*
X158989101Y-122489059D01*
X158965161Y-122489892D01*
X158707230Y-122474290D01*
X158692126Y-122472456D01*
X158621352Y-122459486D01*
X158411121Y-122420960D01*
X158396359Y-122417322D01*
X158123592Y-122332325D01*
X158109370Y-122326930D01*
X157848860Y-122209684D01*
X157835391Y-122202615D01*
X157590905Y-122054818D01*
X157578383Y-122046175D01*
X157353493Y-121869984D01*
X157342105Y-121859894D01*
X157140106Y-121657895D01*
X157130016Y-121646507D01*
X156953825Y-121421617D01*
X156945182Y-121409095D01*
X156797385Y-121164609D01*
X156790314Y-121151136D01*
X156703768Y-120958837D01*
X156673069Y-120890627D01*
X156667674Y-120876404D01*
X156582679Y-120603647D01*
X156579038Y-120588873D01*
X156565707Y-120516123D01*
X156527544Y-120307874D01*
X156525710Y-120292770D01*
X156520561Y-120207655D01*
X157139858Y-120207655D01*
X157175104Y-120466638D01*
X157176412Y-120471124D01*
X157176412Y-120471126D01*
X157196098Y-120538664D01*
X157248243Y-120717567D01*
X157357668Y-120954928D01*
X157360231Y-120958837D01*
X157498410Y-121169596D01*
X157498414Y-121169601D01*
X157500976Y-121173509D01*
X157675018Y-121368506D01*
X157875970Y-121535637D01*
X157879973Y-121538066D01*
X158095422Y-121668804D01*
X158095426Y-121668806D01*
X158099419Y-121671229D01*
X158340455Y-121772303D01*
X158593783Y-121836641D01*
X158598434Y-121837109D01*
X158598438Y-121837110D01*
X158791308Y-121856531D01*
X158810867Y-121858500D01*
X158966354Y-121858500D01*
X158968679Y-121858327D01*
X158968685Y-121858327D01*
X159156000Y-121844407D01*
X159156004Y-121844406D01*
X159160652Y-121844061D01*
X159165200Y-121843032D01*
X159165206Y-121843031D01*
X159351601Y-121800853D01*
X159415577Y-121786377D01*
X159451769Y-121772303D01*
X159654824Y-121693340D01*
X159654827Y-121693339D01*
X159659177Y-121691647D01*
X159886098Y-121561951D01*
X160091357Y-121400138D01*
X160270443Y-121209763D01*
X160419424Y-120995009D01*
X160474328Y-120883675D01*
X160532960Y-120764781D01*
X160532961Y-120764778D01*
X160535025Y-120760593D01*
X160614707Y-120511665D01*
X160656721Y-120253693D01*
X160659960Y-120006270D01*
X160660081Y-119997022D01*
X160660081Y-119997019D01*
X160660142Y-119992345D01*
X160624896Y-119733362D01*
X160610473Y-119683877D01*
X160553068Y-119486932D01*
X160551757Y-119482433D01*
X160442332Y-119245072D01*
X160409519Y-119195024D01*
X160301590Y-119030404D01*
X160301586Y-119030399D01*
X160299024Y-119026491D01*
X160124982Y-118831494D01*
X159924030Y-118664363D01*
X159876844Y-118635730D01*
X159704578Y-118531196D01*
X159704574Y-118531194D01*
X159700581Y-118528771D01*
X159459545Y-118427697D01*
X159206217Y-118363359D01*
X159201566Y-118362891D01*
X159201562Y-118362890D01*
X158992271Y-118341816D01*
X158989133Y-118341500D01*
X158833646Y-118341500D01*
X158831321Y-118341673D01*
X158831315Y-118341673D01*
X158644000Y-118355593D01*
X158643996Y-118355594D01*
X158639348Y-118355939D01*
X158634800Y-118356968D01*
X158634794Y-118356969D01*
X158448399Y-118399147D01*
X158384423Y-118413623D01*
X158380071Y-118415315D01*
X158380069Y-118415316D01*
X158145176Y-118506660D01*
X158145173Y-118506661D01*
X158140823Y-118508353D01*
X157913902Y-118638049D01*
X157708643Y-118799862D01*
X157529557Y-118990237D01*
X157380576Y-119204991D01*
X157264975Y-119439407D01*
X157185293Y-119688335D01*
X157143279Y-119946307D01*
X157139858Y-120207655D01*
X156520561Y-120207655D01*
X156510545Y-120042071D01*
X156511802Y-120015361D01*
X156511805Y-120015141D01*
X156513186Y-120006270D01*
X156511547Y-119993730D01*
X156509064Y-119974749D01*
X156508000Y-119958411D01*
X156508000Y-110179183D01*
X172664389Y-110179183D01*
X172665912Y-110187607D01*
X172678292Y-110191000D01*
X173727885Y-110191000D01*
X173743124Y-110186525D01*
X173744329Y-110185135D01*
X173746000Y-110177452D01*
X173746000Y-109128102D01*
X173742082Y-109114758D01*
X173727806Y-109112771D01*
X173689324Y-109118660D01*
X173679288Y-109121051D01*
X173476868Y-109187212D01*
X173467359Y-109191209D01*
X173278463Y-109289542D01*
X173269738Y-109295036D01*
X173099433Y-109422905D01*
X173091726Y-109429748D01*
X172944590Y-109583717D01*
X172938104Y-109591727D01*
X172818098Y-109767649D01*
X172813000Y-109776623D01*
X172723338Y-109969783D01*
X172719775Y-109979470D01*
X172664389Y-110179183D01*
X156508000Y-110179183D01*
X156508000Y-106049328D01*
X156509500Y-106029943D01*
X156511805Y-106015142D01*
X156511805Y-106015139D01*
X156512970Y-106007655D01*
X157139858Y-106007655D01*
X157175104Y-106266638D01*
X157176412Y-106271124D01*
X157176412Y-106271126D01*
X157196098Y-106338664D01*
X157248243Y-106517567D01*
X157357668Y-106754928D01*
X157360231Y-106758837D01*
X157498410Y-106969596D01*
X157498414Y-106969601D01*
X157500976Y-106973509D01*
X157675018Y-107168506D01*
X157875970Y-107335637D01*
X157879973Y-107338066D01*
X158095422Y-107468804D01*
X158095426Y-107468806D01*
X158099419Y-107471229D01*
X158340455Y-107572303D01*
X158593783Y-107636641D01*
X158598434Y-107637109D01*
X158598438Y-107637110D01*
X158791308Y-107656531D01*
X158810867Y-107658500D01*
X158966354Y-107658500D01*
X158968679Y-107658327D01*
X158968685Y-107658327D01*
X159156000Y-107644407D01*
X159156004Y-107644406D01*
X159160652Y-107644061D01*
X159165200Y-107643032D01*
X159165206Y-107643031D01*
X159351601Y-107600853D01*
X159415577Y-107586377D01*
X159451769Y-107572303D01*
X159654824Y-107493340D01*
X159654827Y-107493339D01*
X159659177Y-107491647D01*
X159886098Y-107361951D01*
X160091357Y-107200138D01*
X160270443Y-107009763D01*
X160419424Y-106795009D01*
X160535025Y-106560593D01*
X160614707Y-106311665D01*
X160656721Y-106053693D01*
X160660142Y-105792345D01*
X160624896Y-105533362D01*
X160610473Y-105483877D01*
X160587081Y-105403626D01*
X160551757Y-105282433D01*
X160442332Y-105045072D01*
X160399966Y-104980453D01*
X160301590Y-104830404D01*
X160301586Y-104830399D01*
X160299024Y-104826491D01*
X160124982Y-104631494D01*
X159924030Y-104464363D01*
X159722555Y-104342105D01*
X159704578Y-104331196D01*
X159704574Y-104331194D01*
X159700581Y-104328771D01*
X159459545Y-104227697D01*
X159206217Y-104163359D01*
X159201566Y-104162891D01*
X159201562Y-104162890D01*
X158992271Y-104141816D01*
X158989133Y-104141500D01*
X158833646Y-104141500D01*
X158831321Y-104141673D01*
X158831315Y-104141673D01*
X158644000Y-104155593D01*
X158643996Y-104155594D01*
X158639348Y-104155939D01*
X158634800Y-104156968D01*
X158634794Y-104156969D01*
X158448399Y-104199147D01*
X158384423Y-104213623D01*
X158380071Y-104215315D01*
X158380069Y-104215316D01*
X158145176Y-104306660D01*
X158145173Y-104306661D01*
X158140823Y-104308353D01*
X157913902Y-104438049D01*
X157708643Y-104599862D01*
X157529557Y-104790237D01*
X157380576Y-105004991D01*
X157378510Y-105009181D01*
X157378508Y-105009184D01*
X157322087Y-105123596D01*
X157264975Y-105239407D01*
X157185293Y-105488335D01*
X157143279Y-105746307D01*
X157143218Y-105750980D01*
X157139924Y-106002635D01*
X157139858Y-106007655D01*
X156512970Y-106007655D01*
X156513186Y-106006270D01*
X156510941Y-105989101D01*
X156510108Y-105965161D01*
X156525710Y-105707230D01*
X156527544Y-105692126D01*
X156540514Y-105621352D01*
X156579040Y-105411121D01*
X156582679Y-105396353D01*
X156667674Y-105123596D01*
X156673070Y-105109370D01*
X156702008Y-105045072D01*
X156790316Y-104848860D01*
X156797385Y-104835391D01*
X156945182Y-104590905D01*
X156953825Y-104578383D01*
X157130016Y-104353493D01*
X157140106Y-104342105D01*
X157342105Y-104140106D01*
X157353493Y-104130016D01*
X157578383Y-103953825D01*
X157590905Y-103945182D01*
X157835391Y-103797385D01*
X157848860Y-103790316D01*
X158109373Y-103673069D01*
X158123592Y-103667675D01*
X158396359Y-103582678D01*
X158411121Y-103579040D01*
X158621352Y-103540514D01*
X158692126Y-103527544D01*
X158707230Y-103525710D01*
X158957929Y-103510545D01*
X158984639Y-103511802D01*
X158984859Y-103511805D01*
X158993730Y-103513186D01*
X159002632Y-103512022D01*
X159002635Y-103512022D01*
X159025251Y-103509064D01*
X159041589Y-103508000D01*
X172950672Y-103508000D01*
X172970057Y-103509500D01*
G37*
%TD.AperFunction*%
%TD*%
M02*
