%TF.GenerationSoftware,KiCad,Pcbnew,(6.0.0-0)*%
%TF.CreationDate,2022-11-25T09:54:54+01:00*%
%TF.ProjectId,bq24072_pmic_board,62713234-3037-4325-9f70-6d69635f626f,rev?*%
%TF.SameCoordinates,Original*%
%TF.FileFunction,Copper,L2,Bot*%
%TF.FilePolarity,Positive*%
%FSLAX46Y46*%
G04 Gerber Fmt 4.6, Leading zero omitted, Abs format (unit mm)*
G04 Created by KiCad (PCBNEW (6.0.0-0)) date 2022-11-25 09:54:54*
%MOMM*%
%LPD*%
G01*
G04 APERTURE LIST*
G04 Aperture macros list*
%AMRoundRect*
0 Rectangle with rounded corners*
0 $1 Rounding radius*
0 $2 $3 $4 $5 $6 $7 $8 $9 X,Y pos of 4 corners*
0 Add a 4 corners polygon primitive as box body*
4,1,4,$2,$3,$4,$5,$6,$7,$8,$9,$2,$3,0*
0 Add four circle primitives for the rounded corners*
1,1,$1+$1,$2,$3*
1,1,$1+$1,$4,$5*
1,1,$1+$1,$6,$7*
1,1,$1+$1,$8,$9*
0 Add four rect primitives between the rounded corners*
20,1,$1+$1,$2,$3,$4,$5,0*
20,1,$1+$1,$4,$5,$6,$7,0*
20,1,$1+$1,$6,$7,$8,$9,0*
20,1,$1+$1,$8,$9,$2,$3,0*%
G04 Aperture macros list end*
%TA.AperFunction,ComponentPad*%
%ADD10R,1.700000X1.700000*%
%TD*%
%TA.AperFunction,ComponentPad*%
%ADD11O,1.700000X1.700000*%
%TD*%
%TA.AperFunction,ComponentPad*%
%ADD12RoundRect,0.250000X-0.350000X-0.625000X0.350000X-0.625000X0.350000X0.625000X-0.350000X0.625000X0*%
%TD*%
%TA.AperFunction,ComponentPad*%
%ADD13O,1.200000X1.750000*%
%TD*%
%TA.AperFunction,ComponentPad*%
%ADD14O,1.250000X1.050000*%
%TD*%
%TA.AperFunction,ComponentPad*%
%ADD15O,1.900000X1.000000*%
%TD*%
%TA.AperFunction,ViaPad*%
%ADD16C,0.800000*%
%TD*%
%TA.AperFunction,Conductor*%
%ADD17C,0.250000*%
%TD*%
%TA.AperFunction,Conductor*%
%ADD18C,0.200000*%
%TD*%
G04 APERTURE END LIST*
D10*
X163025000Y-84950000D03*
D11*
X163025000Y-87490000D03*
X163025000Y-90030000D03*
X163025000Y-92570000D03*
X163025000Y-95110000D03*
D12*
X144000000Y-93550000D03*
D13*
X146000000Y-93550000D03*
D14*
X129420000Y-92225000D03*
X129420000Y-87775000D03*
D15*
X126420000Y-85825000D03*
X126420000Y-94175000D03*
D16*
X132906851Y-86503906D03*
X134000000Y-95400000D03*
X131000000Y-82000000D03*
X136200000Y-89000000D03*
X128100962Y-88642440D03*
X135600000Y-84000000D03*
X136200000Y-94800000D03*
X152800000Y-87800000D03*
X128400000Y-95000000D03*
X135157960Y-91625958D03*
X133000000Y-94800000D03*
X128400000Y-80800000D03*
X141000000Y-91000000D03*
X136200000Y-87000000D03*
X147200000Y-91400000D03*
X136008406Y-91100842D03*
X137600000Y-88200000D03*
X140575500Y-90000000D03*
X150400000Y-85200000D03*
X130626491Y-89584265D03*
X149600000Y-86000000D03*
X130600000Y-90600000D03*
D17*
X136008406Y-91100842D02*
X137600000Y-89509248D01*
X138775500Y-88200000D02*
X140575500Y-90000000D01*
X137600000Y-89509248D02*
X137600000Y-88200000D01*
X137600000Y-88200000D02*
X138775500Y-88200000D01*
X126420000Y-85825000D02*
X127470000Y-85825000D01*
X126420000Y-94175000D02*
X127470000Y-94175000D01*
X127470000Y-85825000D02*
X129420000Y-87775000D01*
X127470000Y-94175000D02*
X129420000Y-92225000D01*
D18*
X150400000Y-85200000D02*
X135200000Y-85200000D01*
X130815735Y-89584265D02*
X130626491Y-89584265D01*
X135200000Y-85200000D02*
X130815735Y-89584265D01*
X135200000Y-86000000D02*
X130600000Y-90600000D01*
X135200000Y-86000000D02*
X149600000Y-86000000D01*
%TA.AperFunction,Conductor*%
G36*
X162003293Y-80000673D02*
G01*
X162058898Y-80003587D01*
X162133549Y-80007499D01*
X162313790Y-80017622D01*
X162326421Y-80018973D01*
X162475061Y-80042515D01*
X162476150Y-80042694D01*
X162564176Y-80057650D01*
X162635217Y-80069721D01*
X162646721Y-80072234D01*
X162795562Y-80112115D01*
X162797833Y-80112747D01*
X162949080Y-80156321D01*
X162959350Y-80159764D01*
X163104647Y-80215539D01*
X163107696Y-80216755D01*
X163251685Y-80276397D01*
X163260651Y-80280530D01*
X163400049Y-80351557D01*
X163403761Y-80353528D01*
X163539483Y-80428539D01*
X163547159Y-80433145D01*
X163678692Y-80518564D01*
X163682979Y-80521475D01*
X163809119Y-80610976D01*
X163815475Y-80615797D01*
X163937519Y-80714626D01*
X163942185Y-80718595D01*
X164057388Y-80821547D01*
X164062523Y-80826403D01*
X164173598Y-80937478D01*
X164178454Y-80942613D01*
X164281405Y-81057815D01*
X164285368Y-81062473D01*
X164384203Y-81184525D01*
X164389024Y-81190881D01*
X164454585Y-81283281D01*
X164478525Y-81317021D01*
X164481436Y-81321308D01*
X164566855Y-81452841D01*
X164571460Y-81460515D01*
X164640582Y-81585581D01*
X164646472Y-81596239D01*
X164648443Y-81599951D01*
X164719470Y-81739349D01*
X164723605Y-81748320D01*
X164783245Y-81892304D01*
X164784461Y-81895353D01*
X164824772Y-82000364D01*
X164840235Y-82040647D01*
X164843679Y-82050920D01*
X164887253Y-82202167D01*
X164887885Y-82204438D01*
X164927766Y-82353279D01*
X164930279Y-82364783D01*
X164939909Y-82421458D01*
X164957306Y-82523850D01*
X164957485Y-82524939D01*
X164981026Y-82673572D01*
X164982379Y-82686218D01*
X164992506Y-82866558D01*
X164992531Y-82867028D01*
X164999327Y-82996707D01*
X164999500Y-83003301D01*
X164999500Y-96996699D01*
X164999327Y-97003293D01*
X164992531Y-97132972D01*
X164992506Y-97133442D01*
X164982379Y-97313782D01*
X164981027Y-97326421D01*
X164957485Y-97475061D01*
X164957306Y-97476150D01*
X164942350Y-97564176D01*
X164930279Y-97635217D01*
X164927766Y-97646721D01*
X164887885Y-97795562D01*
X164887253Y-97797833D01*
X164843679Y-97949080D01*
X164840236Y-97959350D01*
X164812992Y-98030324D01*
X164784467Y-98104633D01*
X164783245Y-98107696D01*
X164723605Y-98251680D01*
X164719470Y-98260651D01*
X164648443Y-98400049D01*
X164646477Y-98403752D01*
X164593203Y-98500144D01*
X164571461Y-98539483D01*
X164566855Y-98547159D01*
X164481436Y-98678692D01*
X164478525Y-98682979D01*
X164389024Y-98809119D01*
X164384203Y-98815475D01*
X164285374Y-98937519D01*
X164281405Y-98942185D01*
X164178453Y-99057388D01*
X164173597Y-99062523D01*
X164062523Y-99173597D01*
X164057388Y-99178453D01*
X163942185Y-99281405D01*
X163937527Y-99285368D01*
X163815475Y-99384203D01*
X163809119Y-99389024D01*
X163716719Y-99454585D01*
X163682979Y-99478525D01*
X163678692Y-99481436D01*
X163547159Y-99566855D01*
X163539483Y-99571461D01*
X163403761Y-99646472D01*
X163400049Y-99648443D01*
X163260651Y-99719470D01*
X163251685Y-99723603D01*
X163170775Y-99757117D01*
X163107696Y-99783245D01*
X163104647Y-99784461D01*
X162959353Y-99840235D01*
X162949080Y-99843679D01*
X162797833Y-99887253D01*
X162795562Y-99887885D01*
X162646721Y-99927766D01*
X162635217Y-99930279D01*
X162564176Y-99942350D01*
X162476150Y-99957306D01*
X162475061Y-99957485D01*
X162326421Y-99981027D01*
X162313790Y-99982378D01*
X162133549Y-99992501D01*
X162058898Y-99996413D01*
X162003293Y-99999327D01*
X161996699Y-99999500D01*
X128003301Y-99999500D01*
X127996707Y-99999327D01*
X127941102Y-99996413D01*
X127866451Y-99992501D01*
X127686210Y-99982378D01*
X127673579Y-99981027D01*
X127524939Y-99957485D01*
X127523850Y-99957306D01*
X127435824Y-99942350D01*
X127364783Y-99930279D01*
X127353279Y-99927766D01*
X127204438Y-99887885D01*
X127202167Y-99887253D01*
X127050920Y-99843679D01*
X127040647Y-99840235D01*
X126895353Y-99784461D01*
X126892304Y-99783245D01*
X126829225Y-99757117D01*
X126748315Y-99723603D01*
X126739349Y-99719470D01*
X126599951Y-99648443D01*
X126596239Y-99646472D01*
X126460517Y-99571461D01*
X126452841Y-99566855D01*
X126321308Y-99481436D01*
X126317021Y-99478525D01*
X126283281Y-99454585D01*
X126190881Y-99389024D01*
X126184525Y-99384203D01*
X126062473Y-99285368D01*
X126057815Y-99281405D01*
X125942613Y-99178454D01*
X125937478Y-99173598D01*
X125826402Y-99062522D01*
X125821546Y-99057387D01*
X125718595Y-98942185D01*
X125714626Y-98937519D01*
X125615797Y-98815475D01*
X125610976Y-98809119D01*
X125521475Y-98682979D01*
X125518564Y-98678692D01*
X125433145Y-98547159D01*
X125428539Y-98539483D01*
X125406797Y-98500144D01*
X125353523Y-98403752D01*
X125351557Y-98400049D01*
X125280530Y-98260651D01*
X125276395Y-98251680D01*
X125216755Y-98107696D01*
X125215533Y-98104633D01*
X125187009Y-98030324D01*
X125159764Y-97959350D01*
X125156321Y-97949080D01*
X125112747Y-97797833D01*
X125112115Y-97795562D01*
X125072234Y-97646721D01*
X125069721Y-97635217D01*
X125057650Y-97564176D01*
X125042694Y-97476150D01*
X125042515Y-97475061D01*
X125018973Y-97326421D01*
X125017621Y-97313782D01*
X125007494Y-97133442D01*
X125007469Y-97132972D01*
X125006005Y-97105028D01*
X155498025Y-97105028D01*
X155535347Y-97348930D01*
X155612003Y-97583460D01*
X155725935Y-97802321D01*
X155729038Y-97806454D01*
X155729040Y-97806457D01*
X155870978Y-97995501D01*
X155874083Y-97999636D01*
X156052468Y-98170104D01*
X156056740Y-98173018D01*
X156056741Y-98173019D01*
X156172054Y-98251680D01*
X156256300Y-98309149D01*
X156368202Y-98361092D01*
X156475409Y-98410856D01*
X156475413Y-98410857D01*
X156480104Y-98413035D01*
X156717871Y-98478974D01*
X156723008Y-98479523D01*
X156915957Y-98500144D01*
X156915965Y-98500144D01*
X156919292Y-98500500D01*
X157062554Y-98500500D01*
X157065127Y-98500288D01*
X157065138Y-98500288D01*
X157240760Y-98485849D01*
X157240766Y-98485848D01*
X157245911Y-98485425D01*
X157485217Y-98425316D01*
X157711493Y-98326928D01*
X157918661Y-98192905D01*
X157940516Y-98173019D01*
X158015671Y-98104633D01*
X158101158Y-98026846D01*
X158104357Y-98022795D01*
X158104361Y-98022791D01*
X158250881Y-97837264D01*
X158250884Y-97837259D01*
X158254082Y-97833210D01*
X158256577Y-97828691D01*
X158370830Y-97621722D01*
X158370832Y-97621718D01*
X158373327Y-97617198D01*
X158385275Y-97583460D01*
X158453965Y-97389485D01*
X158453966Y-97389481D01*
X158455691Y-97384610D01*
X158466055Y-97326428D01*
X158498055Y-97146783D01*
X158498056Y-97146777D01*
X158498961Y-97141694D01*
X158501975Y-96894972D01*
X158464653Y-96651070D01*
X158387997Y-96416540D01*
X158274065Y-96197679D01*
X158190878Y-96086883D01*
X158129022Y-96004499D01*
X158129020Y-96004496D01*
X158125917Y-96000364D01*
X157947532Y-95829896D01*
X157919212Y-95810577D01*
X157747979Y-95693770D01*
X157747980Y-95693770D01*
X157743700Y-95690851D01*
X157583022Y-95616267D01*
X157524591Y-95589144D01*
X157524587Y-95589143D01*
X157519896Y-95586965D01*
X157282129Y-95521026D01*
X157276992Y-95520477D01*
X157084043Y-95499856D01*
X157084035Y-95499856D01*
X157080708Y-95499500D01*
X156937446Y-95499500D01*
X156934873Y-95499712D01*
X156934862Y-95499712D01*
X156759240Y-95514151D01*
X156759234Y-95514152D01*
X156754089Y-95514575D01*
X156514783Y-95574684D01*
X156288507Y-95673072D01*
X156081339Y-95807095D01*
X156077514Y-95810575D01*
X156077512Y-95810577D01*
X156056281Y-95829896D01*
X155898842Y-95973154D01*
X155895643Y-95977205D01*
X155895639Y-95977209D01*
X155749119Y-96162736D01*
X155749116Y-96162741D01*
X155745918Y-96166790D01*
X155743425Y-96171306D01*
X155743423Y-96171309D01*
X155630189Y-96376433D01*
X155626673Y-96382802D01*
X155624949Y-96387671D01*
X155624947Y-96387675D01*
X155604862Y-96444393D01*
X155544309Y-96615390D01*
X155501039Y-96858306D01*
X155498025Y-97105028D01*
X125006005Y-97105028D01*
X125000643Y-97002718D01*
X125000475Y-96997287D01*
X124985528Y-95377966D01*
X161693257Y-95377966D01*
X161723565Y-95512446D01*
X161726645Y-95522275D01*
X161806770Y-95719603D01*
X161811413Y-95728794D01*
X161922694Y-95910388D01*
X161928777Y-95918699D01*
X162068213Y-96079667D01*
X162075580Y-96086883D01*
X162239434Y-96222916D01*
X162247881Y-96228831D01*
X162431756Y-96336279D01*
X162441042Y-96340729D01*
X162640001Y-96416703D01*
X162649899Y-96419579D01*
X162753250Y-96440606D01*
X162767299Y-96439410D01*
X162771000Y-96429065D01*
X162771000Y-96428517D01*
X163279000Y-96428517D01*
X163283064Y-96442359D01*
X163296478Y-96444393D01*
X163303184Y-96443534D01*
X163313262Y-96441392D01*
X163517255Y-96380191D01*
X163526842Y-96376433D01*
X163718095Y-96282739D01*
X163726945Y-96277464D01*
X163900328Y-96153792D01*
X163908200Y-96147139D01*
X164059052Y-95996812D01*
X164065730Y-95988965D01*
X164190003Y-95816020D01*
X164195313Y-95807183D01*
X164289670Y-95616267D01*
X164293469Y-95606672D01*
X164355377Y-95402910D01*
X164357555Y-95392837D01*
X164358986Y-95381962D01*
X164356775Y-95367778D01*
X164343617Y-95364000D01*
X163297115Y-95364000D01*
X163281876Y-95368475D01*
X163280671Y-95369865D01*
X163279000Y-95377548D01*
X163279000Y-96428517D01*
X162771000Y-96428517D01*
X162771000Y-95382115D01*
X162766525Y-95366876D01*
X162765135Y-95365671D01*
X162757452Y-95364000D01*
X161708225Y-95364000D01*
X161694694Y-95367973D01*
X161693257Y-95377966D01*
X124985528Y-95377966D01*
X124975172Y-94256105D01*
X125269031Y-94256105D01*
X125270805Y-94263492D01*
X125270805Y-94263496D01*
X125287169Y-94331655D01*
X125308612Y-94420968D01*
X125312093Y-94427712D01*
X125312094Y-94427715D01*
X125382892Y-94564883D01*
X125386375Y-94571631D01*
X125391367Y-94577353D01*
X125391368Y-94577355D01*
X125428547Y-94619974D01*
X125497831Y-94699396D01*
X125504045Y-94703763D01*
X125630330Y-94792518D01*
X125630332Y-94792519D01*
X125636547Y-94796887D01*
X125794513Y-94858476D01*
X125802046Y-94859468D01*
X125802047Y-94859468D01*
X125919739Y-94874962D01*
X125923826Y-94875500D01*
X126912516Y-94875500D01*
X127038320Y-94860276D01*
X127196923Y-94800345D01*
X127336651Y-94704312D01*
X127366303Y-94671032D01*
X127444388Y-94583392D01*
X127444390Y-94583388D01*
X127449440Y-94577721D01*
X127452993Y-94571010D01*
X127452996Y-94571006D01*
X127460667Y-94556518D01*
X127510218Y-94505674D01*
X127550144Y-94491389D01*
X127572190Y-94487502D01*
X127583045Y-94485588D01*
X127592589Y-94480078D01*
X127595866Y-94478885D01*
X127599034Y-94477408D01*
X127609684Y-94474554D01*
X127640544Y-94452945D01*
X127649815Y-94447039D01*
X127672906Y-94433707D01*
X127682455Y-94428194D01*
X127706685Y-94399317D01*
X127714111Y-94391215D01*
X127876492Y-94228834D01*
X143199500Y-94228834D01*
X143199779Y-94231782D01*
X143201380Y-94248717D01*
X143202481Y-94260369D01*
X143247366Y-94388184D01*
X143252958Y-94395754D01*
X143252959Y-94395757D01*
X143280990Y-94433707D01*
X143327850Y-94497150D01*
X143335421Y-94502742D01*
X143429243Y-94572041D01*
X143429246Y-94572042D01*
X143436816Y-94577634D01*
X143564631Y-94622519D01*
X143572277Y-94623242D01*
X143572278Y-94623242D01*
X143578248Y-94623806D01*
X143596166Y-94625500D01*
X144403834Y-94625500D01*
X144421752Y-94623806D01*
X144427722Y-94623242D01*
X144427723Y-94623242D01*
X144435369Y-94622519D01*
X144563184Y-94577634D01*
X144570754Y-94572042D01*
X144570757Y-94572041D01*
X144664579Y-94502742D01*
X144672150Y-94497150D01*
X144719010Y-94433707D01*
X144747041Y-94395757D01*
X144747042Y-94395754D01*
X144752634Y-94388184D01*
X144773709Y-94328169D01*
X144815152Y-94270525D01*
X144881181Y-94244436D01*
X144950834Y-94258187D01*
X145004608Y-94312226D01*
X145060619Y-94420977D01*
X145067069Y-94431024D01*
X145190262Y-94587857D01*
X145198499Y-94596506D01*
X145349123Y-94727212D01*
X145358847Y-94734147D01*
X145531467Y-94834010D01*
X145542331Y-94838984D01*
X145730727Y-94904407D01*
X145731716Y-94904648D01*
X145742008Y-94903180D01*
X145746000Y-94889615D01*
X145746000Y-94885402D01*
X146254000Y-94885402D01*
X146257973Y-94898933D01*
X146267399Y-94900288D01*
X146356537Y-94878806D01*
X146367832Y-94874917D01*
X146435428Y-94844183D01*
X161689389Y-94844183D01*
X161690912Y-94852607D01*
X161703292Y-94856000D01*
X164343344Y-94856000D01*
X164356875Y-94852027D01*
X164358180Y-94842947D01*
X164316214Y-94675875D01*
X164312894Y-94666124D01*
X164227972Y-94470814D01*
X164223105Y-94461739D01*
X164107426Y-94282926D01*
X164101136Y-94274757D01*
X163957806Y-94117240D01*
X163950273Y-94110215D01*
X163783139Y-93978222D01*
X163774552Y-93972517D01*
X163588117Y-93869599D01*
X163578705Y-93865369D01*
X163387031Y-93797493D01*
X163329495Y-93755899D01*
X163303579Y-93689801D01*
X163317513Y-93620185D01*
X163366872Y-93569154D01*
X163395206Y-93557362D01*
X163400790Y-93555803D01*
X163400799Y-93555800D01*
X163406725Y-93554145D01*
X163412214Y-93551372D01*
X163412220Y-93551370D01*
X163563330Y-93475038D01*
X163590610Y-93461258D01*
X163752951Y-93334424D01*
X163786118Y-93296000D01*
X163883540Y-93183134D01*
X163883540Y-93183133D01*
X163887564Y-93178472D01*
X163908387Y-93141818D01*
X163986276Y-93004707D01*
X163989323Y-92999344D01*
X164054351Y-92803863D01*
X164080171Y-92599474D01*
X164080583Y-92570000D01*
X164060480Y-92364970D01*
X164000935Y-92167749D01*
X163904218Y-91985849D01*
X163809595Y-91869830D01*
X163777906Y-91830975D01*
X163777903Y-91830972D01*
X163774011Y-91826200D01*
X163756786Y-91811950D01*
X163620025Y-91698811D01*
X163620021Y-91698809D01*
X163615275Y-91694882D01*
X163434055Y-91596897D01*
X163237254Y-91535977D01*
X163231129Y-91535333D01*
X163231128Y-91535333D01*
X163038498Y-91515087D01*
X163038496Y-91515087D01*
X163032369Y-91514443D01*
X162945529Y-91522346D01*
X162833342Y-91532555D01*
X162833339Y-91532556D01*
X162827203Y-91533114D01*
X162629572Y-91591280D01*
X162447002Y-91686726D01*
X162442201Y-91690586D01*
X162442198Y-91690588D01*
X162328338Y-91782134D01*
X162286447Y-91815815D01*
X162154024Y-91973630D01*
X162151056Y-91979028D01*
X162151053Y-91979033D01*
X162091375Y-92087588D01*
X162054776Y-92154162D01*
X161992484Y-92350532D01*
X161991798Y-92356649D01*
X161991797Y-92356653D01*
X161970679Y-92544928D01*
X161969520Y-92555262D01*
X161970036Y-92561406D01*
X161984751Y-92736635D01*
X161986759Y-92760553D01*
X161988458Y-92766478D01*
X162041262Y-92950627D01*
X162043544Y-92958586D01*
X162046359Y-92964063D01*
X162046360Y-92964066D01*
X162067247Y-93004707D01*
X162137712Y-93141818D01*
X162265677Y-93303270D01*
X162422564Y-93436791D01*
X162602398Y-93537297D01*
X162667437Y-93558429D01*
X162726042Y-93598502D01*
X162753680Y-93663898D01*
X162741574Y-93733855D01*
X162693568Y-93786162D01*
X162667646Y-93798027D01*
X162501868Y-93852212D01*
X162492359Y-93856209D01*
X162303463Y-93954542D01*
X162294738Y-93960036D01*
X162124433Y-94087905D01*
X162116726Y-94094748D01*
X161969590Y-94248717D01*
X161963104Y-94256727D01*
X161843098Y-94432649D01*
X161838000Y-94441623D01*
X161748338Y-94634783D01*
X161744775Y-94644470D01*
X161689389Y-94844183D01*
X146435428Y-94844183D01*
X146549382Y-94792371D01*
X146559724Y-94786424D01*
X146722397Y-94671032D01*
X146731425Y-94663239D01*
X146869342Y-94519169D01*
X146876738Y-94509804D01*
X146984921Y-94342259D01*
X146990417Y-94331655D01*
X147064961Y-94146688D01*
X147068355Y-94135230D01*
X147106857Y-93938072D01*
X147107934Y-93929209D01*
X147108000Y-93926500D01*
X147108000Y-93822115D01*
X147103525Y-93806876D01*
X147102135Y-93805671D01*
X147094452Y-93804000D01*
X146272115Y-93804000D01*
X146256876Y-93808475D01*
X146255671Y-93809865D01*
X146254000Y-93817548D01*
X146254000Y-94885402D01*
X145746000Y-94885402D01*
X145746000Y-93277885D01*
X146254000Y-93277885D01*
X146258475Y-93293124D01*
X146259865Y-93294329D01*
X146267548Y-93296000D01*
X147089885Y-93296000D01*
X147105124Y-93291525D01*
X147106329Y-93290135D01*
X147108000Y-93282452D01*
X147108000Y-93225168D01*
X147107715Y-93219192D01*
X147093529Y-93070506D01*
X147091270Y-93058772D01*
X147035128Y-92867401D01*
X147030698Y-92856325D01*
X146939381Y-92679022D01*
X146932931Y-92668976D01*
X146809738Y-92512143D01*
X146801501Y-92503494D01*
X146650877Y-92372788D01*
X146641153Y-92365853D01*
X146468533Y-92265990D01*
X146457669Y-92261016D01*
X146269273Y-92195593D01*
X146268284Y-92195352D01*
X146257992Y-92196820D01*
X146254000Y-92210385D01*
X146254000Y-93277885D01*
X145746000Y-93277885D01*
X145746000Y-92214598D01*
X145742027Y-92201067D01*
X145732601Y-92199712D01*
X145643463Y-92221194D01*
X145632168Y-92225083D01*
X145450618Y-92307629D01*
X145440276Y-92313576D01*
X145277603Y-92428968D01*
X145268575Y-92436761D01*
X145130658Y-92580831D01*
X145123262Y-92590196D01*
X145015079Y-92757741D01*
X145009585Y-92768341D01*
X145007857Y-92772628D01*
X144963840Y-92828333D01*
X144896694Y-92851397D01*
X144827738Y-92834498D01*
X144778864Y-92783001D01*
X144772109Y-92767274D01*
X144771830Y-92766478D01*
X144752634Y-92711816D01*
X144747042Y-92704246D01*
X144747041Y-92704243D01*
X144677742Y-92610421D01*
X144672150Y-92602850D01*
X144615708Y-92561161D01*
X144570757Y-92527959D01*
X144570754Y-92527958D01*
X144563184Y-92522366D01*
X144435369Y-92477481D01*
X144427723Y-92476758D01*
X144427722Y-92476758D01*
X144421752Y-92476194D01*
X144403834Y-92474500D01*
X143596166Y-92474500D01*
X143578248Y-92476194D01*
X143572278Y-92476758D01*
X143572277Y-92476758D01*
X143564631Y-92477481D01*
X143436816Y-92522366D01*
X143429246Y-92527958D01*
X143429243Y-92527959D01*
X143384292Y-92561161D01*
X143327850Y-92602850D01*
X143322258Y-92610421D01*
X143252959Y-92704243D01*
X143252958Y-92704246D01*
X143247366Y-92711816D01*
X143202481Y-92839631D01*
X143199500Y-92871166D01*
X143199500Y-94228834D01*
X127876492Y-94228834D01*
X129120674Y-92984653D01*
X129182986Y-92950627D01*
X129227229Y-92949229D01*
X129229717Y-92949838D01*
X129237149Y-92950299D01*
X129238449Y-92950380D01*
X129238458Y-92950380D01*
X129240388Y-92950500D01*
X129562363Y-92950500D01*
X129651035Y-92940162D01*
X129680765Y-92936696D01*
X129680766Y-92936696D01*
X129688037Y-92935848D01*
X129694914Y-92933352D01*
X129694917Y-92933351D01*
X129840182Y-92880622D01*
X129847061Y-92878125D01*
X129988540Y-92785367D01*
X130104885Y-92662550D01*
X130189856Y-92516262D01*
X130238895Y-92354350D01*
X130239497Y-92344659D01*
X130244685Y-92261016D01*
X130249370Y-92185499D01*
X130245386Y-92162310D01*
X130221960Y-92025983D01*
X130220720Y-92018767D01*
X130154482Y-91863098D01*
X130116841Y-91811950D01*
X130058547Y-91732736D01*
X130058545Y-91732733D01*
X130054209Y-91726842D01*
X130003627Y-91683869D01*
X129930854Y-91622043D01*
X129930851Y-91622041D01*
X129925280Y-91617308D01*
X129774611Y-91540373D01*
X129767502Y-91538633D01*
X129767498Y-91538632D01*
X129652108Y-91510396D01*
X129610283Y-91500162D01*
X129604686Y-91499815D01*
X129604681Y-91499814D01*
X129601551Y-91499620D01*
X129601542Y-91499620D01*
X129599612Y-91499500D01*
X129277637Y-91499500D01*
X129188965Y-91509838D01*
X129159235Y-91513304D01*
X129159234Y-91513304D01*
X129151963Y-91514152D01*
X129145086Y-91516648D01*
X129145083Y-91516649D01*
X129079725Y-91540373D01*
X128992939Y-91571875D01*
X128851460Y-91664633D01*
X128735115Y-91787450D01*
X128650144Y-91933738D01*
X128648023Y-91940740D01*
X128648022Y-91940743D01*
X128640288Y-91966280D01*
X128601105Y-92095650D01*
X128590630Y-92264501D01*
X128591870Y-92271717D01*
X128591870Y-92271719D01*
X128608948Y-92371103D01*
X128619280Y-92431233D01*
X128622146Y-92437968D01*
X128622147Y-92437972D01*
X128626020Y-92447075D01*
X128634284Y-92517589D01*
X128599173Y-92585500D01*
X128048333Y-93136341D01*
X127526954Y-93657720D01*
X127464642Y-93691745D01*
X127393827Y-93686681D01*
X127354537Y-93659488D01*
X127352806Y-93661410D01*
X127347164Y-93656330D01*
X127342169Y-93650604D01*
X127211017Y-93558429D01*
X127209670Y-93557482D01*
X127209668Y-93557481D01*
X127203453Y-93553113D01*
X127045487Y-93491524D01*
X127037954Y-93490532D01*
X127037953Y-93490532D01*
X126920261Y-93475038D01*
X126920260Y-93475038D01*
X126916174Y-93474500D01*
X125927484Y-93474500D01*
X125801680Y-93489724D01*
X125643077Y-93549655D01*
X125636819Y-93553956D01*
X125555936Y-93609546D01*
X125503349Y-93645688D01*
X125498297Y-93651358D01*
X125498296Y-93651359D01*
X125395612Y-93766608D01*
X125395610Y-93766612D01*
X125390560Y-93772279D01*
X125387008Y-93778988D01*
X125387007Y-93778989D01*
X125372880Y-93805671D01*
X125311224Y-93922119D01*
X125269919Y-94086559D01*
X125269031Y-94256105D01*
X124975172Y-94256105D01*
X124970505Y-93750546D01*
X124970500Y-93749383D01*
X124970500Y-92926500D01*
X124990502Y-92858379D01*
X125044158Y-92811886D01*
X125096500Y-92800500D01*
X126541413Y-92800500D01*
X126545000Y-92800757D01*
X126545000Y-92804876D01*
X126666110Y-92787463D01*
X126777409Y-92736635D01*
X126784218Y-92730735D01*
X126784221Y-92730733D01*
X126863067Y-92662412D01*
X126863068Y-92662411D01*
X126869879Y-92656509D01*
X126936029Y-92553577D01*
X126945194Y-92522366D01*
X126967962Y-92444823D01*
X126967962Y-92444821D01*
X126970500Y-92436178D01*
X126970500Y-92313822D01*
X126958138Y-92271719D01*
X126938569Y-92205072D01*
X126938568Y-92205069D01*
X126936029Y-92196423D01*
X126869879Y-92093491D01*
X126863067Y-92087588D01*
X126784221Y-92019267D01*
X126784218Y-92019265D01*
X126777409Y-92013365D01*
X126666110Y-91962537D01*
X126545000Y-91945124D01*
X126545000Y-91949243D01*
X126541413Y-91949500D01*
X125096500Y-91949500D01*
X125028379Y-91929498D01*
X124981886Y-91875842D01*
X124970500Y-91823500D01*
X124970500Y-90600000D01*
X129994318Y-90600000D01*
X130014956Y-90756762D01*
X130075464Y-90902841D01*
X130171718Y-91028282D01*
X130297159Y-91124536D01*
X130443238Y-91185044D01*
X130600000Y-91205682D01*
X130608188Y-91204604D01*
X130748574Y-91186122D01*
X130756762Y-91185044D01*
X130902841Y-91124536D01*
X130933720Y-91100842D01*
X135402724Y-91100842D01*
X135423362Y-91257604D01*
X135483870Y-91403683D01*
X135580124Y-91529124D01*
X135586670Y-91534147D01*
X135592515Y-91538632D01*
X135705565Y-91625378D01*
X135851644Y-91685886D01*
X136008406Y-91706524D01*
X136016594Y-91705446D01*
X136156980Y-91686964D01*
X136165168Y-91685886D01*
X136311247Y-91625378D01*
X136424297Y-91538632D01*
X136430142Y-91534147D01*
X136436688Y-91529124D01*
X136532942Y-91403683D01*
X136593450Y-91257604D01*
X136614088Y-91100842D01*
X136605288Y-91033999D01*
X136616227Y-90963852D01*
X136641115Y-90928459D01*
X137816215Y-89753359D01*
X137824319Y-89745932D01*
X137830805Y-89740489D01*
X137853194Y-89721703D01*
X137862959Y-89704789D01*
X137872039Y-89689063D01*
X137877945Y-89679792D01*
X137893230Y-89657963D01*
X137899554Y-89648932D01*
X137902408Y-89638282D01*
X137903885Y-89635114D01*
X137905077Y-89631838D01*
X137910588Y-89622293D01*
X137917130Y-89585190D01*
X137919509Y-89574458D01*
X137921589Y-89566695D01*
X137929264Y-89538055D01*
X137925979Y-89500505D01*
X137925500Y-89489524D01*
X137925500Y-88769286D01*
X137945502Y-88701165D01*
X137974796Y-88669323D01*
X138021736Y-88633305D01*
X138028282Y-88628282D01*
X138069323Y-88574796D01*
X138126661Y-88532929D01*
X138169286Y-88525500D01*
X138588484Y-88525500D01*
X138656605Y-88545502D01*
X138677579Y-88562405D01*
X139942791Y-89827618D01*
X139976817Y-89889930D01*
X139978618Y-89933158D01*
X139969818Y-90000000D01*
X139990456Y-90156762D01*
X140050964Y-90302841D01*
X140147218Y-90428282D01*
X140272659Y-90524536D01*
X140418738Y-90585044D01*
X140575500Y-90605682D01*
X140583688Y-90604604D01*
X140724074Y-90586122D01*
X140732262Y-90585044D01*
X140878341Y-90524536D01*
X141003782Y-90428282D01*
X141100036Y-90302841D01*
X141160544Y-90156762D01*
X141179173Y-90015262D01*
X161969520Y-90015262D01*
X161986759Y-90220553D01*
X162043544Y-90418586D01*
X162046359Y-90424063D01*
X162046360Y-90424066D01*
X162134897Y-90596341D01*
X162137712Y-90601818D01*
X162265677Y-90763270D01*
X162422564Y-90896791D01*
X162427942Y-90899797D01*
X162427944Y-90899798D01*
X162459563Y-90917469D01*
X162602398Y-90997297D01*
X162697238Y-91028113D01*
X162792471Y-91059056D01*
X162792475Y-91059057D01*
X162798329Y-91060959D01*
X163002894Y-91085351D01*
X163009029Y-91084879D01*
X163009031Y-91084879D01*
X163065039Y-91080569D01*
X163208300Y-91069546D01*
X163214230Y-91067890D01*
X163214232Y-91067890D01*
X163400797Y-91015800D01*
X163400796Y-91015800D01*
X163406725Y-91014145D01*
X163412214Y-91011372D01*
X163412220Y-91011370D01*
X163585116Y-90924033D01*
X163590610Y-90921258D01*
X163752951Y-90794424D01*
X163792528Y-90748574D01*
X163883540Y-90643134D01*
X163883540Y-90643133D01*
X163887564Y-90638472D01*
X163908387Y-90601818D01*
X163926056Y-90570714D01*
X163989323Y-90459344D01*
X164054351Y-90263863D01*
X164080171Y-90059474D01*
X164080583Y-90030000D01*
X164060480Y-89824970D01*
X164000935Y-89627749D01*
X163904218Y-89445849D01*
X163803398Y-89322232D01*
X163777906Y-89290975D01*
X163777903Y-89290972D01*
X163774011Y-89286200D01*
X163624519Y-89162529D01*
X163620025Y-89158811D01*
X163620021Y-89158809D01*
X163615275Y-89154882D01*
X163434055Y-89056897D01*
X163237254Y-88995977D01*
X163231129Y-88995333D01*
X163231128Y-88995333D01*
X163038498Y-88975087D01*
X163038496Y-88975087D01*
X163032369Y-88974443D01*
X162945529Y-88982346D01*
X162833342Y-88992555D01*
X162833339Y-88992556D01*
X162827203Y-88993114D01*
X162629572Y-89051280D01*
X162447002Y-89146726D01*
X162442201Y-89150586D01*
X162442198Y-89150588D01*
X162291254Y-89271950D01*
X162286447Y-89275815D01*
X162154024Y-89433630D01*
X162151056Y-89439028D01*
X162151053Y-89439033D01*
X162096616Y-89538055D01*
X162054776Y-89614162D01*
X161992484Y-89810532D01*
X161991798Y-89816649D01*
X161991797Y-89816653D01*
X161978729Y-89933160D01*
X161969520Y-90015262D01*
X141179173Y-90015262D01*
X141181182Y-90000000D01*
X141160544Y-89843238D01*
X141100036Y-89697159D01*
X141031559Y-89607918D01*
X141008805Y-89578264D01*
X141003782Y-89571718D01*
X140878341Y-89475464D01*
X140732262Y-89414956D01*
X140575500Y-89394318D01*
X140508659Y-89403118D01*
X140438511Y-89392179D01*
X140403118Y-89367291D01*
X139019610Y-87983784D01*
X139012183Y-87975680D01*
X138995041Y-87955251D01*
X138995042Y-87955251D01*
X138987955Y-87946806D01*
X138978406Y-87941293D01*
X138955315Y-87927961D01*
X138946044Y-87922055D01*
X138942172Y-87919344D01*
X138915184Y-87900446D01*
X138904534Y-87897592D01*
X138901366Y-87896115D01*
X138898090Y-87894923D01*
X138888545Y-87889412D01*
X138854801Y-87883462D01*
X138851442Y-87882870D01*
X138840715Y-87880492D01*
X138804307Y-87870736D01*
X138793322Y-87871697D01*
X138793320Y-87871697D01*
X138766772Y-87874020D01*
X138755790Y-87874500D01*
X138169286Y-87874500D01*
X138101165Y-87854498D01*
X138069323Y-87825204D01*
X138033305Y-87778264D01*
X138028282Y-87771718D01*
X137902841Y-87675464D01*
X137756762Y-87614956D01*
X137600000Y-87594318D01*
X137443238Y-87614956D01*
X137297159Y-87675464D01*
X137171718Y-87771718D01*
X137075464Y-87897159D01*
X137014956Y-88043238D01*
X136994318Y-88200000D01*
X137014956Y-88356762D01*
X137075464Y-88502841D01*
X137171718Y-88628282D01*
X137178264Y-88633305D01*
X137225204Y-88669323D01*
X137267071Y-88726661D01*
X137274500Y-88769286D01*
X137274500Y-89322232D01*
X137254498Y-89390353D01*
X137237595Y-89411327D01*
X136180789Y-90468133D01*
X136118477Y-90502159D01*
X136075249Y-90503960D01*
X136008406Y-90495160D01*
X135851644Y-90515798D01*
X135705565Y-90576306D01*
X135580124Y-90672560D01*
X135483870Y-90798001D01*
X135423362Y-90944080D01*
X135402724Y-91100842D01*
X130933720Y-91100842D01*
X131028282Y-91028282D01*
X131124536Y-90902841D01*
X131185044Y-90756762D01*
X131205682Y-90600000D01*
X131192769Y-90501916D01*
X131203708Y-90431768D01*
X131228596Y-90396375D01*
X134149710Y-87475262D01*
X161969520Y-87475262D01*
X161970036Y-87481406D01*
X161981251Y-87614956D01*
X161986759Y-87680553D01*
X161988458Y-87686478D01*
X162041569Y-87871697D01*
X162043544Y-87878586D01*
X162046359Y-87884063D01*
X162046360Y-87884066D01*
X162131638Y-88050000D01*
X162137712Y-88061818D01*
X162265677Y-88223270D01*
X162422564Y-88356791D01*
X162427942Y-88359797D01*
X162427944Y-88359798D01*
X162459563Y-88377469D01*
X162602398Y-88457297D01*
X162682584Y-88483351D01*
X162792471Y-88519056D01*
X162792475Y-88519057D01*
X162798329Y-88520959D01*
X163002894Y-88545351D01*
X163009029Y-88544879D01*
X163009031Y-88544879D01*
X163065039Y-88540569D01*
X163208300Y-88529546D01*
X163214230Y-88527890D01*
X163214232Y-88527890D01*
X163364809Y-88485848D01*
X163406725Y-88474145D01*
X163412214Y-88471372D01*
X163412220Y-88471370D01*
X163544952Y-88404322D01*
X163590610Y-88381258D01*
X163752951Y-88254424D01*
X163789096Y-88212550D01*
X163883540Y-88103134D01*
X163883540Y-88103133D01*
X163887564Y-88098472D01*
X163908387Y-88061818D01*
X163954929Y-87979888D01*
X163989323Y-87919344D01*
X164054351Y-87723863D01*
X164080171Y-87519474D01*
X164080583Y-87490000D01*
X164060480Y-87284970D01*
X164000935Y-87087749D01*
X163904218Y-86905849D01*
X163830859Y-86815902D01*
X163777906Y-86750975D01*
X163777903Y-86750972D01*
X163774011Y-86746200D01*
X163756786Y-86731950D01*
X163620025Y-86618811D01*
X163620021Y-86618809D01*
X163615275Y-86614882D01*
X163434055Y-86516897D01*
X163237254Y-86455977D01*
X163231129Y-86455333D01*
X163231128Y-86455333D01*
X163038498Y-86435087D01*
X163038496Y-86435087D01*
X163032369Y-86434443D01*
X162945529Y-86442346D01*
X162833342Y-86452555D01*
X162833339Y-86452556D01*
X162827203Y-86453114D01*
X162629572Y-86511280D01*
X162447002Y-86606726D01*
X162442201Y-86610586D01*
X162442198Y-86610588D01*
X162431971Y-86618811D01*
X162286447Y-86735815D01*
X162154024Y-86893630D01*
X162151056Y-86899028D01*
X162151053Y-86899033D01*
X162057743Y-87068765D01*
X162054776Y-87074162D01*
X161992484Y-87270532D01*
X161991798Y-87276649D01*
X161991797Y-87276653D01*
X161977154Y-87407205D01*
X161969520Y-87475262D01*
X134149710Y-87475262D01*
X135287567Y-86337405D01*
X135349879Y-86303379D01*
X135376662Y-86300500D01*
X149011531Y-86300500D01*
X149079652Y-86320502D01*
X149111493Y-86349795D01*
X149171718Y-86428282D01*
X149297159Y-86524536D01*
X149443238Y-86585044D01*
X149600000Y-86605682D01*
X149608188Y-86604604D01*
X149748574Y-86586122D01*
X149756762Y-86585044D01*
X149902841Y-86524536D01*
X150028282Y-86428282D01*
X150124536Y-86302841D01*
X150185044Y-86156762D01*
X150205682Y-86000000D01*
X150197654Y-85939022D01*
X150208593Y-85868874D01*
X150252195Y-85819748D01*
X161974500Y-85819748D01*
X161986133Y-85878231D01*
X162030448Y-85944552D01*
X162096769Y-85988867D01*
X162108938Y-85991288D01*
X162108939Y-85991288D01*
X162149184Y-85999293D01*
X162155252Y-86000500D01*
X163894748Y-86000500D01*
X163900816Y-85999293D01*
X163941061Y-85991288D01*
X163941062Y-85991288D01*
X163953231Y-85988867D01*
X164019552Y-85944552D01*
X164063867Y-85878231D01*
X164075500Y-85819748D01*
X164075500Y-84080252D01*
X164063867Y-84021769D01*
X164019552Y-83955448D01*
X163953231Y-83911133D01*
X163941062Y-83908712D01*
X163941061Y-83908712D01*
X163900816Y-83900707D01*
X163894748Y-83899500D01*
X162155252Y-83899500D01*
X162149184Y-83900707D01*
X162108939Y-83908712D01*
X162108938Y-83908712D01*
X162096769Y-83911133D01*
X162030448Y-83955448D01*
X161986133Y-84021769D01*
X161974500Y-84080252D01*
X161974500Y-85819748D01*
X150252195Y-85819748D01*
X150255721Y-85815775D01*
X150324075Y-85796585D01*
X150339020Y-85797654D01*
X150400000Y-85805682D01*
X150408188Y-85804604D01*
X150548574Y-85786122D01*
X150556762Y-85785044D01*
X150702841Y-85724536D01*
X150828282Y-85628282D01*
X150924536Y-85502841D01*
X150985044Y-85356762D01*
X151005682Y-85200000D01*
X150985044Y-85043238D01*
X150924536Y-84897159D01*
X150828282Y-84771718D01*
X150702841Y-84675464D01*
X150556762Y-84614956D01*
X150400000Y-84594318D01*
X150243238Y-84614956D01*
X150097159Y-84675464D01*
X149971718Y-84771718D01*
X149966695Y-84778264D01*
X149911494Y-84850204D01*
X149854156Y-84892071D01*
X149811531Y-84899500D01*
X135252366Y-84899500D01*
X135249693Y-84899304D01*
X135244658Y-84897575D01*
X135233036Y-84898011D01*
X135233034Y-84898011D01*
X135195745Y-84899411D01*
X135191019Y-84899500D01*
X135172052Y-84899500D01*
X135167317Y-84900382D01*
X135163791Y-84900610D01*
X135160051Y-84900751D01*
X135132792Y-84901774D01*
X135122107Y-84906364D01*
X135117507Y-84907401D01*
X135105786Y-84910962D01*
X135101383Y-84912661D01*
X135089947Y-84914791D01*
X135068961Y-84927727D01*
X135052589Y-84936231D01*
X135038112Y-84942451D01*
X135038108Y-84942453D01*
X135029937Y-84945964D01*
X135025051Y-84949978D01*
X135022866Y-84952163D01*
X135020603Y-84954215D01*
X135020458Y-84954055D01*
X135011451Y-84961175D01*
X135004556Y-84967427D01*
X134994652Y-84973532D01*
X134978084Y-84995320D01*
X134966890Y-85008139D01*
X130978942Y-88996087D01*
X130916630Y-89030113D01*
X130841629Y-89023401D01*
X130790883Y-89002381D01*
X130790880Y-89002380D01*
X130783253Y-88999221D01*
X130736866Y-88993114D01*
X130634679Y-88979661D01*
X130626491Y-88978583D01*
X130618303Y-88979661D01*
X130516117Y-88993114D01*
X130469729Y-88999221D01*
X130323650Y-89059729D01*
X130198209Y-89155983D01*
X130101955Y-89281424D01*
X130041447Y-89427503D01*
X130020809Y-89584265D01*
X130041447Y-89741027D01*
X130101955Y-89887106D01*
X130106982Y-89893657D01*
X130106984Y-89893661D01*
X130189209Y-90000820D01*
X130214809Y-90067040D01*
X130200544Y-90136589D01*
X130178341Y-90166618D01*
X130178264Y-90166695D01*
X130171718Y-90171718D01*
X130075464Y-90297159D01*
X130014956Y-90443238D01*
X129994318Y-90600000D01*
X124970500Y-90600000D01*
X124970500Y-88176500D01*
X124990502Y-88108379D01*
X125044158Y-88061886D01*
X125096500Y-88050500D01*
X126541413Y-88050500D01*
X126545000Y-88050757D01*
X126545000Y-88054876D01*
X126666110Y-88037463D01*
X126777409Y-87986635D01*
X126784218Y-87980735D01*
X126784221Y-87980733D01*
X126863067Y-87912412D01*
X126863068Y-87912411D01*
X126869879Y-87906509D01*
X126936029Y-87803577D01*
X126943462Y-87778264D01*
X126967962Y-87694823D01*
X126967962Y-87694821D01*
X126970500Y-87686178D01*
X126970500Y-87563822D01*
X126964081Y-87541961D01*
X126938569Y-87455072D01*
X126938568Y-87455069D01*
X126936029Y-87446423D01*
X126869879Y-87343491D01*
X126863067Y-87337588D01*
X126784221Y-87269267D01*
X126784218Y-87269265D01*
X126777409Y-87263365D01*
X126666110Y-87212537D01*
X126545000Y-87195124D01*
X126545000Y-87199243D01*
X126541413Y-87199500D01*
X125096500Y-87199500D01*
X125028379Y-87179498D01*
X124981886Y-87125842D01*
X124970500Y-87073500D01*
X124970500Y-86250617D01*
X124970505Y-86249454D01*
X124973674Y-85906105D01*
X125269031Y-85906105D01*
X125270805Y-85913492D01*
X125270805Y-85913496D01*
X125305220Y-86056838D01*
X125308612Y-86070968D01*
X125312093Y-86077712D01*
X125312094Y-86077715D01*
X125356831Y-86164391D01*
X125386375Y-86221631D01*
X125391367Y-86227353D01*
X125391368Y-86227355D01*
X125411119Y-86249996D01*
X125497831Y-86349396D01*
X125504045Y-86353763D01*
X125630330Y-86442518D01*
X125630332Y-86442519D01*
X125636547Y-86446887D01*
X125794513Y-86508476D01*
X125802046Y-86509468D01*
X125802047Y-86509468D01*
X125919739Y-86524962D01*
X125923826Y-86525500D01*
X126912516Y-86525500D01*
X127038320Y-86510276D01*
X127196923Y-86450345D01*
X127219247Y-86435002D01*
X127330392Y-86358614D01*
X127330393Y-86358613D01*
X127336651Y-86354312D01*
X127343193Y-86346969D01*
X127344581Y-86346104D01*
X127347401Y-86343618D01*
X127347815Y-86344088D01*
X127403441Y-86309413D01*
X127474431Y-86310392D01*
X127526365Y-86341692D01*
X128601015Y-87416342D01*
X128635041Y-87478654D01*
X128632510Y-87541960D01*
X128601105Y-87645650D01*
X128600652Y-87652959D01*
X128600651Y-87652962D01*
X128596253Y-87723863D01*
X128590630Y-87814501D01*
X128591870Y-87821717D01*
X128591870Y-87821719D01*
X128604833Y-87897159D01*
X128619280Y-87981233D01*
X128685518Y-88136902D01*
X128689855Y-88142795D01*
X128781453Y-88267264D01*
X128781455Y-88267267D01*
X128785791Y-88273158D01*
X128791367Y-88277895D01*
X128909146Y-88377957D01*
X128909149Y-88377959D01*
X128914720Y-88382692D01*
X129065389Y-88459627D01*
X129072498Y-88461367D01*
X129072502Y-88461368D01*
X129172545Y-88485848D01*
X129229717Y-88499838D01*
X129235314Y-88500185D01*
X129235319Y-88500186D01*
X129238449Y-88500380D01*
X129238458Y-88500380D01*
X129240388Y-88500500D01*
X129562363Y-88500500D01*
X129651035Y-88490162D01*
X129680765Y-88486696D01*
X129680766Y-88486696D01*
X129688037Y-88485848D01*
X129694914Y-88483352D01*
X129694917Y-88483351D01*
X129840182Y-88430622D01*
X129847061Y-88428125D01*
X129988540Y-88335367D01*
X130104885Y-88212550D01*
X130189856Y-88066262D01*
X130194086Y-88052298D01*
X130215609Y-87981233D01*
X130238895Y-87904350D01*
X130239941Y-87887499D01*
X130244676Y-87811161D01*
X130249370Y-87735499D01*
X130239929Y-87680553D01*
X130221960Y-87575983D01*
X130220720Y-87568767D01*
X130154482Y-87413098D01*
X130060191Y-87284970D01*
X130058547Y-87282736D01*
X130058545Y-87282733D01*
X130054209Y-87276842D01*
X129984589Y-87217695D01*
X129930854Y-87172043D01*
X129930851Y-87172041D01*
X129925280Y-87167308D01*
X129774611Y-87090373D01*
X129767502Y-87088633D01*
X129767498Y-87088632D01*
X129631125Y-87055262D01*
X129610283Y-87050162D01*
X129604686Y-87049815D01*
X129604681Y-87049814D01*
X129601551Y-87049620D01*
X129601542Y-87049620D01*
X129599612Y-87049500D01*
X129277637Y-87049500D01*
X129274002Y-87049924D01*
X129273998Y-87049924D01*
X129258961Y-87051677D01*
X129228217Y-87055262D01*
X129158240Y-87043284D01*
X129124532Y-87019205D01*
X127714110Y-85608784D01*
X127706683Y-85600680D01*
X127689541Y-85580251D01*
X127689542Y-85580251D01*
X127682455Y-85571806D01*
X127671378Y-85565411D01*
X127649815Y-85552961D01*
X127640544Y-85547055D01*
X127618715Y-85531770D01*
X127609684Y-85525446D01*
X127599034Y-85522592D01*
X127595866Y-85521115D01*
X127592589Y-85519922D01*
X127583045Y-85514412D01*
X127572192Y-85512498D01*
X127572191Y-85512498D01*
X127560175Y-85510380D01*
X127550987Y-85508760D01*
X127487375Y-85477234D01*
X127460900Y-85442464D01*
X127457108Y-85435117D01*
X127453625Y-85428369D01*
X127448313Y-85422279D01*
X127347163Y-85306329D01*
X127342169Y-85300604D01*
X127283649Y-85259475D01*
X127209670Y-85207482D01*
X127209668Y-85207481D01*
X127203453Y-85203113D01*
X127045487Y-85141524D01*
X127037954Y-85140532D01*
X127037953Y-85140532D01*
X126920261Y-85125038D01*
X126920260Y-85125038D01*
X126916174Y-85124500D01*
X125927484Y-85124500D01*
X125801680Y-85139724D01*
X125643077Y-85199655D01*
X125503349Y-85295688D01*
X125498297Y-85301358D01*
X125498296Y-85301359D01*
X125395612Y-85416608D01*
X125395610Y-85416612D01*
X125390560Y-85422279D01*
X125387008Y-85428988D01*
X125387007Y-85428989D01*
X125361463Y-85477234D01*
X125311224Y-85572119D01*
X125269919Y-85736559D01*
X125269031Y-85906105D01*
X124973674Y-85906105D01*
X124999531Y-83105028D01*
X155498025Y-83105028D01*
X155535347Y-83348930D01*
X155612003Y-83583460D01*
X155725935Y-83802321D01*
X155729038Y-83806454D01*
X155729040Y-83806457D01*
X155848649Y-83965761D01*
X155874083Y-83999636D01*
X156052468Y-84170104D01*
X156056740Y-84173018D01*
X156056741Y-84173019D01*
X156085893Y-84192905D01*
X156256300Y-84309149D01*
X156368202Y-84361092D01*
X156475409Y-84410856D01*
X156475413Y-84410857D01*
X156480104Y-84413035D01*
X156717871Y-84478974D01*
X156723008Y-84479523D01*
X156915957Y-84500144D01*
X156915965Y-84500144D01*
X156919292Y-84500500D01*
X157062554Y-84500500D01*
X157065127Y-84500288D01*
X157065138Y-84500288D01*
X157240760Y-84485849D01*
X157240766Y-84485848D01*
X157245911Y-84485425D01*
X157485217Y-84425316D01*
X157711493Y-84326928D01*
X157918661Y-84192905D01*
X157940516Y-84173019D01*
X158049134Y-84074184D01*
X158101158Y-84026846D01*
X158104357Y-84022795D01*
X158104361Y-84022791D01*
X158250881Y-83837264D01*
X158250884Y-83837259D01*
X158254082Y-83833210D01*
X158256577Y-83828691D01*
X158370830Y-83621722D01*
X158370832Y-83621718D01*
X158373327Y-83617198D01*
X158385275Y-83583460D01*
X158453965Y-83389485D01*
X158453966Y-83389481D01*
X158455691Y-83384610D01*
X158498961Y-83141694D01*
X158501975Y-82894972D01*
X158464653Y-82651070D01*
X158387997Y-82416540D01*
X158274065Y-82197679D01*
X158163876Y-82050920D01*
X158129022Y-82004499D01*
X158129020Y-82004496D01*
X158125917Y-82000364D01*
X157947532Y-81829896D01*
X157919212Y-81810577D01*
X157747979Y-81693770D01*
X157747980Y-81693770D01*
X157743700Y-81690851D01*
X157631798Y-81638908D01*
X157524591Y-81589144D01*
X157524587Y-81589143D01*
X157519896Y-81586965D01*
X157282129Y-81521026D01*
X157276992Y-81520477D01*
X157084043Y-81499856D01*
X157084035Y-81499856D01*
X157080708Y-81499500D01*
X156937446Y-81499500D01*
X156934873Y-81499712D01*
X156934862Y-81499712D01*
X156759240Y-81514151D01*
X156759234Y-81514152D01*
X156754089Y-81514575D01*
X156514783Y-81574684D01*
X156288507Y-81673072D01*
X156081339Y-81807095D01*
X156077514Y-81810575D01*
X156077512Y-81810577D01*
X156056281Y-81829896D01*
X155898842Y-81973154D01*
X155895643Y-81977205D01*
X155895639Y-81977209D01*
X155749119Y-82162736D01*
X155749116Y-82162741D01*
X155745918Y-82166790D01*
X155743425Y-82171306D01*
X155743423Y-82171309D01*
X155630812Y-82375305D01*
X155626673Y-82382802D01*
X155624949Y-82387671D01*
X155624947Y-82387675D01*
X155546035Y-82610515D01*
X155544309Y-82615390D01*
X155543402Y-82620483D01*
X155543401Y-82620486D01*
X155531693Y-82686218D01*
X155501039Y-82858306D01*
X155498025Y-83105028D01*
X124999531Y-83105028D01*
X125000475Y-83002713D01*
X125000643Y-82997282D01*
X125007469Y-82867028D01*
X125007494Y-82866558D01*
X125017621Y-82686218D01*
X125018974Y-82673572D01*
X125042515Y-82524939D01*
X125042694Y-82523850D01*
X125060091Y-82421458D01*
X125069721Y-82364783D01*
X125072234Y-82353279D01*
X125112115Y-82204438D01*
X125112747Y-82202167D01*
X125156321Y-82050920D01*
X125159765Y-82040647D01*
X125175228Y-82000364D01*
X125215539Y-81895353D01*
X125216755Y-81892304D01*
X125276395Y-81748320D01*
X125280530Y-81739349D01*
X125351557Y-81599951D01*
X125353528Y-81596239D01*
X125359419Y-81585581D01*
X125428540Y-81460515D01*
X125433145Y-81452841D01*
X125518564Y-81321308D01*
X125521475Y-81317021D01*
X125545415Y-81283281D01*
X125610976Y-81190881D01*
X125615797Y-81184525D01*
X125714632Y-81062473D01*
X125718595Y-81057815D01*
X125821547Y-80942612D01*
X125826403Y-80937477D01*
X125937477Y-80826403D01*
X125942612Y-80821547D01*
X126057815Y-80718595D01*
X126062481Y-80714626D01*
X126184525Y-80615797D01*
X126190881Y-80610976D01*
X126317021Y-80521475D01*
X126321308Y-80518564D01*
X126452841Y-80433145D01*
X126460517Y-80428539D01*
X126596239Y-80353528D01*
X126599951Y-80351557D01*
X126739349Y-80280530D01*
X126748315Y-80276397D01*
X126892304Y-80216755D01*
X126895353Y-80215539D01*
X127040650Y-80159764D01*
X127050920Y-80156321D01*
X127202167Y-80112747D01*
X127204438Y-80112115D01*
X127353279Y-80072234D01*
X127364783Y-80069721D01*
X127435824Y-80057650D01*
X127523850Y-80042694D01*
X127524939Y-80042515D01*
X127673579Y-80018973D01*
X127686210Y-80017622D01*
X127866451Y-80007499D01*
X127941102Y-80003587D01*
X127996707Y-80000673D01*
X128003301Y-80000500D01*
X161996699Y-80000500D01*
X162003293Y-80000673D01*
G37*
%TD.AperFunction*%
M02*
