M48
; DRILL file {KiCad (6.0.0-0)} date Friday, November 25, 2022 at 09:55:02 AM
; FORMAT={-:-/ absolute / metric / decimal}
; #@! TF.CreationDate,2022-11-25T09:55:02+01:00
; #@! TF.GenerationSoftware,Kicad,Pcbnew,(6.0.0-0)
; #@! TF.FileFunction,Plated,1,2,PTH
FMAT,2
METRIC
; #@! TA.AperFunction,Plated,PTH,ViaDrill
T1C0.400
; #@! TA.AperFunction,Plated,PTH,ComponentDrill
T2C0.600
; #@! TA.AperFunction,Plated,PTH,ComponentDrill
T3C0.650
; #@! TA.AperFunction,Plated,PTH,ComponentDrill
T4C0.750
; #@! TA.AperFunction,Plated,PTH,ComponentDrill
T5C1.000
%
G90
G05
T1
X128.101Y-88.642
X128.4Y-80.8
X128.4Y-95.0
X130.6Y-90.6
X130.626Y-89.584
X131.0Y-82.0
X132.907Y-86.504
X133.0Y-94.8
X134.0Y-95.4
X135.158Y-91.626
X135.6Y-84.0
X136.008Y-91.101
X136.2Y-87.0
X136.2Y-89.0
X136.2Y-94.8
X137.6Y-88.2
X140.576Y-90.0
X141.0Y-91.0
X147.2Y-91.4
X149.6Y-86.0
X150.4Y-85.2
X152.8Y-87.8
T4
X144.0Y-93.55
X146.0Y-93.55
T5
X163.025Y-84.95
X163.025Y-87.49
X163.025Y-90.03
X163.025Y-92.57
X163.025Y-95.11
T2
X126.77Y-85.825G85X126.07Y-85.825
G05
X126.77Y-94.175G85X126.07Y-94.175
G05
T3
X129.52Y-87.775G85X129.32Y-87.775
G05
X129.52Y-92.225G85X129.32Y-92.225
G05
T0
M30
