%TF.GenerationSoftware,KiCad,Pcbnew,(6.0.0-0)*%
%TF.CreationDate,2022-11-25T09:54:55+01:00*%
%TF.ProjectId,bq24072_pmic_board,62713234-3037-4325-9f70-6d69635f626f,rev?*%
%TF.SameCoordinates,Original*%
%TF.FileFunction,Paste,Top*%
%TF.FilePolarity,Positive*%
%FSLAX46Y46*%
G04 Gerber Fmt 4.6, Leading zero omitted, Abs format (unit mm)*
G04 Created by KiCad (PCBNEW (6.0.0-0)) date 2022-11-25 09:54:55*
%MOMM*%
%LPD*%
G01*
G04 APERTURE LIST*
G04 Aperture macros list*
%AMRoundRect*
0 Rectangle with rounded corners*
0 $1 Rounding radius*
0 $2 $3 $4 $5 $6 $7 $8 $9 X,Y pos of 4 corners*
0 Add a 4 corners polygon primitive as box body*
4,1,4,$2,$3,$4,$5,$6,$7,$8,$9,$2,$3,0*
0 Add four circle primitives for the rounded corners*
1,1,$1+$1,$2,$3*
1,1,$1+$1,$4,$5*
1,1,$1+$1,$6,$7*
1,1,$1+$1,$8,$9*
0 Add four rect primitives between the rounded corners*
20,1,$1+$1,$2,$3,$4,$5,0*
20,1,$1+$1,$4,$5,$6,$7,0*
20,1,$1+$1,$6,$7,$8,$9,0*
20,1,$1+$1,$8,$9,$2,$3,0*%
G04 Aperture macros list end*
%ADD10RoundRect,0.200000X0.200000X0.275000X-0.200000X0.275000X-0.200000X-0.275000X0.200000X-0.275000X0*%
%ADD11RoundRect,0.200000X-0.200000X-0.275000X0.200000X-0.275000X0.200000X0.275000X-0.200000X0.275000X0*%
%ADD12RoundRect,0.218750X-0.218750X-0.256250X0.218750X-0.256250X0.218750X0.256250X-0.218750X0.256250X0*%
%ADD13RoundRect,0.225000X-0.225000X-0.250000X0.225000X-0.250000X0.225000X0.250000X-0.225000X0.250000X0*%
%ADD14RoundRect,0.160000X0.160000X-0.160000X0.160000X0.160000X-0.160000X0.160000X-0.160000X-0.160000X0*%
%ADD15RoundRect,0.062500X0.062500X-0.375000X0.062500X0.375000X-0.062500X0.375000X-0.062500X-0.375000X0*%
%ADD16RoundRect,0.062500X0.375000X-0.062500X0.375000X0.062500X-0.375000X0.062500X-0.375000X-0.062500X0*%
%ADD17RoundRect,0.218750X0.218750X0.256250X-0.218750X0.256250X-0.218750X-0.256250X0.218750X-0.256250X0*%
%ADD18R,0.850000X0.300000*%
%ADD19R,1.350000X0.400000*%
%ADD20R,1.900000X2.900000*%
%ADD21RoundRect,0.225000X0.225000X0.250000X-0.225000X0.250000X-0.225000X-0.250000X0.225000X-0.250000X0*%
%ADD22R,2.000000X1.500000*%
%ADD23R,2.000000X3.800000*%
%ADD24RoundRect,0.243750X-0.243750X-0.456250X0.243750X-0.456250X0.243750X0.456250X-0.243750X0.456250X0*%
G04 APERTURE END LIST*
D10*
X136025000Y-93600000D03*
X134375000Y-93600000D03*
X134450000Y-83600000D03*
X132800000Y-83600000D03*
D11*
X131350000Y-93600000D03*
X133000000Y-93600000D03*
X141575000Y-87000000D03*
X143225000Y-87000000D03*
D12*
X137612500Y-86400000D03*
X139187500Y-86400000D03*
D13*
X132825000Y-86800000D03*
X134375000Y-86800000D03*
X141625000Y-90200000D03*
X143175000Y-90200000D03*
D14*
X134000000Y-90400000D03*
X133200000Y-89600000D03*
X133200000Y-90400000D03*
X134000000Y-89600000D03*
D15*
X132850000Y-91437500D03*
X133350000Y-91437500D03*
X133850000Y-91437500D03*
X134350000Y-91437500D03*
D16*
X135037500Y-90750000D03*
X135037500Y-90250000D03*
X135037500Y-89750000D03*
X135037500Y-89250000D03*
D15*
X134350000Y-88562500D03*
X133850000Y-88562500D03*
X133350000Y-88562500D03*
X132850000Y-88562500D03*
D16*
X132162500Y-89250000D03*
X132162500Y-89750000D03*
X132162500Y-90250000D03*
X132162500Y-90750000D03*
D11*
X132800000Y-85200000D03*
X134450000Y-85200000D03*
D17*
X147187500Y-90000000D03*
X145612500Y-90000000D03*
D18*
X126420000Y-86500000D03*
X126420000Y-93500000D03*
D19*
X129095000Y-91300000D03*
X129095000Y-90650000D03*
X129095000Y-90000000D03*
X129095000Y-89350000D03*
X129095000Y-88700000D03*
D20*
X126420000Y-90000000D03*
D21*
X134375000Y-82000000D03*
X132825000Y-82000000D03*
D11*
X141575000Y-88600000D03*
X143225000Y-88600000D03*
D12*
X137612500Y-93600000D03*
X139187500Y-93600000D03*
D10*
X143225000Y-85400000D03*
X141575000Y-85400000D03*
D22*
X151050000Y-87700000D03*
X151050000Y-90000000D03*
D23*
X157350000Y-90000000D03*
D22*
X151050000Y-92300000D03*
D24*
X137462500Y-90000000D03*
X139337500Y-90000000D03*
M02*
