%TF.GenerationSoftware,KiCad,Pcbnew,(5.1.9-0-10_14)*%
%TF.CreationDate,2021-08-20T09:35:12+02:00*%
%TF.ProjectId,mic_breakout,6d69635f-6272-4656-916b-6f75742e6b69,rev?*%
%TF.SameCoordinates,Original*%
%TF.FileFunction,Copper,L1,Top*%
%TF.FilePolarity,Positive*%
%FSLAX46Y46*%
G04 Gerber Fmt 4.6, Leading zero omitted, Abs format (unit mm)*
G04 Created by KiCad (PCBNEW (5.1.9-0-10_14)) date 2021-08-20 09:35:12*
%MOMM*%
%LPD*%
G01*
G04 APERTURE LIST*
%TA.AperFunction,ComponentPad*%
%ADD10R,1.700000X1.700000*%
%TD*%
%TA.AperFunction,ComponentPad*%
%ADD11O,1.700000X1.700000*%
%TD*%
%TA.AperFunction,SMDPad,CuDef*%
%ADD12C,0.700000*%
%TD*%
%TA.AperFunction,Conductor*%
%ADD13C,0.250000*%
%TD*%
G04 APERTURE END LIST*
%TO.P,C1,1*%
%TO.N,GND*%
%TA.AperFunction,SMDPad,CuDef*%
G36*
G01*
X175885070Y-99824135D02*
X175885070Y-100324135D01*
G75*
G02*
X175660070Y-100549135I-225000J0D01*
G01*
X175210070Y-100549135D01*
G75*
G02*
X174985070Y-100324135I0J225000D01*
G01*
X174985070Y-99824135D01*
G75*
G02*
X175210070Y-99599135I225000J0D01*
G01*
X175660070Y-99599135D01*
G75*
G02*
X175885070Y-99824135I0J-225000D01*
G01*
G37*
%TD.AperFunction*%
%TO.P,C1,2*%
%TO.N,VDD*%
%TA.AperFunction,SMDPad,CuDef*%
G36*
G01*
X174335070Y-99824135D02*
X174335070Y-100324135D01*
G75*
G02*
X174110070Y-100549135I-225000J0D01*
G01*
X173660070Y-100549135D01*
G75*
G02*
X173435070Y-100324135I0J225000D01*
G01*
X173435070Y-99824135D01*
G75*
G02*
X173660070Y-99599135I225000J0D01*
G01*
X174110070Y-99599135D01*
G75*
G02*
X174335070Y-99824135I0J-225000D01*
G01*
G37*
%TD.AperFunction*%
%TD*%
D10*
%TO.P,J1,1*%
%TO.N,VDD*%
X172373301Y-114300000D03*
D11*
%TO.P,J1,2*%
%TO.N,OUT*%
X174913301Y-114300000D03*
%TO.P,J1,3*%
%TO.N,GND*%
X177453301Y-114300000D03*
%TD*%
D12*
%TO.P,M1,3*%
%TO.N,OUT*%
X173389302Y-103876693D03*
%TO.P,M1,2*%
%TO.N,GND*%
X176049302Y-103876693D03*
X176049302Y-102726693D03*
%TO.P,M1,1*%
%TO.N,VDD*%
X173389302Y-102726693D03*
%TD*%
D13*
%TO.N,GND*%
X175435070Y-102112461D02*
X176049302Y-102726693D01*
X175435070Y-100074135D02*
X175435070Y-102112461D01*
X176049302Y-102726693D02*
X176049302Y-103876693D01*
X176049302Y-103876693D02*
X176049302Y-104929302D01*
X177453301Y-106333301D02*
X177453301Y-114300000D01*
X176049302Y-104929302D02*
X177453301Y-106333301D01*
%TO.N,VDD*%
X173885070Y-102230925D02*
X173389302Y-102726693D01*
X173885070Y-100074135D02*
X173885070Y-102230925D01*
X173389302Y-102726693D02*
X172085000Y-104030995D01*
X172085000Y-114011699D02*
X172373301Y-114300000D01*
X172085000Y-104030995D02*
X172085000Y-114011699D01*
%TO.N,OUT*%
X173389302Y-103876693D02*
X173389302Y-104809302D01*
X174913301Y-106333301D02*
X174913301Y-114300000D01*
X173389302Y-104809302D02*
X174913301Y-106333301D01*
%TD*%
M02*
