%TF.GenerationSoftware,KiCad,Pcbnew,(5.1.9-0-10_14)*%
%TF.CreationDate,2021-08-20T09:35:12+02:00*%
%TF.ProjectId,mic_breakout,6d69635f-6272-4656-916b-6f75742e6b69,rev?*%
%TF.SameCoordinates,Original*%
%TF.FileFunction,Legend,Top*%
%TF.FilePolarity,Positive*%
%FSLAX46Y46*%
G04 Gerber Fmt 4.6, Leading zero omitted, Abs format (unit mm)*
G04 Created by KiCad (PCBNEW (5.1.9-0-10_14)) date 2021-08-20 09:35:12*
%MOMM*%
%LPD*%
G01*
G04 APERTURE LIST*
%ADD10C,0.150000*%
%ADD11C,0.300000*%
%ADD12C,0.120000*%
%ADD13R,1.700000X1.700000*%
%ADD14O,1.700000X1.700000*%
%ADD15C,0.700000*%
G04 APERTURE END LIST*
D10*
X160861428Y-119197380D02*
X160290000Y-119197380D01*
X160575714Y-119197380D02*
X160575714Y-118197380D01*
X160480476Y-118340238D01*
X160385238Y-118435476D01*
X160290000Y-118483095D01*
X161290000Y-119102142D02*
X161337619Y-119149761D01*
X161290000Y-119197380D01*
X161242380Y-119149761D01*
X161290000Y-119102142D01*
X161290000Y-119197380D01*
X161956666Y-118197380D02*
X162051904Y-118197380D01*
X162147142Y-118245000D01*
X162194761Y-118292619D01*
X162242380Y-118387857D01*
X162290000Y-118578333D01*
X162290000Y-118816428D01*
X162242380Y-119006904D01*
X162194761Y-119102142D01*
X162147142Y-119149761D01*
X162051904Y-119197380D01*
X161956666Y-119197380D01*
X161861428Y-119149761D01*
X161813809Y-119102142D01*
X161766190Y-119006904D01*
X161718571Y-118816428D01*
X161718571Y-118578333D01*
X161766190Y-118387857D01*
X161813809Y-118292619D01*
X161861428Y-118245000D01*
X161956666Y-118197380D01*
D11*
X167720238Y-95583333D02*
X168672619Y-95583333D01*
X167529761Y-96154761D02*
X168196428Y-94154761D01*
X168863095Y-96154761D01*
X169529761Y-96154761D02*
X169529761Y-94154761D01*
X170291666Y-94154761D01*
X170482142Y-94250000D01*
X170577380Y-94345238D01*
X170672619Y-94535714D01*
X170672619Y-94821428D01*
X170577380Y-95011904D01*
X170482142Y-95107142D01*
X170291666Y-95202380D01*
X169529761Y-95202380D01*
X171339285Y-94154761D02*
X172577380Y-94154761D01*
X171910714Y-94916666D01*
X172196428Y-94916666D01*
X172386904Y-95011904D01*
X172482142Y-95107142D01*
X172577380Y-95297619D01*
X172577380Y-95773809D01*
X172482142Y-95964285D01*
X172386904Y-96059523D01*
X172196428Y-96154761D01*
X171625000Y-96154761D01*
X171434523Y-96059523D01*
X171339285Y-95964285D01*
X173244047Y-94154761D02*
X174577380Y-94154761D01*
X173720238Y-96154761D01*
X175244047Y-94345238D02*
X175339285Y-94250000D01*
X175529761Y-94154761D01*
X176005952Y-94154761D01*
X176196428Y-94250000D01*
X176291666Y-94345238D01*
X176386904Y-94535714D01*
X176386904Y-94726190D01*
X176291666Y-95011904D01*
X175148809Y-96154761D01*
X176386904Y-96154761D01*
X177148809Y-94345238D02*
X177244047Y-94250000D01*
X177434523Y-94154761D01*
X177910714Y-94154761D01*
X178101190Y-94250000D01*
X178196428Y-94345238D01*
X178291666Y-94535714D01*
X178291666Y-94726190D01*
X178196428Y-95011904D01*
X177053571Y-96154761D01*
X178291666Y-96154761D01*
X179053571Y-95583333D02*
X180005952Y-95583333D01*
X178863095Y-96154761D02*
X179529761Y-94154761D01*
X180196428Y-96154761D01*
X180577380Y-94154761D02*
X181720238Y-94154761D01*
X181148809Y-96154761D02*
X181148809Y-94154761D01*
D10*
X176959137Y-111641345D02*
X176911517Y-111736583D01*
X176911517Y-111879440D01*
X176959137Y-112022297D01*
X177054375Y-112117535D01*
X177149613Y-112165154D01*
X177340089Y-112212773D01*
X177482946Y-112212773D01*
X177673422Y-112165154D01*
X177768660Y-112117535D01*
X177863898Y-112022297D01*
X177911517Y-111879440D01*
X177911517Y-111784202D01*
X177863898Y-111641345D01*
X177816279Y-111593726D01*
X177482946Y-111593726D01*
X177482946Y-111784202D01*
X177911517Y-111165154D02*
X176911517Y-111165154D01*
X177911517Y-110593726D01*
X176911517Y-110593726D01*
X177911517Y-110117535D02*
X176911517Y-110117535D01*
X176911517Y-109879440D01*
X176959137Y-109736583D01*
X177054375Y-109641345D01*
X177149613Y-109593726D01*
X177340089Y-109546107D01*
X177482946Y-109546107D01*
X177673422Y-109593726D01*
X177768660Y-109641345D01*
X177863898Y-109736583D01*
X177911517Y-109879440D01*
X177911517Y-110117535D01*
X174371517Y-111974678D02*
X174371517Y-111784202D01*
X174419137Y-111688964D01*
X174514375Y-111593726D01*
X174704851Y-111546107D01*
X175038184Y-111546107D01*
X175228660Y-111593726D01*
X175323898Y-111688964D01*
X175371517Y-111784202D01*
X175371517Y-111974678D01*
X175323898Y-112069916D01*
X175228660Y-112165154D01*
X175038184Y-112212773D01*
X174704851Y-112212773D01*
X174514375Y-112165154D01*
X174419137Y-112069916D01*
X174371517Y-111974678D01*
X174371517Y-111117535D02*
X175181041Y-111117535D01*
X175276279Y-111069916D01*
X175323898Y-111022297D01*
X175371517Y-110927059D01*
X175371517Y-110736583D01*
X175323898Y-110641345D01*
X175276279Y-110593726D01*
X175181041Y-110546107D01*
X174371517Y-110546107D01*
X174371517Y-110212773D02*
X174371517Y-109641345D01*
X175371517Y-109927059D02*
X174371517Y-109927059D01*
X171831517Y-112308011D02*
X172831517Y-111974678D01*
X171831517Y-111641345D01*
X172831517Y-111308011D02*
X171831517Y-111308011D01*
X171831517Y-111069916D01*
X171879137Y-110927059D01*
X171974375Y-110831821D01*
X172069613Y-110784202D01*
X172260089Y-110736583D01*
X172402946Y-110736583D01*
X172593422Y-110784202D01*
X172688660Y-110831821D01*
X172783898Y-110927059D01*
X172831517Y-111069916D01*
X172831517Y-111308011D01*
X172831517Y-110308011D02*
X171831517Y-110308011D01*
X171831517Y-110069916D01*
X171879137Y-109927059D01*
X171974375Y-109831821D01*
X172069613Y-109784202D01*
X172260089Y-109736583D01*
X172402946Y-109736583D01*
X172593422Y-109784202D01*
X172688660Y-109831821D01*
X172783898Y-109927059D01*
X172831517Y-110069916D01*
X172831517Y-110308011D01*
D12*
%TO.C,C1*%
X174800650Y-99564135D02*
X174519490Y-99564135D01*
X174800650Y-100584135D02*
X174519490Y-100584135D01*
%TO.C,J1*%
X171043301Y-115630000D02*
X171043301Y-114300000D01*
X172373301Y-115630000D02*
X171043301Y-115630000D01*
X173643301Y-115630000D02*
X173643301Y-112970000D01*
X173643301Y-112970000D02*
X178783301Y-112970000D01*
X173643301Y-115630000D02*
X178783301Y-115630000D01*
X178783301Y-115630000D02*
X178783301Y-112970000D01*
%TO.C,M1*%
X172433302Y-102285693D02*
X172941302Y-101777693D01*
X172941302Y-101777693D02*
X172433302Y-101777693D01*
X172433302Y-101777693D02*
X172433302Y-102285693D01*
%TO.C,C1*%
D10*
X172047709Y-100540568D02*
X172000090Y-100588187D01*
X171857233Y-100635806D01*
X171761995Y-100635806D01*
X171619137Y-100588187D01*
X171523899Y-100492949D01*
X171476280Y-100397711D01*
X171428661Y-100207235D01*
X171428661Y-100064378D01*
X171476280Y-99873902D01*
X171523899Y-99778664D01*
X171619137Y-99683426D01*
X171761995Y-99635806D01*
X171857233Y-99635806D01*
X172000090Y-99683426D01*
X172047709Y-99731045D01*
X173000090Y-100635806D02*
X172428661Y-100635806D01*
X172714376Y-100635806D02*
X172714376Y-99635806D01*
X172619137Y-99778664D01*
X172523899Y-99873902D01*
X172428661Y-99921521D01*
%TO.C,J1*%
X169205732Y-113744119D02*
X169205732Y-114458405D01*
X169158113Y-114601262D01*
X169062875Y-114696500D01*
X168920018Y-114744119D01*
X168824780Y-114744119D01*
X170205732Y-114744119D02*
X169634304Y-114744119D01*
X169920018Y-114744119D02*
X169920018Y-113744119D01*
X169824780Y-113886977D01*
X169729542Y-113982215D01*
X169634304Y-114029834D01*
%TO.C,M1*%
X170791806Y-103701040D02*
X170791806Y-102701040D01*
X171125139Y-103415326D01*
X171458472Y-102701040D01*
X171458472Y-103701040D01*
X172458472Y-103701040D02*
X171887044Y-103701040D01*
X172172758Y-103701040D02*
X172172758Y-102701040D01*
X172077520Y-102843898D01*
X171982282Y-102939136D01*
X171887044Y-102986755D01*
%TD*%
%LPC*%
%TO.C,C1*%
G36*
G01*
X175885070Y-99824135D02*
X175885070Y-100324135D01*
G75*
G02*
X175660070Y-100549135I-225000J0D01*
G01*
X175210070Y-100549135D01*
G75*
G02*
X174985070Y-100324135I0J225000D01*
G01*
X174985070Y-99824135D01*
G75*
G02*
X175210070Y-99599135I225000J0D01*
G01*
X175660070Y-99599135D01*
G75*
G02*
X175885070Y-99824135I0J-225000D01*
G01*
G37*
G36*
G01*
X174335070Y-99824135D02*
X174335070Y-100324135D01*
G75*
G02*
X174110070Y-100549135I-225000J0D01*
G01*
X173660070Y-100549135D01*
G75*
G02*
X173435070Y-100324135I0J225000D01*
G01*
X173435070Y-99824135D01*
G75*
G02*
X173660070Y-99599135I225000J0D01*
G01*
X174110070Y-99599135D01*
G75*
G02*
X174335070Y-99824135I0J-225000D01*
G01*
G37*
%TD*%
D13*
%TO.C,J1*%
X172373301Y-114300000D03*
D14*
X174913301Y-114300000D03*
X177453301Y-114300000D03*
%TD*%
D15*
%TO.C,M1*%
X173389302Y-103876693D03*
X176049302Y-103876693D03*
X176049302Y-102726693D03*
X173389302Y-102726693D03*
%TD*%
M02*
