%FSLAX45Y45*%
G04 Gerber Fmt 4.5, Leading zero omitted, Abs format (unit mm)*
G04 Created by KiCad (PCBNEW (5.1.9-0-10_14)) date 2021-08-20 09:36:06*
%MOMM*%
%LPD*%
G01*
G04 APERTURE LIST*
%TA.AperFunction,Profile*%
%ADD10C,0.050000*%
%TD*%
%ADD11C,0.200000*%
%ADD12C,0.300000*%
G04 APERTURE END LIST*
D10*
X16002000Y-12065000D02*
G75*
G02*
X15875000Y-11938000I0J127000D01*
G01*
X19050000Y-11938000D02*
G75*
G02*
X18923000Y-12065000I-127000J0D01*
G01*
X15875000Y-11938000D02*
X15875000Y-9017000D01*
X18923000Y-12065000D02*
X16002000Y-12065000D01*
X19050000Y-9017000D02*
X19050000Y-11938000D01*
X15875000Y-9017000D02*
G75*
G02*
X16002000Y-8890000I127000J0D01*
G01*
X18923000Y-8890000D02*
G75*
G02*
X19050000Y-9017000I0J-127000D01*
G01*
X16002000Y-8890000D02*
X18923000Y-8890000D01*
D11*
X17187330Y-11380000D02*
X17287330Y-11480000D01*
X17287330Y-11380000D02*
X17187330Y-11480000D01*
X17441330Y-11380000D02*
X17541330Y-11480000D01*
X17541330Y-11380000D02*
X17441330Y-11480000D01*
X17695330Y-11380000D02*
X17795330Y-11480000D01*
X17795330Y-11380000D02*
X17695330Y-11480000D01*
D12*
X16158928Y-12533214D02*
X16158928Y-12233214D01*
X16230357Y-12233214D01*
X16273214Y-12247500D01*
X16301786Y-12276071D01*
X16316071Y-12304643D01*
X16330357Y-12361786D01*
X16330357Y-12404643D01*
X16316071Y-12461786D01*
X16301786Y-12490357D01*
X16273214Y-12518929D01*
X16230357Y-12533214D01*
X16158928Y-12533214D01*
X16458928Y-12533214D02*
X16458928Y-12333214D01*
X16458928Y-12390357D02*
X16473214Y-12361786D01*
X16487500Y-12347500D01*
X16516071Y-12333214D01*
X16544643Y-12333214D01*
X16644643Y-12533214D02*
X16644643Y-12333214D01*
X16644643Y-12233214D02*
X16630357Y-12247500D01*
X16644643Y-12261786D01*
X16658928Y-12247500D01*
X16644643Y-12233214D01*
X16644643Y-12261786D01*
X16830357Y-12533214D02*
X16801786Y-12518929D01*
X16787500Y-12490357D01*
X16787500Y-12233214D01*
X16987500Y-12533214D02*
X16958928Y-12518929D01*
X16944643Y-12490357D01*
X16944643Y-12233214D01*
X17330357Y-12533214D02*
X17330357Y-12233214D01*
X17430357Y-12447500D01*
X17530357Y-12233214D01*
X17530357Y-12533214D01*
X17801786Y-12533214D02*
X17801786Y-12376071D01*
X17787500Y-12347500D01*
X17758928Y-12333214D01*
X17701786Y-12333214D01*
X17673214Y-12347500D01*
X17801786Y-12518929D02*
X17773214Y-12533214D01*
X17701786Y-12533214D01*
X17673214Y-12518929D01*
X17658928Y-12490357D01*
X17658928Y-12461786D01*
X17673214Y-12433214D01*
X17701786Y-12418929D01*
X17773214Y-12418929D01*
X17801786Y-12404643D01*
X17944643Y-12333214D02*
X17944643Y-12633214D01*
X17944643Y-12347500D02*
X17973214Y-12333214D01*
X18030357Y-12333214D01*
X18058928Y-12347500D01*
X18073214Y-12361786D01*
X18087500Y-12390357D01*
X18087500Y-12476071D01*
X18073214Y-12504643D01*
X18058928Y-12518929D01*
X18030357Y-12533214D01*
X17973214Y-12533214D01*
X17944643Y-12518929D01*
X18216071Y-12504643D02*
X18230357Y-12518929D01*
X18216071Y-12533214D01*
X18201786Y-12518929D01*
X18216071Y-12504643D01*
X18216071Y-12533214D01*
X18216071Y-12347500D02*
X18230357Y-12361786D01*
X18216071Y-12376071D01*
X18201786Y-12361786D01*
X18216071Y-12347500D01*
X18216071Y-12376071D01*
X15772500Y-12977500D02*
X15872500Y-13077500D01*
X15872500Y-12977500D02*
X15772500Y-13077500D01*
X16316071Y-13163214D02*
X16144643Y-13163214D01*
X16230357Y-13163214D02*
X16230357Y-12863214D01*
X16201786Y-12906071D01*
X16173214Y-12934643D01*
X16144643Y-12948929D01*
X16444643Y-13134643D02*
X16458928Y-13148929D01*
X16444643Y-13163214D01*
X16430357Y-13148929D01*
X16444643Y-13134643D01*
X16444643Y-13163214D01*
X16644643Y-12863214D02*
X16673214Y-12863214D01*
X16701786Y-12877500D01*
X16716071Y-12891786D01*
X16730357Y-12920357D01*
X16744643Y-12977500D01*
X16744643Y-13048929D01*
X16730357Y-13106071D01*
X16716071Y-13134643D01*
X16701786Y-13148929D01*
X16673214Y-13163214D01*
X16644643Y-13163214D01*
X16616071Y-13148929D01*
X16601786Y-13134643D01*
X16587500Y-13106071D01*
X16573214Y-13048929D01*
X16573214Y-12977500D01*
X16587500Y-12920357D01*
X16601786Y-12891786D01*
X16616071Y-12877500D01*
X16644643Y-12863214D01*
X16930357Y-12863214D02*
X16958928Y-12863214D01*
X16987500Y-12877500D01*
X17001786Y-12891786D01*
X17016071Y-12920357D01*
X17030357Y-12977500D01*
X17030357Y-13048929D01*
X17016071Y-13106071D01*
X17001786Y-13134643D01*
X16987500Y-13148929D01*
X16958928Y-13163214D01*
X16930357Y-13163214D01*
X16901786Y-13148929D01*
X16887500Y-13134643D01*
X16873214Y-13106071D01*
X16858928Y-13048929D01*
X16858928Y-12977500D01*
X16873214Y-12920357D01*
X16887500Y-12891786D01*
X16901786Y-12877500D01*
X16930357Y-12863214D01*
X17158928Y-13163214D02*
X17158928Y-12963214D01*
X17158928Y-12991786D02*
X17173214Y-12977500D01*
X17201786Y-12963214D01*
X17244643Y-12963214D01*
X17273214Y-12977500D01*
X17287500Y-13006071D01*
X17287500Y-13163214D01*
X17287500Y-13006071D02*
X17301786Y-12977500D01*
X17330357Y-12963214D01*
X17373214Y-12963214D01*
X17401786Y-12977500D01*
X17416071Y-13006071D01*
X17416071Y-13163214D01*
X17558928Y-13163214D02*
X17558928Y-12963214D01*
X17558928Y-12991786D02*
X17573214Y-12977500D01*
X17601786Y-12963214D01*
X17644643Y-12963214D01*
X17673214Y-12977500D01*
X17687500Y-13006071D01*
X17687500Y-13163214D01*
X17687500Y-13006071D02*
X17701786Y-12977500D01*
X17730357Y-12963214D01*
X17773214Y-12963214D01*
X17801786Y-12977500D01*
X17816071Y-13006071D01*
X17816071Y-13163214D01*
X18401786Y-12848929D02*
X18144643Y-13234643D01*
X18787500Y-12863214D02*
X18816071Y-12863214D01*
X18844643Y-12877500D01*
X18858928Y-12891786D01*
X18873214Y-12920357D01*
X18887500Y-12977500D01*
X18887500Y-13048929D01*
X18873214Y-13106071D01*
X18858928Y-13134643D01*
X18844643Y-13148929D01*
X18816071Y-13163214D01*
X18787500Y-13163214D01*
X18758928Y-13148929D01*
X18744643Y-13134643D01*
X18730357Y-13106071D01*
X18716071Y-13048929D01*
X18716071Y-12977500D01*
X18730357Y-12920357D01*
X18744643Y-12891786D01*
X18758928Y-12877500D01*
X18787500Y-12863214D01*
X19016071Y-13134643D02*
X19030357Y-13148929D01*
X19016071Y-13163214D01*
X19001786Y-13148929D01*
X19016071Y-13134643D01*
X19016071Y-13163214D01*
X19216071Y-12863214D02*
X19244643Y-12863214D01*
X19273214Y-12877500D01*
X19287500Y-12891786D01*
X19301786Y-12920357D01*
X19316071Y-12977500D01*
X19316071Y-13048929D01*
X19301786Y-13106071D01*
X19287500Y-13134643D01*
X19273214Y-13148929D01*
X19244643Y-13163214D01*
X19216071Y-13163214D01*
X19187500Y-13148929D01*
X19173214Y-13134643D01*
X19158928Y-13106071D01*
X19144643Y-13048929D01*
X19144643Y-12977500D01*
X19158928Y-12920357D01*
X19173214Y-12891786D01*
X19187500Y-12877500D01*
X19216071Y-12863214D01*
X19416071Y-12863214D02*
X19601786Y-12863214D01*
X19501786Y-12977500D01*
X19544643Y-12977500D01*
X19573214Y-12991786D01*
X19587500Y-13006071D01*
X19601786Y-13034643D01*
X19601786Y-13106071D01*
X19587500Y-13134643D01*
X19573214Y-13148929D01*
X19544643Y-13163214D01*
X19458928Y-13163214D01*
X19430357Y-13148929D01*
X19416071Y-13134643D01*
X19744643Y-13163214D02*
X19801786Y-13163214D01*
X19830357Y-13148929D01*
X19844643Y-13134643D01*
X19873214Y-13091786D01*
X19887500Y-13034643D01*
X19887500Y-12920357D01*
X19873214Y-12891786D01*
X19858928Y-12877500D01*
X19830357Y-12863214D01*
X19773214Y-12863214D01*
X19744643Y-12877500D01*
X19730357Y-12891786D01*
X19716071Y-12920357D01*
X19716071Y-12991786D01*
X19730357Y-13020357D01*
X19744643Y-13034643D01*
X19773214Y-13048929D01*
X19830357Y-13048929D01*
X19858928Y-13034643D01*
X19873214Y-13020357D01*
X19887500Y-12991786D01*
X20001786Y-12863214D02*
X20001786Y-12920357D01*
X20116071Y-12863214D02*
X20116071Y-12920357D01*
X20558928Y-13277500D02*
X20544643Y-13263214D01*
X20516071Y-13220357D01*
X20501786Y-13191786D01*
X20487500Y-13148929D01*
X20473214Y-13077500D01*
X20473214Y-13020357D01*
X20487500Y-12948929D01*
X20501786Y-12906071D01*
X20516071Y-12877500D01*
X20544643Y-12834643D01*
X20558928Y-12820357D01*
X20644643Y-12863214D02*
X20830357Y-12863214D01*
X20730357Y-12977500D01*
X20773214Y-12977500D01*
X20801786Y-12991786D01*
X20816071Y-13006071D01*
X20830357Y-13034643D01*
X20830357Y-13106071D01*
X20816071Y-13134643D01*
X20801786Y-13148929D01*
X20773214Y-13163214D01*
X20687500Y-13163214D01*
X20658928Y-13148929D01*
X20644643Y-13134643D01*
X21187500Y-13163214D02*
X21187500Y-12863214D01*
X21316071Y-13163214D02*
X21316071Y-13006071D01*
X21301786Y-12977500D01*
X21273214Y-12963214D01*
X21230357Y-12963214D01*
X21201786Y-12977500D01*
X21187500Y-12991786D01*
X21501786Y-13163214D02*
X21473214Y-13148929D01*
X21458928Y-13134643D01*
X21444643Y-13106071D01*
X21444643Y-13020357D01*
X21458928Y-12991786D01*
X21473214Y-12977500D01*
X21501786Y-12963214D01*
X21544643Y-12963214D01*
X21573214Y-12977500D01*
X21587500Y-12991786D01*
X21601786Y-13020357D01*
X21601786Y-13106071D01*
X21587500Y-13134643D01*
X21573214Y-13148929D01*
X21544643Y-13163214D01*
X21501786Y-13163214D01*
X21773214Y-13163214D02*
X21744643Y-13148929D01*
X21730357Y-13120357D01*
X21730357Y-12863214D01*
X22001786Y-13148929D02*
X21973214Y-13163214D01*
X21916071Y-13163214D01*
X21887500Y-13148929D01*
X21873214Y-13120357D01*
X21873214Y-13006071D01*
X21887500Y-12977500D01*
X21916071Y-12963214D01*
X21973214Y-12963214D01*
X22001786Y-12977500D01*
X22016071Y-13006071D01*
X22016071Y-13034643D01*
X21873214Y-13063214D01*
X22130357Y-13148929D02*
X22158928Y-13163214D01*
X22216071Y-13163214D01*
X22244643Y-13148929D01*
X22258928Y-13120357D01*
X22258928Y-13106071D01*
X22244643Y-13077500D01*
X22216071Y-13063214D01*
X22173214Y-13063214D01*
X22144643Y-13048929D01*
X22130357Y-13020357D01*
X22130357Y-13006071D01*
X22144643Y-12977500D01*
X22173214Y-12963214D01*
X22216071Y-12963214D01*
X22244643Y-12977500D01*
X22358928Y-13277500D02*
X22373214Y-13263214D01*
X22401786Y-13220357D01*
X22416071Y-13191786D01*
X22430357Y-13148929D01*
X22444643Y-13077500D01*
X22444643Y-13020357D01*
X22430357Y-12948929D01*
X22416071Y-12906071D01*
X22401786Y-12877500D01*
X22373214Y-12834643D01*
X22358928Y-12820357D01*
M02*
